<svg width="16" height="16" viewBox="0 0 16 16" fill="none" xmlns="http://www.w3.org/2000/svg">
<g opacity="0.5">
<path d="M9.33514 14.0002H6.66847M12.0018 5.3335C12.0018 4.27263 11.5804 3.25521 10.8302 2.50507C10.0801 1.75492 9.06267 1.3335 8.0018 1.3335C6.94094 1.3335 5.92352 1.75492 5.17338 2.50507C4.42323 3.25521 4.0018 4.27263 4.0018 5.3335C4.0018 7.39362 3.48212 8.80413 2.90158 9.7371C2.41189 10.5241 2.16704 10.9176 2.17602 11.0273C2.18596 11.1489 2.21171 11.1952 2.30965 11.2679C2.39811 11.3335 2.79686 11.3335 3.59437 11.3335H12.4092C13.2067 11.3335 13.6055 11.3335 13.694 11.2679C13.7919 11.1952 13.8176 11.1489 13.8276 11.0273C13.8366 10.9176 13.5917 10.5241 13.102 9.73711C12.5215 8.80413 12.0018 7.39362 12.0018 5.3335Z" stroke="white" stroke-width="1.25" stroke-linecap="round" stroke-linejoin="round"/>
</g>
</svg>
