<svg width="20" height="20" viewBox="0 0 20 20" fill="none" xmlns="http://www.w3.org/2000/svg">
<path d="M17.5 8.33317H2.5M13.3333 1.6665V4.99984M6.66667 1.6665V4.99984M6.5 18.3332H13.5H17.5V14.3332V7.33317C17.5 5.93304 17.5 5.23297 17.2275 4.69819C16.9878 4.22779 16.6054 3.84534 16.135 3.60565C15.6002 3.33317 14.9001 3.33317 13.5 3.33317H6.5H2.5C2.5 3.33317 2.5 5.93304 2.5 7.33317V14.3332C2.5 15.7333 2.5 16.4334 2.77248 16.9681C3.01217 17.4386 3.39462 17.821 3.86502 18.0607C4.3998 18.3332 5.09987 18.3332 6.5 18.3332Z" stroke="#49C742" stroke-width="1.5" stroke-linecap="square" stroke-linejoin="round"/>
</svg>
