<svg width="20" height="20" viewBox="0 0 20 20" fill="none" xmlns="http://www.w3.org/2000/svg">
<path d="M18.3346 9.58317V12.1665C18.3346 14.0333 18.3346 14.9668 17.9713 15.6798C17.6517 16.307 17.1418 16.8169 16.5146 17.1365C15.8016 17.4998 14.8681 17.4998 13.0013 17.4998H7.0013C5.13446 17.4998 4.20104 17.4998 3.488 17.1365C2.86079 16.8169 2.35086 16.307 2.03128 15.6798C1.66797 14.9668 1.66797 14.0333 1.66797 12.1665V7.83317C1.66797 5.96633 1.66797 5.03291 2.03128 4.31987C2.35086 3.69266 2.86079 3.18273 3.488 2.86315C4.20104 2.49984 5.13446 2.49984 7.0013 2.49984H10.418M15.8346 6.6665V1.6665M13.3346 4.1665H18.3346M13.3346 9.99984C13.3346 11.8408 11.8423 13.3332 10.0013 13.3332C8.16035 13.3332 6.66797 11.8408 6.66797 9.99984C6.66797 8.15889 8.16035 6.6665 10.0013 6.6665C11.8423 6.6665 13.3346 8.15889 13.3346 9.99984Z" stroke="white" stroke-width="1.25" stroke-linecap="round" stroke-linejoin="round"/>
</svg>
