<svg width="20" height="20" viewBox="0 0 20 20" fill="none" xmlns="http://www.w3.org/2000/svg">
<path d="M16.9931 16.6348L17.1394 17.3704L16.9931 16.6348ZM18.3026 15.3253L19.0382 15.4716V15.4716L18.3026 15.3253ZM3.00949 16.6348L2.86317 17.3704H2.86317L3.00949 16.6348ZM1.69999 15.3253L0.964404 15.4716V15.4716L1.69999 15.3253ZM16.9696 8.60598L16.6291 9.27423H16.6291L16.9696 8.60598ZM18.0622 9.69852L18.7304 9.35803V9.35803L18.0622 9.69852ZM3.03299 8.60598L3.37349 9.27423L3.03299 8.60598ZM1.94045 9.69852L2.60871 10.039L2.60871 10.039L1.94045 9.69852ZM15.6091 5.15689L14.8976 5.39406V5.39406L15.6091 5.15689ZM16.668 8.3335L15.9565 8.57067C16.0252 8.77693 16.1801 8.9432 16.381 9.02641C16.5818 9.10961 16.8089 9.10155 17.0034 9.00432L16.668 8.3335ZM3.33464 8.3335L2.99923 9.00432C3.19369 9.10155 3.42078 9.10961 3.62165 9.02641C3.82252 8.9432 3.97739 8.77693 4.04615 8.57067L3.33464 8.3335ZM14.41 3.44914L14.6846 2.75118V2.75118L14.41 3.44914ZM15.0786 3.93098L14.5032 4.41211L14.5032 4.41211L15.0786 3.93098ZM5.59256 3.44914L5.31805 2.75118H5.31805L5.59256 3.44914ZM4.92404 3.93098L4.34871 3.44985L4.34871 3.44985L4.92404 3.93098ZM4.16797 10.0835C3.75376 10.0835 3.41797 10.4193 3.41797 10.8335C3.41797 11.2477 3.75376 11.5835 4.16797 11.5835V10.0835ZM6.66797 11.5835C7.08218 11.5835 7.41797 11.2477 7.41797 10.8335C7.41797 10.4193 7.08218 10.0835 6.66797 10.0835V11.5835ZM2.00338 6.82934C1.6329 6.6441 1.18239 6.79427 0.997148 7.16475C0.811906 7.53524 0.962075 7.98574 1.33256 8.17098L2.00338 6.82934ZM18.67 8.17098C19.0405 7.98574 19.1907 7.53524 19.0055 7.16475C18.8202 6.79427 18.3697 6.6441 17.9992 6.82934L18.67 8.17098ZM13.3346 10.0835C12.9204 10.0835 12.5846 10.4193 12.5846 10.8335C12.5846 11.2477 12.9204 11.5835 13.3346 11.5835V10.0835ZM15.8346 11.5835C16.2488 11.5835 16.5846 11.2477 16.5846 10.8335C16.5846 10.4193 16.2488 10.0835 15.8346 10.0835V11.5835ZM5.66797 9.0835H14.3346V7.5835H5.66797V9.0835ZM13.7513 13.8335H6.2513V15.3335H13.7513V13.8335ZM4.16797 15.9168H3.7513V17.4168H4.16797V15.9168ZM16.2513 15.9168H15.8346V17.4168H16.2513V15.9168ZM2.41797 14.5835V12.3335H0.917969V14.5835H2.41797ZM17.5846 12.3335V14.5835H19.0846V12.3335H17.5846ZM16.2513 17.4168C16.6026 17.4168 16.8877 17.4205 17.1394 17.3704L16.8468 15.8992C16.7765 15.9132 16.6745 15.9168 16.2513 15.9168V17.4168ZM17.5846 14.5835C17.5846 15.0067 17.581 15.1087 17.567 15.179L19.0382 15.4716C19.0883 15.2199 19.0846 14.9348 19.0846 14.5835H17.5846ZM17.1394 17.3704C18.0981 17.1797 18.8475 16.4303 19.0382 15.4716L17.567 15.179C17.4947 15.5426 17.2104 15.8269 16.8468 15.8992L17.1394 17.3704ZM13.418 15.0002C13.418 16.3349 14.4999 17.4168 15.8346 17.4168V15.9168C15.3284 15.9168 14.918 15.5064 14.918 15.0002H13.418ZM5.08464 15.0002C5.08464 15.5064 4.67423 15.9168 4.16797 15.9168V17.4168C5.50266 17.4168 6.58464 16.3349 6.58464 15.0002H5.08464ZM3.7513 15.9168C3.32814 15.9168 3.22609 15.9132 3.1558 15.8992L2.86317 17.3704C3.11488 17.4205 3.40004 17.4168 3.7513 17.4168V15.9168ZM0.917969 14.5835C0.917969 14.9348 0.914336 15.2199 0.964404 15.4716L2.43558 15.179C2.4216 15.1087 2.41797 15.0067 2.41797 14.5835H0.917969ZM3.1558 15.8992C2.79217 15.8269 2.50791 15.5426 2.43558 15.179L0.964404 15.4716C1.1551 16.4303 1.9045 17.1797 2.86317 17.3704L3.1558 15.8992ZM6.2513 13.8335C5.60697 13.8335 5.08464 14.3558 5.08464 15.0002H6.58464C6.58464 15.1843 6.4354 15.3335 6.2513 15.3335V13.8335ZM13.7513 15.3335C13.5672 15.3335 13.418 15.1843 13.418 15.0002H14.918C14.918 14.3558 14.3956 13.8335 13.7513 13.8335V15.3335ZM14.3346 9.0835C15.0471 9.0835 15.5363 9.08408 15.9156 9.11507C16.2861 9.14534 16.4851 9.20084 16.6291 9.27423L17.3101 7.93773C16.9194 7.73863 16.501 7.6579 16.0377 7.62005C15.5832 7.58291 15.0223 7.5835 14.3346 7.5835V9.0835ZM19.0846 12.3335C19.0846 11.6458 19.0852 11.0849 19.0481 10.6304C19.0102 10.1672 18.9295 9.74877 18.7304 9.35803L17.3939 10.039C17.4673 10.1831 17.5228 10.3821 17.5531 10.7526C17.5841 11.1318 17.5846 11.6211 17.5846 12.3335H19.0846ZM16.6291 9.27423C16.9584 9.44201 17.2261 9.70973 17.3939 10.039L18.7304 9.35803C18.4188 8.7465 17.9216 8.24931 17.3101 7.93772L16.6291 9.27423ZM5.66797 7.5835C4.98028 7.5835 4.41941 7.58291 3.9649 7.62005C3.50164 7.6579 3.08324 7.73863 2.6925 7.93773L3.37349 9.27423C3.51752 9.20084 3.71655 9.14534 4.08705 9.11507C4.4663 9.08408 4.95553 9.0835 5.66797 9.0835V7.5835ZM2.41797 12.3335C2.41797 11.6211 2.41855 11.1318 2.44954 10.7526C2.47981 10.3821 2.53532 10.1831 2.60871 10.039L1.2722 9.35803C1.07311 9.74877 0.99237 10.1672 0.95452 10.6304C0.917385 11.0849 0.917969 11.6458 0.917969 12.3335H2.41797ZM2.6925 7.93773C2.08097 8.24931 1.58379 8.7465 1.2722 9.35803L2.60871 10.039C2.77649 9.70973 3.0442 9.44201 3.37349 9.27423L2.6925 7.93773ZM6.92333 4.0835H13.0793V2.5835H6.92333V4.0835ZM14.8976 5.39406L15.9565 8.57067L17.3795 8.09632L16.3206 4.91972L14.8976 5.39406ZM4.04615 8.57067L5.10502 5.39406L3.68199 4.91972L2.62312 8.09632L4.04615 8.57067ZM13.0793 4.0835C13.8344 4.0835 14.0059 4.0961 14.1355 4.1471L14.6846 2.75118C14.2261 2.57089 13.7064 2.5835 13.0793 2.5835V4.0835ZM16.3206 4.91972C16.1223 4.32474 15.9699 3.82772 15.6539 3.44985L14.5032 4.41211C14.5926 4.51901 14.6588 4.67767 14.8976 5.39406L16.3206 4.91972ZM14.1355 4.1471C14.2784 4.20327 14.4048 4.29439 14.5032 4.41211L15.6539 3.44985C15.3944 3.13949 15.0611 2.89926 14.6846 2.75118L14.1355 4.1471ZM6.92333 2.5835C6.29617 2.5835 5.77646 2.57089 5.31805 2.75118L5.86706 4.1471C5.99674 4.0961 6.16818 4.0835 6.92333 4.0835V2.5835ZM5.10502 5.39406C5.34381 4.67767 5.40999 4.51901 5.49938 4.41211L4.34871 3.44985C4.0327 3.82772 3.88032 4.32474 3.68199 4.91972L5.10502 5.39406ZM5.31805 2.75118C4.94155 2.89926 4.60825 3.13949 4.34871 3.44985L5.49938 4.41211C5.59782 4.29439 5.72425 4.20327 5.86706 4.1471L5.31805 2.75118ZM4.16797 11.5835H6.66797V10.0835H4.16797V11.5835ZM1.33256 8.17098L2.99923 9.00432L3.67005 7.66268L2.00338 6.82934L1.33256 8.17098ZM17.0034 9.00432L18.67 8.17098L17.9992 6.82934L16.3326 7.66268L17.0034 9.00432ZM13.3346 11.5835H15.8346V10.0835H13.3346V11.5835Z" fill="white"/>
</svg>
