<svg width="68" height="68" viewBox="0 0 68 68" fill="none" xmlns="http://www.w3.org/2000/svg">
<g filter="url(#filter0_d_8091_24024)">
<rect x="2" y="1" width="64" height="64" rx="32" fill="white" fill-opacity="0.5"/>
<g clip-path="url(#clip0_8091_24024)">
<path d="M34 30V34M34 34.5V36.01" stroke="white" stroke-width="1.5"/>
<path d="M27 40H41C42.1 39.99 42.99 39.09 42.98 37.98C42.97 37.72 42.92 37.47 42.83 37.24L35.73 24.99C35.19 24.02 33.97 23.67 33.01 24.2C32.68 24.38 32.41 24.65 32.22 24.98L25.12 37.23C24.7 38.25 25.19 39.41 26.22 39.83C26.42 39.91 26.64 39.96 26.86 39.97" stroke="white" stroke-width="1.5"/>
</g>
</g>
<defs>
<filter id="filter0_d_8091_24024" x="0" y="0" width="68" height="68" filterUnits="userSpaceOnUse" color-interpolation-filters="sRGB">
<feFlood flood-opacity="0" result="BackgroundImageFix"/>
<feColorMatrix in="SourceAlpha" type="matrix" values="0 0 0 0 0 0 0 0 0 0 0 0 0 0 0 0 0 0 127 0" result="hardAlpha"/>
<feOffset dy="1"/>
<feGaussianBlur stdDeviation="1"/>
<feColorMatrix type="matrix" values="0 0 0 0 0.0627451 0 0 0 0 0.0941176 0 0 0 0 0.156863 0 0 0 0.05 0"/>
<feBlend mode="normal" in2="BackgroundImageFix" result="effect1_dropShadow_8091_24024"/>
<feBlend mode="normal" in="SourceGraphic" in2="effect1_dropShadow_8091_24024" result="shape"/>
</filter>
<clipPath id="clip0_8091_24024">
<rect width="24" height="24" fill="white" transform="translate(22 21)"/>
</clipPath>
</defs>
</svg>
