<svg width="681" height="280" viewBox="0 0 681 280" fill="none" xmlns="http://www.w3.org/2000/svg">
<g opacity="0.2" clip-path="url(#clip0_5719_199340)">
<path d="M272.578 394.764L355.389 251.524L375.959 215.941H375.979L420.627 138.717L611.824 -191.992H505.322L460.678 -114.768H460.674L440.104 -79.1855H440.084L395.44 -1.96143H395.436L312.625 141.278L121.432 471.988H227.93L272.574 394.764H272.578Z" fill="#184C80"/>
<path d="M151.146 394.784L295.768 144.625H295.764L407.562 -48.7525L490.373 -191.992H383.87L339.227 -114.768H339.223L256.416 28.4716H256.412L112.887 276.732H112.891L0 472.008H106.498L151.142 394.784H151.146Z" fill="#184C80"/>
<path d="M733.41 -191.992H626.911L582.267 -114.768H582.264L391.07 215.941H391.078L320.862 337.396H320.866L243.057 471.988H349.555L394.199 394.764H394.203L538.825 144.605H538.821L554.819 116.932L699.441 -133.226H699.437L733.41 -191.992Z" fill="#184C80"/>
</g>
<defs>
<clipPath id="clip0_5719_199340">
<rect width="733.418" height="664" fill="white" transform="translate(0 -192)"/>
</clipPath>
</defs>
</svg>
