<svg width="24" height="24" viewBox="0 0 24 24" fill="none" xmlns="http://www.w3.org/2000/svg">
<path d="M2 12.0005C2 14.6527 3.05357 17.1962 4.92893 19.0716C6.8043 20.9469 9.34784 22.0005 12 22.0005C14.6522 22.0005 17.1957 20.9469 19.0711 19.0716C20.9464 17.1962 22 14.6527 22 12.0005C22 9.34832 20.9464 6.80478 19.0711 4.92942C17.1957 3.05406 14.6522 2.00049 12 2.00049C9.34784 2.00049 6.8043 3.05406 4.92893 4.92942C3.05357 6.80478 2 9.34832 2 12.0005Z" stroke="white" stroke-width="1.5"/>
<path d="M12 8.00098V5.50098" stroke="white" stroke-width="1.5"/>
<path d="M12 18.501V16.001" stroke="white" stroke-width="1.5"/>
<path d="M15 10.0005V9.00049C15 8.73527 14.8946 8.48092 14.7071 8.29338C14.5196 8.10585 14.2652 8.00049 14 8.00049H10C9.73478 8.00049 9.48043 8.10585 9.29289 8.29338C9.10536 8.48092 9 8.73527 9 9.00049V10.2205C9.00001 10.4434 9.0745 10.66 9.21166 10.8357C9.34881 11.0114 9.54075 11.1363 9.757 11.1905L14.243 12.3105C14.4592 12.3647 14.6512 12.4895 14.7883 12.6653C14.9255 12.841 15 13.0576 15 13.2805V15.0005C15 15.2657 14.8946 15.5201 14.7071 15.7076C14.5196 15.8951 14.2652 16.0005 14 16.0005H10C9.73478 16.0005 9.48043 15.8951 9.29289 15.7076C9.10536 15.5201 9 15.2657 9 15.0005V14.0005" stroke="white" stroke-width="1.5"/>
</svg>
