<svg width="16" height="16" viewBox="0 0 16 16" fill="none" xmlns="http://www.w3.org/2000/svg">
<path d="M7.9987 8.6665C8.36689 8.6665 8.66536 8.36803 8.66536 7.99984C8.66536 7.63165 8.36689 7.33317 7.9987 7.33317C7.63051 7.33317 7.33203 7.63165 7.33203 7.99984C7.33203 8.36803 7.63051 8.6665 7.9987 8.6665Z" stroke="white" stroke-width="1.5" stroke-linecap="round" stroke-linejoin="round"/>
<path d="M7.9987 3.99984C8.36689 3.99984 8.66536 3.70136 8.66536 3.33317C8.66536 2.96498 8.36689 2.6665 7.9987 2.6665C7.63051 2.6665 7.33203 2.96498 7.33203 3.33317C7.33203 3.70136 7.63051 3.99984 7.9987 3.99984Z" stroke="white" stroke-width="1.5" stroke-linecap="round" stroke-linejoin="round"/>
<path d="M7.9987 13.3332C8.36689 13.3332 8.66536 13.0347 8.66536 12.6665C8.66536 12.2983 8.36689 11.9998 7.9987 11.9998C7.63051 11.9998 7.33203 12.2983 7.33203 12.6665C7.33203 13.0347 7.63051 13.3332 7.9987 13.3332Z" stroke="white" stroke-width="1.5" stroke-linecap="round" stroke-linejoin="round"/>
</svg>
