<svg width="24" height="24" viewBox="0 0 24 24" fill="none" xmlns="http://www.w3.org/2000/svg">
<g clip-path="url(#clip0_5678_242692)">
<path d="M24 12C24 5.37 18.62 0 12 0C5.37 0 0 5.37 0 12C0 18.62 5.37 24 12 24C12.02 24 12.04 24 12.06 24C12.08 24 12.1 24 12.12 24C18.67 23.99 23.979 18.68 23.989 12.12C23.989 12.09 23.989 12.07 23.989 12.05C23.989 12.02 23.989 12 23.989 11.98L24 12ZM22 12C21.99 12.88 21.87 13.77 21.64 14.63C21.56 14.89 21.29 15.05 21.02 14.97C20.99 14.96 20.97 14.95 20.95 14.94C20.33 14.67 19.8 14.23 19.43 13.67L17.212 10.34C16.742 9.64 15.962 9.22 15.132 9.22H14.692C13.172 9.22 11.942 7.98 11.942 6.47C11.942 4.95 13.172 3.72 14.692 3.72H17.462C17.562 3.72 17.662 3.75 17.742 3.81C20.382 5.68 21.962 8.72 21.969 11.96L22 12ZM2.17 10.15C2.21 9.91 2.42 9.74 2.66 9.75H7C7.92 9.74 8.82 10.11 9.47 10.77L10.58 11.89C11.88 13.2 11.95 15.3 10.72 16.69L9.36 18.219C8.95 18.669 8.72 19.259 8.72 19.879V20.699C8.71 20.969 8.49 21.189 8.21 21.189C8.14 21.179 8.07 21.169 8.01 21.139C4.34 19.559 1.96 15.949 1.96 11.959C1.96 11.339 2.02 10.718 2.13 10.108L2.17 10.15Z" fill="#53944F"/>
</g>
<defs>
<clipPath id="clip0_5678_242692">
<rect width="24" height="24" fill="white"/>
</clipPath>
</defs>
</svg>
