<?xml version="1.0" standalone="no"?>
<!DOCTYPE svg PUBLIC "-//W3C//DTD SVG 20010904//EN"
 "http://www.w3.org/TR/2001/REC-SVG-20010904/DTD/svg10.dtd">
<svg version="1.0" xmlns="http://www.w3.org/2000/svg"
 width="100.000000pt" height="100.000000pt" viewBox="0 0 100.000000 100.000000"
 preserveAspectRatio="xMidYMid meet">

<g transform="translate(0.000000,100.000000) scale(0.100000,-0.100000)"
fill="#000000" stroke="none">
<path d="M531 894 c-68 -40 -117 -76 -123 -90 -16 -34 4 -73 41 -80 19 -4 35
-17 47 -40 10 -18 16 -35 14 -37 -3 -2 -97 -54 -210 -116 -113 -61 -217 -125
-232 -142 -35 -37 -35 -72 -2 -106 41 -41 71 -29 302 126 l211 140 22 -36 c13
-20 22 -49 21 -65 -3 -31 28 -68 56 -68 22 0 232 124 250 147 6 9 12 25 12 35
0 25 -35 58 -62 58 -34 1 -170 227 -162 269 7 33 -22 71 -54 71 -10 0 -69 -30
-131 -66z m144 6 c0 -18 -205 -142 -223 -135 -26 10 -5 30 99 92 102 62 124
69 124 43z m75 -181 c39 -66 70 -122 68 -124 -12 -11 -160 -96 -162 -94 -2 2
-29 46 -60 97 -31 51 -63 103 -71 116 -16 24 -15 25 67 75 46 28 84 51 84 51
1 0 34 -54 74 -121z m-201 -118 c10 -17 -12 -34 -205 -161 -118 -77 -222 -140
-231 -138 -25 5 -40 35 -28 54 8 12 400 240 452 263 1 1 7 -8 12 -18z m346
-41 c0 -18 -205 -142 -223 -135 -26 10 -5 30 99 92 102 62 124 69 124 43z"/>
<path d="M500 140 c-13 -13 -20 -33 -20 -60 l0 -40 240 0 240 0 0 40 c0 27 -7
47 -20 60 -19 19 -33 20 -220 20 -187 0 -201 -1 -220 -20z m418 -42 c3 -17
-11 -18 -197 -18 -161 0 -201 3 -201 13 0 8 3 17 7 21 4 3 92 5 197 4 172 -3
191 -5 194 -20z"/>
</g>
</svg>
