<svg width="21" height="20" viewBox="0 0 21 20" fill="none" xmlns="http://www.w3.org/2000/svg">
<g clip-path="url(#clip0_6046_14601)">
<path d="M10.4993 5.83324H6.74935C6.19102 5.83324 5.66602 5.60824 5.27435 5.21657C4.88268 4.8249 4.65768 4.29157 4.65768 3.74157C4.65768 3.18324 4.87435 2.65824 5.26602 2.26657C5.64935 1.8749 6.18268 1.6499 6.73268 1.6499C9.64935 1.6499 10.4827 5.81657 10.4827 5.81657M10.4993 5.83324L10.4827 5.81657M10.4993 5.83324H14.2493C14.7993 5.83324 15.3243 5.60824 15.716 5.21657C16.0993 4.8249 16.3243 4.29157 16.3243 3.74157C16.3243 3.18324 16.0993 2.65824 15.7077 2.26657C15.316 1.8749 14.7827 1.6499 14.2327 1.6499C11.316 1.6499 10.4827 5.81657 10.4827 5.81657M10.4993 5.83324V18.3332M2.16602 11.6666H18.8327M2.16602 18.3332V5.7999C2.16602 5.7999 3.84935 5.7999 4.79102 5.7999H18.7993V18.3166H16.1493H4.81602L2.16602 18.3332Z" stroke="white" stroke-width="1.5" stroke-linejoin="round"/>
</g>
<defs>
<clipPath id="clip0_6046_14601">
<rect width="20" height="20" fill="white" transform="translate(0.5)"/>
</clipPath>
</defs>
</svg>
