<svg width="45" height="40" viewBox="0 0 45 40" fill="none" xmlns="http://www.w3.org/2000/svg">
<g clip-path="url(#clip0_5731_198529)">
<path d="M16.3976 35.3472L21.3795 26.7183L22.617 24.5748H22.6182L25.3042 19.9228L36.8066 0.000488281H30.3994L27.7137 4.65254H27.7135L26.4759 6.79607H26.4747L23.789 11.4481H23.7887L18.8069 20.077L7.30469 39.9993H13.7116L16.3974 35.3472H16.3976Z" fill="#53944F"/>
<path d="M9.09291 35.3484L17.7933 20.2787H17.7931L24.5188 8.62939L29.5007 0.000488281H23.0936L20.4078 4.65254H20.4076L15.4259 13.2814H15.4257L6.79128 28.2369H6.79152L0 40.0005H6.40692L9.09267 35.3484H9.09291Z" fill="#53944F"/>
<path d="M44.1226 0.000488281H37.7157L35.0299 4.65254H35.0297L23.5275 24.5748H23.528L19.3038 31.8913H19.304L14.623 39.9993H21.03L23.7157 35.3472H23.716L32.4164 20.2775H32.4161L33.3786 18.6104L42.079 3.54059H42.0788L44.1226 0.000488281Z" fill="#53944F"/>
</g>
<defs>
<clipPath id="clip0_5731_198529">
<rect width="44.1223" height="40" fill="white"/>
</clipPath>
</defs>
</svg>
