<svg width="177" height="32" viewBox="0 0 177 32" fill="none" xmlns="http://www.w3.org/2000/svg">
<path d="M48.0153 8.15527V22.3231H44.0746V16.6388H39.2697V22.3281H35.3301V8.16033H39.2697V13.4874H44.0746V8.15527H48.0153Z" fill="white"/>
<path d="M50.4587 13.6217C50.8803 12.7514 51.4565 12.0815 52.1871 11.6119C52.9145 11.1416 53.764 10.8953 54.6301 10.9035C55.4073 10.9035 56.0775 11.0577 56.6409 11.366C57.1821 11.6544 57.6339 12.0856 57.9474 12.6128V11.0492H61.888V22.3268H57.9474V20.7592C57.632 21.2878 57.1767 21.7189 56.6318 22.005C56.0143 22.3247 55.3262 22.4838 54.6311 22.4675C53.765 22.4757 52.9155 22.2294 52.1881 21.7591C51.4575 21.2909 50.8813 20.6162 50.4597 19.7351C50.038 18.854 49.8268 17.8319 49.8262 16.6688C49.8255 15.5091 50.0363 14.4934 50.4587 13.6217ZM57.3543 14.9687C57.1647 14.7727 56.9378 14.6167 56.6869 14.5098C56.4361 14.4029 56.1663 14.3474 55.8936 14.3464C55.621 14.3455 55.3508 14.3992 55.0992 14.5043C54.8476 14.6094 54.6196 14.7639 54.4287 14.9585C54.0401 15.3687 53.8458 15.9422 53.8458 16.6789C53.8458 17.4028 54.0401 17.9763 54.4287 18.3993C54.613 18.6045 54.8397 18.7673 55.093 18.8765C55.3463 18.9857 55.6203 19.0387 55.8961 19.0318C56.1693 19.0369 56.4405 18.984 56.6918 18.8767C56.9432 18.7695 57.169 18.6102 57.3543 18.4094C57.749 17.9932 57.9467 17.4167 57.9474 16.6799C57.9474 15.9554 57.7497 15.3849 57.3543 14.9687Z" fill="white"/>
<path d="M82.425 12.2363C83.2346 13.0938 83.6393 14.2664 83.6393 15.754V22.3319H79.7017V16.2772C79.7017 15.6741 79.533 15.2048 79.1957 14.8695C78.8584 14.5342 78.4027 14.3656 77.8285 14.3635C77.2517 14.3635 76.796 14.5322 76.4613 14.8695C76.1267 15.2069 75.958 15.6761 75.9553 16.2772V22.3279H72.0218V16.2772C72.0218 15.6741 71.8575 15.2048 71.5289 14.8695C71.2004 14.5342 70.748 14.3656 70.1718 14.3635C69.5815 14.3635 69.119 14.5322 68.7844 14.8695C68.4498 15.2069 68.2811 15.6761 68.2784 16.2772V22.3279H64.3418V11.0503H68.2825V12.5379C68.6366 12.0501 69.1018 11.6536 69.6395 11.3812C70.2361 11.0838 70.8959 10.9355 71.5623 10.9491C72.3373 10.9352 73.1026 11.1225 73.7836 11.4925C74.4281 11.849 74.9607 12.3777 75.3218 13.0196C75.7253 12.4019 76.2694 11.8886 76.9096 11.5219C77.5691 11.1397 78.3192 10.9418 79.0814 10.9491C80.4995 10.9491 81.614 11.3782 82.425 12.2363Z" fill="white"/>
<path d="M104.076 12.2363C104.886 13.0938 105.291 14.2664 105.291 15.754V22.3319H101.35V16.2772C101.35 15.6741 101.181 15.2048 100.844 14.8695C100.507 14.5342 100.051 14.3656 99.4769 14.3635C98.9007 14.3635 98.4453 14.5322 98.1107 14.8695C97.7761 15.2069 97.6074 15.6761 97.6047 16.2772V22.3279H93.664V16.2772C93.664 15.6741 93.4998 15.2048 93.1712 14.8695C92.8427 14.5342 92.3906 14.3656 91.8151 14.3635C91.2255 14.3635 90.763 14.5322 90.4277 14.8695C90.0924 15.2069 89.9238 15.6761 89.9217 16.2772V22.3279H85.9922V11.0503H89.9329V12.5379C90.287 12.0501 90.7521 11.6536 91.2899 11.3812C91.8865 11.0838 92.5463 10.9355 93.2127 10.9491C93.9894 10.9343 94.7566 11.1216 95.4391 11.4925C96.0838 11.8487 96.6165 12.3775 96.9773 13.0196C97.3814 12.4021 97.9258 11.8889 98.5661 11.5219C99.2251 11.1394 99.9749 10.9416 100.737 10.9491C102.152 10.9491 103.265 11.3782 104.076 12.2363Z" fill="white"/>
<path d="M118.359 17.4834H110.901C110.941 18.0994 111.112 18.5581 111.414 18.8597C111.566 19.01 111.746 19.1277 111.945 19.2054C112.144 19.2832 112.356 19.3195 112.57 19.3121C113.227 19.3121 113.696 19.0172 113.977 18.4276H118.179C118.012 19.1918 117.665 19.9051 117.167 20.5082C116.653 21.1276 116.003 21.6197 115.268 21.9462C114.472 22.3008 113.609 22.479 112.738 22.4684C111.624 22.4684 110.636 22.2323 109.773 21.76C108.916 21.2999 108.21 20.6015 107.742 19.7492C107.253 18.8789 107.008 17.8538 107.008 16.6738C107.007 15.4938 107.248 14.4717 107.731 13.6075C108.198 12.7592 108.901 12.0645 109.755 11.6078C110.62 11.1355 111.615 10.8994 112.741 10.8994C113.853 10.8994 114.838 11.1274 115.696 11.5835C116.542 12.0278 117.241 12.7089 117.707 13.5437C118.189 14.3945 118.43 15.3963 118.43 16.5493C118.427 16.8619 118.403 17.1739 118.359 17.4834ZM114.399 15.5728C114.399 15.0911 114.238 14.7126 113.917 14.4373C113.579 14.157 113.149 14.0105 112.71 14.0254C112.228 14.0254 111.833 14.156 111.524 14.4171C111.216 14.6782 111.014 15.0634 110.917 15.5728H114.399Z" fill="white"/>
<path d="M125.777 11.5119C126.39 11.1419 127.092 10.9473 127.807 10.9492V15.151H126.702C125.844 15.151 125.207 15.3197 124.792 15.657C124.376 15.9943 124.169 16.5772 124.169 17.4057V22.331H120.229V11.0504H124.169V13.04C124.587 12.4195 125.136 11.898 125.777 11.5119Z" fill="white"/>
<path d="M130.703 21.2928C129.644 20.5088 129.074 19.3865 128.994 17.9259H133.196C133.236 18.4217 133.384 18.7834 133.638 19.0107C133.904 19.2197 134.229 19.339 134.567 19.3518C134.905 19.3645 135.238 19.2699 135.518 19.0816C135.633 18.9934 135.725 18.8788 135.786 18.7476C135.847 18.6163 135.876 18.4723 135.87 18.3276C135.87 17.9127 135.675 17.5909 135.287 17.3622C134.898 17.1335 134.268 16.8791 133.397 16.5992C132.63 16.3541 131.881 16.0548 131.156 15.7036C130.569 15.4018 130.06 14.9685 129.668 14.4376C129.246 13.8816 129.035 13.1544 129.035 12.2557C129.035 11.3449 129.262 10.5644 129.718 9.91399C130.192 9.24952 130.849 8.73642 131.608 8.43649C132.476 8.08834 133.405 7.91634 134.34 7.9305C135.989 7.9305 137.304 8.31606 138.287 9.08719C139.27 9.85833 139.796 10.9405 139.866 12.3336H135.583C135.57 11.9046 135.44 11.5827 135.192 11.3682C134.923 11.1478 134.583 11.0337 134.236 11.0474C133.97 11.0368 133.711 11.1305 133.513 11.3085C133.324 11.4826 133.231 11.7305 133.231 12.0523C133.23 12.1835 133.258 12.3133 133.311 12.433C133.365 12.5526 133.444 12.6592 133.543 12.7455C133.772 12.9552 134.033 13.1261 134.317 13.2515C134.625 13.3918 135.081 13.5693 135.684 13.7838C136.447 14.034 137.191 14.3384 137.911 14.6946C138.5 15.0013 139.015 15.4339 139.419 15.9616C139.84 16.5013 140.051 17.1881 140.052 18.022C140.064 18.8245 139.844 19.6132 139.419 20.2939C138.971 20.9857 138.337 21.5363 137.589 21.8817C136.791 22.271 135.85 22.4653 134.764 22.4646C133.118 22.4673 131.765 22.0767 130.703 21.2928Z" fill="white"/>
<path d="M152.567 12.2469C153.324 13.1112 153.703 14.2804 153.704 15.7545V22.3324H149.763V16.2777C149.763 15.6341 149.595 15.1281 149.257 14.7597C148.92 14.3913 148.471 14.2068 147.91 14.2061C147.321 14.2061 146.858 14.3907 146.523 14.7597C146.188 15.1287 146.019 15.6347 146.017 16.2777V22.3283H142.076V7.45215H146.017V12.6598C146.38 12.1373 146.867 11.7125 147.434 11.4232C148.071 11.0985 148.779 10.9362 149.495 10.9506C150.786 10.9499 151.81 11.382 152.567 12.2469Z" fill="white"/>
<path d="M156.385 9.43164C156.181 9.25288 156.019 9.03158 155.909 8.7833C155.8 8.53502 155.747 8.26581 155.753 7.99461C155.746 7.71885 155.799 7.44487 155.908 7.19155C156.017 6.93823 156.18 6.71159 156.385 6.52723C156.808 6.13863 157.368 5.94434 158.064 5.94434C158.748 5.94434 159.301 6.13863 159.723 6.52723C159.928 6.71154 160.091 6.93815 160.2 7.19146C160.31 7.44478 160.363 7.71878 160.356 7.99461C160.362 8.26588 160.308 8.53512 160.199 8.78339C160.089 9.03166 159.927 9.25293 159.723 9.43164C159.3 9.81417 158.747 10.0051 158.064 10.0044C157.366 10.0044 156.807 9.81349 156.385 9.43164ZM160.014 11.0508V22.3284H156.076V11.0508H160.014Z" fill="white"/>
<path d="M168.559 14.3269H166.79V22.3277H162.829V14.3269H161.604V11.0501H162.829V10.9489C162.829 9.50178 163.255 8.39264 164.106 7.62151C164.958 6.85037 166.18 6.46515 167.775 6.46582C168.096 6.46582 168.345 6.47257 168.519 6.48606V9.84383C168.372 9.82856 168.224 9.8218 168.076 9.82359C167.647 9.82359 167.332 9.92074 167.132 10.115C166.932 10.3093 166.818 10.621 166.79 11.0501H168.559V14.3269Z" fill="white"/>
<path d="M176.824 18.9706V22.3273H175.114C172.233 22.3273 170.792 20.9001 170.792 18.0456V14.3266H169.404V11.0497H170.792V8.31738H174.753V11.0497H176.803V14.3266H174.753V18.1053C174.753 18.4143 174.823 18.6356 174.963 18.7692C175.103 18.9028 175.342 18.9702 175.678 18.9716L176.824 18.9706Z" fill="white"/>
<path d="M25.4048 4.23926L14.9844 22.288H22.6583L33.0787 4.23926H25.4048Z" fill="#F2CA16"/>
<path d="M14.3914 8.13965L0.615234 32.0002H8.28811L22.0643 8.13965H14.3914Z" fill="#F2CA16"/>
<path d="M7.54739 17.9121H7.67388L18.0154 0H10.3415L0 17.9121H6.43926H7.54739Z" fill="#F2CA16"/>
</svg>
