<?xml version="1.0" encoding="utf-8"?>
<!-- Generator: Adobe Illustrator 25.3.1, SVG Export Plug-In . SVG Version: 6.00 Build 0)  -->
<svg version="1.1" id="Layer_1" xmlns="http://www.w3.org/2000/svg" xmlns:xlink="http://www.w3.org/1999/xlink" x="0px" y="0px"
	 viewBox="0 0 40 40" style="enable-background:new 0 0 40 40;" xml:space="preserve">
<style type="text/css">
	.st0{fill:#184C80;}
	.st1{clip-path:url(#SVGID_2_);}
	.st2{fill:#FFFFFF;}
</style>
<g>
	<path class="st0" d="M9.4,0h21.2C35.8,0,40,4.2,40,9.4v21.2c0,5.2-4.2,9.4-9.4,9.4H9.4C4.2,40,0,35.8,0,30.6V9.4C0,4.2,4.2,0,9.4,0
		z"/>
	<g>
		<defs>
			<rect id="SVGID_1_" x="9.4" y="9.4" width="21.2" height="21.2"/>
		</defs>
		<clipPath id="SVGID_2_">
			<use xlink:href="#SVGID_1_"  style="overflow:visible;"/>
		</clipPath>
		<g class="st1">
			<path class="st2" d="M20,9.4C14.2,9.4,9.4,14.1,9.4,20c0,5.8,4.7,10.6,10.6,10.6c5.8,0,10.6-4.7,10.6-10.6
				C30.6,14.1,25.8,9.4,20,9.4z M21.3,25.8c-0.1,0-0.2,0.1-0.2,0.2v0.7c0,0.6-0.5,1.1-1.1,1.1c-0.6,0-1.1-0.5-1.1-1.1v-0.6
				c0-0.1-0.1-0.2-0.2-0.2c0,0,0,0,0,0h-1c-0.6,0-1.1-0.5-1.1-1.1c0-0.6,0.5-1.1,1.1-1.1h3.2c0.5,0,1-0.5,1-1c0-0.4-0.2-0.8-0.6-0.9
				l-3.2-1.3c-1.6-0.7-2.4-2.5-1.8-4.1c0.4-1.1,1.4-1.8,2.5-2c0.1,0,0.2-0.1,0.2-0.2v-0.7c0-0.6,0.5-1.1,1.1-1.1
				c0.6,0,1.1,0.5,1.1,1.1V14c0,0.1,0.1,0.2,0.2,0.2h1c0.6,0,1.1,0.5,1.1,1.1c0,0.6-0.5,1.1-1.1,1.1h-3.2c-0.5,0-1,0.4-1,1
				c0,0.4,0.2,0.8,0.6,0.9l3.2,1.3c1.6,0.6,2.4,2.5,1.8,4.1C23.3,24.8,22.3,25.6,21.3,25.8L21.3,25.8z"/>
		</g>
	</g>
</g>
</svg>
