<svg width="54" height="24" viewBox="0 0 54 24" fill="none" xmlns="http://www.w3.org/2000/svg">
<g clip-path="url(#clip0_5656_221703)">
<path d="M41.0333 3.14062V16.7539H37.252V11.2891H32.6366V16.7539H28.8516V3.14062H32.6366V8.25773H37.252V3.14062H41.0333Z" fill="white"/>
<path d="M44.6241 15.7596C43.6071 15.0067 43.0598 13.9285 42.9824 12.5248H47.0187C47.0577 13.0015 47.1991 13.3491 47.443 13.5677C47.6869 13.7863 48.0024 13.8958 48.3895 13.8963C48.6971 13.9086 48.9998 13.8166 49.2486 13.6352C49.3593 13.5508 49.4478 13.4408 49.5068 13.3147C49.5657 13.1887 49.5933 13.0502 49.5871 12.9112C49.5871 12.5119 49.4004 12.203 49.027 11.9844C48.6536 11.7658 48.0484 11.5212 47.2115 11.2505C46.4743 11.0155 45.7547 10.7284 45.0583 10.3913C44.4952 10.1013 44.0062 9.68579 43.6291 9.17693C43.2243 8.6426 43.0219 7.94408 43.0219 7.08136C43.0219 6.2065 43.2407 5.45662 43.6784 4.83171C44.1161 4.20681 44.7213 3.73371 45.4939 3.4124C46.2661 3.09059 47.1414 2.92969 48.12 2.92969C49.7033 2.92969 50.9682 3.29982 51.915 4.04009C52.8617 4.78036 53.3677 5.81992 53.4329 7.15878H49.3185C49.3053 6.7469 49.1788 6.43799 48.939 6.23205C48.6991 6.02611 48.3935 5.92314 48.0221 5.92314C47.7666 5.91278 47.5171 6.00265 47.3269 6.17361C47.1462 6.34109 47.0562 6.57942 47.0567 6.88858C47.056 7.01457 47.0824 7.13924 47.134 7.25418C47.1855 7.36913 47.2612 7.4717 47.3557 7.55497C47.5758 7.75522 47.827 7.91827 48.0995 8.03768C48.3945 8.17278 48.8322 8.3433 49.4126 8.54924C50.1438 8.79081 50.8569 9.08454 51.5461 9.42815C52.1118 9.72211 52.6062 10.1367 52.9942 10.6425C53.399 11.1642 53.6014 11.824 53.6014 12.622C53.6134 13.3926 53.4025 14.1504 52.9942 14.8041C52.5895 15.4487 52.0038 15.9572 51.2372 16.3296C50.4706 16.7021 49.5661 16.8888 48.5238 16.8898C46.9411 16.8893 45.6412 16.5126 44.6241 15.7596Z" fill="white"/>
<path d="M19.9579 3.17969L12.1426 16.7163H17.898L25.7133 3.17969H19.9579Z" fill="#F2CA16"/>
<path d="M11.6954 6.10449L1.36328 23.9999H7.11793L17.45 6.10449H11.6954Z" fill="#F2CA16"/>
<path d="M6.56483 13.4341H6.65971L14.4158 0H8.6604L0.904297 13.4341H5.73374H6.56483Z" fill="#F2CA16"/>
</g>
<defs>
<clipPath id="clip0_5656_221703">
<rect width="52.7011" height="24" fill="white" transform="translate(0.904297)"/>
</clipPath>
</defs>
</svg>
