<svg width="20" height="20" viewBox="0 0 20 20" fill="none" xmlns="http://www.w3.org/2000/svg">
<path d="M14 1.24023L11.6182 5.45307C12.6776 6.25037 17.1 7.90285 17.1109 12.632C17.1109 16.4438 13.5394 19.2398 9.64016 19.2398C5.74097 19.2398 2.37695 16.4438 2.37695 12.632C2.37695 7.71718 6.9424 6.03521 7.91447 5.42358L5.69423 1.24023H14Z" stroke="#49C742" stroke-width="1.5" stroke-linecap="round"/>
<path d="M9.8457 9.53846V8" stroke="#49C742" stroke-width="1.5"/>
<path d="M9.8457 16.0004V14.4619" stroke="#49C742" stroke-width="1.5"/>
<path d="M11.6924 10.7689V10.1535C11.6924 9.99026 11.6276 9.83374 11.5122 9.71833C11.3968 9.60292 11.2402 9.53809 11.077 9.53809H8.6154C8.45219 9.53809 8.29566 9.60292 8.18025 9.71833C8.06484 9.83374 8 9.99026 8 10.1535V10.9042C8 11.0414 8.04585 11.1747 8.13025 11.2828C8.21466 11.391 8.33278 11.4678 8.46586 11.5012L11.2266 12.1904C11.3596 12.2237 11.4778 12.3006 11.5622 12.4087C11.6466 12.5169 11.6924 12.6501 11.6924 12.7873V13.8458C11.6924 14.009 11.6276 14.1655 11.5122 14.2809C11.3968 14.3963 11.2402 14.4612 11.077 14.4612H8.6154C8.45219 14.4612 8.29566 14.3963 8.18025 14.2809C8.06484 14.1655 8 14.009 8 13.8458V13.2304" stroke="#49C742" stroke-width="1.5"/>
</svg>
