<svg width="32" height="32" viewBox="0 0 32 32" fill="none" xmlns="http://www.w3.org/2000/svg">
<g clip-path="url(#clip0_5659_242867)">
<path d="M22.4016 1.98438L18.5906 8.72491C20.2857 10.0006 27.3615 12.6446 27.379 20.2113C27.379 26.3101 21.6645 30.7837 15.4258 30.7837C9.18711 30.7837 3.80469 26.3101 3.80469 20.2113C3.80469 12.3475 11.1094 9.65633 12.6647 8.67773L9.11233 1.98438H22.4016Z" stroke="#49C742" stroke-width="1.5" stroke-linecap="round"/>
<path d="M15.7539 15.2613V12.7998" stroke="#49C742" stroke-width="1.5"/>
<path d="M15.7539 25.6002V23.1387" stroke="#49C742" stroke-width="1.5"/>
<path d="M18.7087 17.23V16.2454C18.7087 15.9842 18.6049 15.7338 18.4203 15.5491C18.2356 15.3645 17.9852 15.2607 17.724 15.2607H13.7854C13.5243 15.2607 13.2738 15.3645 13.0892 15.5491C12.9045 15.7338 12.8008 15.9842 12.8008 16.2454V17.4466C12.8008 17.6661 12.8741 17.8793 13.0092 18.0523C13.1442 18.2254 13.3332 18.3483 13.5462 18.4017L17.9633 19.5044C18.1762 19.5578 18.3652 19.6807 18.5002 19.8538C18.6353 20.0268 18.7086 20.24 18.7087 20.4595V22.1531C18.7087 22.4142 18.6049 22.6646 18.4203 22.8493C18.2356 23.0339 17.9852 23.1377 17.724 23.1377H13.7854C13.5243 23.1377 13.2738 23.0339 13.0892 22.8493C12.9045 22.6646 12.8008 22.4142 12.8008 22.1531V21.1684" stroke="#49C742" stroke-width="1.5"/>
</g>
<defs>
<clipPath id="clip0_5659_242867">
<rect width="32" height="32" fill="white"/>
</clipPath>
</defs>
</svg>
