<svg width="80" height="80" viewBox="0 0 80 80" fill="none" xmlns="http://www.w3.org/2000/svg">
<g clip-path="url(#clip0_5666_232143)">
<path d="M56 4.96094L46.4726 21.8123C50.7104 25.0015 68.3999 31.6114 68.4436 50.5282C68.4436 65.7752 54.1574 76.9592 38.5606 76.9592C22.9639 76.9592 9.50781 65.7752 9.50781 50.5282C9.50781 30.8687 27.7696 24.1408 31.6579 21.6943L22.7769 4.96094H56Z" stroke="#F2CA16" stroke-width="1.5" stroke-linecap="round"/>
<path d="M39.3828 38.1538V32" stroke="#F2CA16" stroke-width="1.5"/>
<path d="M39.3828 64.0015V57.8477" stroke="#F2CA16" stroke-width="1.5"/>
<path d="M46.7697 43.0764V40.6149C46.7697 39.962 46.5103 39.3359 46.0487 38.8743C45.587 38.4127 44.9609 38.1533 44.3081 38.1533H34.4616C33.8088 38.1533 33.1826 38.4127 32.721 38.8743C32.2593 39.3359 32 39.962 32 40.6149V43.6179C32 44.1667 32.1834 44.6997 32.521 45.1323C32.8586 45.5649 33.3311 45.8723 33.8634 46.0056L44.9062 48.7626C45.4386 48.8959 45.911 49.2033 46.2487 49.6359C46.5863 50.0685 46.7697 50.6015 46.7697 51.1502V55.3841C46.7697 56.0369 46.5103 56.663 46.0487 57.1247C45.587 57.5863 44.9609 57.8456 44.3081 57.8456H34.4616C33.8088 57.8456 33.1826 57.5863 32.721 57.1247C32.2593 56.663 32 56.0369 32 55.3841V52.9226" stroke="#F2CA16" stroke-width="1.5"/>
</g>
<defs>
<clipPath id="clip0_5666_232143">
<rect width="80" height="80" fill="white"/>
</clipPath>
</defs>
</svg>
