<svg width="108" height="24" viewBox="0 0 108 24" fill="none" xmlns="http://www.w3.org/2000/svg">
<path fill-rule="evenodd" clip-rule="evenodd" d="M5.78827 20.7956C6.02575 20.6323 6.26324 20.469 6.50072 20.3355C10.1372 18.1684 14.6494 18.1833 18.271 20.3503C18.3749 20.4097 18.4046 20.5433 18.3453 20.6323C18.3304 20.662 18.3007 20.6917 18.271 20.7065L18.1671 20.7659C17.9742 20.8995 17.7812 21.0182 17.5734 21.137C16.2821 21.9088 14.9166 22.547 13.5065 23.0517C12.5269 23.3931 11.5324 23.6899 10.5083 23.9126C9.54349 24.1501 8.5045 23.8977 7.76236 23.2298C7.04991 22.6213 6.36714 21.9682 5.71406 21.2854C5.59531 21.1667 5.59531 20.9589 5.71406 20.8401C5.75858 20.8104 5.77343 20.7956 5.78827 20.7956ZM16.3415 11.9938C16.3563 14.3538 14.4565 16.2834 12.0964 16.2982C9.73645 16.3131 7.80689 14.4132 7.79205 12.0532C7.7772 9.69319 9.67708 7.76363 12.0371 7.74879C12.0519 7.74879 12.0519 7.74879 12.0668 7.74879C14.4268 7.73395 16.3415 9.63382 16.3415 11.9938ZM39.4665 17.1146C42.0195 17.1146 44.0975 14.9772 44.0975 12.3501C44.0975 9.72288 42.0195 7.58552 39.4665 7.58552C36.9136 7.58552 34.8356 9.72288 34.8356 12.3501C34.8356 14.9772 36.9136 17.1146 39.4665 17.1146ZM32.5795 12.3501C32.5498 8.5503 35.6074 5.44816 39.4072 5.41847C43.2069 5.38879 46.3091 8.4464 46.3387 12.2461C46.3684 16.0459 43.3108 19.148 39.5111 19.1777C39.4962 19.1777 39.4814 19.1777 39.4665 19.1777C35.6816 19.1926 32.5943 16.135 32.5795 12.3501ZM54.8733 5.52237C52.9438 5.52237 51.504 6.2942 50.658 7.74879V5.86376H48.4464V18.8067H50.658V12.068C50.658 10.7025 50.9994 9.60414 51.6821 8.78778C52.3649 7.97143 53.3148 7.57068 54.5023 7.57068C55.5116 7.57068 56.3131 7.89722 56.8919 8.53546C57.4708 9.1737 57.7825 10.183 57.7825 11.4892V18.7918H59.9941V11.0736C59.9941 9.21822 59.5488 7.80816 58.6434 6.87306C57.7974 6.01218 56.4467 5.50753 54.8733 5.52237ZM66.0499 3.3108V5.86376H69.7755V7.89722H66.0499V18.8215H63.8384V7.89722H61.3893V5.86376H63.8384V3.26627C63.8384 1.54451 65.2484 0.149288 66.9702 0.16413H69.7903V2.16791H67.2077C66.5546 2.15306 66.0499 2.67256 66.0499 3.3108C66.0351 3.3108 66.0351 3.3108 66.0499 3.3108ZM99.2829 17.1146C101.836 17.1146 103.914 14.9772 103.914 12.3501C103.914 9.72288 101.836 7.58552 99.2829 7.58552C96.73 7.58552 94.652 9.72288 94.652 12.3501C94.6371 14.9772 96.7151 17.1146 99.2829 17.1146ZM92.3959 12.3501C92.3662 8.5503 95.4238 5.44816 99.2235 5.41847C103.023 5.38879 106.125 8.4464 106.155 12.2461C106.185 16.0459 103.127 19.148 99.3274 19.1777C99.3126 19.1777 99.2978 19.1777 99.2829 19.1777C95.498 19.1926 92.4107 16.135 92.3959 12.3501ZM83.4902 17.1146C86.0432 17.1146 88.1211 14.9772 88.1211 12.3501C88.1211 9.72288 86.0432 7.58552 83.4902 7.58552C80.9372 7.58552 78.8593 9.72288 78.8593 12.3501C78.8593 14.9772 80.9372 17.1146 83.4902 17.1146ZM83.3418 5.50753C85.1971 5.50753 86.9486 6.30904 88.1954 7.68942V0.624255H90.4069V18.8215H88.1954V16.9958C86.9634 18.3762 85.1971 19.1629 83.3566 19.1777C79.7053 19.1777 76.7367 16.1053 76.7367 12.3501C76.7367 8.59483 79.7053 5.52237 83.3418 5.50753ZM74.5252 5.86376H72.3284V18.8067H74.54L74.5252 5.86376ZM72.2245 0.490671C72.5362 0.16413 72.9667 -0.0139839 73.4119 0.000858863C73.8572 0.000858863 74.2877 0.178973 74.5994 0.490671C74.9259 0.802369 75.104 1.23281 75.0892 1.67809C75.104 2.12338 74.9259 2.55382 74.5994 2.86552C74.2877 3.19206 73.8572 3.37017 73.4119 3.35533C72.9667 3.35533 72.5362 3.19206 72.2245 2.86552C71.898 2.55382 71.7199 2.12338 71.7347 1.67809C71.7347 1.21797 71.9128 0.787526 72.2245 0.490671Z" fill="white"/>
<path opacity="0.5" fill-rule="evenodd" clip-rule="evenodd" d="M20.9267 18.2273C18.3144 14.5463 18.1363 9.66299 20.4814 5.81871C20.5111 5.75934 20.5853 5.71481 20.6595 5.71481C20.7337 5.71481 20.808 5.7445 20.8376 5.80387L20.897 5.90777C21.0158 6.10072 21.1493 6.29368 21.2681 6.48663C22.0399 7.76311 22.693 9.1138 23.1976 10.5239C23.539 11.4886 23.8359 12.4831 24.0585 13.4924C24.296 14.4572 24.0437 15.4962 23.3609 16.2235C22.7375 16.9359 22.0844 17.6187 21.4017 18.257C21.2681 18.3757 21.0751 18.3757 20.9564 18.2421C20.9564 18.257 20.9415 18.2421 20.9267 18.2273ZM3.6794 6.45695C3.53097 6.20462 3.3677 5.98198 3.21927 5.74449C3.17474 5.67028 3.08569 5.61091 2.98179 5.61091C2.89273 5.59607 2.78883 5.62575 2.72946 5.69997C2.04669 6.33821 1.37877 7.02097 0.770213 7.73343C0.102289 8.47557 -0.150039 9.49972 0.0874455 10.4645C0.310087 11.4738 0.5921 12.4683 0.948327 13.4331C1.45298 14.8431 2.10606 16.1938 2.87789 17.4703C2.99663 17.6632 3.11537 17.871 3.24896 18.0492L3.30833 18.1531C3.3677 18.257 3.50128 18.2866 3.60518 18.2124C3.63487 18.1976 3.64971 18.1679 3.66455 18.1531C4.19889 17.2773 4.61449 16.3274 4.88166 15.3329C5.16368 14.3385 5.29726 13.3292 5.29726 12.2902C5.29726 11.266 5.16368 10.2419 4.88166 9.24739C4.62934 8.28261 4.21374 7.33267 3.6794 6.45695ZM17.6316 3.65166C17.8839 3.50324 18.1066 3.35481 18.3441 3.19154C18.4925 3.08764 18.5222 2.89468 18.4331 2.7611C18.4183 2.74626 18.4183 2.73141 18.4034 2.71657C17.7503 2.0338 17.0676 1.38072 16.3551 0.772165C15.613 0.10424 14.574 -0.148086 13.6092 0.0893989C12.5999 0.312041 11.6054 0.594051 10.6258 0.950278C9.21575 1.45493 7.85022 2.09317 6.5589 2.865C6.36594 2.98374 6.15814 3.10248 5.96518 3.23607L5.86129 3.29544C5.75739 3.35481 5.74254 3.48839 5.80191 3.59229C5.81676 3.62198 5.84644 3.63682 5.87613 3.65166C9.48292 5.80387 13.9951 5.81871 17.6316 3.65166Z" fill="white"/>
</svg>
