<svg width="98" height="28" viewBox="0 0 98 28" fill="none" xmlns="http://www.w3.org/2000/svg">
<path d="M78.6006 16.5638L76.2559 10.3466C76.1651 10.1046 76.0895 9.8928 76.0895 9.71128C76.0895 9.22722 76.4677 9.07595 77.5568 9.03057V8.42549H73.4423V9.03057C73.881 9.1062 74.2289 9.18183 74.3953 9.62052L74.8945 10.9214L72.7162 16.5487L70.4623 10.3466C70.3715 10.0895 70.2959 9.8928 70.2959 9.71128C70.2959 9.22722 70.674 9.07595 71.7632 9.03057V8.42549H67.5579V9.03057C67.9966 9.1062 68.3445 9.18183 68.5109 9.62052L72.0808 19.0446H72.5498L75.3029 12.0106L78.0409 19.0446H78.5098L81.8983 9.62052C82.0647 9.18183 82.4126 9.1062 82.8513 9.03057V8.42549H79.3569V9.03057C80.4461 9.07595 80.8394 9.24234 80.8394 9.72641C80.8394 9.90793 80.7637 10.1197 80.673 10.3617L78.6006 16.5638ZM88.1003 16.6697C87.6465 17.2596 86.8599 17.7891 85.7103 17.7891C83.8799 17.7891 83.0479 16.5789 83.0479 14.6124H88.4785V14.2191C88.4785 12.5098 87.4196 11.2088 85.3926 11.2088C83.2748 11.2088 81.7167 12.8728 81.7167 15.3688C81.7167 17.3958 83.0328 19.0446 85.2716 19.0446C87.223 19.0446 88.1911 17.9101 88.4936 16.8663L88.1003 16.6697ZM85.0598 12.1013C86.3153 12.1013 86.9658 12.9333 86.9658 13.9166H83.0933C83.2446 12.8426 83.9707 12.1013 85.0598 12.1013ZM59.2229 16.6697C58.7691 17.2596 57.9825 17.7891 56.8328 17.7891C55.0025 17.7891 54.1705 16.5789 54.1705 14.6124H59.6011V14.2191C59.6011 12.5098 58.5422 11.2088 56.5152 11.2088C54.3974 11.2088 52.8393 12.8728 52.8393 15.3688C52.8393 17.3958 54.1554 19.0446 56.3941 19.0446C58.3455 19.0446 59.3137 17.9101 59.6162 16.8663L59.2229 16.6697ZM56.1975 12.1013C57.453 12.1013 58.1035 12.9333 58.1035 13.9166H54.231C54.3671 12.8426 55.0932 12.1013 56.1975 12.1013ZM48.7096 11.2088C47.6205 11.2088 46.6524 11.7534 46.0624 12.5249V11.2088H45.654L44.0505 11.9198V12.2677L44.6859 12.7669V20.6178C44.6859 21.2683 44.2169 21.3439 43.5816 21.4347V21.9944H47.1818V21.4347C46.5465 21.3439 46.0775 21.2834 46.0775 20.6178V18.4698C46.5162 18.8177 47.1667 19.0446 47.9835 19.0446C50.177 19.0446 51.9771 17.4109 51.9771 14.7788C51.9619 12.8123 50.8425 11.2088 48.7096 11.2088ZM48.1197 18.2278C47.0608 18.2278 46.0624 17.7891 46.0473 16.4428V13.2359C46.5162 12.7215 47.3179 12.298 48.1651 12.298C49.95 12.298 50.5249 13.8863 50.5249 15.3688C50.54 17.1991 49.587 18.2278 48.1197 18.2278ZM38.3476 8.28935C35.4281 8.28935 33.0078 10.4374 33.0078 13.8712C33.0078 16.5789 34.9289 19.0446 38.0602 19.0446C40.9797 19.0446 43.4001 16.8966 43.4001 13.4628C43.4152 10.7399 41.4789 8.28935 38.3476 8.28935ZM41.6756 14.0073C41.6756 16.5184 40.4805 18.0008 38.4989 18.0008C37.319 18.0008 36.3358 17.5017 35.6702 16.5789C35.0802 15.7469 34.7474 14.5822 34.7474 13.3115C34.7474 10.8004 35.9424 9.31798 37.9241 9.31798C39.104 9.31798 40.0872 9.81717 40.7528 10.7399C41.3428 11.5719 41.6756 12.7367 41.6756 14.0073ZM67.9058 17.5319V13.5535C67.9058 11.8896 66.9528 11.224 65.5914 11.224C64.5022 11.224 63.3828 11.9349 62.7777 12.6157V11.224H62.3693L60.7659 11.9349V12.2829L61.4012 12.782V17.5773C61.3861 18.1975 60.9171 18.2731 60.2969 18.3488V18.9085H63.8971V18.3488C63.2618 18.258 62.7929 18.1975 62.7929 17.5319V13.251C63.3828 12.7669 64.3358 12.3736 65.077 12.3736C65.9998 12.3736 66.5292 12.7064 66.5292 13.7502V17.5319C66.5292 18.1824 66.0603 18.258 65.425 18.3488V18.9085H69.0252V18.3488C68.3747 18.258 67.9058 18.1824 67.9058 17.5319ZM93.7427 11.2088C92.6536 11.2088 91.7157 11.7534 91.1106 12.5249V7.97168H90.7022L89.0987 8.68265V9.03057L89.734 9.52975V18.0765C90.324 18.5454 91.4737 19.0295 93.0317 19.0295C95.21 19.0295 97.0253 17.3958 97.0253 14.7637C97.0101 12.8123 95.8756 11.2088 93.7427 11.2088ZM93.1679 18.2278C92.109 18.2278 91.0955 17.7891 91.0955 16.4428V13.2359C91.5644 12.7215 92.3661 12.298 93.2132 12.298C94.9831 12.298 95.5731 13.8863 95.5731 15.3688C95.5882 17.1991 94.6352 18.2278 93.1679 18.2278Z" fill="white"/>
<path d="M20.8299 13.9924V14.0227L24.0822 15.8228C24.0822 15.8228 25.0352 16.3522 26.0638 16.7455C24.9595 16.6396 23.8704 16.7153 23.8704 16.7153L20.1643 16.9271C20.0281 17.2145 19.8769 17.4868 19.6954 17.7439L25.3528 22.2366C25.5949 21.9038 25.8369 21.5408 26.0487 21.1777L23.4922 19.1507C22.4938 18.3187 21.4955 17.8649 21.4955 17.8649C22.4182 18.0465 23.7645 17.9708 23.7645 17.9708L27.5311 17.759C27.6521 17.3355 27.7429 16.9119 27.8185 16.4733L24.5209 14.658C24.5209 14.658 23.3561 14.0076 22.4333 13.7807C22.4333 13.7807 23.5376 13.7958 24.7931 13.4781L27.9849 12.752C27.9547 12.3285 27.8942 11.9049 27.8185 11.4965L20.7542 13.0999C20.7996 13.3722 20.8299 13.6748 20.8299 13.9924ZM18.9239 18.6969C18.7121 18.9238 18.4701 19.1356 18.228 19.3322L18.8482 22.993C18.8482 22.993 19.0146 24.067 19.3626 25.1107C18.7575 24.188 18.0163 23.3863 18.0163 23.3863L15.5354 20.618C15.2329 20.6937 14.9303 20.739 14.6127 20.7693V27.9849C15.0362 27.9697 15.4598 27.9244 15.8682 27.879V24.6115C15.8985 23.3258 15.6413 22.2517 15.6413 22.2517C16.0649 23.0989 16.9725 24.0821 16.9725 24.0821L19.4836 26.8806C19.892 26.7142 20.2853 26.5175 20.6786 26.3058L20.0433 22.5997C20.0433 22.5997 19.8315 21.2836 19.4382 20.4214C19.4382 20.4214 20.1038 21.2836 21.1324 22.0702L23.6889 24.0972C23.9914 23.8098 24.2788 23.5073 24.5662 23.1896L18.9239 18.6969ZM18.2734 8.68287L21.7072 7.26094C21.7072 7.26094 22.7207 6.85251 23.6737 6.29281C22.9023 7.09454 22.2821 7.98703 22.2821 7.98703L20.134 11.0124C20.2702 11.2847 20.3912 11.5872 20.482 11.8747L27.5311 10.2712C27.4252 9.86277 27.2891 9.46947 27.1378 9.07617L23.946 9.80227C22.6754 10.0594 21.6921 10.5586 21.6921 10.5586C22.4182 9.95353 23.1897 8.86439 23.1897 8.86439L25.368 5.80875C25.1108 5.4457 24.8234 5.09778 24.536 4.78012L21.0568 6.21718C21.0568 6.21718 19.8164 6.71637 19.06 7.29119C19.06 7.29119 19.7559 6.44408 20.3004 5.26418L21.7224 2.32955C21.3744 2.10265 21.0114 1.87574 20.6332 1.67909L17.4868 8.18368C17.7742 8.3047 18.0314 8.48622 18.2734 8.68287ZM7.85091 11.0124L5.70288 7.98703C5.70288 7.98703 5.08267 7.09454 4.31119 6.29281C5.26419 6.85251 6.2777 7.26094 6.2777 7.26094L9.71153 8.68287C9.95356 8.48622 10.2107 8.3047 10.483 8.15343L7.33659 1.64884C6.95842 1.84549 6.59537 2.07239 6.24745 2.2993L7.66939 5.23392C8.19883 6.41383 8.9098 7.26094 8.9098 7.26094C8.15345 6.68611 6.91304 6.18692 6.91304 6.18692L3.43383 4.74986C3.14641 5.08265 2.859 5.43057 2.60184 5.77849L4.78013 8.83414C4.78013 8.83414 5.55161 9.92328 6.2777 10.5284C6.2777 10.5284 5.29445 10.0443 4.02378 9.77201L0.831985 9.04592C0.680715 9.43922 0.559699 9.83252 0.438683 10.2409L7.50299 11.8444C7.59375 11.5721 7.71477 11.2847 7.85091 11.0124ZM12.4495 20.618L9.96869 23.3863C9.96869 23.3863 9.22747 24.188 8.62239 25.1107C8.97031 24.067 9.13671 22.993 9.13671 22.993L9.75691 19.3322C9.51488 19.1356 9.27285 18.9238 9.06107 18.6969L3.40357 23.2047C3.67586 23.5224 3.9784 23.8249 4.28094 24.1124L6.8374 22.0853C7.86604 21.2987 8.53163 20.4365 8.53163 20.4365C8.13832 21.2987 7.92655 22.6148 7.92655 22.6148L7.29121 26.3209C7.68451 26.5327 8.07782 26.7293 8.48624 26.8957L10.9973 24.0972C10.9973 24.0972 11.8898 23.114 12.3285 22.2669C12.3285 22.2669 12.0713 23.3258 12.1016 24.6267V27.8941C12.51 27.9546 12.9336 27.9849 13.3571 28V20.7844C13.0546 20.7391 12.7521 20.6937 12.4495 20.618ZM12.4949 7.33657L13.5235 3.78174C13.5235 3.78174 13.8412 2.73798 13.9773 1.64884C14.1286 2.73798 14.4463 3.78174 14.4463 3.78174L15.4749 7.3517C15.7775 7.42733 16.08 7.50297 16.3825 7.62398L19.5138 1.11939C19.1205 0.952997 18.7272 0.801728 18.3339 0.680713L16.912 3.61534C16.322 4.76499 16.0951 5.839 16.0951 5.839C16.08 4.90113 15.7018 3.61534 15.7018 3.61534L14.6581 0.0151256C14.4312 -1.38514e-06 14.2194 0 13.9925 0C13.7656 0 13.5538 -1.38514e-06 13.3269 0.0151256L12.2831 3.61534C12.2831 3.61534 11.9049 4.90113 11.8898 5.839C11.8898 5.839 11.6629 4.76499 11.073 3.61534L9.65102 0.680713C9.24259 0.816855 8.84929 0.952997 8.47112 1.11939L11.6024 7.62398C11.8898 7.50297 12.1924 7.41221 12.4949 7.33657ZM3.1918 13.463C4.44734 13.7807 5.55161 13.7655 5.55161 13.7655C4.62886 13.9924 3.46408 14.6429 3.46408 14.6429L0.166397 16.4581C0.242032 16.8968 0.347921 17.3204 0.468937 17.7439L4.23556 17.9557C4.23556 17.9557 5.56673 18.0313 6.50461 17.8498C6.50461 17.8498 5.50623 18.3036 4.50784 19.1356L1.95138 21.1626C2.16316 21.5257 2.40519 21.8736 2.64722 22.2215L8.30472 17.7288C8.13832 17.4716 7.97193 17.1993 7.83578 16.9119L4.12967 16.7002C4.12967 16.7002 3.04053 16.6245 1.93625 16.7304C2.98002 16.3371 3.91789 15.8077 3.91789 15.8077L7.1702 14.0076V13.9773C7.1702 13.6748 7.18532 13.3722 7.2307 13.0697L0.166397 11.4662C0.0907617 11.8747 0.030254 12.2982 0 12.7218L3.1918 13.463Z" fill="white"/>
</svg>
