<svg width="36" height="36" viewBox="0 0 36 36" fill="none" xmlns="http://www.w3.org/2000/svg">
<path d="M8.25 3.75H26.25V6.75" stroke="white" stroke-width="1.5" stroke-linecap="round" stroke-linejoin="round"/>
<path d="M29.25 6.75V1.5C29.25 1.08 28.905 0.75 28.5 0.75H8.25C6.585 0.75 5.25 2.085 5.25 3.75M5.25 3.75C5.25 5.4 6.585 6.75 8.25 6.75H30C30.405 6.75 30.75 7.08 30.75 7.5V34.5C30.75 34.905 30.405 35.25 30 35.25H8.25C6.585 35.25 5.25 33.9 5.25 32.25V3.75Z" stroke="white" stroke-width="1.5" stroke-linecap="round" stroke-linejoin="round"/>
<path d="M18 12C16.8181 12 15.6478 12.2328 14.5558 12.6851C13.4639 13.1374 12.4718 13.8003 11.636 14.636C10.8003 15.4718 10.1374 16.4639 9.68508 17.5558C9.23279 18.6478 9 19.8181 9 21C9 22.1819 9.23279 23.3522 9.68508 24.4442C10.1374 25.5361 10.8003 26.5282 11.636 27.364C12.4718 28.1997 13.4639 28.8626 14.5558 29.3149C15.6478 29.7672 16.8181 30 18 30C19.1819 30 20.3522 29.7672 21.4442 29.3149C22.5361 28.8626 23.5282 28.1997 24.364 27.364C25.1997 26.5282 25.8626 25.5361 26.3149 24.4442C26.7672 23.3522 27 22.1819 27 21C27 19.8181 26.7672 18.6478 26.3149 17.5558C25.8626 16.4639 25.1997 15.4718 24.364 14.636C23.5282 13.8003 22.5361 13.1374 21.4442 12.6851C20.3522 12.2328 19.1819 12 18 12Z" stroke="white" stroke-width="1.5" stroke-linecap="round" stroke-linejoin="round"/>
<path d="M9.80859 24.75H26.1886" stroke="white" stroke-width="1.5" stroke-linecap="round" stroke-linejoin="round"/>
<path d="M9.80859 17.25H26.1886" stroke="white" stroke-width="1.5" stroke-linecap="round" stroke-linejoin="round"/>
<path d="M14.25 12.8096V29.1896" stroke="white" stroke-width="1.5" stroke-linecap="round" stroke-linejoin="round"/>
<path d="M21.75 12.8096V29.1896" stroke="white" stroke-width="1.5" stroke-linecap="round" stroke-linejoin="round"/>
</svg>
