<?xml version="1.0" standalone="no"?>
<!DOCTYPE svg PUBLIC "-//W3C//DTD SVG 20010904//EN"
 "http://www.w3.org/TR/2001/REC-SVG-20010904/DTD/svg10.dtd">
<svg version="1.0" xmlns="http://www.w3.org/2000/svg"
 width="100.000000pt" height="100.000000pt" viewBox="0 0 100.000000 100.000000"
 preserveAspectRatio="xMidYMid meet">

<g transform="translate(0.000000,100.000000) scale(0.100000,-0.100000)"
fill="#000000" stroke="none">
<path d="M235 991 c-45 -20 -70 -60 -70 -112 0 -42 5 -53 33 -81 28 -28 39
-33 82 -33 43 0 54 5 82 33 28 28 33 39 33 82 0 42 -5 54 -31 81 -33 33 -92
46 -129 30z m100 -56 c50 -49 15 -135 -55 -135 -41 0 -80 39 -80 80 0 41 39
80 80 80 19 0 40 -9 55 -25z"/>
<path d="M663 980 c-34 -21 -63 -66 -63 -100 0 -54 65 -120 118 -120 125 0
167 172 56 225 -43 20 -72 19 -111 -5z m112 -45 c70 -69 -31 -182 -103 -115
-28 27 -37 62 -21 92 28 53 84 64 124 23z"/>
<path d="M160 733 c-21 -8 -70 -55 -70 -66 0 -5 -20 -28 -45 -51 -58 -54 -61
-92 -12 -141 72 -72 202 -72 447 -2 201 59 263 70 349 65 106 -6 161 -58 114
-110 -18 -20 -18 -20 -23 13 -3 21 -11 34 -20 34 -12 0 -16 -15 -18 -67 l-3
-67 -37 -3 -37 -3 -3 -147 -3 -148 -79 0 -79 0 -3 148 -3 147 -37 3 c-36 3
-37 4 -40 50 -2 34 -7 47 -18 47 -11 0 -16 -14 -18 -51 -3 -58 13 -84 54 -84
l24 0 0 -134 c0 -169 -2 -166 124 -166 58 0 96 4 104 12 8 8 12 56 12 150 l0
138 28 0 c33 0 52 16 52 45 1 11 14 28 33 40 41 26 58 84 36 123 -52 93 -223
95 -509 7 -193 -59 -324 -69 -399 -31 -35 18 -48 54 -31 85 16 30 28 26 32
-11 5 -53 32 -43 36 12 4 67 10 87 34 110 19 17 35 20 129 20 101 0 108 -1
132 -26 18 -18 27 -39 29 -67 2 -29 8 -42 18 -42 11 0 15 12 15 53 -1 46 -5
57 -33 85 l-32 32 -118 2 c-64 1 -124 0 -132 -4z"/>
<path d="M582 720 c-35 -22 -65 -78 -60 -114 5 -34 31 -25 39 14 4 19 19 45
34 57 23 21 37 23 128 23 116 0 141 -10 155 -63 11 -44 42 -49 42 -8 0 22 -11
43 -34 69 l-34 37 -119 3 c-105 3 -122 1 -151 -18z"/>
<path d="M447 414 c-4 -4 -7 -22 -7 -40 0 -31 -2 -33 -37 -36 l-38 -3 -3 -147
-3 -148 -79 0 -79 0 -3 148 -3 147 -36 3 c-27 2 -38 8 -42 24 -7 26 -31 19
-35 -11 -5 -31 15 -51 49 -51 l29 0 0 -134 c0 -169 -2 -166 124 -166 58 0 96
4 104 12 8 8 12 56 12 150 l0 138 29 0 c39 0 53 20 49 71 -3 40 -16 58 -31 43z"/>
</g>
</svg>
