<svg width="24" height="24" viewBox="0 0 24 24" fill="none" xmlns="http://www.w3.org/2000/svg">
<g clip-path="url(#clip0_5678_242701)">
<path d="M12 0.000375001C7.58 0.000375001 4 3.58037 4 8.00037C4 11.5104 9 20.0254 11.148 23.5244C11.328 23.8144 11.647 23.9944 11.997 23.9944C12.337 23.9944 12.667 23.8144 12.847 23.5144C14.987 20.0144 19.995 11.5044 19.995 7.98438C19.985 3.56437 16.405 -0.015625 11.995 -0.015625L12 0.000375001ZM12 11.5004C10.06 11.5004 8.5 9.93038 8.5 8.00037C8.5 6.06037 10.06 4.50037 12 4.50037C13.93 4.50037 15.5 6.06037 15.5 8.00037C15.5 9.93038 13.93 11.4994 12 11.4994V11.5004Z" fill="#53944F"/>
</g>
<defs>
<clipPath id="clip0_5678_242701">
<rect width="24" height="24" fill="white"/>
</clipPath>
</defs>
</svg>
