<svg width="32" height="32" viewBox="0 0 32 32" fill="none" xmlns="http://www.w3.org/2000/svg">
<g clip-path="url(#clip0_5659_242902)">
<path d="M29.3326 27.9999V25.3333C29.3326 22.8399 27.626 20.7599 25.3326 20.1599M20.666 4.37326C22.6126 5.15992 23.9993 7.07992 23.9993 9.30659C23.9993 11.5333 22.6126 13.4533 20.666 14.2399M17.946 9.25325C17.946 12.1866 15.546 14.5866 12.6126 14.5866C9.66596 14.5866 7.2793 12.1866 7.2793 9.25325C7.2793 6.30659 9.66596 3.91992 12.6126 3.91992C15.546 3.91992 17.946 6.30659 17.946 9.25325Z" stroke="#49C742" stroke-width="1.5" stroke-linecap="square" stroke-linejoin="round"/>
<path d="M12.7992 19.2002C9.4475 19.1948 6.14759 20.0733 3.19922 21.7559V28.0002H22.3992V21.7559C19.4508 20.0733 16.1509 19.1948 12.7992 19.2002Z" stroke="#49C742" stroke-width="1.5" stroke-linecap="square"/>
</g>
<defs>
<clipPath id="clip0_5659_242902">
<rect width="32" height="32" fill="white"/>
</clipPath>
</defs>
</svg>
