<svg width="14" height="14" viewBox="0 0 14 14" stroke="#c8ccd0" fill="none" xmlns="http://www.w3.org/2000/svg">
<path d="M3.65352 8.96875H1.68477C1.4673 8.96875 1.29102 9.14504 1.29102 9.3625V12.5125C1.29102 12.73 1.4673 12.9062 1.68477 12.9062H3.65352C3.87098 12.9062 4.04727 12.73 4.04727 12.5125V9.3625C4.04727 9.14504 3.87098 8.96875 3.65352 8.96875Z" stroke="#c8ccd0" stroke-width="1.5"/>
<path d="M12.3156 10.5439H10.3469C10.1294 10.5439 9.95312 10.7202 9.95312 10.9377V12.5127C9.95312 12.7302 10.1294 12.9064 10.3469 12.9064H12.3156C12.5331 12.9064 12.7094 12.7302 12.7094 12.5127V10.9377C12.7094 10.7202 12.5331 10.5439 12.3156 10.5439Z" stroke="#c8ccd0" stroke-width="1.5"/>
<path d="M7.98555 7.39355H6.0168C5.79933 7.39355 5.62305 7.56984 5.62305 7.7873V12.5123C5.62305 12.7298 5.79933 12.9061 6.0168 12.9061H7.98555C8.20301 12.9061 8.3793 12.7298 8.3793 12.5123V7.7873C8.3793 7.56984 8.20301 7.39355 7.98555 7.39355Z" stroke="#c8ccd0" stroke-width="1.5"/>
<path d="M7.4434 1.23569C7.46345 1.25501 7.48011 1.27757 7.49269 1.30241L7.62209 1.55808C7.93037 2.16718 8.55502 2.55113 9.23769 2.55113V2.55113C9.40569 2.54588 9.54219 2.67713 9.54744 2.84513C9.54744 2.92913 9.51069 3.00788 9.45294 3.07088L8.74085 3.76481C8.55012 3.95067 8.49429 4.23516 8.60061 4.47932L8.99084 5.37539C8.99089 5.3755 8.9908 5.37563 8.99068 5.37563V5.37563C8.99055 5.37563 8.99047 5.37576 8.99051 5.37587C9.05334 5.53331 8.97984 5.71167 8.82242 5.77988C8.72792 5.81663 8.62817 5.80613 8.54417 5.75888L8.14935 5.53585C7.54052 5.19193 6.79627 5.19096 6.18654 5.5333L5.79317 5.75416C5.64092 5.83816 5.45192 5.78566 5.36792 5.63866C5.31542 5.55466 5.31017 5.44966 5.34692 5.36041L5.37054 5.30544C5.69518 4.54997 5.52434 3.67277 4.93992 3.09434L4.88492 3.03991C4.75892 2.91916 4.75892 2.72491 4.87442 2.60416C4.93217 2.54116 5.01092 2.50441 5.10017 2.50966V2.50966C5.78541 2.50966 6.41175 2.12221 6.7177 1.50906L6.86469 1.21448C6.94344 1.05698 7.13244 0.999231 7.28469 1.07798C7.32699 1.09913 7.36588 1.13391 7.39587 1.17683C7.41035 1.19755 7.4252 1.21815 7.4434 1.23569V1.23569Z" stroke="#c8ccd0" stroke-width="1.5"/>
</svg>
