<svg width="131" height="44" viewBox="0 0 131 44" fill="none" xmlns="http://www.w3.org/2000/svg">
<g clip-path="url(#clip0_5654_218805)">
<path d="M4.93894 12.1036V12.6951C4.93894 13.979 5.29238 14.9528 6.67009 14.9528C8.06943 14.9528 8.47337 13.9069 8.47337 12.9331C8.47337 9.27607 1.18812 11.3174 1.18812 4.98426C1.18812 2.27934 2.63796 0 6.74222 0C10.7311 0 12.1521 2.01967 12.1521 4.62361V5.02754H8.30747C8.30747 4.21967 8.21369 3.6282 7.97566 3.2459C7.73763 2.84197 7.36255 2.65443 6.76386 2.65443C5.76845 2.65443 5.17697 3.2459 5.17697 4.47934C5.17697 8.01377 12.4622 6.23213 12.4622 12.2118C12.4622 16.0564 10.3271 17.6 6.6773 17.6C3.78484 17.6 1.10156 16.72 1.10156 13.1856V12.0964H4.93894V12.1036Z" fill="white"/>
<path d="M14.3822 0.339355H18.3711V6.67247H21.5448V0.339355H25.5337V17.2757H21.5448V10.041H18.3639V17.2757H14.375V0.339355H14.3822Z" fill="white"/>
<path d="M33.5752 17.6068C28.3313 17.6068 27.6172 14.1878 27.6172 8.80684C27.6172 3.41864 28.3313 0.00683594 33.5752 0.00683594C39.2231 0.00683594 39.5333 4.1111 39.5333 8.80684C39.526 13.5026 39.2159 17.6068 33.5752 17.6068ZM33.5464 14.9524C35.1621 14.9524 35.4001 13.4593 35.4001 8.80684C35.4001 4.15438 35.1621 2.66126 33.5536 2.66126C31.9883 2.66126 31.7503 4.15438 31.7503 8.80684C31.7431 13.4593 31.9811 14.9524 33.5464 14.9524Z" fill="white"/>
<path d="M40.2422 0.339355H44.231L45.7025 12.3925H45.753L47.5058 0.339355H51.2061L53.1032 12.3925H53.1537L54.5746 0.339355H58.4192L55.4763 17.2757H51.0619L49.3307 5.24427H49.2802L47.6428 17.2757H43.2284L40.2422 0.339355Z" fill="white"/>
<path d="M76.3157 1.61608H76.2724L71.4108 17.2758H70.4154L65.5537 1.61608H65.5032V17.2758H64.5078V0.339355H66.1235L70.9419 15.5735H70.9852L75.6809 0.346569H77.3183V17.283H76.3229V1.61608H76.3157Z" fill="white" stroke="#231F20" stroke-width="0.34623"/>
<path d="M80.0352 0.339355H88.1283V1.24099H81.0306V8.0069H87.6522V8.90854H81.0306V16.3813H88.3375V17.283H80.0352V0.339355Z" fill="white" stroke="#231F20" stroke-width="0.34623"/>
<path d="M97.723 1.24099H93.2148V0.339355H103.227V1.24099H98.7185V17.2757H97.723V1.24099Z" fill="white" stroke="#231F20" stroke-width="0.34623"/>
<path d="M104.719 0.339355H105.714V7.76886H113.144V0.339355H114.139V17.2757H113.144V8.66329H105.721V17.2757H104.726V0.339355H104.719Z" fill="white" stroke="#231F20" stroke-width="0.34623"/>
<path d="M116.086 0.339355H124.179V1.24099H117.081V8.0069H123.703V8.90854H117.081V16.3813H124.388V17.283H116.086V0.339355Z" fill="white" stroke="#231F20" stroke-width="0.34623"/>
<path fill-rule="evenodd" clip-rule="evenodd" d="M125.602 41.6342C125.602 42.6729 124.737 43.5096 123.676 43.5096H2.44543C1.38511 43.5096 0.519531 42.6729 0.519531 41.6342V21.9568C0.519531 20.9182 1.38511 20.0742 2.44543 20.0742H123.676C124.737 20.0742 125.602 20.9182 125.602 21.9568V41.6342Z" fill="white" stroke="#231F20" stroke-width="1.0459"/>
<path d="M123.813 21.8125H104.777V41.7207H123.813V21.8125Z" fill="white" stroke="#231F20" stroke-width="0.526557"/>
<path d="M41.9221 21.8413H22.8867V41.7495H41.9221V21.8413Z" fill="#231F20" stroke="#231F20" stroke-width="0.526557"/>
<path d="M62.3284 21.8413H43.293V41.7495H62.3284V21.8413Z" fill="#231F20" stroke="#231F20" stroke-width="0.526557"/>
<path d="M82.8713 21.8413H63.8359V41.7495H82.8713V21.8413Z" fill="#231F20" stroke="#231F20" stroke-width="0.526557"/>
<path d="M103.407 21.8413H84.3711V41.7495H103.407V21.8413Z" fill="#231F20" stroke="#231F20" stroke-width="0.526557"/>
<path d="M21.3792 21.8413H2.34375V41.7495H21.3792V21.8413Z" fill="#231F20" stroke="#231F20" stroke-width="0.526557"/>
<path d="M12.3115 38.9725C8.25768 38.9725 6.09375 35.9718 6.09375 31.9253C6.09375 27.5253 8.66883 24.8853 12.3331 24.8853C15.6872 24.8853 17.0144 26.3279 17.9521 28.903L14.5187 30.2518C14.0282 28.9823 13.5665 28.1744 12.3187 28.1744C10.739 28.1744 10.0537 29.7613 10.0537 31.9253C10.0537 34.0171 10.7174 35.6833 12.3547 35.6833C13.5449 35.6833 14.0498 35.0341 14.7928 33.743L17.9882 35.4453C17.0721 37.2341 15.5501 38.9725 12.3115 38.9725Z" fill="white"/>
<path d="M33.5832 33.1947H31.3183L31.5707 32.3002C32.0612 30.5691 32.2776 29.8117 32.4507 28.8884C32.6238 29.8045 32.8402 30.5475 33.3307 32.3002L33.5832 33.1947ZM39.3392 38.5973L34.3838 24.9429H30.5609L25.6055 38.5973H29.6592L30.4022 36.1809H34.4992L35.2422 38.5973H39.3392Z" fill="white"/>
<path d="M54.7183 29.5593C54.7183 30.5403 54.2278 31.0813 53.0016 31.0813H50.7727V28.095H53.0593C54.2495 28.095 54.7183 28.7009 54.7183 29.5593ZM58.7577 38.6622L56.0239 33.4544C57.5242 32.7763 58.4836 31.5068 58.4836 29.4583C58.4836 26.2196 56.3557 25.0078 53.1531 25.0078H47.0508V38.6622H50.7727V34.0531H52.2947L54.5236 38.6622H58.7577Z" fill="white"/>
<path d="M71.7027 28.225V30.1292H75.9729V33.3246H71.7027V38.6623H67.9375V25.0151H78.7427V28.2322H71.7027V28.225Z" fill="white"/>
<path d="M94.88 33.3031H92.6151L92.8676 32.4086C93.3581 30.6775 93.5673 29.9129 93.7476 28.9968C93.9279 29.9129 94.1371 30.6486 94.6276 32.4086L94.88 33.3031ZM100.636 38.7057L95.6807 25.0513H91.8578L86.9023 38.7057H90.9633L91.7063 36.2893H95.8033L96.5463 38.7057H100.636Z" fill="white"/>
<path d="M116.201 41.9081L115.603 40.9848C115.069 40.1337 114.535 39.2176 114.174 38.4819C113.835 39.2032 113.28 40.1337 112.724 40.9848L112.061 41.9081H107.423L111.917 35.6832L107.199 28.9678H112.003L112.833 30.2878C113.366 31.1389 113.943 32.055 114.261 32.7691C114.6 32.055 115.177 31.1389 115.711 30.2878L116.547 28.9678H121.243L116.526 35.6038L120.955 41.9081H116.201Z" fill="#231F20"/>
<path d="M130.552 21.466C130.552 21.9709 130.378 22.3965 130.032 22.75C129.686 23.1034 129.268 23.2837 128.777 23.2837C128.287 23.2837 127.861 23.1106 127.515 22.7572C127.161 22.4037 126.988 21.9782 126.988 21.4732C126.988 20.9611 127.161 20.5283 127.508 20.1749C127.854 19.8214 128.279 19.6411 128.777 19.6411C129.268 19.6411 129.686 19.8214 130.032 20.1749C130.378 20.5283 130.552 20.9539 130.552 21.466ZM130.27 21.466C130.27 21.0477 130.126 20.6798 129.83 20.3696C129.535 20.0595 129.188 19.908 128.792 19.908C128.366 19.908 128.013 20.0595 127.717 20.3696C127.421 20.6798 127.277 21.0477 127.277 21.4732C127.277 21.8988 127.421 22.2667 127.724 22.5696C128.02 22.8726 128.373 23.0241 128.784 23.0241C129.188 23.0241 129.542 22.8726 129.837 22.5624C130.119 22.2595 130.27 21.8916 130.27 21.466ZM129.773 20.99C129.773 21.1919 129.7 21.3506 129.563 21.4732C129.419 21.5887 129.26 21.6536 129.08 21.6536L129.736 22.5264H129.333L128.683 21.6608H128.315V22.5264H127.991V20.3696H129.044C129.282 20.3696 129.462 20.4273 129.585 20.55C129.708 20.6726 129.773 20.8096 129.773 20.99ZM129.434 20.99C129.434 20.7736 129.268 20.6654 128.936 20.6654H128.308V21.365H128.957C129.275 21.365 129.434 21.2352 129.434 20.99Z" fill="#231F20" stroke="#231F20" stroke-width="0.064918"/>
</g>
<defs>
<clipPath id="clip0_5654_218805">
<rect width="130.557" height="44" fill="white"/>
</clipPath>
</defs>
</svg>
