<svg width="36" height="36" viewBox="0 0 36 36" fill="none" xmlns="http://www.w3.org/2000/svg">
<path d="M14.625 7.875H3.375C2.13 7.875 1.125 8.88 1.125 10.125V30.375C1.125 31.605 2.13 32.625 3.375 32.625H32.625C33.855 32.625 34.875 31.605 34.875 30.375V10.125C34.875 8.88 33.855 7.875 32.625 7.875H21.375" stroke="white" stroke-width="1.5" stroke-linecap="round" stroke-linejoin="round"/>
<path d="M21.375 6.75C21.375 4.875 19.86 3.375 18 3.375C16.125 3.375 14.625 4.875 14.625 6.75V11.25C14.625 11.865 15.12 12.375 15.75 12.375H20.25C20.865 12.375 21.375 11.865 21.375 11.25V6.75Z" stroke="white" stroke-width="1.5" stroke-linecap="round" stroke-linejoin="round"/>
<path d="M12.375 16.875C11.3307 16.875 10.3292 17.2898 9.59077 18.0283C8.85234 18.7667 8.4375 19.7682 8.4375 20.8125C8.4375 21.8568 8.85234 22.8583 9.59077 23.5967C10.3292 24.3352 11.3307 24.75 12.375 24.75C13.4193 24.75 14.4208 24.3352 15.1592 23.5967C15.8977 22.8583 16.3125 21.8568 16.3125 20.8125C16.3125 19.7682 15.8977 18.7667 15.1592 18.0283C14.4208 17.2898 13.4193 16.875 12.375 16.875Z" stroke="white" stroke-width="1.5" stroke-linecap="round" stroke-linejoin="round"/>
<path d="M5.625 32.625C5.625 28.89 8.64 25.875 12.375 25.875C16.095 25.875 19.125 28.89 19.125 32.625H5.625Z" stroke="white" stroke-width="1.5" stroke-linecap="round" stroke-linejoin="round"/>
<path d="M21.375 19.125H28.125" stroke="white" stroke-width="1.5" stroke-linecap="round" stroke-linejoin="round"/>
<path d="M21.375 23.625H30.375" stroke="white" stroke-width="1.5" stroke-linecap="round" stroke-linejoin="round"/>
</svg>
