<svg width="36" height="36" viewBox="0 0 36 36" fill="none" xmlns="http://www.w3.org/2000/svg">
<path d="M14.625 5.625H7.875C6.63 5.625 5.625 6.63 5.625 7.875V32.625C5.625 33.855 6.63 34.875 7.875 34.875H28.125C29.355 34.875 30.375 33.855 30.375 32.625V7.875C30.375 6.63 29.355 5.625 28.125 5.625H21.375" stroke="white" stroke-width="1.5" stroke-linecap="round" stroke-linejoin="round"/>
<path d="M21.375 4.5C21.375 2.625 19.86 1.125 18 1.125C16.125 1.125 14.625 2.625 14.625 4.5V9C14.625 9.615 15.12 10.125 15.75 10.125H20.25C20.865 10.125 21.375 9.615 21.375 9V4.5Z" stroke="white" stroke-width="1.5" stroke-linecap="round" stroke-linejoin="round"/>
<path d="M18 14.625C17.3352 14.625 16.6769 14.7559 16.0627 15.0104C15.4485 15.2648 14.8904 15.6377 14.4203 16.1078C13.9502 16.5779 13.5773 17.136 13.3229 17.7502C13.0684 18.3644 12.9375 19.0227 12.9375 19.6875C12.9375 20.3523 13.0684 21.0106 13.3229 21.6248C13.5773 22.239 13.9502 22.7971 14.4203 23.2672C14.8904 23.7373 15.4485 24.1102 16.0627 24.3646C16.6769 24.6191 17.3352 24.75 18 24.75C18.6648 24.75 19.3231 24.6191 19.9373 24.3646C20.5515 24.1102 21.1096 23.7373 21.5797 23.2672C22.0498 22.7971 22.4227 22.239 22.6771 21.6248C22.9316 21.0106 23.0625 20.3523 23.0625 19.6875C23.0625 19.0227 22.9316 18.3644 22.6771 17.7502C22.4227 17.136 22.0498 16.5779 21.5797 16.1078C21.1096 15.6377 20.5515 15.2648 19.9373 15.0104C19.3231 14.7559 18.6648 14.625 18 14.625Z" stroke="white" stroke-width="1.5" stroke-linecap="round" stroke-linejoin="round"/>
<path d="M26.9994 34.8754C26.3244 29.8954 21.7494 26.4154 16.7844 27.0754C12.7194 27.6154 9.53937 30.7954 8.98438 34.8604" stroke="white" stroke-width="1.5" stroke-linecap="round" stroke-linejoin="round"/>
</svg>
