<?xml version="1.0" encoding="utf-8"?>
<!-- Generator: Adobe Illustrator 25.3.1, SVG Export Plug-In . SVG Version: 6.00 Build 0)  -->
<svg version="1.1" id="Layer_1" xmlns="http://www.w3.org/2000/svg" xmlns:xlink="http://www.w3.org/1999/xlink" x="0px" y="0px"
	 viewBox="0 0 40 40" style="enable-background:new 0 0 40 40;" xml:space="preserve">
<style type="text/css">
	.st0{fill:#53944F;}
	.st1{fill:#FFFFFF;}
</style>
<g>
	<path class="st0" d="M9.4,0h21.2C35.8,0,40,4.2,40,9.4v21.2c0,5.2-4.2,9.4-9.4,9.4H9.4C4.2,40,0,35.8,0,30.6V9.4C0,4.2,4.2,0,9.4,0
		z"/>
	<path class="st1" d="M27.7,26.1h1.7v3.3h-3.3v-1.7l-1.8-1.8l-1.9,1.9L20.5,26l0.8-0.8L20,23.9L16.1,20l-5.5-5.5v-3.9h3.9l10.7,10.7
		l0.8-0.8l1.8,1.8l-1.9,1.9L27.7,26.1z M25.5,10.6l-5.1,5.1l3.9,3.9l5.1-5.1v-3.9H25.5z M15.7,20.4l-0.9,0.9L14,20.5l-1.8,1.8
		l1.9,1.9l-1.8,1.8h-1.7v3.3h3.3v-1.7l1.8-1.8l1.9,1.9l1.8-1.8l-0.8-0.8l0.9-0.9L15.7,20.4z"/>
</g>
</svg>
