<svg width="14" height="14" viewBox="0 0 14 14" fill="none" xmlns="http://www.w3.org/2000/svg">
<g opacity="0.7" clip-path="url(#clip0_7386_14215)">
<g clip-path="url(#clip1_7386_14215)">
<path d="M10.5833 7.19629L10.668 7.34883C11.0207 7.98376 11.69 8.37754 12.4163 8.37754H12.5415C12.7358 8.37229 12.8985 8.52979 12.9038 8.72404C12.9038 8.81854 12.867 8.91304 12.7935 8.98129L12.4769 9.32572C11.9416 9.90794 11.7997 10.7509 12.1148 11.4763L12.258 11.8058C12.3315 11.9895 12.2423 12.1995 12.0585 12.273C11.9535 12.315 11.8328 12.3045 11.7383 12.252L11.1105 11.8992C10.5026 11.5575 9.76066 11.5571 9.15242 11.8981L8.53073 12.2467C8.53058 12.2467 8.53041 12.2468 8.53024 12.2468V12.2468C8.53007 12.2468 8.52989 12.2468 8.52974 12.2469C8.35653 12.3465 8.13618 12.2835 8.03123 12.1103C7.97348 12.0105 7.96298 11.8898 8.01023 11.79L8.65073 10.32" stroke="white" stroke-width="1.5"/>
<path d="M3.41714 7.19629L3.332 7.34942C2.97916 7.98402 2.3101 8.37754 1.58401 8.37754H1.45784C1.25834 8.37229 1.09559 8.52979 1.09034 8.72404C1.08509 8.81854 1.12184 8.91304 1.19534 8.98129L1.51122 9.32518C2.04631 9.90772 2.1878 10.7509 1.87217 11.4762L1.72874 11.8058C1.64999 11.9895 1.73924 12.1995 1.92299 12.273C2.02274 12.315 2.14349 12.3045 2.23799 12.252L2.85968 11.9014C3.46794 11.5584 4.21106 11.5575 4.82017 11.899L5.44049 12.2468C5.60849 12.3465 5.82899 12.2835 5.93399 12.1103C5.98649 12.0105 5.99699 11.8898 5.94974 11.79L5.30924 10.32" stroke="white" stroke-width="1.5"/>
<path d="M7.16447 1.80164C7.18386 1.8166 7.19961 1.83575 7.21054 1.85767L7.74101 2.92129C8.04752 3.53585 8.64791 3.95017 9.33125 4.01869L10.2389 4.10969C10.3754 4.12019 10.4799 4.24619 10.4642 4.38794C10.4537 4.44569 10.4274 4.49819 10.3907 4.54019L9.55366 5.37454C9.04536 5.88124 8.84753 6.62145 9.03528 7.31418L9.34066 8.44094C9.37741 8.57219 9.29341 8.71394 9.16216 8.75069C9.09916 8.76644 9.03616 8.75594 8.97841 8.72969L7.83708 8.15829C7.27482 7.8768 6.61291 7.87611 6.05007 8.15644L4.90966 8.72444C4.78366 8.78219 4.63141 8.73494 4.56841 8.60894C4.53691 8.55119 4.53166 8.48819 4.54741 8.42519L4.85421 7.29055C5.04115 6.59922 4.84416 5.8607 4.33776 5.35429L3.49741 4.51394C3.39766 4.41419 3.39241 4.25144 3.49216 4.15169C3.52891 4.10969 3.58666 4.08344 3.64441 4.07294L4.54884 3.98226C5.23395 3.91357 5.83555 3.4973 6.14131 2.88036L6.68574 1.78184C6.74349 1.65584 6.89574 1.60334 7.02174 1.66634C7.0567 1.68188 7.08878 1.70892 7.11161 1.74107C7.1272 1.76302 7.14315 1.7852 7.16447 1.80164V1.80164Z" stroke="white" stroke-width="1.5"/>
</g>
</g>
<defs>
<clipPath id="clip0_7386_14215">
<rect width="14" height="14" fill="white"/>
</clipPath>
<clipPath id="clip1_7386_14215">
<rect width="14" height="14" fill="white"/>
</clipPath>
</defs>
</svg>
