<svg width="84" height="84" viewBox="0 0 84 84" fill="none" xmlns="http://www.w3.org/2000/svg">
<g filter="url(#filter0_d_5759_17173)">
<rect x="8" width="68" height="68" rx="16" fill="#156CC3"/>
<g clip-path="url(#clip0_5759_17173)">
<path d="M56.9996 20.5H54.3446L54.6446 18.475C54.7646 17.23 53.8646 16.135 52.6196 16C52.5446 15.985 52.4696 15.985 52.3946 15.985H31.5446V15.9835C30.8996 15.9685 30.2996 16.2385 29.8646 16.7185C29.4146 17.1985 29.2196 17.8585 29.2946 18.5185L29.5946 20.4685H26.9396C25.2746 20.4535 23.9246 21.8035 23.9246 23.4535V27.9535C23.9246 30.6385 25.3646 33.1135 27.6896 34.4635C28.3946 34.8685 29.3246 34.6135 29.7296 33.8935C30.1346 33.1735 29.8796 32.2435 29.1596 31.8385C27.7496 31.0285 26.8796 29.5435 26.8916 27.9235V23.4235H29.9816L30.9266 29.737C31.1816 31.462 33.4016 39.1735 41.8766 39.1735C50.3486 39.1735 52.5731 31.477 52.8266 29.737L53.7716 23.4235H56.8616V27.9235C56.8466 29.5285 55.9916 31.0135 54.5816 31.8235C53.8616 32.2285 53.6066 33.1435 54.0116 33.8635C54.4166 34.5685 55.3316 34.8235 56.0516 34.4185C58.3766 33.0685 59.8166 30.5935 59.8166 27.8935V23.3935C59.8166 21.7285 58.4666 20.3935 56.8166 20.3935L56.9996 20.5ZM46.6046 31.405C46.7696 31.795 46.5746 32.26 46.1696 32.425C45.9296 32.515 45.6746 32.5 45.4646 32.38L42.1646 30.52C42.0446 30.445 41.9081 30.445 41.7881 30.52L38.4881 32.365C38.0981 32.575 37.6181 32.44 37.4081 32.065C37.2731 31.84 37.2581 31.585 37.3631 31.36L38.6981 28.2835C38.7581 28.1335 38.7281 27.9685 38.6081 27.8635L36.1781 25.4785C35.8631 25.2085 35.8331 24.7435 36.1031 24.4435C36.2381 24.2635 36.4631 24.1735 36.6881 24.1885H39.4481C39.5831 24.1885 39.7166 24.0985 39.7766 23.9635L41.2166 20.8585C41.4116 20.4535 41.8916 20.3035 42.2816 20.5135C42.4166 20.5885 42.5366 20.7085 42.6116 20.8435L44.0516 23.9485C44.1116 24.0685 44.2316 24.1585 44.3816 24.1585H47.1416C47.5316 24.1285 47.8766 24.4435 47.8916 24.8485C47.8916 25.0585 47.8016 25.2685 47.6366 25.4185L45.2066 27.8035C45.0866 27.9085 45.0566 28.0735 45.1166 28.2085L46.6046 31.405Z" fill="white"/>
<path d="M40.2909 36.034C40.1709 36.004 39.9459 37.925 39.8709 38C39.8709 32.542 39.7344 36.9998 39.7344 41.7278V45.3773C34.7004 46.0073 31.4844 48.6473 31.4844 50.4773C31.4844 51.3023 32.1444 51.9773 32.9844 51.9773H50.9844C51.8094 51.9773 52.4844 51.3023 52.4844 50.4773C52.4844 48.6458 49.2594 45.9923 44.2344 45.3668V37.5C44.2194 37.38 44.1744 38.06 44.0994 38C44.0094 37.925 43.9044 35.9848 43.7994 35.9998C42.5844 36.1648 41.3544 36.1648 40.1394 35.9998L40.2909 36.034Z" fill="white"/>
</g>
</g>
<defs>
<filter id="filter0_d_5759_17173" x="0" y="0" width="84" height="84" filterUnits="userSpaceOnUse" color-interpolation-filters="sRGB">
<feFlood flood-opacity="0" result="BackgroundImageFix"/>
<feColorMatrix in="SourceAlpha" type="matrix" values="0 0 0 0 0 0 0 0 0 0 0 0 0 0 0 0 0 0 127 0" result="hardAlpha"/>
<feOffset dy="8"/>
<feGaussianBlur stdDeviation="4"/>
<feComposite in2="hardAlpha" operator="out"/>
<feColorMatrix type="matrix" values="0 0 0 0 0 0 0 0 0 0 0 0 0 0 0 0 0 0 0.12 0"/>
<feBlend mode="normal" in2="BackgroundImageFix" result="effect1_dropShadow_5759_17173"/>
<feBlend mode="normal" in="SourceGraphic" in2="effect1_dropShadow_5759_17173" result="shape"/>
</filter>
<clipPath id="clip0_5759_17173">
<rect width="36" height="36" fill="white" transform="translate(24 16)"/>
</clipPath>
</defs>
</svg>
