<svg width="16" height="16" viewBox="0 0 16 16" fill="none" xmlns="http://www.w3.org/2000/svg">
<path d="M11.334 1.3335V8.66683M14.6674 6.5335V3.46683C14.6674 2.72009 14.6674 2.34672 14.522 2.06151C14.3942 1.81063 14.1902 1.60665 13.9393 1.47882C13.6541 1.3335 13.2808 1.3335 12.534 1.3335H5.41269C4.43837 1.3335 3.95121 1.3335 3.55774 1.51179C3.21095 1.66892 2.91622 1.92178 2.70818 2.24064C2.47213 2.60243 2.39806 3.08392 2.2499 4.04691L1.90119 6.31358C1.70578 7.5837 1.60808 8.21877 1.79656 8.71291C1.96198 9.14662 2.27312 9.50929 2.67663 9.73874C3.13637 10.0002 3.77891 10.0002 5.06398 10.0002H5.60069C5.97405 10.0002 6.16074 10.0002 6.30335 10.0728C6.42879 10.1367 6.53078 10.2387 6.59469 10.3642C6.66735 10.5068 6.66735 10.6935 6.66735 11.0668V13.0229C6.66735 13.9308 7.40335 14.6668 8.31125 14.6668C8.5278 14.6668 8.72403 14.5393 8.81198 14.3414L11.0525 9.30028C11.1544 9.071 11.2053 8.95635 11.2859 8.87229C11.3571 8.79798 11.4445 8.74116 11.5413 8.70629C11.6508 8.66683 11.7763 8.66683 12.0272 8.66683H12.534C13.2808 8.66683 13.6541 8.66683 13.9393 8.5215C14.1902 8.39367 14.3942 8.1897 14.522 7.93882C14.6674 7.6536 14.6674 7.28023 14.6674 6.5335Z" stroke="white" stroke-width="1.25" stroke-linecap="round" stroke-linejoin="round"/>
</svg>
