<svg width="16" height="16" viewBox="0 0 16 16" fill="none" xmlns="http://www.w3.org/2000/svg">
<path d="M4.66732 14.6668V7.3335M1.33398 8.66683V13.3335C1.33398 14.0699 1.93094 14.6668 2.66732 14.6668H11.6181C12.6053 14.6668 13.4448 13.9466 13.5949 12.9709L14.3128 8.30428C14.4992 7.09276 13.5619 6.00016 12.3361 6.00016H10.0007C9.63246 6.00016 9.33398 5.70169 9.33398 5.3335V2.97739C9.33398 2.06949 8.59799 1.3335 7.69009 1.3335C7.47354 1.3335 7.2773 1.46103 7.18936 1.65891L4.84328 6.93759C4.73628 7.17834 4.49753 7.3335 4.23407 7.3335H2.66732C1.93094 7.3335 1.33398 7.93045 1.33398 8.66683Z" stroke="white" stroke-width="1.25" stroke-linecap="round" stroke-linejoin="round"/>
</svg>
