<svg width="393" height="121" viewBox="0 0 393 121" fill="none" xmlns="http://www.w3.org/2000/svg">fill="#ffffff10"
<path d="M73.351 -89.4216L73.351 -101.165L62.7997 -101.165L62.7997 -89.4216L73.351 -89.4216Z" fill="#ffffff10"/>
<path d="M266.733 -89.507L266.733 -101.25L256.184 -101.25L256.184 -89.507L266.733 -89.507Z" fill="#ffffff10"/>
<path d="M395.655 -89.507L395.655 -101.25L385.106 -101.25L385.106 -89.507L395.655 -89.507Z" fill="#ffffff10"/>
<path d="M427.884 -89.507L427.884 -101.25L417.335 -101.25L417.335 -89.507L427.884 -89.507Z" fill="#ffffff10"/>
<path d="M137.812 -89.424L137.812 -101.167L127.263 -101.167L127.263 -89.424L137.812 -89.424Z" fill="#ffffff10"/>
<path d="M-23.3413 -89.424L-23.3413 -101.167L-33.8905 -101.167L-33.8905 -89.424L-23.3413 -89.424Z" fill="#ffffff10"/>
<path d="M170.041 -89.4216L170.041 -101.165L159.492 -101.165L159.492 -89.4216L170.041 -89.4216Z" fill="#ffffff10"/>
<path d="M202.273 -89.4216L202.273 -101.165L191.721 -101.165L191.721 -89.4216L202.273 -89.4216Z" fill="#ffffff10"/>
<path d="M41.1216 -89.4216L41.1216 -101.165L30.5703 -101.165L30.5703 -89.4216L41.1216 -89.4216Z" fill="#ffffff10"/>
<path d="M8.88804 -89.4216L8.88804 -101.165L-1.66117 -101.165L-1.66117 -89.4216L8.88804 -89.4216Z" fill="#ffffff10"/>
<path d="M331.194 -89.5046L331.194 -101.248L320.645 -101.248L320.645 -89.5046L331.194 -89.5046Z" fill="#ffffff10"/>
<path d="M234.502 -89.5047L234.502 -101.248L223.951 -101.248L223.951 -89.5047L234.502 -89.5047Z" fill="#ffffff10"/>
<path d="M298.963 -89.507L298.963 -101.25L288.414 -101.25L288.414 -89.507L298.963 -89.507Z" fill="#ffffff10"/>
<path d="M363.424 -89.5046L363.424 -101.248L352.874 -101.248L352.874 -89.5046L363.424 -89.5046Z" fill="#ffffff10"/>
<path d="M105.58 -89.4216L105.58 -101.165L95.029 -101.165L95.029 -89.4216L105.58 -89.4216Z" fill="#ffffff10"/>
<path d="M218.367 -89.507L218.367 -101.248L207.841 -101.248L207.841 -89.507L218.367 -89.507Z" fill="#ffffff10"/>
<path d="M186.133 -89.424L186.133 -101.165L175.606 -101.165L175.606 -89.424L186.133 -89.424Z" fill="#ffffff10"/>
<path d="M24.9846 -89.424L24.9846 -101.167L14.461 -101.167L14.461 -89.424L24.9846 -89.424Z" fill="#ffffff10"/>
<path d="M57.2161 -89.4264L57.2161 -101.167L46.6925 -101.167L46.6925 -89.4264L57.2161 -89.4264Z" fill="#ffffff10"/>
<path d="M121.677 -89.4264L121.677 -101.167L111.153 -101.167L111.153 -89.4264L121.677 -89.4264Z" fill="#ffffff10"/>
<path d="M443.981 -89.507L443.981 -101.248L433.455 -101.248L433.455 -89.507L443.981 -89.507Z" fill="#ffffff10"/>
<path d="M-7.24477 -89.424L-7.24477 -101.165L-17.7705 -101.165L-17.7705 -89.424L-7.24477 -89.424Z" fill="#ffffff10"/>
<path d="M379.52 -89.507L379.52 -101.248L368.997 -101.248L368.997 -89.507L379.52 -89.507Z" fill="#ffffff10"/>
<path d="M250.599 -89.507L250.599 -101.248L240.075 -101.248L240.075 -89.507L250.599 -89.507Z" fill="#ffffff10"/>
<path d="M315.059 -89.507L315.059 -101.248L304.536 -101.248L304.536 -89.507L315.059 -89.507Z" fill="#ffffff10"/>
<path d="M89.4454 -89.424L89.4454 -101.165L78.9197 -101.165L78.9197 -89.424L89.4454 -89.424Z" fill="#ffffff10"/>
<path d="M-39.4762 -89.424L-39.4762 -101.165L-50.002 -101.165L-50.002 -89.424L-39.4762 -89.424Z" fill="#ffffff10"/>
<path d="M153.906 -89.424L153.906 -101.165L143.383 -101.165L143.383 -89.424L153.906 -89.424Z" fill="#ffffff10"/>
<path d="M282.824 -89.5047L282.824 -101.248L272.296 -101.248L272.296 -89.5047L282.824 -89.5047Z" fill="#ffffff10"/>
<path d="M347.284 -89.507L347.284 -101.248L336.757 -101.248L336.757 -89.507L347.284 -89.507Z" fill="#ffffff10"/>
<path d="M411.747 -89.5046L411.747 -101.248L401.22 -101.248L401.22 -89.5046L411.747 -89.5046Z" fill="#ffffff10"/>
<path d="M355.257 -80.6478L355.257 -92.1588L344.919 -92.1588L344.919 -80.6478L355.257 -80.6478Z" fill="#ffffff10"/>
<path d="M258.567 -80.6478L258.567 -92.1589L248.229 -92.1589L248.229 -80.6478L258.567 -80.6478Z" fill="#ffffff10"/>
<path d="M323.028 -80.6549L323.028 -92.1494L312.69 -92.1494L312.689 -80.6549L323.028 -80.6549Z" fill="#ffffff10"/>
<path d="M226.327 -80.6526L226.327 -92.1517L215.997 -92.1517L215.997 -80.6526L226.327 -80.6526Z" fill="#ffffff10"/>
<path d="M290.796 -80.6502L290.796 -92.1612L280.458 -92.1612L280.458 -80.6502L290.796 -80.6502Z" fill="#ffffff10"/>
<path d="M419.718 -80.6502L419.718 -92.1612L409.38 -92.1612L409.38 -80.6502L419.718 -80.6502Z" fill="#ffffff10"/>
<path d="M387.489 -80.6478L387.489 -92.1588L377.15 -92.1588L377.15 -80.6478L387.489 -80.6478Z" fill="#ffffff10"/>
<path d="M194.098 -80.5909L194.098 -92.0735L183.768 -92.0735L183.768 -80.5909L194.098 -80.5909Z" fill="#ffffff10"/>
<path d="M274.659 -80.655L274.659 -92.1517L264.353 -92.1517L264.353 -80.655L274.659 -80.655Z" fill="#ffffff10"/>
<path d="M97.4074 -80.6004L97.4074 -92.0711L87.0777 -92.0711L87.0777 -80.6004L97.4074 -80.6004Z" fill="#ffffff10"/>
<path d="M371.349 -80.6526L371.349 -92.1494L361.045 -92.1494L361.045 -80.6526L371.349 -80.6526Z" fill="#ffffff10"/>
<path d="M0.715092 -80.6004L0.715092 -92.0711L-9.61457 -92.0711L-9.61457 -80.6004L0.715092 -80.6004Z" fill="#ffffff10"/>
<path d="M306.891 -80.655L306.891 -92.1517L296.584 -92.1517L296.584 -80.655L306.891 -80.655Z" fill="#ffffff10"/>
<path d="M242.443 -80.6526L242.443 -92.1494L232.124 -92.1494L232.124 -80.6526L242.443 -80.6526Z" fill="#ffffff10"/>
<path d="M161.866 -80.6004L161.866 -92.0711L151.536 -92.0711L151.536 -80.6004L161.866 -80.6004Z" fill="#ffffff10"/>
<path d="M339.12 -80.6526L339.12 -92.1494L328.814 -92.1494L328.814 -80.6526L339.12 -80.6526Z" fill="#ffffff10"/>
<path d="M32.9466 -80.6004L32.9466 -92.0735L22.6147 -92.0735L22.6147 -80.6004L32.9466 -80.6004Z" fill="#ffffff10"/>
<path d="M435.812 -80.6549L435.812 -92.1517L425.506 -92.1517L425.506 -80.6549L435.812 -80.6549Z" fill="#ffffff10"/>
<path d="M403.581 -80.6526L403.581 -92.1494L393.277 -92.1494L393.277 -80.6526L403.581 -80.6526Z" fill="#ffffff10"/>
<path d="M65.1759 -80.6004L65.1759 -92.0711L54.8462 -92.0711L54.8462 -80.6004L65.1759 -80.6004Z" fill="#ffffff10"/>
<path d="M-31.5142 -80.5909L-31.5142 -92.0735L-41.8439 -92.0735L-41.8439 -80.5909L-31.5142 -80.5909Z" fill="#ffffff10"/>
<path d="M129.637 -80.6004L129.637 -92.0735L119.305 -92.0735L119.305 -80.6004L129.637 -80.6004Z" fill="#ffffff10"/>
<path d="M81.2746 -80.6052L81.2746 -92.0735L70.9705 -92.0735L70.9705 -80.6052L81.2746 -80.6052Z" fill="#ffffff10"/>
<path d="M113.504 -80.6052L113.504 -92.0735L103.2 -92.0735L103.2 -80.6052L113.504 -80.6052Z" fill="#ffffff10"/>
<path d="M-15.4177 -80.6052L-15.4177 -92.0735L-25.7218 -92.0735L-25.7218 -80.6052L-15.4177 -80.6052Z" fill="#ffffff10"/>
<path d="M16.8138 -80.6052L16.8138 -92.0735L6.50967 -92.0735L6.50967 -80.6052L16.8138 -80.6052Z" fill="#ffffff10"/>
<path d="M49.0431 -80.6052L49.0431 -92.0735L38.739 -92.0735L38.739 -80.6052L49.0431 -80.6052Z" fill="#ffffff10"/>
<path d="M210.196 -80.6051L210.196 -92.0735L199.892 -92.0735L199.892 -80.6051L210.196 -80.6051Z" fill="#ffffff10"/>
<path d="M145.735 -80.6051L145.735 -92.0735L135.431 -92.0735L135.431 -80.6051L145.735 -80.6051Z" fill="#ffffff10"/>
<path d="M177.965 -80.5933L177.965 -92.0735L167.663 -92.0735L167.663 -80.5933L177.965 -80.5933Z" fill="#ffffff10"/>
<path d="M218.171 -71.8053L218.171 -83.0743L208.052 -83.0743L208.052 -71.8053L218.171 -71.8053Z" fill="#ffffff10"/>
<path d="M-23.5459 -71.7294L-23.5459 -82.9866L-33.7008 -82.9866L-33.7008 -71.7294L-23.5459 -71.7294Z" fill="#ffffff10"/>
<path d="M105.359 -71.7104L105.359 -82.9866L95.223 -82.9866L95.223 -71.7104L105.359 -71.7104Z" fill="#ffffff10"/>
<path d="M57.02 -71.727L57.02 -82.9866L46.8949 -82.9866L46.8949 -71.727L57.02 -71.727Z" fill="#ffffff10"/>
<path d="M379.324 -71.8052L379.324 -83.072L369.208 -83.072L369.208 -71.8052L379.324 -71.8052Z" fill="#ffffff10"/>
<path d="M-7.44081 -71.727L-7.44081 -82.9866L-17.5659 -82.9866L-17.5659 -71.727L-7.44081 -71.727Z" fill="#ffffff10"/>
<path d="M8.66852 -71.7199L8.66852 -82.9866L-1.46933 -82.9866L-1.46933 -71.7199L8.66852 -71.7199Z" fill="#ffffff10"/>
<path d="M202.053 -71.7294L202.053 -82.9913L191.915 -82.9913L191.915 -71.7294L202.053 -71.7294Z" fill="#ffffff10"/>
<path d="M24.7885 -71.727L24.7885 -82.9866L14.6656 -82.9866L14.6656 -71.727L24.7885 -71.727Z" fill="#ffffff10"/>
<path d="M40.9107 -71.727L40.9107 -82.9842L30.7621 -82.9842L30.7621 -71.727L40.9107 -71.727Z" fill="#ffffff10"/>
<path d="M363.215 -71.8124L363.215 -83.0696L353.068 -83.0696L353.068 -71.8124L363.215 -71.8124Z" fill="#ffffff10"/>
<path d="M169.822 -71.7151L169.822 -82.9937L159.686 -82.9937L159.686 -71.7151L169.822 -71.7151Z" fill="#ffffff10"/>
<path d="M347.095 -71.8053L347.095 -83.072L336.978 -83.072L336.978 -71.8053L347.095 -71.8053Z" fill="#ffffff10"/>
<path d="M234.282 -71.8124L234.282 -83.0862L224.147 -83.0862L224.147 -71.8124L234.282 -71.8124Z" fill="#ffffff10"/>
<path d="M185.942 -71.7246L185.942 -82.9937L175.825 -82.9937L175.825 -71.7246L185.942 -71.7246Z" fill="#ffffff10"/>
<path d="M443.785 -71.8052L443.785 -83.0743L433.668 -83.0743L433.668 -71.8052L443.785 -71.8052Z" fill="#ffffff10"/>
<path d="M73.1336 -71.727L73.1336 -82.9842L62.9915 -82.9842L62.9915 -71.727L73.1336 -71.727Z" fill="#ffffff10"/>
<path d="M250.402 -71.8053L250.402 -83.0743L240.284 -83.0743L240.284 -71.8053L250.402 -71.8053Z" fill="#ffffff10"/>
<path d="M427.667 -71.8076L427.667 -83.0696L417.529 -83.0696L417.529 -71.8076L427.667 -71.8076Z" fill="#ffffff10"/>
<path d="M330.983 -71.8124L330.983 -83.0696L320.837 -83.0696L320.837 -71.8124L330.983 -71.8124Z" fill="#ffffff10"/>
<path d="M266.512 -71.8124L266.512 -83.0886L256.376 -83.0886L256.376 -71.8124L266.512 -71.8124Z" fill="#ffffff10"/>
<path d="M137.594 -71.727L137.594 -82.9842L127.452 -82.9842L127.452 -71.727L137.594 -71.727Z" fill="#ffffff10"/>
<path d="M121.481 -71.727L121.481 -82.9889L111.356 -82.9889L111.356 -71.727L121.481 -71.727Z" fill="#ffffff10"/>
<path d="M89.2493 -71.727L89.2493 -82.9866L79.1243 -82.9866L79.1243 -71.727L89.2493 -71.727Z" fill="#ffffff10"/>
<path d="M411.553 -71.8052L411.553 -83.0743L401.435 -83.0743L401.435 -71.8052L411.553 -71.8052Z" fill="#ffffff10"/>
<path d="M282.632 -71.8053L282.632 -83.0743L272.515 -83.0743L272.515 -71.8053L282.632 -71.8053Z" fill="#ffffff10"/>
<path d="M153.71 -71.7246L153.71 -82.9937L143.591 -82.9937L143.591 -71.7246L153.71 -71.7246Z" fill="#ffffff10"/>
<path d="M314.863 -71.8053L314.863 -83.0743L304.747 -83.0743L304.747 -71.8053L314.863 -71.8053Z" fill="#ffffff10"/>
<path d="M298.754 -71.8147L298.754 -83.072L288.603 -83.072L288.603 -71.8147L298.754 -71.8147Z" fill="#ffffff10"/>
<path d="M395.433 -71.8076L395.433 -83.0886L385.298 -83.0886L385.298 -71.8076L395.433 -71.8076Z" fill="#ffffff10"/>
<path d="M-39.6702 -71.727L-39.6702 -82.9866L-49.7952 -82.9866L-49.7952 -71.727L-39.6702 -71.727Z" fill="#ffffff10"/>
<path d="M193.897 -62.8725L193.897 -73.8973L183.992 -73.8973L183.992 -62.8725L193.897 -62.8725Z" fill="#ffffff10"/>
<path d="M-31.7168 -62.8726L-31.7167 -73.8997L-41.6287 -73.8997L-41.6287 -62.8726L-31.7168 -62.8726Z" fill="#ffffff10"/>
<path d="M64.9756 -62.8725L64.9756 -73.8973L55.07 -73.8973L55.07 -62.8725L64.9756 -62.8725Z" fill="#ffffff10"/>
<path d="M32.7441 -62.8725L32.7441 -73.8973L22.8385 -73.8973L22.8385 -62.8725L32.7441 -62.8725Z" fill="#ffffff10"/>
<path d="M97.2028 -62.8725L97.2028 -73.9092L87.2993 -73.9092L87.2993 -62.8725L97.2028 -62.8725Z" fill="#ffffff10"/>
<path d="M0.51051 -62.8725L0.51051 -73.9021L-9.39298 -73.9021L-9.39298 -62.8726L0.51051 -62.8725Z" fill="#ffffff10"/>
<path d="M129.436 -62.8725L129.436 -73.8997L119.524 -73.8997L119.524 -62.8725L129.436 -62.8725Z" fill="#ffffff10"/>
<path d="M161.664 -62.8749L161.664 -73.9021L151.76 -73.9021L151.76 -62.8749L161.664 -62.8749Z" fill="#ffffff10"/>
<path d="M403.372 -62.9508L403.372 -73.9708L393.477 -73.9708L393.477 -62.9508L403.372 -62.9508Z" fill="#ffffff10"/>
<path d="M274.45 -62.9508L274.45 -73.9708L264.553 -73.9708L264.553 -62.9508L274.45 -62.9508Z" fill="#ffffff10"/>
<path d="M371.145 -62.9508L371.145 -73.9661L361.246 -73.9661L361.246 -62.9508L371.145 -62.9508Z" fill="#ffffff10"/>
<path d="M435.601 -62.9508L435.601 -73.9708L425.706 -73.9708L425.706 -62.9508L435.601 -62.9508Z" fill="#ffffff10"/>
<path d="M242.219 -62.9508L242.219 -73.9708L232.324 -73.9708L232.324 -62.9508L242.219 -62.9508Z" fill="#ffffff10"/>
<path d="M306.684 -62.9508L306.684 -73.9661L296.785 -73.9661L296.785 -62.9508L306.684 -62.9508Z" fill="#ffffff10"/>
<path d="M338.915 -62.9508L338.915 -73.9661L329.016 -73.9661L329.016 -62.9508L338.915 -62.9508Z" fill="#ffffff10"/>
<path d="M419.511 -62.9555L419.511 -73.9637L409.601 -73.9637L409.601 -62.9555L419.511 -62.9555Z" fill="#ffffff10"/>
<path d="M355.05 -62.9579L355.05 -73.9661L345.138 -73.9661L345.138 -62.9579L355.05 -62.9579Z" fill="#ffffff10"/>
<path d="M48.8364 -62.8702L48.8364 -73.9021L38.9457 -73.9021L38.9457 -62.8702L48.8364 -62.8702Z" fill="#ffffff10"/>
<path d="M226.129 -62.9579L226.129 -73.9637L216.219 -73.9637L216.219 -62.9579L226.129 -62.9579Z" fill="#ffffff10"/>
<path d="M145.527 -62.8725L145.527 -73.9021L135.638 -73.9021L135.638 -62.8725L145.527 -62.8725Z" fill="#ffffff10"/>
<path d="M209.987 -62.8725L209.987 -73.902L200.099 -73.9021L200.099 -62.8725L209.987 -62.8725Z" fill="#ffffff10"/>
<path d="M177.758 -62.8702L177.758 -73.8997L167.867 -73.8997L167.867 -62.8702L177.758 -62.8702Z" fill="#ffffff10"/>
<path d="M322.819 -62.9579L322.819 -73.9661L312.907 -73.9661L312.907 -62.9579L322.819 -62.9579Z" fill="#ffffff10"/>
<path d="M387.28 -62.9555L387.28 -73.9637L377.37 -73.9637L377.37 -62.9555L387.28 -62.9555Z" fill="#ffffff10"/>
<path d="M113.297 -62.8725L113.297 -73.9021L103.407 -73.9021L103.407 -62.8725L113.297 -62.8725Z" fill="#ffffff10"/>
<path d="M16.6049 -62.8702L16.6049 -73.9021L6.71425 -73.9021L6.71425 -62.8702L16.6049 -62.8702Z" fill="#ffffff10"/>
<path d="M290.59 -62.9579L290.59 -73.9661L280.678 -73.9661L280.678 -62.9579L290.59 -62.9579Z" fill="#ffffff10"/>
<path d="M81.0657 -62.8702L81.0657 -73.9021L71.1751 -73.9021L71.1751 -62.8702L81.0657 -62.8702Z" fill="#ffffff10"/>
<path d="M258.358 -62.9579L258.358 -73.9661L248.446 -73.9661L248.446 -62.9579L258.358 -62.9579Z" fill="#ffffff10"/>
<path d="M-15.6245 -62.8702L-15.6245 -73.9021L-25.5151 -73.9021L-25.5151 -62.8702L-15.6245 -62.8702Z" fill="#ffffff10"/>
<path d="M56.7898 -54.0561L56.7898 -64.8247L47.1251 -64.8247L47.1251 -54.0561L56.7898 -54.0561Z" fill="#ffffff10"/>
<path d="M217.943 -54.1059L217.943 -64.8745L208.278 -64.8745L208.278 -54.1059L217.943 -54.1059Z" fill="#ffffff10"/>
<path d="M121.251 -54.0466L121.251 -64.8199L111.586 -64.8199L111.586 -54.0466L121.251 -54.0466Z" fill="#ffffff10"/>
<path d="M314.635 -54.1082L314.635 -64.8768L304.968 -64.8768L304.968 -54.1082L314.635 -54.1082Z" fill="#ffffff10"/>
<path d="M411.325 -54.1035L411.325 -64.8721L401.661 -64.8721L401.661 -54.1035L411.325 -54.1035Z" fill="#ffffff10"/>
<path d="M153.482 -54.0537L153.482 -64.8223L143.817 -64.8223L143.817 -54.0537L153.482 -54.0537Z" fill="#ffffff10"/>
<path d="M-39.9003 -54.0466L-39.9003 -64.8199L-49.5651 -64.8199L-49.5651 -54.0466L-39.9003 -54.0466Z" fill="#ffffff10"/>
<path d="M282.404 -54.1035L282.404 -64.8721L272.739 -64.8721L272.739 -54.1035L282.404 -54.1035Z" fill="#ffffff10"/>
<path d="M-7.67099 -54.0537L-7.67099 -64.8223L-17.3357 -64.8223L-17.3357 -54.0537L-7.67099 -54.0537Z" fill="#ffffff10"/>
<path d="M89.0213 -54.0561L89.0213 -64.8246L79.3565 -64.8246L79.3565 -54.0561L89.0213 -54.0561Z" fill="#ffffff10"/>
<path d="M250.172 -54.1035L250.172 -64.8721L240.508 -64.8721L240.508 -54.1035L250.172 -54.1035Z" fill="#ffffff10"/>
<path d="M379.094 -54.1035L379.094 -64.8721L369.429 -64.8721L369.429 -54.1035L379.094 -54.1035Z" fill="#ffffff10"/>
<path d="M443.555 -54.1058L443.555 -64.8744L433.89 -64.8744L433.89 -54.1059L443.555 -54.1058Z" fill="#ffffff10"/>
<path d="M24.5605 -54.0561L24.5605 -64.8247L14.8957 -64.8247L14.8957 -54.0561L24.5605 -54.0561Z" fill="#ffffff10"/>
<path d="M185.711 -54.0489L185.711 -64.8223L176.047 -64.8223L176.047 -54.0489L185.711 -54.0489Z" fill="#ffffff10"/>
<path d="M346.865 -54.1059L346.865 -64.8744L337.2 -64.8744L337.2 -54.1059L346.865 -54.1059Z" fill="#ffffff10"/>
<path d="M-23.7974 -54.0584L-23.7974 -64.8199L-33.4664 -64.8199L-33.4664 -54.0584L-23.7974 -54.0584Z" fill="#ffffff10"/>
<path d="M105.124 -54.0584L105.124 -64.8199L95.4552 -64.8199L95.4552 -54.0584L105.124 -54.0584Z" fill="#ffffff10"/>
<path d="M137.356 -54.0584L137.356 -64.8199L127.687 -64.8199L127.687 -54.0584L137.356 -54.0584Z" fill="#ffffff10"/>
<path d="M40.6634 -54.0584L40.6634 -64.8199L30.9944 -64.8199L30.9944 -54.0584L40.6634 -54.0584Z" fill="#ffffff10"/>
<path d="M298.507 -54.1082L298.507 -64.8697L288.838 -64.8697L288.838 -54.1082L298.507 -54.1082Z" fill="#ffffff10"/>
<path d="M395.199 -54.1082L395.199 -64.8697L385.53 -64.8697L385.53 -54.1082L395.199 -54.1082Z" fill="#ffffff10"/>
<path d="M72.8928 -54.0584L72.8928 -64.8199L63.2238 -64.8199L63.2238 -54.0584L72.8928 -54.0584Z" fill="#ffffff10"/>
<path d="M8.4341 -54.0584L8.4341 -64.8199L-1.23494 -64.8199L-1.23494 -54.0584L8.4341 -54.0584Z" fill="#ffffff10"/>
<path d="M169.585 -54.0584L169.585 -64.8199L159.916 -64.8199L159.916 -54.0584L169.585 -54.0584Z" fill="#ffffff10"/>
<path d="M427.428 -54.1082L427.428 -64.8697L417.759 -64.8697L417.759 -54.1082L427.428 -54.1082Z" fill="#ffffff10"/>
<path d="M330.738 -54.1082L330.738 -64.8697L321.069 -64.8697L321.069 -54.1082L330.738 -54.1082Z" fill="#ffffff10"/>
<path d="M266.277 -54.1082L266.277 -64.8697L256.608 -64.8697L256.608 -54.1082L266.277 -54.1082Z" fill="#ffffff10"/>
<path d="M201.817 -54.0584L201.817 -64.8199L192.148 -64.8199L192.148 -54.0584L201.817 -54.0584Z" fill="#ffffff10"/>
<path d="M234.046 -54.1082L234.046 -64.8697L224.377 -64.8697L224.377 -54.1082L234.046 -54.1082Z" fill="#ffffff10"/>
<path d="M362.968 -54.1082L362.968 -64.8697L353.299 -64.8697L353.299 -54.1082L362.968 -54.1082Z" fill="#ffffff10"/>
<path d="M387.041 -45.287L387.041 -55.7899L377.611 -55.7899L377.611 -45.287L387.041 -45.287Z" fill="#ffffff10"/>
<path d="M258.119 -45.287L258.119 -55.7876L248.691 -55.7876L248.691 -45.287L258.119 -45.287Z" fill="#ffffff10"/>
<path d="M354.809 -45.287L354.809 -55.7899L345.379 -55.7899L345.379 -45.287L354.809 -45.287Z" fill="#ffffff10"/>
<path d="M419.27 -45.287L419.27 -55.7899L409.84 -55.7899L409.84 -45.287L419.27 -45.287Z" fill="#ffffff10"/>
<path d="M290.349 -45.287L290.349 -55.7876L280.92 -55.7876L280.92 -45.287L290.349 -45.287Z" fill="#ffffff10"/>
<path d="M225.888 -45.287L225.888 -55.7899L216.458 -55.7899L216.458 -45.287L225.888 -45.287Z" fill="#ffffff10"/>
<path d="M322.58 -45.287L322.58 -55.7876L313.152 -55.7876L313.152 -45.287L322.58 -45.287Z" fill="#ffffff10"/>
<path d="M177.532 -45.2087L177.532 -55.7164L168.093 -55.7164L168.093 -45.2087L177.532 -45.2087Z" fill="#ffffff10"/>
<path d="M80.8462 -45.2135L80.8462 -55.7259L71.3967 -55.7259L71.3967 -45.2135L80.8462 -45.2135Z" fill="#ffffff10"/>
<path d="M113.073 -45.2087L113.073 -55.7259L103.628 -55.7259L103.628 -45.2087L113.073 -45.2087Z" fill="#ffffff10"/>
<path d="M-15.8503 -45.2087L-15.8503 -55.7164L-25.2892 -55.7164L-25.2892 -45.2087L-15.8503 -45.2087Z" fill="#ffffff10"/>
<path d="M145.305 -45.2135L145.305 -55.7188L135.858 -55.7188L135.858 -45.2135L145.305 -45.2135Z" fill="#ffffff10"/>
<path d="M48.6126 -45.2087L48.6126 -55.7259L39.1652 -55.7259L39.1652 -45.2087L48.6126 -45.2087Z" fill="#ffffff10"/>
<path d="M209.768 -45.2135L209.768 -55.7259L200.318 -55.7259L200.318 -45.2135L209.768 -45.2135Z" fill="#ffffff10"/>
<path d="M16.3811 -45.2087L16.3811 -55.7164L6.9423 -55.7164L6.9423 -45.2087L16.3811 -45.2087Z" fill="#ffffff10"/>
<path d="M0.273926 -45.2111L0.27393 -55.7259L-9.1564 -55.7259L-9.1564 -45.2111L0.273926 -45.2111Z" fill="#ffffff10"/>
<path d="M64.7347 -45.2087L64.7347 -55.7235L55.3044 -55.7235L55.3044 -45.2087L64.7347 -45.2087Z" fill="#ffffff10"/>
<path d="M-31.9511 -45.2087L-31.9511 -55.714L-41.3836 -55.714L-41.3836 -45.2087L-31.9511 -45.2087Z" fill="#ffffff10"/>
<path d="M129.196 -45.2111L129.196 -55.7259L119.765 -55.7259L119.765 -45.2111L129.196 -45.2111Z" fill="#ffffff10"/>
<path d="M193.656 -45.2087L193.656 -55.7235L184.226 -55.7235L184.226 -45.2087L193.656 -45.2087Z" fill="#ffffff10"/>
<path d="M96.9683 -45.2087L96.9683 -55.714L87.5338 -55.714L87.5338 -45.2087L96.9683 -45.2087Z" fill="#ffffff10"/>
<path d="M161.431 -45.2087L161.431 -55.714L151.997 -55.714L151.997 -45.2087L161.431 -45.2087Z" fill="#ffffff10"/>
<path d="M32.5097 -45.2087L32.5097 -55.714L23.0772 -55.714L23.0772 -45.2087L32.5097 -45.2087Z" fill="#ffffff10"/>
<path d="M370.917 -45.2894L370.917 -55.7876L361.469 -55.7876L361.469 -45.2894L370.917 -45.2894Z" fill="#ffffff10"/>
<path d="M403.148 -45.2894L403.148 -55.7876L393.701 -55.7876L393.701 -45.2894L403.148 -45.2894Z" fill="#ffffff10"/>
<path d="M338.685 -45.2917L338.685 -55.7876L329.24 -55.7876L329.24 -45.2917L338.685 -45.2917Z" fill="#ffffff10"/>
<path d="M241.995 -45.2894L241.995 -55.7876L232.548 -55.7876L232.548 -45.2894L241.995 -45.2894Z" fill="#ffffff10"/>
<path d="M306.456 -45.2917L306.456 -55.7876L297.013 -55.7876L297.013 -45.2917L306.456 -45.2917Z" fill="#ffffff10"/>
<path d="M274.224 -45.2894L274.224 -55.7876L264.779 -55.7876L264.779 -45.2894L274.224 -45.2894Z" fill="#ffffff10"/>
<path d="M435.378 -45.2894L435.378 -55.7876L425.93 -55.7876L425.93 -45.2894L435.378 -45.2894Z" fill="#ffffff10"/>
<path d="M266.054 -36.4468L266.054 -46.6912L256.853 -46.6912L256.853 -36.4468L266.054 -36.4468Z" fill="#ffffff10"/>
<path d="M330.5 -36.4444L330.5 -46.6912L321.314 -46.6912L321.314 -36.4444L330.5 -36.4444Z" fill="#ffffff10"/>
<path d="M169.346 -36.3756L169.346 -46.6153L160.157 -46.6153L160.157 -36.3756L169.346 -36.3756Z" fill="#ffffff10"/>
<path d="M8.20179 -36.3756L8.20179 -46.6129L-0.98983 -46.6129L-0.98983 -36.3756L8.20179 -36.3756Z" fill="#ffffff10"/>
<path d="M137.117 -36.3733L137.117 -46.6129L127.928 -46.6129L127.928 -36.3733L137.117 -36.3733Z" fill="#ffffff10"/>
<path d="M201.591 -36.3638L201.591 -46.6105L192.39 -46.6105L192.39 -36.3638L201.591 -36.3638Z" fill="#ffffff10"/>
<path d="M394.975 -36.4468L394.975 -46.6912L385.775 -46.6912L385.775 -36.4468L394.975 -36.4468Z" fill="#ffffff10"/>
<path d="M427.19 -36.4444L427.19 -46.6912L418.004 -46.6912L418.004 -36.4444L427.19 -36.4444Z" fill="#ffffff10"/>
<path d="M298.268 -36.4444L298.268 -46.6912L289.083 -46.6912L289.083 -36.4444L298.268 -36.4444Z" fill="#ffffff10"/>
<path d="M40.4397 -36.3638L40.4397 -46.6082L31.2395 -46.6082L31.2395 -36.3638L40.4397 -36.3638Z" fill="#ffffff10"/>
<path d="M362.735 -36.442L362.735 -46.6793L353.544 -46.6793L353.544 -36.442L362.735 -36.442Z" fill="#ffffff10"/>
<path d="M233.822 -36.4468L233.822 -46.6793L224.622 -46.6793L224.622 -36.4468L233.822 -36.4468Z" fill="#ffffff10"/>
<path d="M104.886 -36.3756L104.886 -46.6129L95.6961 -46.6129L95.6961 -36.3756L104.886 -36.3756Z" fill="#ffffff10"/>
<path d="M-24.0361 -36.3756L-24.0361 -46.6129L-33.2256 -46.6129L-33.2256 -36.3756L-24.0361 -36.3756Z" fill="#ffffff10"/>
<path d="M72.6562 -36.3733L72.6562 -46.6129L63.4667 -46.6129L63.4667 -36.3733L72.6562 -36.3733Z" fill="#ffffff10"/>
<path d="M153.256 -36.3661L153.256 -46.6105L144.048 -46.6105L144.048 -36.3661L153.256 -36.3661Z" fill="#ffffff10"/>
<path d="M56.5703 -36.3543L56.5703 -46.6129L47.3531 -46.6129L47.3531 -36.3543L56.5703 -36.3543Z" fill="#ffffff10"/>
<path d="M282.184 -36.442L282.184 -46.7007L272.967 -46.7007L272.967 -36.442L282.184 -36.442Z" fill="#ffffff10"/>
<path d="M88.7997 -36.3543L88.7997 -46.6129L79.5825 -46.6129L79.5825 -36.3543L88.7997 -36.3543Z" fill="#ffffff10"/>
<path d="M-7.89051 -36.3543L-7.89051 -46.6129L-17.1077 -46.6129L-17.1077 -36.3543L-7.89051 -36.3543Z" fill="#ffffff10"/>
<path d="M346.634 -36.4444L346.634 -46.6935L337.43 -46.6935L337.43 -36.4444L346.634 -36.4444Z" fill="#ffffff10"/>
<path d="M-40.1199 -36.3543L-40.1199 -46.6129L-49.3371 -46.6129L-49.3371 -36.3543L-40.1199 -36.3543Z" fill="#ffffff10"/>
<path d="M24.3346 -36.3543L24.3346 -46.6082L15.1238 -46.6082L15.1238 -36.3543L24.3346 -36.3543Z" fill="#ffffff10"/>
<path d="M411.106 -36.442L411.106 -46.7007L401.889 -46.7007L401.889 -36.442L411.106 -36.442Z" fill="#ffffff10"/>
<path d="M249.942 -36.4444L249.942 -46.6936L240.738 -46.6936L240.738 -36.4444L249.942 -36.4444Z" fill="#ffffff10"/>
<path d="M217.721 -36.442L217.721 -46.7007L208.504 -46.7007L208.504 -36.442L217.721 -36.442Z" fill="#ffffff10"/>
<path d="M378.864 -36.4444L378.864 -46.6935L369.659 -46.6935L369.659 -36.4444L378.864 -36.4444Z" fill="#ffffff10"/>
<path d="M185.486 -36.3543L185.486 -46.6082L176.275 -46.6082L176.275 -36.3543L185.486 -36.3543Z" fill="#ffffff10"/>
<path d="M443.335 -36.442L443.335 -46.7007L434.118 -46.7007L434.118 -36.442L443.335 -36.442Z" fill="#ffffff10"/>
<path d="M121.025 -36.3661L121.025 -46.6105L111.816 -46.6105L111.816 -36.3661L121.025 -36.3661Z" fill="#ffffff10"/>
<path d="M314.414 -36.442L314.414 -46.7007L305.196 -46.7007L305.196 -36.442L314.414 -36.442Z" fill="#ffffff10"/>
<path d="M145.064 -27.5473L145.064 -37.4881L136.105 -37.4881L136.105 -27.5473L145.064 -27.5473Z" fill="#ffffff10"/>
<path d="M354.56 -27.6042L354.56 -37.5734L345.624 -37.5734L345.624 -27.6042L354.56 -27.6042Z" fill="#ffffff10"/>
<path d="M225.643 -27.6161L225.643 -37.5782L216.705 -37.5782L216.705 -27.6161L225.643 -27.6161Z" fill="#ffffff10"/>
<path d="M177.291 -27.5449L177.291 -37.4904L168.334 -37.4904L168.334 -27.5449L177.291 -27.5449Z" fill="#ffffff10"/>
<path d="M257.868 -27.5971L257.868 -37.5806L248.936 -37.5806L248.936 -27.5971L257.868 -27.5971Z" fill="#ffffff10"/>
<path d="M112.835 -27.5449L112.835 -37.4952L103.873 -37.4952L103.873 -27.5449L112.835 -27.5449Z" fill="#ffffff10"/>
<path d="M16.1446 -27.5449L16.1446 -37.4881L7.18309 -37.4881L7.18309 -27.5449L16.1446 -27.5449Z" fill="#ffffff10"/>
<path d="M322.329 -27.6042L322.329 -37.5782L313.389 -37.5782L313.389 -27.6042L322.329 -27.6042Z" fill="#ffffff10"/>
<path d="M-16.0848 -27.5449L-16.0848 -37.4952L-25.0484 -37.4952L-25.0484 -27.5449L-16.0848 -27.5449Z" fill="#ffffff10"/>
<path d="M386.796 -27.616L386.796 -37.5782L377.858 -37.5782L377.858 -27.616L386.796 -27.616Z" fill="#ffffff10"/>
<path d="M80.6054 -27.5473L80.6054 -37.4881L71.6418 -37.4881L71.6418 -27.5473L80.6054 -27.5473Z" fill="#ffffff10"/>
<path d="M48.3739 -27.5449L48.3739 -37.4952L39.4125 -37.4952L39.4125 -27.5449L48.3739 -27.5449Z" fill="#ffffff10"/>
<path d="M290.099 -27.6042L290.099 -37.5782L281.166 -37.5782L281.166 -27.6042L290.099 -27.6042Z" fill="#ffffff10"/>
<path d="M419.021 -27.6018L419.021 -37.5782L410.085 -37.5782L410.085 -27.6018L419.021 -27.6018Z" fill="#ffffff10"/>
<path d="M193.409 -27.5402L193.409 -37.4857L184.469 -37.4857L184.469 -27.5402L193.409 -27.5402Z" fill="#ffffff10"/>
<path d="M32.2539 -27.5449L32.2539 -37.4999L23.3159 -37.4999L23.3159 -27.5449L32.2539 -27.5449Z" fill="#ffffff10"/>
<path d="M64.4854 -27.5449L64.4854 -37.4928L55.5559 -37.4928L55.5559 -27.5449L64.4854 -27.5449Z" fill="#ffffff10"/>
<path d="M128.946 -27.5449L128.946 -37.4928L120.017 -37.4928L120.017 -27.5449L128.946 -27.5449Z" fill="#ffffff10"/>
<path d="M0.0245987 -27.5425L0.0245987 -37.4976L-8.91347 -37.4976L-8.91347 -27.5425L0.0245987 -27.5425Z" fill="#ffffff10"/>
<path d="M161.178 -27.5402L161.178 -37.4857L152.238 -37.4857L152.238 -27.5402L161.178 -27.5402Z" fill="#ffffff10"/>
<path d="M-32.2069 -27.5425L-32.2069 -37.4881L-41.1492 -37.4881L-41.1492 -27.5425L-32.2069 -27.5425Z" fill="#ffffff10"/>
<path d="M96.719 -27.5449L96.719 -37.4928L87.7852 -37.4928L87.7852 -27.5449L96.719 -27.5449Z" fill="#ffffff10"/>
<path d="M370.68 -27.5971L370.68 -37.5806L361.717 -37.5806L361.717 -27.5971L370.68 -27.5971Z" fill="#ffffff10"/>
<path d="M241.756 -27.5971L241.756 -37.5806L232.789 -37.5806L232.789 -27.5971L241.756 -27.5971Z" fill="#ffffff10"/>
<path d="M209.525 -27.6066L209.525 -37.5735L200.57 -37.5735L200.57 -27.6066L209.525 -27.6066Z" fill="#ffffff10"/>
<path d="M435.141 -27.5947L435.141 -37.5782L426.177 -37.5782L426.177 -27.5947L435.141 -27.5947Z" fill="#ffffff10"/>
<path d="M273.981 -27.6089L273.981 -37.5782L265.026 -37.5782L265.026 -27.6089L273.981 -27.6089Z" fill="#ffffff10"/>
<path d="M338.442 -27.6089L338.442 -37.5782L329.487 -37.5782L329.487 -27.6089L338.442 -27.6089Z" fill="#ffffff10"/>
<path d="M306.217 -27.6018L306.217 -37.5782L297.249 -37.5782L297.249 -27.6018L306.217 -27.6018Z" fill="#ffffff10"/>
<path d="M402.91 -27.5971L402.91 -37.5782L393.946 -37.5782L393.946 -27.5971L402.91 -27.5971Z" fill="#ffffff10"/>
<path d="M56.3103 -18.7284L56.3103 -28.3917L47.6088 -28.3917L47.6088 -18.7284L56.3103 -18.7284Z" fill="#ffffff10"/>
<path d="M410.844 -18.7901L410.844 -28.4486L402.144 -28.4486L402.144 -18.7901L410.844 -18.7901Z" fill="#ffffff10"/>
<path d="M443.075 -18.7924L443.075 -28.4486L434.374 -28.4486L434.374 -18.7924L443.075 -18.7924Z" fill="#ffffff10"/>
<path d="M346.385 -18.7924L346.385 -28.4486L337.684 -28.4486L337.684 -18.7924L346.385 -18.7924Z" fill="#ffffff10"/>
<path d="M24.081 -18.7355L24.081 -28.3917L15.3774 -28.3917L15.3774 -18.7355L24.081 -18.7355Z" fill="#ffffff10"/>
<path d="M120.771 -18.7284L120.771 -28.3917L112.07 -28.3917L112.07 -18.7284L120.771 -18.7284Z" fill="#ffffff10"/>
<path d="M-40.3926 -18.7355L-40.3926 -28.3988L-49.0835 -28.3988L-49.0835 -18.7355L-40.3926 -18.7355Z" fill="#ffffff10"/>
<path d="M281.922 -18.7901L281.922 -28.4486L273.223 -28.4486L273.223 -18.7901L281.922 -18.7901Z" fill="#ffffff10"/>
<path d="M314.154 -18.7924L314.154 -28.4486L305.45 -28.4486L305.45 -18.7924L314.154 -18.7924Z" fill="#ffffff10"/>
<path d="M217.453 -18.7901L217.453 -28.4557L208.762 -28.4557L208.762 -18.7901L217.453 -18.7901Z" fill="#ffffff10"/>
<path d="M185.232 -18.7379L185.232 -28.3941L176.53 -28.3941L176.53 -18.7379L185.232 -18.7379Z" fill="#ffffff10"/>
<path d="M88.5397 -18.7213L88.5397 -28.3941L79.8403 -28.3941L79.8403 -18.7213L88.5397 -18.7213Z" fill="#ffffff10"/>
<path d="M378.612 -18.7901L378.612 -28.4486L369.913 -28.4486L369.913 -18.7901L378.612 -18.7901Z" fill="#ffffff10"/>
<path d="M249.693 -18.7924L249.693 -28.4557L240.991 -28.4557L240.991 -18.7924L249.693 -18.7924Z" fill="#ffffff10"/>
<path d="M-8.15264 -18.7355L-8.15264 -28.3941L-16.852 -28.3941L-16.852 -18.7355L-8.15264 -18.7355Z" fill="#ffffff10"/>
<path d="M153 -18.7284L153 -28.3917L144.299 -28.3917L144.299 -18.7284L153 -18.7284Z" fill="#ffffff10"/>
<path d="M298.01 -18.7901L298.01 -28.4462L289.336 -28.4462L289.336 -18.7901L298.01 -18.7901Z" fill="#ffffff10"/>
<path d="M265.781 -18.7901L265.781 -28.4462L257.107 -28.4462L257.107 -18.7901L265.781 -18.7901Z" fill="#ffffff10"/>
<path d="M394.702 -18.7924L394.702 -28.4462L386.029 -28.4462L386.029 -18.7924L394.702 -18.7924Z" fill="#ffffff10"/>
<path d="M169.089 -18.7379L169.089 -28.3941L160.415 -28.3941L160.415 -18.7379L169.089 -18.7379Z" fill="#ffffff10"/>
<path d="M7.93753 -18.7379L7.93753 -28.3941L-0.738369 -28.3941L-0.738369 -18.7379L7.93753 -18.7379Z" fill="#ffffff10"/>
<path d="M426.932 -18.7924L426.932 -28.4462L418.258 -28.4462L418.258 -18.7924L426.932 -18.7924Z" fill="#ffffff10"/>
<path d="M362.471 -18.7901L362.471 -28.4462L353.797 -28.4462L353.797 -18.7901L362.471 -18.7901Z" fill="#ffffff10"/>
<path d="M72.3984 -18.7379L72.3984 -28.3941L63.7246 -28.3941L63.7246 -18.7379L72.3984 -18.7379Z" fill="#ffffff10"/>
<path d="M40.1669 -18.7403L40.1669 -28.3941L31.4931 -28.3941L31.4931 -18.7403L40.1669 -18.7403Z" fill="#ffffff10"/>
<path d="M330.242 -18.7901L330.242 -28.4462L321.566 -28.4462L321.566 -18.7901L330.242 -18.7901Z" fill="#ffffff10"/>
<path d="M233.549 -18.7924L233.549 -28.4462L224.876 -28.4462L224.876 -18.7924L233.549 -18.7924Z" fill="#ffffff10"/>
<path d="M104.628 -18.7379L104.628 -28.3941L95.9539 -28.3941L95.9539 -18.7379L104.628 -18.7379Z" fill="#ffffff10"/>
<path d="M201.32 -18.7403L201.32 -28.3941L192.646 -28.3941L192.646 -18.7403L201.32 -18.7403Z" fill="#ffffff10"/>
<path d="M136.859 -18.7403L136.859 -28.3941L128.185 -28.3941L128.185 -18.7403L136.859 -18.7403Z" fill="#ffffff10"/>
<path d="M-24.2939 -18.7403L-24.2939 -28.3941L-32.9677 -28.3941L-32.9677 -18.7403L-24.2939 -18.7403Z" fill="#ffffff10"/>
<path d="M322.071 -9.97833L322.071 -19.3522L313.644 -19.3522L313.644 -9.97833L322.071 -9.97833Z" fill="#ffffff10"/>
<path d="M257.612 -9.97358L257.612 -19.3499L249.19 -19.3499L249.19 -9.97358L257.612 -9.97358Z" fill="#ffffff10"/>
<path d="M225.379 -9.98781L225.379 -19.3499L216.958 -19.3499L216.958 -9.98781L225.379 -9.98781Z" fill="#ffffff10"/>
<path d="M289.841 -9.97833L289.841 -19.3499L281.428 -19.3499L281.428 -9.97833L289.841 -9.97833Z" fill="#ffffff10"/>
<path d="M386.532 -9.97832L386.532 -19.3498L378.111 -19.3498L378.111 -9.97832L386.532 -9.97832Z" fill="#ffffff10"/>
<path d="M354.3 -9.98781L354.3 -19.3498L345.88 -19.3498L345.88 -9.98781L354.3 -9.98781Z" fill="#ffffff10"/>
<path d="M418.763 -9.97832L418.763 -19.3498L410.349 -19.3498L410.349 -9.97832L418.763 -9.97832Z" fill="#ffffff10"/>
<path d="M80.3369 -9.90718L80.3369 -19.2977L71.9039 -19.2977L71.9039 -9.90718L80.3369 -9.90718Z" fill="#ffffff10"/>
<path d="M144.796 -9.90243L144.796 -19.2906L136.358 -19.2906L136.358 -9.90243L144.796 -9.90243Z" fill="#ffffff10"/>
<path d="M15.8761 -9.90244L15.8761 -19.2811L7.44309 -19.2811L7.44309 -9.90244L15.8761 -9.90244Z" fill="#ffffff10"/>
<path d="M-16.3554 -9.90718L-16.3554 -19.2977L-24.7884 -19.2977L-24.7884 -9.90718L-16.3554 -9.90718Z" fill="#ffffff10"/>
<path d="M112.568 -9.90718L112.568 -19.2977L104.135 -19.2977L104.135 -9.90718L112.568 -9.90718Z" fill="#ffffff10"/>
<path d="M48.1075 -9.90006L48.1075 -19.2811L39.6725 -19.2811L39.6725 -9.90006L48.1075 -9.90006Z" fill="#ffffff10"/>
<path d="M177.027 -9.90718L177.027 -19.2977L168.594 -19.2977L168.594 -9.90718L177.027 -9.90718Z" fill="#ffffff10"/>
<path d="M31.9961 -9.90244L31.9961 -19.2858L23.5738 -19.2858L23.5738 -9.90244L31.9961 -9.90244Z" fill="#ffffff10"/>
<path d="M193.149 -9.9048L193.149 -19.2787L184.727 -19.2787L184.727 -9.9048L193.149 -9.9048Z" fill="#ffffff10"/>
<path d="M160.918 -9.90243L160.918 -19.2882L152.504 -19.2882L152.504 -9.90243L160.918 -9.90243Z" fill="#ffffff10"/>
<path d="M64.2275 -9.90481L64.2275 -19.2882L55.8138 -19.2882L55.8138 -9.90481L64.2275 -9.90481Z" fill="#ffffff10"/>
<path d="M-32.4605 -9.90244L-32.4605 -19.2858L-40.8764 -19.2858L-40.8764 -9.90244L-32.4605 -9.90244Z" fill="#ffffff10"/>
<path d="M-0.233262 -9.90244L-0.233262 -19.2882L-8.64708 -19.2882L-8.64708 -9.90244L-0.233262 -9.90244Z" fill="#ffffff10"/>
<path d="M128.688 -9.90243L128.688 -19.2882L120.275 -19.2882L120.275 -9.90243L128.688 -9.90243Z" fill="#ffffff10"/>
<path d="M96.4569 -9.90243L96.4569 -19.2882L88.0431 -19.2882L88.0431 -9.90243L96.4569 -9.90243Z" fill="#ffffff10"/>
<path d="M305.951 -9.98545L305.951 -19.357L297.529 -19.357L297.529 -9.98545L305.951 -9.98545Z" fill="#ffffff10"/>
<path d="M434.87 -9.98781L434.87 -19.3522L426.439 -19.3522L426.439 -9.98781L434.87 -9.98781Z" fill="#ffffff10"/>
<path d="M273.719 -9.97833L273.719 -19.3522L265.286 -19.3522L265.286 -9.97833L273.719 -9.97833Z" fill="#ffffff10"/>
<path d="M209.261 -9.97596L209.261 -19.3499L200.826 -19.3499L200.826 -9.97596L209.261 -9.97596Z" fill="#ffffff10"/>
<path d="M338.18 -9.98307L338.18 -19.3522L329.747 -19.3522L329.747 -9.98307L338.18 -9.98307Z" fill="#ffffff10"/>
<path d="M241.49 -9.97596L241.49 -19.3499L233.057 -19.3499L233.057 -9.97596L241.49 -9.97596Z" fill="#ffffff10"/>
<path d="M402.643 -9.98544L402.643 -19.357L394.219 -19.357L394.219 -9.98544L402.643 -9.98544Z" fill="#ffffff10"/>
<path d="M370.41 -9.97832L370.41 -19.3522L361.977 -19.3522L361.977 -9.97832L370.41 -9.97832Z" fill="#ffffff10"/>
<path d="M394.44 -1.16657L394.44 -10.2392L386.293 -10.2392L386.293 -1.16657L394.44 -1.16657Z" fill="#ffffff10"/>
<path d="M136.593 -1.07646L136.593 -10.1467L128.448 -10.1467L128.448 -1.07646L136.593 -1.07646Z" fill="#ffffff10"/>
<path d="M168.824 -1.07646L168.824 -10.1467L160.679 -10.1467L160.679 -1.07646L168.824 -1.07646Z" fill="#ffffff10"/>
<path d="M233.287 -1.16421L233.287 -10.225L225.136 -10.225L225.136 -1.16421L233.287 -1.16421Z" fill="#ffffff10"/>
<path d="M297.748 -1.16658L297.748 -10.2392L289.601 -10.2392L289.601 -1.16658L297.748 -1.16658Z" fill="#ffffff10"/>
<path d="M426.67 -1.1642L426.67 -10.225L418.518 -10.225L418.518 -1.1642L426.67 -1.1642Z" fill="#ffffff10"/>
<path d="M72.1362 -1.08594L72.1362 -10.1467L63.9846 -10.1467L63.9846 -1.08594L72.1362 -1.08594Z" fill="#ffffff10"/>
<path d="M201.056 -1.07408L201.056 -10.1467L192.908 -10.1467L192.908 -1.07408L201.056 -1.07408Z" fill="#ffffff10"/>
<path d="M329.986 -1.16658L329.986 -10.2392L321.832 -10.2392L321.832 -1.16658L329.986 -1.16658Z" fill="#ffffff10"/>
<path d="M-24.5561 -1.07409L-24.5561 -10.1468L-32.7034 -10.1468L-32.7034 -1.07409L-24.5561 -1.07409Z" fill="#ffffff10"/>
<path d="M39.9111 -1.08357L39.9111 -10.1467L31.7574 -10.1468L31.7574 -1.08358L39.9111 -1.08357Z" fill="#ffffff10"/>
<path d="M7.67539 -1.08595L7.6754 -10.1468L-0.476242 -10.1468L-0.476242 -1.08595L7.67539 -1.08595Z" fill="#ffffff10"/>
<path d="M265.517 -1.16658L265.517 -10.2369L257.371 -10.2369L257.371 -1.16658L265.517 -1.16658Z" fill="#ffffff10"/>
<path d="M104.361 -1.07646L104.361 -10.1467L96.2161 -10.1467L96.2161 -1.07646L104.361 -1.07646Z" fill="#ffffff10"/>
<path d="M362.207 -1.16657L362.207 -10.2487L354.061 -10.2487L354.061 -1.16657L362.207 -1.16657Z" fill="#ffffff10"/>
<path d="M313.879 -1.16658L313.879 -10.2392L305.736 -10.2392L305.736 -1.16658L313.879 -1.16658Z" fill="#ffffff10"/>
<path d="M281.654 -1.16895L281.654 -10.2321L273.502 -10.2321L273.502 -1.16895L281.654 -1.16895Z" fill="#ffffff10"/>
<path d="M410.569 -1.16657L410.569 -10.2392L402.426 -10.2392L402.426 -1.16657L410.569 -1.16657Z" fill="#ffffff10"/>
<path d="M88.2711 -1.0812L88.2711 -10.1444L80.1195 -10.1444L80.1195 -1.0812L88.2711 -1.0812Z" fill="#ffffff10"/>
<path d="M23.8103 -1.08121L23.8103 -10.1444L15.6587 -10.1444L15.6587 -1.08121L23.8103 -1.08121Z" fill="#ffffff10"/>
<path d="M217.186 -1.16658L217.186 -10.2392L209.043 -10.2392L209.043 -1.16658L217.186 -1.16658Z" fill="#ffffff10"/>
<path d="M346.106 -1.16657L346.106 -10.2392L337.963 -10.2392L337.963 -1.16657L346.106 -1.16657Z" fill="#ffffff10"/>
<path d="M378.34 -1.16657L378.34 -10.2392L370.196 -10.2392L370.196 -1.16657L378.34 -1.16657Z" fill="#ffffff10"/>
<path d="M-8.42117 -1.08121L-8.42117 -10.1444L-16.5707 -10.1444L-16.5707 -1.08121L-8.42117 -1.08121Z" fill="#ffffff10"/>
<path d="M249.424 -1.16421L249.424 -10.2464L241.27 -10.2464L241.27 -1.16421L249.424 -1.16421Z" fill="#ffffff10"/>
<path d="M442.8 -1.16657L442.8 -10.2392L434.657 -10.2392L434.657 -1.16657L442.8 -1.16657Z" fill="#ffffff10"/>
<path d="M120.494 -1.07408L120.494 -10.1467L112.351 -10.1467L112.351 -1.07408L120.494 -1.07408Z" fill="#ffffff10"/>
<path d="M56.0397 -1.07882L56.0397 -10.1444L47.888 -10.1444L47.888 -1.07882L56.0397 -1.07882Z" fill="#ffffff10"/>
<path d="M-40.6505 -1.08121L-40.6505 -10.1444L-48.8 -10.1444L-48.8 -1.08121L-40.6505 -1.08121Z" fill="#ffffff10"/>
<path d="M152.732 -1.0812L152.732 -10.1444L144.582 -10.1444L144.582 -1.0812L152.732 -1.0812Z" fill="#ffffff10"/>
<path d="M184.961 -1.07882L184.961 -10.1444L176.81 -10.1444L176.81 -1.07882L184.961 -1.07882Z" fill="#ffffff10"/>
<path d="M225.123 7.69024L225.123 -1.11677L217.223 -1.11677L217.223 7.69024L225.123 7.69024Z" fill="#ffffff10"/>
<path d="M305.687 7.69972L305.687 -1.11677L297.767 -1.11677L297.767 7.69972L305.687 7.69972Z" fill="#ffffff10"/>
<path d="M354.044 7.69261L354.044 -1.11676L346.142 -1.11676L346.142 7.69261L354.044 7.69261Z" fill="#ffffff10"/>
<path d="M-0.491174 7.75189L-0.491174 -1.03851L-8.38917 -1.03851L-8.38917 7.75189L-0.491174 7.75189Z" fill="#ffffff10"/>
<path d="M160.662 7.7519L160.662 -1.0385L152.764 -1.0385L152.764 7.7519L160.662 7.7519Z" fill="#ffffff10"/>
<path d="M273.455 7.6926L273.455 -1.11677L265.536 -1.11677L265.536 7.6926L273.455 7.6926Z" fill="#ffffff10"/>
<path d="M192.891 7.7519L192.891 -1.0385L184.993 -1.0385L184.993 7.7519L192.891 7.7519Z" fill="#ffffff10"/>
<path d="M257.354 7.6926L257.354 -1.11677L249.452 -1.11677L249.452 7.6926L257.354 7.6926Z" fill="#ffffff10"/>
<path d="M31.7403 7.75189L31.7403 -1.03851L23.8401 -1.03851L23.8401 7.75189L31.7403 7.75189Z" fill="#ffffff10"/>
<path d="M144.536 7.7519L144.536 -1.04087L136.623 -1.04087L136.623 7.7519L144.536 7.7519Z" fill="#ffffff10"/>
<path d="M289.584 7.69024L289.584 -1.11914L281.681 -1.11914L281.681 7.69024L289.584 7.69024Z" fill="#ffffff10"/>
<path d="M208.996 7.69972L208.996 -1.11677L201.077 -1.11677L201.077 7.69972L208.996 7.69972Z" fill="#ffffff10"/>
<path d="M-16.6154 7.759L-16.6154 -1.04088L-24.5177 -1.04088L-24.5177 7.759L-16.6154 7.759Z" fill="#ffffff10"/>
<path d="M386.276 7.69024L386.276 -1.11676L378.376 -1.11676L378.376 7.69024L386.276 7.69024Z" fill="#ffffff10"/>
<path d="M370.149 7.69261L370.149 -1.11439L362.234 -1.11439L362.234 7.69261L370.149 7.69261Z" fill="#ffffff10"/>
<path d="M321.819 7.67601L321.819 -1.11914L313.913 -1.11914L313.913 7.67601L321.819 7.67601Z" fill="#ffffff10"/>
<path d="M63.9697 7.7519L63.9697 -1.0385L56.0716 -1.0385L56.0716 7.7519L63.9697 7.7519Z" fill="#ffffff10"/>
<path d="M47.8454 7.75664L47.8454 -1.04325L39.9431 -1.04325L39.9431 7.75664L47.8454 7.75664Z" fill="#ffffff10"/>
<path d="M80.0747 7.75427L80.0747 -1.04087L72.1618 -1.04087L72.1618 7.75427L80.0747 7.75427Z" fill="#ffffff10"/>
<path d="M434.608 7.69973L434.608 -1.11676L426.689 -1.11676L426.689 7.69973L434.608 7.69973Z" fill="#ffffff10"/>
<path d="M418.509 7.67838L418.509 -1.11914L410.603 -1.11914L410.603 7.67838L418.509 7.67838Z" fill="#ffffff10"/>
<path d="M337.918 7.69973L337.918 -1.11676L329.999 -1.11677L329.999 7.69972L337.918 7.69973Z" fill="#ffffff10"/>
<path d="M-32.7205 7.75189L-32.7205 -1.03851L-40.6185 -1.03851L-40.6185 7.75189L-32.7205 7.75189Z" fill="#ffffff10"/>
<path d="M96.2011 7.7519L96.2011 -1.0385L88.3031 -1.0385L88.3031 7.7519L96.2011 7.7519Z" fill="#ffffff10"/>
<path d="M15.6139 7.759L15.6139 -1.04088L7.71377 -1.04088L7.71377 7.759L15.6139 7.759Z" fill="#ffffff10"/>
<path d="M128.43 7.7519L128.43 -1.0385L120.532 -1.0385L120.532 7.7519L128.43 7.7519Z" fill="#ffffff10"/>
<path d="M402.377 7.69261L402.377 -1.11676L394.457 -1.11676L394.457 7.69261L402.377 7.69261Z" fill="#ffffff10"/>
<path d="M112.306 7.75664L112.306 -1.04325L104.404 -1.04325L104.404 7.75664L112.306 7.75664Z" fill="#ffffff10"/>
<path d="M176.765 7.75901L176.765 -1.04087L168.865 -1.04087L168.865 7.75901L176.765 7.75901Z" fill="#ffffff10"/>
<path d="M241.226 7.69972L241.226 -1.11677L233.306 -1.11677L233.306 7.69972L241.226 7.69972Z" fill="#ffffff10"/>
<path d="M-24.8225 16.5447L-24.8225 8.06499L-32.4413 8.06499L-32.4413 16.5447L-24.8225 16.5447Z" fill="#ffffff10"/>
<path d="M361.942 16.4973L361.942 8.01757L354.324 8.01757L354.324 16.4973L361.942 16.4973Z" fill="#ffffff10"/>
<path d="M426.403 16.4973L426.403 8.01757L418.784 8.01757L418.784 16.4973L426.403 16.4973Z" fill="#ffffff10"/>
<path d="M329.711 16.4949L329.711 8.01757L322.092 8.01757L322.092 16.4949L329.711 16.4949Z" fill="#ffffff10"/>
<path d="M233.021 16.4972L233.021 8.01757L225.402 8.01757L225.402 16.4972L233.021 16.4972Z" fill="#ffffff10"/>
<path d="M71.8677 16.5447L71.8677 8.06499L64.2489 8.06499L64.2489 16.5447L71.8677 16.5447Z" fill="#ffffff10"/>
<path d="M136.329 16.5447L136.329 8.06499L128.71 8.06499L128.71 16.5447L136.329 16.5447Z" fill="#ffffff10"/>
<path d="M104.099 16.5447L104.099 8.06499L96.4825 8.06499L96.4825 16.5447L104.099 16.5447Z" fill="#ffffff10"/>
<path d="M7.40687 16.5447L7.40687 8.06499L-0.211982 8.06499L-0.211982 16.5447L7.40687 16.5447Z" fill="#ffffff10"/>
<path d="M168.56 16.5423L168.56 8.06499L160.941 8.06499L160.941 16.5423L168.56 16.5423Z" fill="#ffffff10"/>
<path d="M39.6383 16.5423L39.6383 8.06499L32.0195 8.06499L32.0195 16.5423L39.6383 16.5423Z" fill="#ffffff10"/>
<path d="M394.172 16.4973L394.172 8.01757L386.553 8.01757L386.553 16.4973L394.172 16.4973Z" fill="#ffffff10"/>
<path d="M265.25 16.4972L265.25 8.01757L257.631 8.01757L257.631 16.4972L265.25 16.4972Z" fill="#ffffff10"/>
<path d="M297.482 16.4972L297.482 8.01757L289.863 8.01757L289.863 16.4972L297.482 16.4972Z" fill="#ffffff10"/>
<path d="M200.789 16.5423L200.789 8.06263L193.17 8.06263L193.17 16.5423L200.789 16.5423Z" fill="#ffffff10"/>
<path d="M442.536 16.4973L442.536 8.01757L434.926 8.01757L434.926 16.4973L442.536 16.4973Z" fill="#ffffff10"/>
<path d="M88.0026 16.5542L88.0026 8.06499L80.3923 8.06499L80.3923 16.5542L88.0026 16.5542Z" fill="#ffffff10"/>
<path d="M410.305 16.4973L410.305 8.01757L402.696 8.01757L402.696 16.4973L410.305 16.4973Z" fill="#ffffff10"/>
<path d="M313.625 16.4949L313.625 8.01757L306.004 8.01757L306.004 16.4949L313.625 16.4949Z" fill="#ffffff10"/>
<path d="M-8.68969 16.5423L-8.68969 8.06261L-16.2979 8.06261L-16.2979 16.5423L-8.68969 16.5423Z" fill="#ffffff10"/>
<path d="M281.385 16.4972L281.385 8.01757L273.775 8.01757L273.775 16.4972L281.385 16.4972Z" fill="#ffffff10"/>
<path d="M152.463 16.5423L152.463 8.06262L144.853 8.06262L144.853 16.5423L152.463 16.5423Z" fill="#ffffff10"/>
<path d="M55.7818 16.5423L55.7818 8.06499L48.1608 8.06499L48.1608 16.5423L55.7818 16.5423Z" fill="#ffffff10"/>
<path d="M249.154 16.4949L249.154 8.01757L241.545 8.01757L241.545 16.4949L249.154 16.4949Z" fill="#ffffff10"/>
<path d="M378.086 16.4949L378.086 8.01757L370.465 8.01757L370.465 16.4949L378.086 16.4949Z" fill="#ffffff10"/>
<path d="M23.5503 16.5423L23.5503 8.06499L15.9293 8.06499L15.9293 16.5423L23.5503 16.5423Z" fill="#ffffff10"/>
<path d="M-40.9105 16.5423L-40.9105 8.06499L-48.5315 8.06499L-48.5315 16.5423L-40.9105 16.5423Z" fill="#ffffff10"/>
<path d="M184.695 16.5542L184.695 8.065L177.085 8.06499L177.085 16.5542L184.695 16.5542Z" fill="#ffffff10"/>
<path d="M345.846 16.4949L345.846 8.00571L338.236 8.00571L338.236 16.4949L345.846 16.4949Z" fill="#ffffff10"/>
<path d="M216.935 16.4949L216.935 8.01757L209.314 8.01757L209.314 16.4949L216.935 16.4949Z" fill="#ffffff10"/>
<path d="M120.232 16.5542L120.232 8.06499L112.622 8.06499L112.622 16.5542L120.232 16.5542Z" fill="#ffffff10"/>
<path d="M418.22 25.2782L418.22 17.1234L410.893 17.1234L410.893 25.2782L418.22 25.2782Z" fill="#ffffff10"/>
<path d="M385.988 25.2805L385.988 17.1234L378.661 17.1234L378.661 25.2805L385.988 25.2805Z" fill="#ffffff10"/>
<path d="M353.759 25.2782L353.759 17.1234L346.432 17.1234L346.432 25.2782L353.759 25.2782Z" fill="#ffffff10"/>
<path d="M289.298 25.2805L289.298 17.1234L281.971 17.1234L281.971 25.2805L289.298 25.2805Z" fill="#ffffff10"/>
<path d="M224.837 25.2805L224.837 17.1234L217.51 17.1234L217.51 25.2805L224.837 25.2805Z" fill="#ffffff10"/>
<path d="M257.067 25.2782L257.067 17.1234L249.74 17.1234L249.74 25.2782L257.067 25.2782Z" fill="#ffffff10"/>
<path d="M321.527 25.2782L321.527 17.1234L314.2 17.1234L314.2 25.2782L321.527 25.2782Z" fill="#ffffff10"/>
<path d="M79.7679 25.3351L79.7679 17.2017L72.4602 17.2017L72.4602 25.3351L79.7679 25.3351Z" fill="#ffffff10"/>
<path d="M47.5364 25.3351L47.5364 17.2017L40.2287 17.2017L40.2287 25.3351L47.5364 25.3351Z" fill="#ffffff10"/>
<path d="M111.997 25.3351L111.997 17.2017L104.689 17.2017L104.689 25.3351L111.997 25.3351Z" fill="#ffffff10"/>
<path d="M176.458 25.3351L176.458 17.2017L169.15 17.2017L169.15 25.3351L176.458 25.3351Z" fill="#ffffff10"/>
<path d="M-16.9244 25.3351L-16.9244 17.2017L-24.2321 17.2017L-24.2321 25.3351L-16.9244 25.3351Z" fill="#ffffff10"/>
<path d="M144.229 25.3351L144.229 17.2017L136.921 17.2017L136.921 25.3351L144.229 25.3351Z" fill="#ffffff10"/>
<path d="M15.307 25.3351L15.307 17.2017L7.99933 17.2017L7.99933 25.3351L15.307 25.3351Z" fill="#ffffff10"/>
<path d="M192.608 25.3398L192.608 17.2017L185.275 17.2017L185.275 25.3398L192.608 25.3398Z" fill="#ffffff10"/>
<path d="M160.376 25.3422L160.376 17.2017L153.05 17.2017L153.05 25.3422L160.376 25.3422Z" fill="#ffffff10"/>
<path d="M-33.0061 25.3351L-33.0061 17.2017L-40.3351 17.2017L-40.3351 25.3351L-33.0061 25.3351Z" fill="#ffffff10"/>
<path d="M95.9156 25.3351L95.9156 17.1993L88.5866 17.1993L88.5866 25.3351L95.9156 25.3351Z" fill="#ffffff10"/>
<path d="M63.6862 25.3351L63.6862 17.1993L56.3572 17.1993L56.3572 25.3351L63.6862 25.3351Z" fill="#ffffff10"/>
<path d="M128.145 25.3351L128.145 17.2017L120.816 17.2017L120.816 25.3351L128.145 25.3351Z" fill="#ffffff10"/>
<path d="M369.843 25.2805L369.843 17.1234L362.535 17.1234L362.535 25.2805L369.843 25.2805Z" fill="#ffffff10"/>
<path d="M402.072 25.2805L402.072 17.1234L394.762 17.1234L394.762 25.2805L402.072 25.2805Z" fill="#ffffff10"/>
<path d="M305.382 25.2805L305.382 17.1305L298.072 17.1305L298.072 25.2805L305.382 25.2805Z" fill="#ffffff10"/>
<path d="M31.4548 25.3422L31.4548 17.2017L24.1215 17.2017L24.1215 25.3422L31.4548 25.3422Z" fill="#ffffff10"/>
<path d="M273.152 25.2805L273.152 17.1305L265.843 17.1305L265.843 25.2805L273.152 25.2805Z" fill="#ffffff10"/>
<path d="M240.919 25.2805L240.919 17.1234L233.611 17.1234L233.611 25.2805L240.919 25.2805Z" fill="#ffffff10"/>
<path d="M-0.774582 25.3351L-0.774582 17.2017L-8.10363 17.2017L-8.10363 25.3351L-0.774582 25.3351Z" fill="#ffffff10"/>
<path d="M337.611 25.2805L337.611 17.1234L330.301 17.1234L330.301 25.2805L337.611 25.2805Z" fill="#ffffff10"/>
<path d="M208.692 25.2805L208.692 17.1305L201.382 17.1305L201.382 25.2805L208.692 25.2805Z" fill="#ffffff10"/>
<path d="M434.301 25.2805L434.301 17.1234L426.994 17.1234L426.994 25.2805L434.301 25.2805Z" fill="#ffffff10"/>
<path d="M329.419 34.0614L329.419 26.3005L322.403 26.3005L322.403 34.0614L329.419 34.0614Z" fill="#ffffff10"/>
<path d="M264.958 34.0709L264.958 26.3028L257.951 26.3028L257.951 34.0709L264.958 34.0709Z" fill="#ffffff10"/>
<path d="M71.5757 34.1326L71.5757 26.3716L64.56 26.3716L64.56 34.1326L71.5757 34.1326Z" fill="#ffffff10"/>
<path d="M297.19 34.0709L297.19 26.3028L290.176 26.3028L290.176 34.0709L297.19 34.0709Z" fill="#ffffff10"/>
<path d="M136.037 34.1326L136.037 26.3716L129.021 26.3716L129.021 34.1326L136.037 34.1326Z" fill="#ffffff10"/>
<path d="M200.497 34.1326L200.497 26.3669L193.49 26.3669L193.49 34.1326L200.497 34.1326Z" fill="#ffffff10"/>
<path d="M232.727 34.0614L232.727 26.3028L225.711 26.3028L225.711 34.0614L232.727 34.0614Z" fill="#ffffff10"/>
<path d="M-25.1165 34.1326L-25.1165 26.3716L-32.1323 26.3716L-32.1323 34.1326L-25.1165 34.1326Z" fill="#ffffff10"/>
<path d="M7.11493 34.1326L7.11493 26.3716L0.0991577 26.3716L0.0991577 34.1326L7.11493 34.1326Z" fill="#ffffff10"/>
<path d="M39.3464 34.1326L39.3464 26.3669L32.3392 26.3669L32.3392 34.1326L39.3464 34.1326Z" fill="#ffffff10"/>
<path d="M361.648 34.0614L361.648 26.3028L354.633 26.3028L354.633 34.0614L361.648 34.0614Z" fill="#ffffff10"/>
<path d="M103.805 34.1326L103.805 26.3597L96.7979 26.3597L96.7979 34.1326L103.805 34.1326Z" fill="#ffffff10"/>
<path d="M393.88 34.0733L393.88 26.3005L386.873 26.3005L386.873 34.0733L393.88 34.0733Z" fill="#ffffff10"/>
<path d="M426.111 34.0614L426.111 26.3005L419.093 26.3005L419.093 34.0614L426.111 34.0614Z" fill="#ffffff10"/>
<path d="M168.268 34.1279L168.268 26.3598L161.261 26.3598L161.261 34.1279L168.268 34.1279Z" fill="#ffffff10"/>
<path d="M345.516 34.0614L345.516 26.3005L338.542 26.3005L338.542 34.0614L345.516 34.0614Z" fill="#ffffff10"/>
<path d="M23.2093 34.1302L23.2093 26.3716L16.2362 26.3716L16.2362 34.1302L23.2093 34.1302Z" fill="#ffffff10"/>
<path d="M313.284 34.0614L313.284 26.3005L306.313 26.3005L306.313 34.0614L313.284 34.0614Z" fill="#ffffff10"/>
<path d="M184.362 34.1302L184.362 26.3716L177.389 26.3716L177.389 34.1302L184.362 34.1302Z" fill="#ffffff10"/>
<path d="M248.823 34.0614L248.823 26.3005L241.852 26.3005L241.852 34.0614L248.823 34.0614Z" fill="#ffffff10"/>
<path d="M152.131 34.1326L152.131 26.3716L145.16 26.3716L145.16 34.1326L152.131 34.1326Z" fill="#ffffff10"/>
<path d="M377.745 34.0614L377.745 26.3005L370.772 26.3005L370.772 34.0614L377.745 34.0614Z" fill="#ffffff10"/>
<path d="M409.974 34.0614L409.974 26.3005L403.003 26.3005L403.003 34.0614L409.974 34.0614Z" fill="#ffffff10"/>
<path d="M119.9 34.1326L119.9 26.3716L112.926 26.3716L112.926 34.1326L119.9 34.1326Z" fill="#ffffff10"/>
<path d="M442.206 34.0614L442.206 26.3005L435.233 26.3005L435.233 34.0614L442.206 34.0614Z" fill="#ffffff10"/>
<path d="M281.053 34.0614L281.053 26.3005L274.082 26.3005L274.082 34.0614L281.053 34.0614Z" fill="#ffffff10"/>
<path d="M87.6723 34.1326L87.6723 26.3716L80.6992 26.3716L80.6992 34.1326L87.6723 34.1326Z" fill="#ffffff10"/>
<path d="M216.592 34.0614L216.592 26.3005L209.619 26.3005L209.619 34.0614L216.592 34.0614Z" fill="#ffffff10"/>
<path d="M-41.2515 34.1302L-41.2515 26.3716L-48.2246 26.3716L-48.2246 34.1302L-41.2515 34.1302Z" fill="#ffffff10"/>
<path d="M55.4408 34.1326L55.4408 26.3716L48.4677 26.3716L48.4677 34.1326L55.4408 34.1326Z" fill="#ffffff10"/>
<path d="M-9.02003 34.1326L-9.02003 26.3716L-15.9931 26.3716L-15.9931 34.1326L-9.02003 34.1326Z" fill="#ffffff10"/>
<path d="M127.812 42.9325L127.812 35.4893L121.123 35.4893L121.123 42.9325L127.812 42.9325Z" fill="#ffffff10"/>
<path d="M63.3516 42.9348L63.3516 35.4893L56.6619 35.4893L56.6619 42.9348L63.3516 42.9348Z" fill="#ffffff10"/>
<path d="M-33.3385 42.9372L-33.3385 35.4917L-40.0303 35.4917L-40.0303 42.9372L-33.3385 42.9372Z" fill="#ffffff10"/>
<path d="M192.273 42.9349L192.273 35.4893L185.584 35.4893L185.584 42.9349L192.273 42.9349Z" fill="#ffffff10"/>
<path d="M95.5831 42.9372L95.5831 35.4917L88.8913 35.4917L88.8913 42.9372L95.5831 42.9372Z" fill="#ffffff10"/>
<path d="M160.042 42.9349L160.042 35.4893L153.352 35.4893L153.352 42.9349L160.042 42.9349Z" fill="#ffffff10"/>
<path d="M-1.10919 42.9372L-1.10919 35.4917L-7.79884 35.4917L-7.79884 42.9372L-1.10919 42.9372Z" fill="#ffffff10"/>
<path d="M31.1202 42.9348L31.1202 35.4893L24.4305 35.4893L24.4305 42.9348L31.1202 42.9348Z" fill="#ffffff10"/>
<path d="M14.998 42.9348L14.998 35.4917L8.34884 35.4917L8.34884 42.9348L14.998 42.9348Z" fill="#ffffff10"/>
<path d="M433.994 42.8376L433.994 35.4372L427.345 35.4372L427.345 42.8376L433.994 42.8376Z" fill="#ffffff10"/>
<path d="M417.885 42.84L417.885 35.4396L411.198 35.4396L411.198 42.84L417.885 42.84Z" fill="#ffffff10"/>
<path d="M401.765 42.84L401.765 35.4395L395.116 35.4395L395.116 42.84L401.765 42.84Z" fill="#ffffff10"/>
<path d="M385.654 42.84L385.654 35.4395L378.966 35.4395L378.966 42.84L385.654 42.84Z" fill="#ffffff10"/>
<path d="M369.534 42.84L369.534 35.4395L362.884 35.4395L362.884 42.84L369.534 42.84Z" fill="#ffffff10"/>
<path d="M353.424 42.84L353.424 35.4395L346.735 35.4395L346.735 42.84L353.424 42.84Z" fill="#ffffff10"/>
<path d="M337.304 42.84L337.304 35.4395L330.655 35.4395L330.655 42.84L337.304 42.84Z" fill="#ffffff10"/>
<path d="M321.193 42.84L321.193 35.4395L314.505 35.4395L314.505 42.84L321.193 42.84Z" fill="#ffffff10"/>
<path d="M47.2295 42.9348L47.2295 35.4893L40.5803 35.4893L40.5803 42.9348L47.2295 42.9348Z" fill="#ffffff10"/>
<path d="M305.073 42.84L305.073 35.4395L298.424 35.4395L298.424 42.84L305.073 42.84Z" fill="#ffffff10"/>
<path d="M288.963 42.84L288.963 35.4395L282.276 35.4395L282.276 42.84L288.963 42.84Z" fill="#ffffff10"/>
<path d="M-17.2313 42.9348L-17.2313 35.4917L-23.8805 35.4917L-23.8805 42.9348L-17.2313 42.9348Z" fill="#ffffff10"/>
<path d="M256.732 42.84L256.732 35.4395L250.042 35.4395L250.042 42.84L256.732 42.84Z" fill="#ffffff10"/>
<path d="M240.612 42.84L240.612 35.4395L233.963 35.4395L233.963 42.84L240.612 42.84Z" fill="#ffffff10"/>
<path d="M224.503 42.84L224.503 35.4395L217.815 35.4395L217.815 42.84L224.503 42.84Z" fill="#ffffff10"/>
<path d="M208.383 42.84L208.383 35.4395L201.731 35.4395L201.731 42.84L208.383 42.84Z" fill="#ffffff10"/>
<path d="M272.843 42.84L272.843 35.4395L266.194 35.4395L266.194 42.84L272.843 42.84Z" fill="#ffffff10"/>
<path d="M176.151 42.9349L176.151 35.4917L169.502 35.4917L169.502 42.9349L176.151 42.9349Z" fill="#ffffff10"/>
<path d="M143.92 42.9349L143.92 35.4917L137.27 35.4917L137.27 42.9349L143.92 42.9349Z" fill="#ffffff10"/>
<path d="M111.69 42.9349L111.69 35.4917L105.041 35.4917L105.041 42.9348L111.69 42.9349Z" fill="#ffffff10"/>
<path d="M79.4589 42.9348L79.4589 35.4893L72.8097 35.4893L72.8097 42.9348L79.4589 42.9348Z" fill="#ffffff10"/>
<path d="M184.028 51.7205L184.028 44.6925L177.703 44.6925L177.703 51.7205L184.028 51.7205Z" fill="#ffffff10"/>
<path d="M151.799 51.7181L151.799 44.6901L145.473 44.6901L145.473 51.7181L151.799 51.7181Z" fill="#ffffff10"/>
<path d="M280.72 51.6114L280.72 44.581L274.395 44.581L274.395 51.6114L280.72 51.6114Z" fill="#ffffff10"/>
<path d="M-41.5839 51.7181L-41.5839 44.6901L-47.9092 44.6901L-47.9092 51.7181L-41.5839 51.7181Z" fill="#ffffff10"/>
<path d="M377.412 51.6138L377.412 44.5834L371.087 44.5834L371.087 51.6138L377.412 51.6138Z" fill="#ffffff10"/>
<path d="M312.952 51.6138L312.952 44.5834L306.626 44.5834L306.626 51.6138L312.952 51.6138Z" fill="#ffffff10"/>
<path d="M345.181 51.6114L345.181 44.5834L338.856 44.5834L338.856 51.6114L345.181 51.6114Z" fill="#ffffff10"/>
<path d="M87.3377 51.7205L87.3377 44.6924L81.0124 44.6924L81.0124 51.7205L87.3377 51.7205Z" fill="#ffffff10"/>
<path d="M22.8769 51.7181L22.8769 44.6901L16.5516 44.6901L16.5516 51.7181L22.8769 51.7181Z" fill="#ffffff10"/>
<path d="M248.491 51.6138L248.491 44.5834L242.166 44.5834L242.166 51.6138L248.491 51.6138Z" fill="#ffffff10"/>
<path d="M-9.35245 51.7205L-9.35245 44.6901L-15.6777 44.6901L-15.6777 51.7205L-9.35245 51.7205Z" fill="#ffffff10"/>
<path d="M119.567 51.7205L119.567 44.6925L113.242 44.6925L113.242 51.7205L119.567 51.7205Z" fill="#ffffff10"/>
<path d="M216.259 51.6114L216.259 44.5834L209.932 44.5834L209.932 51.6114L216.259 51.6114Z" fill="#ffffff10"/>
<path d="M409.642 51.6114L409.642 44.581L403.317 44.581L403.317 51.6114L409.642 51.6114Z" fill="#ffffff10"/>
<path d="M441.873 51.6114L441.873 44.581L435.548 44.581L435.548 51.6114L441.873 51.6114Z" fill="#ffffff10"/>
<path d="M55.1062 51.7205L55.1062 44.6924L48.781 44.6924L48.781 51.7205L55.1062 51.7205Z" fill="#ffffff10"/>
<path d="M39.0118 51.7181L39.0118 44.6924L32.6993 44.6924L32.6993 51.7181L39.0118 51.7181Z" fill="#ffffff10"/>
<path d="M393.539 51.6185L393.539 44.5857L387.233 44.5857L387.233 51.6185L393.539 51.6185Z" fill="#ffffff10"/>
<path d="M361.307 51.6185L361.307 44.5857L355.001 44.5857L355.001 51.6185L361.307 51.6185Z" fill="#ffffff10"/>
<path d="M264.626 51.6138L264.626 44.5857L258.313 44.5857L258.313 51.6138L264.626 51.6138Z" fill="#ffffff10"/>
<path d="M425.77 51.6209L425.77 44.5952L419.464 44.5952L419.464 51.6209L425.77 51.6209Z" fill="#ffffff10"/>
<path d="M329.087 51.6114L329.087 44.5834L322.774 44.5834L322.774 51.6114L329.087 51.6114Z" fill="#ffffff10"/>
<path d="M296.855 51.6114L296.855 44.5857L290.543 44.5857L290.543 51.6114L296.855 51.6114Z" fill="#ffffff10"/>
<path d="M6.78032 51.711L6.78032 44.6924L0.461491 44.6924L0.461491 51.711L6.78032 51.711Z" fill="#ffffff10"/>
<path d="M232.394 51.6138L232.394 44.5857L226.082 44.5857L226.082 51.6138L232.394 51.6138Z" fill="#ffffff10"/>
<path d="M103.473 51.7205L103.473 44.6924L97.1602 44.6924L97.1602 51.7205L103.473 51.7205Z" fill="#ffffff10"/>
<path d="M71.2433 51.7181L71.2433 44.6924L64.9308 44.6924L64.9308 51.7181L71.2433 51.7181Z" fill="#ffffff10"/>
<path d="M200.165 51.711L200.165 44.6925L193.846 44.6925L193.846 51.711L200.165 51.711Z" fill="#ffffff10"/>
<path d="M167.933 51.7181L167.933 44.6925L161.619 44.6925L161.619 51.7181L167.933 51.7181Z" fill="#ffffff10"/>
<path d="M-25.449 51.711L-25.449 44.6924L-31.7679 44.6924L-31.7679 51.711L-25.449 51.711Z" fill="#ffffff10"/>
<path d="M135.702 51.7205L135.702 44.6925L129.389 44.6925L129.389 51.7205L135.702 51.7205Z" fill="#ffffff10"/>
<path d="M46.8864 60.4824L46.8864 53.8315L40.9107 53.8315L40.9107 60.4824L46.8864 60.4824Z" fill="#ffffff10"/>
<path d="M111.347 60.4824L111.347 53.8315L105.371 53.8315L105.371 60.4824L111.347 60.4824Z" fill="#ffffff10"/>
<path d="M14.657 60.4824L14.657 53.8315L8.68129 53.8315L8.68129 60.4824L14.657 60.4824Z" fill="#ffffff10"/>
<path d="M79.1179 60.4848L79.1179 53.8315L73.14 53.8315L73.14 60.4848L79.1179 60.4848Z" fill="#ffffff10"/>
<path d="M143.579 60.4848L143.579 53.8315L137.603 53.8315L137.603 60.4848L143.579 60.4848Z" fill="#ffffff10"/>
<path d="M-17.5744 60.4824L-17.5744 53.8315L-23.5502 53.8315L-23.5502 60.4824L-17.5744 60.4824Z" fill="#ffffff10"/>
<path d="M175.81 60.4824L175.81 53.8315L169.832 53.8315L169.832 60.4824L175.81 60.4824Z" fill="#ffffff10"/>
<path d="M401.413 60.3733L401.413 53.7817L395.444 53.7817L395.444 60.3733L401.413 60.3733Z" fill="#ffffff10"/>
<path d="M240.265 60.3781L240.265 53.7841L234.293 53.7841L234.293 60.3781L240.265 60.3781Z" fill="#ffffff10"/>
<path d="M95.208 60.4777L95.208 53.8315L89.2856 53.8315L89.2856 60.4777L95.208 60.4777Z" fill="#ffffff10"/>
<path d="M208.033 60.3757L208.033 53.7841L202.062 53.7841L202.062 60.3757L208.033 60.3757Z" fill="#ffffff10"/>
<path d="M433.651 60.3757L433.651 53.7841L427.673 53.7841L427.673 60.3757L433.651 60.3757Z" fill="#ffffff10"/>
<path d="M-1.48214 60.4777L-1.48214 53.8315L-7.40887 53.8315L-7.40887 60.4777L-1.48214 60.4777Z" fill="#ffffff10"/>
<path d="M159.669 60.4753L159.669 53.8315L153.746 53.8315L153.746 60.4753L159.669 60.4753Z" fill="#ffffff10"/>
<path d="M304.725 60.3805L304.725 53.7841L298.754 53.7841L298.754 60.3805L304.725 60.3805Z" fill="#ffffff10"/>
<path d="M127.439 60.4848L127.439 53.8315L121.517 53.8315L121.517 60.4848L127.439 60.4848Z" fill="#ffffff10"/>
<path d="M62.9787 60.4848L62.9787 53.8315L57.0562 53.8315L57.0562 60.4848L62.9787 60.4848Z" fill="#ffffff10"/>
<path d="M-33.7136 60.4753L-33.7136 53.8315L-39.6361 53.8315L-39.6361 60.4753L-33.7136 60.4753Z" fill="#ffffff10"/>
<path d="M30.7472 60.4848L30.7472 53.8315L24.8269 53.8315L24.8269 60.4848L30.7472 60.4848Z" fill="#ffffff10"/>
<path d="M191.9 60.4848L191.9 53.8315L185.978 53.8315L185.978 60.4848L191.9 60.4848Z" fill="#ffffff10"/>
<path d="M336.955 60.3805L336.955 53.7841L330.983 53.7841L330.983 60.3805L336.955 60.3805Z" fill="#ffffff10"/>
<path d="M272.494 60.3805L272.494 53.7841L266.522 53.7841L266.522 60.3805L272.494 60.3805Z" fill="#ffffff10"/>
<path d="M369.186 60.3805L369.186 53.7841L363.215 53.7841L363.215 60.3805L369.186 60.3805Z" fill="#ffffff10"/>
<path d="M385.283 60.3757L385.283 53.7841L379.36 53.7841L379.36 60.3757L385.283 60.3757Z" fill="#ffffff10"/>
<path d="M288.59 60.3757L288.59 53.7841L282.67 53.7841L282.67 60.3757L288.59 60.3757Z" fill="#ffffff10"/>
<path d="M320.822 60.3757L320.822 53.7841L314.902 53.7841L314.902 60.3757L320.822 60.3757Z" fill="#ffffff10"/>
<path d="M256.361 60.3757L256.361 53.7841L250.439 53.7841L250.439 60.3757L256.361 60.3757Z" fill="#ffffff10"/>
<path d="M353.051 60.3757L353.051 53.7841L347.129 53.7841L347.129 60.3757L353.051 60.3757Z" fill="#ffffff10"/>
<path d="M224.13 60.3757L224.13 53.7841L218.207 53.7841L218.207 60.3757L224.13 60.3757Z" fill="#ffffff10"/>
<path d="M417.512 60.3757L417.512 53.7841L411.59 53.7841L411.59 60.3757L417.512 60.3757Z" fill="#ffffff10"/>
<path d="M70.8405 69.2278L70.8405 63.0536L65.2782 63.0536L65.2782 69.2278L70.8405 69.2278Z" fill="#ffffff10"/>
<path d="M425.376 69.1234L425.376 62.9469L419.814 62.9469L419.814 69.1234L425.376 69.1234Z" fill="#ffffff10"/>
<path d="M296.452 69.1234L296.452 62.9469L290.89 62.9469L290.89 69.1234L296.452 69.1234Z" fill="#ffffff10"/>
<path d="M-25.8518 69.2278L-25.8518 63.0536L-31.4141 63.0536L-31.4141 69.2278L-25.8518 69.2278Z" fill="#ffffff10"/>
<path d="M264.223 69.1234L264.223 62.9469L258.661 62.9469L258.661 69.1234L264.223 69.1234Z" fill="#ffffff10"/>
<path d="M360.913 69.1234L360.913 62.9469L355.351 62.9469L355.351 69.1234L360.913 69.1234Z" fill="#ffffff10"/>
<path d="M167.531 69.2302L167.531 63.0536L161.968 63.0536L161.968 69.2302L167.531 69.2302Z" fill="#ffffff10"/>
<path d="M103.07 69.2301L103.07 63.0536L97.5075 63.0536L97.5075 69.2301L103.07 69.2301Z" fill="#ffffff10"/>
<path d="M328.684 69.1234L328.684 62.9469L323.121 62.9469L323.121 69.1234L328.684 69.1234Z" fill="#ffffff10"/>
<path d="M231.991 69.1234L231.991 62.9469L226.429 62.9469L226.429 69.1234L231.991 69.1234Z" fill="#ffffff10"/>
<path d="M199.762 69.2278L199.762 63.0513L194.2 63.0513L194.2 69.2278L199.762 69.2278Z" fill="#ffffff10"/>
<path d="M135.301 69.2302L135.301 63.0536L129.739 63.0536L129.739 69.2302L135.301 69.2302Z" fill="#ffffff10"/>
<path d="M393.145 69.1234L393.145 62.9469L387.582 62.9469L387.582 69.1234L393.145 69.1234Z" fill="#ffffff10"/>
<path d="M6.37964 69.2301L6.37964 63.0536L0.817376 63.0536L0.817376 69.2301L6.37964 69.2301Z" fill="#ffffff10"/>
<path d="M38.609 69.2278L38.609 63.0512L33.0488 63.0512L33.0488 69.2278L38.609 69.2278Z" fill="#ffffff10"/>
<path d="M-9.72114 69.2183L-9.72114 63.0489L-15.2707 63.0489L-15.2707 69.2183L-9.72114 69.2183Z" fill="#ffffff10"/>
<path d="M183.659 69.2207L183.659 63.0489L178.112 63.0489L178.112 69.2207L183.659 69.2207Z" fill="#ffffff10"/>
<path d="M215.891 69.1305L215.891 62.9564L210.345 62.9564L210.345 69.1305L215.891 69.1305Z" fill="#ffffff10"/>
<path d="M441.507 69.1306L441.507 62.9445L435.961 62.9445L435.961 69.1306L441.507 69.1306Z" fill="#ffffff10"/>
<path d="M151.438 69.2302L151.438 63.0513L145.887 63.0513L145.887 69.2302L151.438 69.2302Z" fill="#ffffff10"/>
<path d="M312.581 69.1282L312.581 62.954L307.036 62.954L307.036 69.1282L312.581 69.1282Z" fill="#ffffff10"/>
<path d="M377.044 69.1282L377.044 62.9445L371.499 62.9445L371.499 69.1282L377.044 69.1282Z" fill="#ffffff10"/>
<path d="M22.5167 69.2325L22.5167 63.0536L16.9651 63.0536L16.9651 69.2325L22.5167 69.2325Z" fill="#ffffff10"/>
<path d="M280.349 69.1305L280.349 62.954L274.806 62.954L274.806 69.1305L280.349 69.1305Z" fill="#ffffff10"/>
<path d="M86.9775 69.2301L86.9775 63.0512L81.4259 63.0512L81.4259 69.2301L86.9775 69.2301Z" fill="#ffffff10"/>
<path d="M344.814 69.1282L344.814 62.9445L339.269 62.9445L339.269 69.1282L344.814 69.1282Z" fill="#ffffff10"/>
<path d="M-41.9441 69.2325L-41.9441 63.0536L-47.4957 63.0536L-47.4957 69.2325L-41.9441 69.2325Z" fill="#ffffff10"/>
<path d="M409.273 69.1306L409.273 62.9564L403.728 62.9564L403.728 69.1305L409.273 69.1306Z" fill="#ffffff10"/>
<path d="M54.746 69.2325L54.746 63.0536L49.1944 63.0536L49.1944 69.2325L54.746 69.2325Z" fill="#ffffff10"/>
<path d="M119.207 69.223L119.207 63.0513L113.649 63.0513L113.649 69.223L119.207 69.223Z" fill="#ffffff10"/>
<path d="M248.12 69.1282L248.12 62.954L242.575 62.954L242.575 69.1282L248.12 69.1282Z" fill="#ffffff10"/>
<path d="M-1.8849 77.947L-1.8849 72.2164L-7.03166 72.2164L-7.03166 77.947L-1.8849 77.947Z" fill="#ffffff10"/>
<path d="M159.268 77.947L159.268 72.2164L154.119 72.2164L154.119 77.947L159.268 77.947Z" fill="#ffffff10"/>
<path d="M127.037 77.9447L127.037 72.2164L121.89 72.2164L121.89 77.9447L127.037 77.9447Z" fill="#ffffff10"/>
<path d="M62.578 77.9446L62.578 72.2164L57.4292 72.2164L57.4292 77.9446L62.578 77.9446Z" fill="#ffffff10"/>
<path d="M-34.1122 77.947L-34.1122 72.2164L-39.261 72.2164L-39.261 77.947L-34.1122 77.947Z" fill="#ffffff10"/>
<path d="M191.5 77.9447L191.5 72.2164L186.351 72.2164L186.351 77.9447L191.5 77.9447Z" fill="#ffffff10"/>
<path d="M30.3444 77.947L30.3444 72.2164L25.1977 72.2164L25.1977 77.947L30.3444 77.947Z" fill="#ffffff10"/>
<path d="M94.8095 77.9446L94.8095 72.2164L89.6607 72.2164L89.6606 77.9446L94.8095 77.9446Z" fill="#ffffff10"/>
<path d="M110.923 77.9447L110.923 72.2164L105.808 72.2164L105.808 77.9446L110.923 77.9447Z" fill="#ffffff10"/>
<path d="M384.88 77.8569L384.88 72.1642L379.735 72.1642L379.735 77.8569L384.88 77.8569Z" fill="#ffffff10"/>
<path d="M272.076 77.8569L272.076 72.1642L266.961 72.1642L266.961 77.8569L272.076 77.8569Z" fill="#ffffff10"/>
<path d="M400.998 77.8569L400.998 72.1642L395.883 72.1642L395.883 77.8569L400.998 77.8569Z" fill="#ffffff10"/>
<path d="M175.384 77.9447L175.384 72.2188L170.267 72.2188L170.267 77.9447L175.384 77.9447Z" fill="#ffffff10"/>
<path d="M320.417 77.8593L320.417 72.1642L315.272 72.1642L315.272 77.8593L320.417 77.8593Z" fill="#ffffff10"/>
<path d="M417.109 77.8593L417.109 72.1643L411.965 72.1643L411.965 77.8593L417.109 77.8593Z" fill="#ffffff10"/>
<path d="M14.2329 77.9446L14.2329 72.2188L9.11605 72.2188L9.11605 77.9446L14.2329 77.9446Z" fill="#ffffff10"/>
<path d="M433.227 77.8569L433.227 72.1643L428.112 72.1643L428.112 77.8569L433.227 77.8569Z" fill="#ffffff10"/>
<path d="M255.956 77.8593L255.956 72.1642L250.812 72.1642L250.812 77.8593L255.956 77.8593Z" fill="#ffffff10"/>
<path d="M143.155 77.947L143.155 72.2188L138.04 72.2188L138.04 77.947L143.155 77.947Z" fill="#ffffff10"/>
<path d="M78.6937 77.9423L78.6938 72.2164L73.5769 72.2164L73.5769 77.9423L78.6937 77.9423Z" fill="#ffffff10"/>
<path d="M207.615 77.8569L207.615 72.1642L202.501 72.1642L202.501 77.8569L207.615 77.8569Z" fill="#ffffff10"/>
<path d="M239.845 77.8569L239.845 72.1642L234.73 72.1642L234.73 77.8569L239.845 77.8569Z" fill="#ffffff10"/>
<path d="M336.537 77.8569L336.537 72.1642L331.422 72.1642L331.422 77.8569L336.537 77.8569Z" fill="#ffffff10"/>
<path d="M46.4623 77.9446L46.4623 72.2188L41.3454 72.2188L41.3454 77.9446L46.4623 77.9446Z" fill="#ffffff10"/>
<path d="M223.727 77.8593L223.727 72.1642L218.582 72.1642L218.582 77.8593L223.727 77.8593Z" fill="#ffffff10"/>
<path d="M288.188 77.8569L288.188 72.1642L283.043 72.1642L283.043 77.8569L288.188 77.8569Z" fill="#ffffff10"/>
<path d="M-17.9985 77.9423L-17.9985 72.2164L-23.1133 72.2164L-23.1133 77.9423L-17.9985 77.9423Z" fill="#ffffff10"/>
<path d="M304.306 77.8569L304.306 72.1642L299.191 72.1642L299.191 77.8569L304.306 77.8569Z" fill="#ffffff10"/>
<path d="M352.649 77.8593L352.649 72.1642L347.504 72.1642L347.504 77.8593L352.649 77.8593Z" fill="#ffffff10"/>
<path d="M368.766 77.8569L368.766 72.1642L363.652 72.1642L363.652 77.8569L368.766 77.8569Z" fill="#ffffff10"/>
<path d="M-10.1346 86.6829L-10.1346 81.4409L-14.8913 81.4409L-14.8913 86.6829L-10.1346 86.6829Z" fill="#ffffff10"/>
<path d="M54.3262 86.6852L54.3262 81.4385L49.5695 81.4385L49.5695 86.6852L54.3262 86.6852Z" fill="#ffffff10"/>
<path d="M408.862 86.6094L408.862 81.3626L404.105 81.3626L404.105 86.6093L408.862 86.6094Z" fill="#ffffff10"/>
<path d="M183.248 86.6853L183.248 81.4409L178.491 81.4409L178.491 86.6853L183.248 86.6853Z" fill="#ffffff10"/>
<path d="M279.94 86.6093L279.94 81.3626L275.183 81.3626L275.183 86.6093L279.94 86.6093Z" fill="#ffffff10"/>
<path d="M-42.3661 86.69L-42.3661 81.4409L-47.1228 81.4409L-47.1228 86.69L-42.3661 86.69Z" fill="#ffffff10"/>
<path d="M344.399 86.607L344.399 81.3626L339.642 81.3626L339.642 86.607L344.399 86.607Z" fill="#ffffff10"/>
<path d="M247.709 86.607L247.709 81.3626L242.952 81.3626L242.952 86.607L247.709 86.607Z" fill="#ffffff10"/>
<path d="M215.477 86.607L215.477 81.3602L210.72 81.3602L210.72 86.607L215.477 86.607Z" fill="#ffffff10"/>
<path d="M118.787 86.6829L118.787 81.4409L114.03 81.4409L114.03 86.6829L118.787 86.6829Z" fill="#ffffff10"/>
<path d="M376.63 86.607L376.63 81.3626L371.874 81.3626L371.874 86.607L376.63 86.607Z" fill="#ffffff10"/>
<path d="M86.5556 86.6852L86.5556 81.4385L81.7988 81.4385L81.7988 86.6852L86.5556 86.6852Z" fill="#ffffff10"/>
<path d="M22.0969 86.6852L22.0969 81.4385L17.3401 81.4385L17.3401 86.6852L22.0969 86.6852Z" fill="#ffffff10"/>
<path d="M312.17 86.607L312.17 81.3626L307.413 81.3626L307.413 86.607L312.17 86.607Z" fill="#ffffff10"/>
<path d="M441.091 86.607L441.091 81.3626L436.334 81.3626L436.334 86.607L441.091 86.607Z" fill="#ffffff10"/>
<path d="M151.016 86.6876L151.016 81.4409L146.26 81.4409L146.26 86.6876L151.016 86.6876Z" fill="#ffffff10"/>
<path d="M263.812 86.607L263.812 81.3626L259.1 81.3626L259.1 86.607L263.812 86.607Z" fill="#ffffff10"/>
<path d="M199.351 86.607L199.351 81.3626L194.637 81.3626L194.637 86.607L199.351 86.607Z" fill="#ffffff10"/>
<path d="M5.96834 86.6876L5.96834 81.4409L1.25641 81.4409L1.25641 86.6876L5.96834 86.6876Z" fill="#ffffff10"/>
<path d="M392.733 86.607L392.733 81.3626L388.021 81.3626L388.021 86.607L392.733 86.607Z" fill="#ffffff10"/>
<path d="M102.659 86.6876L102.659 81.4409L97.9466 81.4409L97.9466 86.6876L102.659 86.6876Z" fill="#ffffff10"/>
<path d="M231.582 86.607L231.582 81.3626L226.868 81.3626L226.868 86.607L231.582 86.607Z" fill="#ffffff10"/>
<path d="M38.1977 86.6876L38.1977 81.4409L33.4857 81.4409L33.4857 86.6876L38.1977 86.6876Z" fill="#ffffff10"/>
<path d="M167.119 86.6876L167.119 81.4409L162.407 81.4409L162.407 86.6876L167.119 86.6876Z" fill="#ffffff10"/>
<path d="M134.89 86.6876L134.89 81.4409L130.178 81.4409L130.178 86.6876L134.89 86.6876Z" fill="#ffffff10"/>
<path d="M424.965 86.607L424.965 81.3626L420.251 81.3626L420.251 86.607L424.965 86.607Z" fill="#ffffff10"/>
<path d="M296.041 86.607L296.041 81.3626L291.329 81.3626L291.329 86.607L296.041 86.607Z" fill="#ffffff10"/>
<path d="M328.275 86.607L328.275 81.3626L323.56 81.3626L323.56 86.607L328.275 86.607Z" fill="#ffffff10"/>
<path d="M70.4292 86.6876L70.4292 81.4409L65.7172 81.4409L65.7172 86.6876L70.4292 86.6876Z" fill="#ffffff10"/>
<path d="M-26.261 86.6876L-26.261 81.4409L-30.9751 81.4409L-30.9751 86.6876L-26.261 86.6876Z" fill="#ffffff10"/>
<path d="M360.504 86.607L360.504 81.3626L355.79 81.3626L355.79 86.607L360.504 86.607Z" fill="#ffffff10"/>
<path d="M158.838 95.3642L158.838 90.6796L154.586 90.6796L154.586 95.3642L158.838 95.3642Z" fill="#ffffff10"/>
<path d="M432.763 95.3167L432.763 90.5824L428.551 90.5824L428.551 95.3167L432.763 95.3167Z" fill="#ffffff10"/>
<path d="M207.149 95.3167L207.149 90.5823L202.938 90.5823L202.938 95.3167L207.149 95.3167Z" fill="#ffffff10"/>
<path d="M303.841 95.3167L303.841 90.5847L299.628 90.5847L299.628 95.3167L303.841 95.3167Z" fill="#ffffff10"/>
<path d="M62.1433 95.3665L62.1433 90.6748L57.8916 90.6748L57.8916 95.3665L62.1433 95.3665Z" fill="#ffffff10"/>
<path d="M29.9139 95.3665L29.9139 90.6772L25.6623 90.6772L25.6623 95.3665L29.9139 95.3665Z" fill="#ffffff10"/>
<path d="M94.3747 95.3665L94.3747 90.6772L90.1231 90.6772L90.1231 95.3665L94.3747 95.3665Z" fill="#ffffff10"/>
<path d="M126.606 95.3642L126.606 90.6772L122.355 90.6772L122.355 95.3642L126.606 95.3642Z" fill="#ffffff10"/>
<path d="M400.531 95.3144L400.531 90.5823L396.32 90.5823L396.32 95.3144L400.531 95.3144Z" fill="#ffffff10"/>
<path d="M336.07 95.3167L336.07 90.5823L331.857 90.5823L331.857 95.3167L336.07 95.3167Z" fill="#ffffff10"/>
<path d="M271.609 95.3144L271.609 90.5823L267.4 90.5823L267.4 95.3144L271.609 95.3144Z" fill="#ffffff10"/>
<path d="M-2.31753 95.3641L-2.31753 90.6748L-6.56921 90.6748L-6.56921 95.3641L-2.31753 95.3641Z" fill="#ffffff10"/>
<path d="M-34.5469 95.3618L-34.5469 90.6772L-38.7986 90.6772L-38.7986 95.3618L-34.5469 95.3618Z" fill="#ffffff10"/>
<path d="M368.302 95.3167L368.302 90.5823L364.091 90.5823L364.091 95.3167L368.302 95.3167Z" fill="#ffffff10"/>
<path d="M191.067 95.3642L191.067 90.6772L186.815 90.6772L186.815 95.3642L191.067 95.3642Z" fill="#ffffff10"/>
<path d="M239.38 95.3144L239.38 90.5823L235.171 90.5823L235.171 95.3144L239.38 95.3144Z" fill="#ffffff10"/>
<path d="M319.989 95.3144L319.989 90.5823L315.737 90.5823L315.737 95.3144L319.989 95.3144Z" fill="#ffffff10"/>
<path d="M416.681 95.3144L416.681 90.5824L412.429 90.5824L412.429 95.3144L416.681 95.3144Z" fill="#ffffff10"/>
<path d="M287.757 95.3167L287.757 90.5847L283.506 90.5847L283.506 95.3167L287.757 95.3167Z" fill="#ffffff10"/>
<path d="M255.528 95.3144L255.528 90.5823L251.276 90.5823L251.276 95.3144L255.528 95.3144Z" fill="#ffffff10"/>
<path d="M352.218 95.3144L352.218 90.5847L347.969 90.5847L347.969 95.3144L352.218 95.3144Z" fill="#ffffff10"/>
<path d="M384.447 95.3167L384.447 90.5847L380.196 90.5847L380.196 95.3167L384.447 95.3167Z" fill="#ffffff10"/>
<path d="M223.296 95.3144L223.296 90.5847L219.045 90.5847L219.045 95.3144L223.296 95.3144Z" fill="#ffffff10"/>
<path d="M142.686 95.3665L142.686 90.6843L138.479 90.6843L138.479 95.3665L142.686 95.3665Z" fill="#ffffff10"/>
<path d="M13.7662 95.3665L13.7662 90.6819L9.55935 90.6819L9.55935 95.3665L13.7662 95.3665Z" fill="#ffffff10"/>
<path d="M110.456 95.3665L110.456 90.682L106.249 90.6819L106.249 95.3665L110.456 95.3665Z" fill="#ffffff10"/>
<path d="M45.9977 95.3665L45.9977 90.6819L41.7908 90.6819L41.7908 95.3665L45.9977 95.3665Z" fill="#ffffff10"/>
<path d="M78.227 95.3641L78.227 90.6819L74.0202 90.6819L74.0202 95.3641L78.227 95.3641Z" fill="#ffffff10"/>
<path d="M-18.4652 95.3665L-18.4652 90.6819L-22.67 90.6819L-22.67 95.3665L-18.4652 95.3665Z" fill="#ffffff10"/>
<path d="M174.919 95.3665L174.919 90.682L170.712 90.682L170.712 95.3665L174.919 95.3665Z" fill="#ffffff10"/>
<path d="M440.56 103.977L440.56 99.8756L436.878 99.8756L436.878 103.977L440.56 103.977Z" fill="#ffffff10"/>
<path d="M214.949 103.974L214.949 99.8756L211.26 99.8756L211.26 103.974L214.949 103.974Z" fill="#ffffff10"/>
<path d="M311.641 103.974L311.641 99.8756L307.952 99.8756L307.952 103.974L311.641 103.974Z" fill="#ffffff10"/>
<path d="M53.7956 104.043L53.7956 99.9444L50.1087 99.9444L50.1087 104.043L53.7956 104.043Z" fill="#ffffff10"/>
<path d="M-10.6653 104.045L-10.6653 99.942L-14.35 99.942L-14.35 104.045L-10.6653 104.045Z" fill="#ffffff10"/>
<path d="M86.0249 104.043L86.0249 99.9444L82.338 99.9444L82.338 104.043L86.0249 104.043Z" fill="#ffffff10"/>
<path d="M247.178 103.979L247.178 99.8756L243.493 99.8756L243.493 103.979L247.178 103.979Z" fill="#ffffff10"/>
<path d="M182.717 104.043L182.717 99.9396L179.032 99.9396L179.032 104.043L182.717 104.043Z" fill="#ffffff10"/>
<path d="M21.5662 104.043L21.5662 99.9396L17.8815 99.9396L17.8815 104.043L21.5662 104.043Z" fill="#ffffff10"/>
<path d="M279.41 103.979L279.41 99.8732L275.725 99.8732L275.725 103.979L279.41 103.979Z" fill="#ffffff10"/>
<path d="M150.488 104.043L150.488 99.9444L146.801 99.9444L146.801 104.043L150.488 104.043Z" fill="#ffffff10"/>
<path d="M343.87 103.979L343.87 99.8732L340.186 99.8732L340.186 103.979L343.87 103.979Z" fill="#ffffff10"/>
<path d="M118.256 104.043L118.256 99.942L114.572 99.942L114.572 104.043L118.256 104.043Z" fill="#ffffff10"/>
<path d="M-42.8967 104.043L-42.8967 99.9444L-46.5815 99.9444L-46.5815 104.043L-42.8967 104.043Z" fill="#ffffff10"/>
<path d="M376.1 103.979L376.1 99.8732L372.415 99.8732L372.415 103.979L376.1 103.979Z" fill="#ffffff10"/>
<path d="M408.331 103.979L408.331 99.8756L404.646 99.8756L404.646 103.979L408.331 103.979Z" fill="#ffffff10"/>
<path d="M134.342 104.045L134.342 99.9467L130.709 99.9467L130.709 104.045L134.342 104.045Z" fill="#ffffff10"/>
<path d="M166.572 104.048L166.572 99.9467L162.938 99.9467L162.938 104.048L166.572 104.048Z" fill="#ffffff10"/>
<path d="M-26.8109 104.048L-26.8109 99.9444L-30.4444 99.9444L-30.4444 104.048L-26.8109 104.048Z" fill="#ffffff10"/>
<path d="M392.186 103.972L392.186 99.8732L388.554 99.8732L388.554 103.972L392.186 103.972Z" fill="#ffffff10"/>
<path d="M102.113 104.045L102.113 99.9467L98.4793 99.9467L98.4793 104.045L102.113 104.045Z" fill="#ffffff10"/>
<path d="M69.8815 104.045L69.8815 99.9467L66.2479 99.9467L66.2479 104.045L69.8815 104.045Z" fill="#ffffff10"/>
<path d="M231.035 103.974L231.035 99.8756L227.399 99.8756L227.399 103.974L231.035 103.974Z" fill="#ffffff10"/>
<path d="M263.264 103.974L263.264 99.8756L259.63 99.8756L259.63 103.974L263.264 103.974Z" fill="#ffffff10"/>
<path d="M327.725 103.974L327.725 99.8756L324.091 99.8756L324.091 103.974L327.725 103.974Z" fill="#ffffff10"/>
<path d="M198.801 103.979L198.801 99.8732L195.17 99.8732L195.17 103.979L198.801 103.979Z" fill="#ffffff10"/>
<path d="M424.415 103.974L424.415 99.8756L420.783 99.8756L420.783 103.974L424.415 103.974Z" fill="#ffffff10"/>
<path d="M295.493 103.974L295.493 99.8756L291.86 99.8756L291.86 103.974L295.493 103.974Z" fill="#ffffff10"/>
<path d="M37.65 104.048L37.65 99.9444L34.0164 99.9444L34.0164 104.048L37.65 104.048Z" fill="#ffffff10"/>
<path d="M359.956 103.977L359.956 99.8756L356.323 99.8756L356.323 103.977L359.956 103.977Z" fill="#ffffff10"/>
<path d="M5.41849 104.045L5.41849 99.9467L1.78706 99.9467L1.78706 104.045L5.41849 104.045Z" fill="#ffffff10"/>
<path d="M238.781 112.546L238.781 109.219L235.793 109.219L235.793 112.546L238.781 112.546Z" fill="#ffffff10"/>
<path d="M303.242 112.546L303.242 109.219L300.254 109.219L300.254 112.546L303.242 112.546Z" fill="#ffffff10"/>
<path d="M432.164 112.551L432.164 109.221L429.174 109.221L429.174 112.551L432.164 112.551Z" fill="#ffffff10"/>
<path d="M271.013 112.546L271.013 109.219L268.025 109.219L268.025 112.546L271.013 112.546Z" fill="#ffffff10"/>
<path d="M399.932 112.546L399.932 109.219L396.944 109.219L396.944 112.546L399.932 112.546Z" fill="#ffffff10"/>
<path d="M367.703 112.549L367.703 109.221L364.715 109.221L364.715 112.549L367.703 112.549Z" fill="#ffffff10"/>
<path d="M335.474 112.549L335.474 109.221L332.484 109.221L332.484 112.549L335.474 112.549Z" fill="#ffffff10"/>
<path d="M206.552 112.551L206.552 109.221L203.562 109.221L203.562 112.551L206.552 112.551Z" fill="#ffffff10"/>
<path d="M416.018 112.549L416.018 109.219L413.06 109.219L413.06 112.549L416.018 112.549Z" fill="#ffffff10"/>
<path d="M190.406 112.601L190.406 109.304L187.444 109.304L187.444 112.601L190.406 112.601Z" fill="#ffffff10"/>
<path d="M77.6303 112.599L77.6303 109.309L74.6382 109.309L74.6382 112.599L77.6303 112.599Z" fill="#ffffff10"/>
<path d="M319.326 112.549L319.326 109.219L316.368 109.219L316.368 112.549L319.326 112.549Z" fill="#ffffff10"/>
<path d="M-19.062 112.599L-19.062 109.309L-22.0541 109.309L-22.0541 112.599L-19.062 112.599Z" fill="#ffffff10"/>
<path d="M61.4826 112.601L61.4826 109.302L58.5203 109.302L58.5203 112.601L61.4826 112.601Z" fill="#ffffff10"/>
<path d="M-35.2097 112.599L-35.2097 109.302L-38.172 109.302L-38.172 112.599L-35.2097 112.599Z" fill="#ffffff10"/>
<path d="M254.865 112.551L254.865 109.221L251.909 109.221L251.909 112.551L254.865 112.551Z" fill="#ffffff10"/>
<path d="M351.555 112.549L351.555 109.221L348.599 109.221L348.599 112.549L351.555 112.549Z" fill="#ffffff10"/>
<path d="M287.094 112.551L287.094 109.221L284.139 109.221L284.139 112.551L287.094 112.551Z" fill="#ffffff10"/>
<path d="M13.1695 112.599L13.1695 109.309L10.1774 109.309L10.1774 112.599L13.1695 112.599Z" fill="#ffffff10"/>
<path d="M158.177 112.603L158.177 109.306L155.215 109.306L155.215 112.603L158.177 112.603Z" fill="#ffffff10"/>
<path d="M29.2533 112.601L29.2533 109.304L26.291 109.304L26.291 112.601L29.2533 112.601Z" fill="#ffffff10"/>
<path d="M109.86 112.599L109.86 109.309L106.868 109.309L106.868 112.599L109.86 112.599Z" fill="#ffffff10"/>
<path d="M383.785 112.551L383.785 109.221L380.829 109.221L380.829 112.551L383.785 112.551Z" fill="#ffffff10"/>
<path d="M174.323 112.601L174.323 109.309L171.33 109.309L171.33 112.601L174.323 112.601Z" fill="#ffffff10"/>
<path d="M45.3988 112.599L45.3988 109.309L42.4067 109.309L42.4067 112.599L45.3988 112.599Z" fill="#ffffff10"/>
<path d="M93.7141 112.601L93.7141 109.304L90.7518 109.304L90.7518 112.601L93.7141 112.601Z" fill="#ffffff10"/>
<path d="M125.943 112.599L125.943 109.302L122.979 109.302L122.979 112.599L125.943 112.599Z" fill="#ffffff10"/>
<path d="M-2.97608 112.603L-2.97608 109.306L-5.93835 109.306L-5.93835 112.603L-2.97608 112.603Z" fill="#ffffff10"/>
<path d="M142.091 112.599L142.091 109.309L139.099 109.309L139.099 112.599L142.091 112.599Z" fill="#ffffff10"/>
<path d="M222.634 112.551L222.634 109.221L219.678 109.221L219.678 112.551L222.634 112.551Z" fill="#ffffff10"/>
<path d="M181.929 121.071L181.929 118.77L179.84 118.77L179.84 121.071L181.929 121.071Z" fill="#ffffff10"/>
<path d="M149.699 121.071L149.699 118.77L147.611 118.77L147.611 121.071L149.699 121.071Z" fill="#ffffff10"/>
<path d="M214.16 121.019L214.16 118.716L212.072 118.716L212.072 121.019L214.16 121.019Z" fill="#ffffff10"/>
<path d="M278.621 121.021L278.621 118.721L276.532 118.721L276.532 121.021L278.621 121.021Z" fill="#ffffff10"/>
<path d="M439.774 121.019L439.774 118.718L437.683 118.718L437.683 121.019L439.774 121.019Z" fill="#ffffff10"/>
<path d="M375.311 121.021L375.311 118.721L373.223 118.721L373.223 121.021L375.311 121.021Z" fill="#ffffff10"/>
<path d="M246.389 121.021L246.389 118.721L244.301 118.721L244.301 121.021L246.389 121.021Z" fill="#ffffff10"/>
<path d="M117.47 121.071L117.47 118.773L115.379 118.773L115.379 121.071L117.47 121.071Z" fill="#ffffff10"/>
<path d="M85.2385 121.076L85.2385 118.773L83.15 118.773L83.15 121.076L85.2385 121.076Z" fill="#ffffff10"/>
<path d="M20.7756 121.071L20.7756 118.77L18.687 118.77L18.687 121.071L20.7756 121.071Z" fill="#ffffff10"/>
<path d="M407.543 121.021L407.543 118.721L405.454 118.721L405.454 121.021L407.543 121.021Z" fill="#ffffff10"/>
<path d="M343.084 121.019L343.084 118.721L340.991 118.721L340.991 121.019L343.084 121.019Z" fill="#ffffff10"/>
<path d="M-11.4538 121.071L-11.4538 118.77L-13.5423 118.77L-13.5423 121.071L-11.4538 121.071Z" fill="#ffffff10"/>
<path d="M-43.6831 121.069L-43.6831 118.773L-45.7759 118.773L-45.7759 121.069L-43.6831 121.069Z" fill="#ffffff10"/>
<path d="M53.0092 121.069L53.0092 118.773L50.9164 118.773L50.9164 121.069L53.0092 121.069Z" fill="#ffffff10"/>
<path d="M310.852 121.019L310.852 118.718L308.764 118.718L308.764 121.019L310.852 121.019Z" fill="#ffffff10"/>
<path d="M4.62998 121.069L4.62998 118.775L2.5713 118.775L2.5713 121.069L4.62998 121.069Z" fill="#ffffff10"/>
<path d="M391.395 121.017L391.395 118.721L389.334 118.721L389.334 121.017L391.395 121.017Z" fill="#ffffff10"/>
<path d="M262.473 121.017L262.473 118.723L260.412 118.723L260.412 121.017L262.473 121.017Z" fill="#ffffff10"/>
<path d="M230.244 121.017L230.244 118.723L228.183 118.723L228.183 121.017L230.244 121.017Z" fill="#ffffff10"/>
<path d="M198.012 121.019L198.012 118.723L195.952 118.723L195.952 121.019L198.012 121.019Z" fill="#ffffff10"/>
<path d="M294.705 121.017L294.705 118.723L292.644 118.723L292.644 121.017L294.705 121.017Z" fill="#ffffff10"/>
<path d="M133.552 121.069L133.552 118.775L131.493 118.775L131.493 121.069L133.552 121.069Z" fill="#ffffff10"/>
<path d="M-27.6015 121.069L-27.6015 118.775L-29.6602 118.775L-29.6602 121.069L-27.6015 121.069Z" fill="#ffffff10"/>
<path d="M69.0908 121.069L69.0908 118.775L67.0321 118.775L67.0321 121.069L69.0908 121.069Z" fill="#ffffff10"/>
<path d="M165.783 121.069L165.783 118.775L163.722 118.775L163.722 121.069L165.783 121.069Z" fill="#ffffff10"/>
<path d="M359.166 121.017L359.166 118.721L357.105 118.721L357.105 121.017L359.166 121.017Z" fill="#ffffff10"/>
<path d="M101.322 121.069L101.322 118.775L99.2615 118.775L99.2615 121.069L101.322 121.069Z" fill="#ffffff10"/>
<path d="M326.934 121.017L326.934 118.723L324.875 118.723L324.875 121.017L326.934 121.017Z" fill="#ffffff10"/>
<path d="M36.8593 121.069L36.8593 118.775L34.8006 118.775L34.8006 121.069L36.8593 121.069Z" fill="#ffffff10"/>
<path d="M423.624 121.014L423.624 118.723L421.566 118.723L421.566 121.014L423.624 121.014Z" fill="#ffffff10"/>
</svg>
