<svg version="1.2" xmlns="http://www.w3.org/2000/svg" viewBox="0 0 2318 898" width="2318" height="898">
	<title>transition-pattern-svg</title>
	<defs>
		<clipPath clipPathUnits="userSpaceOnUse" id="cp1">
			<path d="m2318 0v898h-2318v-898z"/>
		</clipPath>
	</defs>
	<style>
		.s0 { fill: #1a2c3d } 
	</style>
	<filter id="f0">
		<feFlood flood-color="#0f1923" flood-opacity="1" />
		<feBlend mode="normal" in2="SourceGraphic"/>
		<feComposite in2="SourceAlpha" operator="in" />
	</filter>
	<g id="Clip-Path" clip-path="url(#cp1)" filter="url(#f0)">
		<g id="Layer">
			<path id="Layer" class="s0" d="m578.8 10.9v-49.5h-49.5v49.5z"/>
			<path id="Layer" class="s0" d="m1486.2 10.5v-49.5h-49.5v49.5z"/>
			<path id="Layer" class="s0" d="m2091.2 10.5v-49.5h-49.5v49.5z"/>
			<path id="Layer" class="s0" d="m2242.4 10.5v-49.5h-49.5v49.5z"/>
			<path id="Layer" class="s0" d="m881.3 10.9v-49.5h-49.5v49.5z"/>
			<path id="Layer" class="s0" d="m125.1 10.9v-49.6h-49.5v49.6z"/>
			<path id="Layer" class="s0" d="m1032.5 10.9v-49.5h-49.5v49.5z"/>
			<path id="Layer" class="s0" d="m1183.7 10.9v-49.5h-49.5v49.5z"/>
			<path id="Layer" class="s0" d="m427.6 10.9v-49.5h-49.5v49.5z"/>
			<path id="Layer" class="s0" d="m276.3 10.9v-49.5h-49.5v49.5z"/>
			<path id="Layer" class="s0" d="m1788.7 10.5v-49.5h-49.5v49.5z"/>
			<path id="Layer" class="s0" d="m1335 10.5v-49.5h-49.5v49.5z"/>
			<path id="Layer" class="s0" d="m1637.4 10.5v-49.5h-49.5v49.5z"/>
			<path id="Layer" class="s0" d="m1939.9 10.5v-49.5h-49.5v49.5z"/>
			<path id="Layer" class="s0" d="m730 10.9v-49.5h-49.5v49.5z"/>
			<path id="Layer" class="s0" d="m1259.3 10.5v-49.5h-49.4v49.5z"/>
			<path id="Layer" class="s0" d="m1108 10.9v-49.5h-49.4v49.5z"/>
			<path id="Layer" class="s0" d="m351.9 10.9v-49.5h-49.4v49.5z"/>
			<path id="Layer" class="s0" d="m503.1 10.8v-49.5h-49.4v49.5z"/>
			<path id="Layer" class="s0" d="m805.6 10.8v-49.5h-49.4v49.5z"/>
			<path id="Layer" class="s0" d="m2317.9 10.5v-49.5h-49.4v49.5z"/>
			<path id="Layer" class="s0" d="m200.6 10.9v-49.5h-49.4v49.5z"/>
			<path id="Layer" class="s0" d="m2015.4 10.5v-49.5h-49.3v49.5z"/>
			<path id="Layer" class="s0" d="m1410.5 10.5v-49.5h-49.4v49.5z"/>
			<path id="Layer" class="s0" d="m1713 10.5v-49.5h-49.4v49.5z"/>
			<path id="Layer" class="s0" d="m654.3 10.9v-49.5h-49.4v49.5z"/>
			<path id="Layer" class="s0" d="m49.4 10.9v-49.5h-49.4v49.5z"/>
			<path id="Layer" class="s0" d="m956.8 10.9v-49.5h-49.4v49.5z"/>
			<path id="Layer" class="s0" d="m1561.7 10.5v-49.5h-49.4v49.5z"/>
			<path id="Layer" class="s0" d="m1864.2 10.5v-49.5h-49.4v49.5z"/>
			<path id="Layer" class="s0" d="m2166.7 10.5v-49.5h-49.4v49.5z"/>
			<path id="Layer" class="s0" d="m1901.6 47.9v-48.6h-48.5v48.6z"/>
			<path id="Layer" class="s0" d="m1447.9 47.9v-48.6h-48.5v48.6z"/>
			<path id="Layer" class="s0" d="m1750.4 47.8v-48.4h-48.6v48.4z"/>
			<path id="Layer" class="s0" d="m1296.6 47.8v-48.4h-48.5v48.4z"/>
			<path id="Layer" class="s0" d="m1599.1 47.9v-48.6h-48.5v48.6z"/>
			<path id="Layer" class="s0" d="m2204.1 47.9v-48.6h-48.5v48.6z"/>
			<path id="Layer" class="s0" d="m2052.8 47.9v-48.6h-48.5v48.6z"/>
			<path id="Layer" class="s0" d="m1145.4 48.1v-48.4h-48.5v48.4z"/>
			<path id="Layer" class="s0" d="m1523.4 47.8v-48.4h-48.4v48.4z"/>
			<path id="Layer" class="s0" d="m691.7 48.1v-48.4h-48.5v48.4z"/>
			<path id="Layer" class="s0" d="m1977.1 47.8v-48.4h-48.3v48.4z"/>
			<path id="Layer" class="s0" d="m238 48.1v-48.4h-48.5v48.4z"/>
			<path id="Layer" class="s0" d="m1674.6 47.8v-48.4h-48.3v48.4z"/>
			<path id="Layer" class="s0" d="m1372.2 47.8v-48.4h-48.4v48.4z"/>
			<path id="Layer" class="s0" d="m994.1 48.1v-48.4h-48.4v48.4z"/>
			<path id="Layer" class="s0" d="m1825.9 47.8v-48.4h-48.4v48.4z"/>
			<path id="Layer" class="s0" d="m389.2 48.1v-48.4h-48.5v48.4z"/>
			<path id="Layer" class="s0" d="m2279.6 47.8v-48.4h-48.4v48.4z"/>
			<path id="Layer" class="s0" d="m2128.3 47.8v-48.4h-48.3v48.4z"/>
			<path id="Layer" class="s0" d="m540.4 48.1v-48.4h-48.4v48.4z"/>
			<path id="Layer" class="s0" d="m86.7 48.1v-48.4h-48.4v48.4z"/>
			<path id="Layer" class="s0" d="m842.9 48.1v-48.4h-48.5v48.4z"/>
			<path id="Layer" class="s0" d="m616 48v-48.3h-48.4v48.3z"/>
			<path id="Layer" class="s0" d="m767.2 48v-48.3h-48.3v48.3z"/>
			<path id="Layer" class="s0" d="m162.3 48v-48.3h-48.4v48.3z"/>
			<path id="Layer" class="s0" d="m313.5 48v-48.3h-48.3v48.3z"/>
			<path id="Layer" class="s0" d="m464.7 48v-48.3h-48.3v48.3z"/>
			<path id="Layer" class="s0" d="m1220.9 48v-48.3h-48.3v48.3z"/>
			<path id="Layer" class="s0" d="m918.5 48v-48.3h-48.4v48.3z"/>
			<path id="Layer" class="s0" d="m1069.7 48.1v-48.4h-48.4v48.4z"/>
			<path id="Layer" class="s0" d="m1258.3 85.1v-47.5h-47.4v47.5z"/>
			<path id="Layer" class="s0" d="m124.1 85.5v-47.5h-47.6v47.5z"/>
			<path id="Layer" class="s0" d="m729 85.5v-47.5h-47.6v47.5z"/>
			<path id="Layer" class="s0" d="m502.2 85.5v-47.5h-47.5v47.5z"/>
			<path id="Layer" class="s0" d="m2014.5 85.1v-47.5h-47.5v47.5z"/>
			<path id="Layer" class="s0" d="m199.7 85.5v-47.5h-47.5v47.5z"/>
			<path id="Layer" class="s0" d="m275.3 85.5v-47.5h-47.6v47.5z"/>
			<path id="Layer" class="s0" d="m1182.7 85.5v-47.5h-47.6v47.5z"/>
			<path id="Layer" class="s0" d="m350.9 85.5v-47.5h-47.5v47.5z"/>
			<path id="Layer" class="s0" d="m426.6 85.5v-47.5h-47.6v47.5z"/>
			<path id="Layer" class="s0" d="m1938.9 85.1v-47.4h-47.6v47.4z"/>
			<path id="Layer" class="s0" d="m1031.5 85.5v-47.5h-47.6v47.5z"/>
			<path id="Layer" class="s0" d="m1863.3 85.1v-47.5h-47.5v47.5z"/>
			<path id="Layer" class="s0" d="m1333.9 85.1v-47.5h-47.5v47.5z"/>
			<path id="Layer" class="s0" d="m1107.1 85.5v-47.5h-47.5v47.5z"/>
			<path id="Layer" class="s0" d="m2317 85.1v-47.5h-47.5v47.5z"/>
			<path id="Layer" class="s0" d="m577.8 85.5v-47.5h-47.6v47.5z"/>
			<path id="Layer" class="s0" d="m1409.6 85.1v-47.5h-47.5v47.5z"/>
			<path id="Layer" class="s0" d="m2241.4 85.1v-47.4h-47.6v47.4z"/>
			<path id="Layer" class="s0" d="m1787.7 85.1v-47.4h-47.6v47.4z"/>
			<path id="Layer" class="s0" d="m1485.2 85.1v-47.5h-47.6v47.5z"/>
			<path id="Layer" class="s0" d="m880.3 85.5v-47.5h-47.6v47.5z"/>
			<path id="Layer" class="s0" d="m804.6 85.5v-47.5h-47.5v47.5z"/>
			<path id="Layer" class="s0" d="m653.4 85.5v-47.5h-47.5v47.5z"/>
			<path id="Layer" class="s0" d="m2165.8 85.1l-0.1-47.5h-47.4v47.5z"/>
			<path id="Layer" class="s0" d="m1560.8 85.1v-47.5h-47.5v47.5z"/>
			<path id="Layer" class="s0" d="m955.9 85.5v-47.5h-47.5v47.5z"/>
			<path id="Layer" class="s0" d="m1712 85.1v-47.5h-47.4v47.5z"/>
			<path id="Layer" class="s0" d="m1636.5 85.1v-47.5h-47.7v47.5z"/>
			<path id="Layer" class="s0" d="m2090.1 85.1v-47.5h-47.5v47.5z"/>
			<path id="Layer" class="s0" d="m48.5 85.5v-47.5h-47.5v47.5z"/>
			<path id="Layer" class="s0" d="m1144.4 122.8v-46.5h-46.4v46.5z"/>
			<path id="Layer" class="s0" d="m85.8 122.8v-46.5h-46.5v46.5z"/>
			<path id="Layer" class="s0" d="m539.5 122.8v-46.5h-46.5v46.5z"/>
			<path id="Layer" class="s0" d="m388.3 122.8v-46.5h-46.5v46.5z"/>
			<path id="Layer" class="s0" d="m690.7 122.8v-46.5h-46.5v46.5z"/>
			<path id="Layer" class="s0" d="m237 122.8v-46.5h-46.5v46.5z"/>
			<path id="Layer" class="s0" d="m842 122.8v-46.5h-46.5v46.5z"/>
			<path id="Layer" class="s0" d="m993.2 122.8v-46.5h-46.5v46.5z"/>
			<path id="Layer" class="s0" d="m2127.4 122.5v-46.5h-46.5v46.5z"/>
			<path id="Layer" class="s0" d="m1522.4 122.5v-46.5h-46.4v46.5z"/>
			<path id="Layer" class="s0" d="m1976.1 122.5v-46.5h-46.4v46.5z"/>
			<path id="Layer" class="s0" d="m2278.6 122.5v-46.5h-46.4v46.5z"/>
			<path id="Layer" class="s0" d="m1371.2 122.5v-46.5h-46.5v46.5z"/>
			<path id="Layer" class="s0" d="m1673.7 122.5v-46.5h-46.5v46.5z"/>
			<path id="Layer" class="s0" d="m1824.9 122.5v-46.5h-46.4v46.5z"/>
			<path id="Layer" class="s0" d="m2203.1 122.5v-46.5h-46.5v46.5z"/>
			<path id="Layer" class="s0" d="m1900.6 122.4v-46.4h-46.5v46.4z"/>
			<path id="Layer" class="s0" d="m463.8 122.8v-46.5h-46.4v46.5z"/>
			<path id="Layer" class="s0" d="m1295.7 122.4v-46.4h-46.5v46.4z"/>
			<path id="Layer" class="s0" d="m917.5 122.8v-46.5h-46.4v46.5z"/>
			<path id="Layer" class="s0" d="m1219.9 122.8v-46.5h-46.4v46.5z"/>
			<path id="Layer" class="s0" d="m1068.7 122.8v-46.5h-46.4v46.5z"/>
			<path id="Layer" class="s0" d="m1749.4 122.4v-46.4h-46.5v46.4z"/>
			<path id="Layer" class="s0" d="m2051.8 122.5v-46.5h-46.5v46.5z"/>
			<path id="Layer" class="s0" d="m766.2 122.8v-46.5h-46.4v46.5z"/>
			<path id="Layer" class="s0" d="m312.5 122.8v-46.5h-46.4v46.5z"/>
			<path id="Layer" class="s0" d="m1598.2 122.4v-46.4h-46.6v46.4z"/>
			<path id="Layer" class="s0" d="m615 122.8v-46.5h-46.4v46.5z"/>
			<path id="Layer" class="s0" d="m1446.9 122.4v-46.4h-46.5v46.4z"/>
			<path id="Layer" class="s0" d="m161.3 122.8v-46.5h-46.4v46.5z"/>
			<path id="Layer" class="s0" d="m501.1 160v-45.4h-45.4v45.4z"/>
			<path id="Layer" class="s0" d="m1257.3 159.8v-45.4h-45.4v45.4z"/>
			<path id="Layer" class="s0" d="m803.6 160v-45.4h-45.4v45.4z"/>
			<path id="Layer" class="s0" d="m1711 159.8v-45.5h-45.4v45.4z"/>
			<path id="Layer" class="s0" d="m2164.7 159.8v-45.4h-45.4v45.4z"/>
			<path id="Layer" class="s0" d="m954.8 160v-45.4h-45.3v45.4z"/>
			<path id="Layer" class="s0" d="m47.4 160v-45.4h-45.4v45.4z"/>
			<path id="Layer" class="s0" d="m1559.7 159.8v-45.4h-45.3v45.4z"/>
			<path id="Layer" class="s0" d="m198.6 160v-45.4h-45.3v45.4z"/>
			<path id="Layer" class="s0" d="m652.3 160v-45.4h-45.3v45.4z"/>
			<path id="Layer" class="s0" d="m1408.5 159.8v-45.4h-45.3v45.4z"/>
			<path id="Layer" class="s0" d="m2013.4 159.8v-45.4h-45.3v45.4z"/>
			<path id="Layer" class="s0" d="m2315.9 159.8v-45.4h-45.3v45.4z"/>
			<path id="Layer" class="s0" d="m349.9 160v-45.4h-45.4v45.4z"/>
			<path id="Layer" class="s0" d="m1106 160v-45.4h-45.3v45.4z"/>
			<path id="Layer" class="s0" d="m1862.2 159.8v-45.4h-45.3v45.4z"/>
			<path id="Layer" class="s0" d="m123 160v-45.4h-45.4v45.4z"/>
			<path id="Layer" class="s0" d="m727.9 160v-45.4h-45.4v45.4z"/>
			<path id="Layer" class="s0" d="m879.1 160v-45.4h-45.3v45.4z"/>
			<path id="Layer" class="s0" d="m425.4 160v-45.4h-45.3v45.4z"/>
			<path id="Layer" class="s0" d="m1635.3 159.8v-45.4h-45.4v45.3z"/>
			<path id="Layer" class="s0" d="m2089 159.8v-45.4h-45.4v45.3z"/>
			<path id="Layer" class="s0" d="m576.6 160v-45.4h-45.3v45.4z"/>
			<path id="Layer" class="s0" d="m274.2 160v-45.4h-45.4v45.4z"/>
			<path id="Layer" class="s0" d="m1030.4 160v-45.4h-45.4v45.4z"/>
			<path id="Layer" class="s0" d="m2240.2 159.8v-45.4h-45.3v45.3z"/>
			<path id="Layer" class="s0" d="m1786.5 159.8v-45.4h-45.3v45.3z"/>
			<path id="Layer" class="s0" d="m1484.1 159.8v-45.4h-45.4v45.3z"/>
			<path id="Layer" class="s0" d="m1181.6 160v-45.4h-45.4v45.4z"/>
			<path id="Layer" class="s0" d="m1332.8 159.8v-45.4h-45.3v45.3z"/>
			<path id="Layer" class="s0" d="m1937.8 159.8v-45.4h-45.4v45.3z"/>
			<path id="Layer" class="s0" d="m2050.7 196.9v-44.2h-44.2v44.2z"/>
			<path id="Layer" class="s0" d="m1445.8 196.9v-44.2h-44.3v44.2z"/>
			<path id="Layer" class="s0" d="m1899.5 196.9v-44.2h-44.3v44.2z"/>
			<path id="Layer" class="s0" d="m2202 196.9v-44.2h-44.3v44.2z"/>
			<path id="Layer" class="s0" d="m1597 196.9v-44.2h-44.2v44.2z"/>
			<path id="Layer" class="s0" d="m1294.5 196.9v-44.2h-44.2v44.2z"/>
			<path id="Layer" class="s0" d="m1748.3 196.9v-44.2h-44.3v44.2z"/>
			<path id="Layer" class="s0" d="m1067.7 197.3v-44.3h-44.3v44.3z"/>
			<path id="Layer" class="s0" d="m614 197.3v-44.4h-44.4v44.3z"/>
			<path id="Layer" class="s0" d="m765.2 197.3v-44.4h-44.3v44.4z"/>
			<path id="Layer" class="s0" d="m160.2 197.3v-44.3h-44.2v44.3z"/>
			<path id="Layer" class="s0" d="m916.4 197.3v-44.3h-44.3v44.2z"/>
			<path id="Layer" class="s0" d="m462.7 197.3v-44.4h-44.3v44.4z"/>
			<path id="Layer" class="s0" d="m1218.9 197.3v-44.4h-44.3v44.3z"/>
			<path id="Layer" class="s0" d="m311.5 197.3v-44.3h-44.3v44.3z"/>
			<path id="Layer" class="s0" d="m235.9 197.3v-44.4h-44.3v44.4z"/>
			<path id="Layer" class="s0" d="m538.4 197.3v-44.4h-44.3v44.4z"/>
			<path id="Layer" class="s0" d="m84.7 197.3v-44.3h-44.3v44.3z"/>
			<path id="Layer" class="s0" d="m840.8 197.3v-44.4h-44.2v44.4z"/>
			<path id="Layer" class="s0" d="m1143.3 197.3v-44.4h-44.2v44.4z"/>
			<path id="Layer" class="s0" d="m689.6 197.3v-44.3h-44.3v44.3z"/>
			<path id="Layer" class="s0" d="m992.1 197.3v-44.3h-44.3v44.3z"/>
			<path id="Layer" class="s0" d="m387.2 197.3v-44.3h-44.3v44.3z"/>
			<path id="Layer" class="s0" d="m1975.1 196.9v-44.2h-44.4v44.2z"/>
			<path id="Layer" class="s0" d="m2126.3 196.9v-44.2h-44.3v44.2z"/>
			<path id="Layer" class="s0" d="m1823.8 196.9v-44.2h-44.3v44.2z"/>
			<path id="Layer" class="s0" d="m1370.1 196.9v-44.2h-44.3v44.2z"/>
			<path id="Layer" class="s0" d="m1672.6 196.9v-44.2h-44.3v44.2z"/>
			<path id="Layer" class="s0" d="m1521.4 196.9v-44.2h-44.4v44.2z"/>
			<path id="Layer" class="s0" d="m2277.5 196.9v-44.2h-44.3v44.2z"/>
			<path id="Layer" class="s0" d="m1483 234.2v-43.2h-43.2v43.2z"/>
			<path id="Layer" class="s0" d="m1785.4 234.2v-43.2h-43.1v43.2z"/>
			<path id="Layer" class="s0" d="m1029.2 234.5v-43.2h-43.1v43.2z"/>
			<path id="Layer" class="s0" d="m273.1 234.5v-43.2h-43.1v43.2z"/>
			<path id="Layer" class="s0" d="m878 234.5v-43.2h-43.1v43.2z"/>
			<path id="Layer" class="s0" d="m1180.5 234.6v-43.2h-43.1v43.2z"/>
			<path id="Layer" class="s0" d="m2088 234.2v-43.2h-43.2v43.2z"/>
			<path id="Layer" class="s0" d="m2239.1 234.2v-43.2h-43.1v43.2z"/>
			<path id="Layer" class="s0" d="m1634.2 234.2v-43.2h-43.1v43.2z"/>
			<path id="Layer" class="s0" d="m424.4 234.6v-43.2h-43.2v43.2z"/>
			<path id="Layer" class="s0" d="m1936.7 234.2v-43.1h-43.2v43.1z"/>
			<path id="Layer" class="s0" d="m1331.8 234.2v-43.1h-43.2v43.1z"/>
			<path id="Layer" class="s0" d="m726.8 234.5v-43.2h-43.1v43.2z"/>
			<path id="Layer" class="s0" d="m121.8 234.5v-43.2h-43.1v43.2z"/>
			<path id="Layer" class="s0" d="m575.5 234.5v-43.2h-43.1v43.2z"/>
			<path id="Layer" class="s0" d="m953.7 234.6v-43.2h-43.2v43.2z"/>
			<path id="Layer" class="s0" d="m500.1 234.6v-43.3h-43.3v43.3z"/>
			<path id="Layer" class="s0" d="m1558.7 234.2v-43.2h-43.2v43.2z"/>
			<path id="Layer" class="s0" d="m651.3 234.6v-43.3h-43.3v43.3z"/>
			<path id="Layer" class="s0" d="m197.6 234.6v-43.3h-43.3v43.3z"/>
			<path id="Layer" class="s0" d="m1861.1 234.2v-43.2h-43.2v43.2z"/>
			<path id="Layer" class="s0" d="m46.4 234.6v-43.3h-43.3v43.3z"/>
			<path id="Layer" class="s0" d="m348.8 234.6v-43.2h-43.2v43.2z"/>
			<path id="Layer" class="s0" d="m2163.7 234.2v-43.2h-43.3v43.2z"/>
			<path id="Layer" class="s0" d="m1407.4 234.2v-43.2h-43.2v43.2z"/>
			<path id="Layer" class="s0" d="m1256.2 234.2v-43.2h-43.2v43.2z"/>
			<path id="Layer" class="s0" d="m2012.4 234.2v-43.2h-43.2v43.2z"/>
			<path id="Layer" class="s0" d="m1105 234.6v-43.2h-43.3v43.2z"/>
			<path id="Layer" class="s0" d="m2314.9 234.2v-43.2h-43.3v43.2z"/>
			<path id="Layer" class="s0" d="m802.5 234.6v-43.2h-43.2v43.2z"/>
			<path id="Layer" class="s0" d="m1709.9 234.2v-43.2h-43.2v43.2z"/>
			<path id="Layer" class="s0" d="m915.3 271.7v-41.9h-42v41.9z"/>
			<path id="Layer" class="s0" d="m1898.3 271.5v-42h-41.9v42z"/>
			<path id="Layer" class="s0" d="m1293.4 271.4v-42h-41.9v42z"/>
			<path id="Layer" class="s0" d="m1066.5 271.7v-41.9h-42v41.9z"/>
			<path id="Layer" class="s0" d="m1444.6 271.5v-42.1h-41.9v42.1z"/>
			<path id="Layer" class="s0" d="m764.1 271.7v-41.9h-42.1v41.9z"/>
			<path id="Layer" class="s0" d="m310.4 271.7v-41.9h-42.1v41.9z"/>
			<path id="Layer" class="s0" d="m1747.1 271.5v-42.1h-42v42.1z"/>
			<path id="Layer" class="s0" d="m159.1 271.7v-41.9h-42v41.9z"/>
			<path id="Layer" class="s0" d="m2049.6 271.4v-42h-42v42z"/>
			<path id="Layer" class="s0" d="m612.8 271.7v-41.9h-42v41.9z"/>
			<path id="Layer" class="s0" d="m461.6 271.7v-41.9h-42.1v41.9z"/>
			<path id="Layer" class="s0" d="m1595.8 271.5v-42.1h-41.9v42.1z"/>
			<path id="Layer" class="s0" d="m2200.8 271.5v-42.1h-41.9v42.1z"/>
			<path id="Layer" class="s0" d="m1142.2 271.8v-42h-42v42z"/>
			<path id="Layer" class="s0" d="m386 271.7v-41.9h-42v41.9z"/>
			<path id="Layer" class="s0" d="m537.2 271.7v-41.9h-41.9v41.9z"/>
			<path id="Layer" class="s0" d="m839.7 271.7v-41.9h-41.9v41.9z"/>
			<path id="Layer" class="s0" d="m234.7 271.8v-42h-41.9v41.9z"/>
			<path id="Layer" class="s0" d="m990.9 271.8v-42h-41.9v42z"/>
			<path id="Layer" class="s0" d="m83.5 271.8v-42h-42v41.9z"/>
			<path id="Layer" class="s0" d="m688.5 271.7v-41.9h-42v41.9z"/>
			<path id="Layer" class="s0" d="m1974 271.5v-42.1h-42.1v42.1z"/>
			<path id="Layer" class="s0" d="m1369 271.5v-42.1h-42.1v42.1z"/>
			<path id="Layer" class="s0" d="m1217.8 271.5v-42h-42v42z"/>
			<path id="Layer" class="s0" d="m2276.4 271.5v-42.1h-42v42.1z"/>
			<path id="Layer" class="s0" d="m1520.2 271.5v-42.1h-42v42.1z"/>
			<path id="Layer" class="s0" d="m1822.7 271.5v-42.1h-42v42.1z"/>
			<path id="Layer" class="s0" d="m1671.5 271.5v-42.1h-42.1v42.1z"/>
			<path id="Layer" class="s0" d="m2125.2 271.5v-42.1h-42.1v42.1z"/>
			<path id="Layer" class="s0" d="m498.8 308.9v-40.7h-40.8v40.7z"/>
			<path id="Layer" class="s0" d="m2162.4 308.6v-40.7h-40.8v40.7z"/>
			<path id="Layer" class="s0" d="m2313.7 308.6v-40.7h-40.9v40.7z"/>
			<path id="Layer" class="s0" d="m1860 308.6v-40.7h-40.9v40.7z"/>
			<path id="Layer" class="s0" d="m347.6 308.9v-40.7h-40.8v40.7z"/>
			<path id="Layer" class="s0" d="m801.3 308.9v-40.7h-40.8v40.7z"/>
			<path id="Layer" class="s0" d="m45.1 308.9v-40.8h-40.8v40.8z"/>
			<path id="Layer" class="s0" d="m1557.5 308.6v-40.7h-40.8v40.7z"/>
			<path id="Layer" class="s0" d="m1708.7 308.6v-40.7h-40.8v40.7z"/>
			<path id="Layer" class="s0" d="m1255 308.6v-40.7h-40.8v40.7z"/>
			<path id="Layer" class="s0" d="m1103.8 308.9v-40.7h-40.8v40.7z"/>
			<path id="Layer" class="s0" d="m650.1 308.9v-40.7h-40.9v40.7z"/>
			<path id="Layer" class="s0" d="m2011.2 308.6v-40.7h-40.8v40.7z"/>
			<path id="Layer" class="s0" d="m1406.3 308.6v-40.7h-40.9v40.7z"/>
			<path id="Layer" class="s0" d="m196.4 308.9v-40.7h-40.9v40.7z"/>
			<path id="Layer" class="s0" d="m952.5 308.9v-40.7h-40.8v40.7z"/>
			<path id="Layer" class="s0" d="m1633 308.6v-40.7h-40.7v40.7z"/>
			<path id="Layer" class="s0" d="m1481.7 308.6v-40.7h-40.7v40.7z"/>
			<path id="Layer" class="s0" d="m2086.7 308.6v-40.7h-40.7v40.7z"/>
			<path id="Layer" class="s0" d="m1028 308.9v-40.7h-40.7v40.7z"/>
			<path id="Layer" class="s0" d="m271.9 308.9v-40.7h-40.7v40.7z"/>
			<path id="Layer" class="s0" d="m2237.9 308.6v-40.7h-40.7v40.7z"/>
			<path id="Layer" class="s0" d="m1935.4 308.6v-40.7h-40.7v40.7z"/>
			<path id="Layer" class="s0" d="m574.3 308.9v-40.7h-40.7v40.7z"/>
			<path id="Layer" class="s0" d="m423.1 308.9v-40.7h-40.7v40.7z"/>
			<path id="Layer" class="s0" d="m1784.2 308.6v-40.7h-40.7v40.7z"/>
			<path id="Layer" class="s0" d="m1330.5 308.6v-40.7h-40.7v40.7z"/>
			<path id="Layer" class="s0" d="m725.6 308.9v-40.7h-40.7v40.7z"/>
			<path id="Layer" class="s0" d="m1179.3 308.9v-40.7h-40.7v40.7z"/>
			<path id="Layer" class="s0" d="m876.8 308.9v-40.7h-40.7v40.7z"/>
			<path id="Layer" class="s0" d="m120.6 308.9v-40.7h-40.7v40.7z"/>
			<path id="Layer" class="s0" d="m1745.9 345.8v-39.5h-39.6v39.5z"/>
			<path id="Layer" class="s0" d="m1443.4 345.8v-39.5h-39.5v39.5z"/>
			<path id="Layer" class="s0" d="m1292.2 345.8v-39.5h-39.5v39.5z"/>
			<path id="Layer" class="s0" d="m1594.6 345.8v-39.5h-39.4v39.5z"/>
			<path id="Layer" class="s0" d="m2048.3 345.8v-39.5h-39.5v39.5z"/>
			<path id="Layer" class="s0" d="m1897.1 345.8v-39.5h-39.5v39.5z"/>
			<path id="Layer" class="s0" d="m2199.6 345.8v-39.5h-39.5v39.5z"/>
			<path id="Layer" class="s0" d="m611.6 346.1v-39.6h-39.6v39.6z"/>
			<path id="Layer" class="s0" d="m914 346.1v-39.6h-39.5v39.6z"/>
			<path id="Layer" class="s0" d="m309.1 346.1v-39.5h-39.6v39.5z"/>
			<path id="Layer" class="s0" d="m157.9 346.1v-39.6h-39.6v39.6z"/>
			<path id="Layer" class="s0" d="m762.8 346.1v-39.6h-39.5v39.6z"/>
			<path id="Layer" class="s0" d="m460.4 346.1v-39.5h-39.6v39.5z"/>
			<path id="Layer" class="s0" d="m1065.3 346.1v-39.6h-39.6v39.6z"/>
			<path id="Layer" class="s0" d="m384.8 346.1l-0.1-39.5h-39.5v39.5z"/>
			<path id="Layer" class="s0" d="m1140.9 346.1v-39.5h-39.5v39.5z"/>
			<path id="Layer" class="s0" d="m989.7 346.1v-39.6h-39.5v39.6z"/>
			<path id="Layer" class="s0" d="m536 346.1v-39.6h-39.5v39.6z"/>
			<path id="Layer" class="s0" d="m82.3 346.1v-39.5h-39.5v39.5z"/>
			<path id="Layer" class="s0" d="m233.5 346.1v-39.6h-39.5v39.6z"/>
			<path id="Layer" class="s0" d="m838.5 346.1v-39.6h-39.5v39.6z"/>
			<path id="Layer" class="s0" d="m687.2 346.1v-39.6h-39.5v39.6z"/>
			<path id="Layer" class="s0" d="m1670.2 345.8v-39.5h-39.5v39.5z"/>
			<path id="Layer" class="s0" d="m2275.2 345.8v-39.5h-39.6v39.5z"/>
			<path id="Layer" class="s0" d="m1519 345.8v-39.5h-39.6v39.5z"/>
			<path id="Layer" class="s0" d="m1216.5 345.8v-39.5h-39.5v39.5z"/>
			<path id="Layer" class="s0" d="m1821.5 345.8v-39.5h-39.6v39.5z"/>
			<path id="Layer" class="s0" d="m1367.8 345.8v-39.5h-39.6v39.5z"/>
			<path id="Layer" class="s0" d="m2123.9 345.8v-39.5h-39.5v39.5z"/>
			<path id="Layer" class="s0" d="m1972.7 345.8v-39.5h-39.6v39.5z"/>
			<path id="Layer" class="s0" d="m2085.4 382.9v-38.2h-38.2v38.3z"/>
			<path id="Layer" class="s0" d="m875.5 383.3v-38.2h-38.2v38.2z"/>
			<path id="Layer" class="s0" d="m1026.8 383.3v-38.2h-38.2v38.2z"/>
			<path id="Layer" class="s0" d="m1329.3 383v-38.2h-38.3v38.2z"/>
			<path id="Layer" class="s0" d="m1631.7 382.9v-38.2h-38.2v38.3z"/>
			<path id="Layer" class="s0" d="m2236.7 383v-38.2h-38.3v38.2z"/>
			<path id="Layer" class="s0" d="m573.1 383.3v-38.2h-38.3v38.2z"/>
			<path id="Layer" class="s0" d="m1178 383.3v-38.2h-38.2v38.2z"/>
			<path id="Layer" class="s0" d="m1783 382.9v-38.2h-38.3v38.3z"/>
			<path id="Layer" class="s0" d="m119.4 383.3v-38.2h-38.2v38.2z"/>
			<path id="Layer" class="s0" d="m421.9 383.3v-38.2h-38.3v38.2z"/>
			<path id="Layer" class="s0" d="m270.6 383.3v-38.2h-38.2v38.2z"/>
			<path id="Layer" class="s0" d="m1480.5 382.9v-38.2h-38.2v38.3z"/>
			<path id="Layer" class="s0" d="m724.3 383.3v-38.2h-38.2v38.2z"/>
			<path id="Layer" class="s0" d="m1934.2 382.9v-38.2h-38.2v38.3z"/>
			<path id="Layer" class="s0" d="m1707.4 382.9v-38.2h-38.2v38.3z"/>
			<path id="Layer" class="s0" d="m1556.2 382.9v-38.2h-38.2v38.2z"/>
			<path id="Layer" class="s0" d="m2161.1 382.9v-38.2h-38.2v38.3z"/>
			<path id="Layer" class="s0" d="m648.8 383.3v-38.2h-38.2v38.2z"/>
			<path id="Layer" class="s0" d="m346.3 383.3v-38.2h-38.2v38.2z"/>
			<path id="Layer" class="s0" d="m1253.7 382.9v-38.2h-38.2v38.3z"/>
			<path id="Layer" class="s0" d="m1858.7 382.9v-38.2h-38.3v38.3z"/>
			<path id="Layer" class="s0" d="m2009.9 382.9v-38.2h-38.2v38.3z"/>
			<path id="Layer" class="s0" d="m195.1 383.3v-38.2h-38.2v38.2z"/>
			<path id="Layer" class="s0" d="m1405 383v-38.3h-38.3v38.3z"/>
			<path id="Layer" class="s0" d="m2312.4 382.9v-38.2h-38.2v38.3z"/>
			<path id="Layer" class="s0" d="m800 383.3v-38.2h-38.2v38.2z"/>
			<path id="Layer" class="s0" d="m497.6 383.3v-38.2h-38.3v38.2z"/>
			<path id="Layer" class="s0" d="m43.9 383.3v-38.2h-38.3v38.2z"/>
			<path id="Layer" class="s0" d="m951.3 383.3v-38.2h-38.3v38.2z"/>
			<path id="Layer" class="s0" d="m1102.5 383.3v-38.2h-38.2v38.2z"/>
			<path id="Layer" class="s0" d="m1291 420.3v-37.1h-37.1v37.1z"/>
			<path id="Layer" class="s0" d="m1669 420.3v-37.1h-37.2v37.1z"/>
			<path id="Layer" class="s0" d="m1895.9 420.3v-37.1h-37.1v37.1z"/>
			<path id="Layer" class="s0" d="m232.3 420.6v-37.1h-37.1v37z"/>
			<path id="Layer" class="s0" d="m988.5 420.6v-37.1h-37.1v37z"/>
			<path id="Layer" class="s0" d="m1517.8 420.3v-37.1h-37.2v37.1z"/>
			<path id="Layer" class="s0" d="m1139.7 420.6v-37.1h-37v37z"/>
			<path id="Layer" class="s0" d="m1442.2 420.3v-37.1h-37.1v37.1z"/>
			<path id="Layer" class="s0" d="m383.6 420.6l-0.1-37.1h-37v37z"/>
			<path id="Layer" class="s0" d="m912.8 420.6v-37.1h-37.1v37z"/>
			<path id="Layer" class="s0" d="m1593.4 420.3v-37.2h-37.1v37.2z"/>
			<path id="Layer" class="s0" d="m1215.3 420.3v-37.1h-37.2v37.1z"/>
			<path id="Layer" class="s0" d="m156.7 420.6v-37.1h-37.1v37.1z"/>
			<path id="Layer" class="s0" d="m2047.1 420.3v-37.1h-37v37.1z"/>
			<path id="Layer" class="s0" d="m1971.5 420.3v-37.1h-37.2v37.1z"/>
			<path id="Layer" class="s0" d="m1744.7 420.2v-37.1h-37.1v37.1z"/>
			<path id="Layer" class="s0" d="m534.8 420.6v-37.1h-37.1v37z"/>
			<path id="Layer" class="s0" d="m459.1 420.6v-37.1h-37.1v37.1z"/>
			<path id="Layer" class="s0" d="m610.4 420.6v-37.1h-37.2v37.1z"/>
			<path id="Layer" class="s0" d="m2273.9 420.3v-37.1h-37.1v37.1z"/>
			<path id="Layer" class="s0" d="m2198.4 420.2v-37.1h-37.1v37.1z"/>
			<path id="Layer" class="s0" d="m1820.2 420.3v-37.1h-37.1v37.1z"/>
			<path id="Layer" class="s0" d="m81.1 420.6v-37.1h-37.1v37z"/>
			<path id="Layer" class="s0" d="m686 420.6v-37.1h-37v37z"/>
			<path id="Layer" class="s0" d="m307.9 420.6v-37.1h-37.1v37.1z"/>
			<path id="Layer" class="s0" d="m837.3 420.6v-37.1h-37.1v37z"/>
			<path id="Layer" class="s0" d="m2122.7 420.3v-37.1h-37.2v37.1z"/>
			<path id="Layer" class="s0" d="m761.6 420.6v-37.1h-37.1v37.1z"/>
			<path id="Layer" class="s0" d="m1064 420.6v-37.1h-37v37.1z"/>
			<path id="Layer" class="s0" d="m1366.5 420.3v-37.1h-37.1v37.1z"/>
			<path id="Layer" class="s0" d="m118.1 457.6v-35.7h-35.7v35.7z"/>
			<path id="Layer" class="s0" d="m1933 457.4v-35.7h-35.8v35.7z"/>
			<path id="Layer" class="s0" d="m2235.4 457.4v-35.7h-35.7v35.7z"/>
			<path id="Layer" class="s0" d="m1781.7 457.4v-35.7h-35.7v35.7z"/>
			<path id="Layer" class="s0" d="m1328 457.4v-35.7h-35.7v35.7z"/>
			<path id="Layer" class="s0" d="m571.8 457.6v-35.7h-35.7v35.7z"/>
			<path id="Layer" class="s0" d="m874.3 457.6v-35.7h-35.7v35.7z"/>
			<path id="Layer" class="s0" d="m723.1 457.6v-35.7h-35.8v35.7z"/>
			<path id="Layer" class="s0" d="m269.4 457.6v-35.7h-35.8v35.7z"/>
			<path id="Layer" class="s0" d="m1025.5 457.6v-35.7h-35.7v35.7z"/>
			<path id="Layer" class="s0" d="m420.6 457.6v-35.7h-35.7v35.7z"/>
			<path id="Layer" class="s0" d="m2084.2 457.4v-35.7h-35.8v35.7z"/>
			<path id="Layer" class="s0" d="m1479.3 457.4v-35.7h-35.8v35.7z"/>
			<path id="Layer" class="s0" d="m1630.5 457.4v-35.7h-35.8v35.7z"/>
			<path id="Layer" class="s0" d="m1176.8 457.6v-35.7h-35.8v35.7z"/>
			<path id="Layer" class="s0" d="m2311.1 457.4v-35.7h-35.7v35.7z"/>
			<path id="Layer" class="s0" d="m647.5 457.7v-35.8h-35.7v35.8z"/>
			<path id="Layer" class="s0" d="m2159.9 457.4v-35.7h-35.7v35.7z"/>
			<path id="Layer" class="s0" d="m1706.2 457.4v-35.7h-35.7v35.7z"/>
			<path id="Layer" class="s0" d="m193.8 457.6v-35.7h-35.7v35.7z"/>
			<path id="Layer" class="s0" d="m1555 457.4v-35.7h-35.8v35.7z"/>
			<path id="Layer" class="s0" d="m950 457.6v-35.7h-35.7v35.7z"/>
			<path id="Layer" class="s0" d="m496.4 457.6v-35.7h-35.8v35.7z"/>
			<path id="Layer" class="s0" d="m1403.7 457.4v-35.7h-35.7v35.7z"/>
			<path id="Layer" class="s0" d="m2008.7 457.4v-35.7h-35.8v35.7z"/>
			<path id="Layer" class="s0" d="m345.1 457.6v-35.7h-35.7v35.7z"/>
			<path id="Layer" class="s0" d="m42.7 457.6v-35.7h-35.8v35.7z"/>
			<path id="Layer" class="s0" d="m1101.3 457.7v-35.8h-35.8v35.8z"/>
			<path id="Layer" class="s0" d="m1857.4 457.4v-35.8h-35.7v35.8z"/>
			<path id="Layer" class="s0" d="m1252.5 457.4v-35.7h-35.7v35.7z"/>
			<path id="Layer" class="s0" d="m798.8 457.7v-35.8h-35.7v35.8z"/>
			<path id="Layer" class="s0" d="m2197 494.4v-34.3h-34.3v34.3z"/>
			<path id="Layer" class="s0" d="m2045.8 494.4v-34.3h-34.4v34.4z"/>
			<path id="Layer" class="s0" d="m1894.6 494.4v-34.3h-34.4v34.3z"/>
			<path id="Layer" class="s0" d="m1592.1 494.4v-34.3h-34.4v34.4z"/>
			<path id="Layer" class="s0" d="m1289.6 494.4v-34.3h-34.4v34.4z"/>
			<path id="Layer" class="s0" d="m1440.8 494.4v-34.3h-34.3v34.3z"/>
			<path id="Layer" class="s0" d="m1743.3 494.4v-34.3h-34.4v34.3z"/>
			<path id="Layer" class="s0" d="m608.9 494.7v-34.3h-34.3v34.3z"/>
			<path id="Layer" class="s0" d="m457.7 494.7v-34.3h-34.3v34.3z"/>
			<path id="Layer" class="s0" d="m760.1 494.7v-34.3h-34.3v34.3z"/>
			<path id="Layer" class="s0" d="m1062.6 494.7v-34.3h-34.3v34.3z"/>
			<path id="Layer" class="s0" d="m155.2 494.7v-34.3h-34.3v34.3z"/>
			<path id="Layer" class="s0" d="m911.4 494.7v-34.3h-34.3v34.3z"/>
			<path id="Layer" class="s0" d="m306.4 494.7v-34.3h-34.3v34.3z"/>
			<path id="Layer" class="s0" d="m1138.4 494.7v-34.3h-34.4v34.3z"/>
			<path id="Layer" class="s0" d="m987.1 494.7v-34.3h-34.3v34.3z"/>
			<path id="Layer" class="s0" d="m79.7 494.7v-34.3h-34.3v34.3z"/>
			<path id="Layer" class="s0" d="m684.7 494.7v-34.3h-34.4v34.3z"/>
			<path id="Layer" class="s0" d="m533.5 494.7v-34.3h-34.4v34.3z"/>
			<path id="Layer" class="s0" d="m835.9 494.7v-34.3h-34.4v34.3z"/>
			<path id="Layer" class="s0" d="m1970 494.4v-34.3h-34.3v34.4z"/>
			<path id="Layer" class="s0" d="m2121.3 494.4v-34.3h-34.3v34.4z"/>
			<path id="Layer" class="s0" d="m1667.6 494.4v-34.3h-34.3v34.4z"/>
			<path id="Layer" class="s0" d="m382.2 494.7v-34.3h-34.4v34.3z"/>
			<path id="Layer" class="s0" d="m1516.3 494.4v-34.3h-34.3v34.4z"/>
			<path id="Layer" class="s0" d="m1365.1 494.4v-34.3h-34.3v34.4z"/>
			<path id="Layer" class="s0" d="m231 494.7v-34.3h-34.4v34.3z"/>
			<path id="Layer" class="s0" d="m1818.8 494.4v-34.3h-34.3v34.4z"/>
			<path id="Layer" class="s0" d="m1213.9 494.4v-34.3h-34.3v34.4z"/>
			<path id="Layer" class="s0" d="m2272.5 494.4v-34.3h-34.3v34.4z"/>
			<path id="Layer" class="s0" d="m1780.3 531.5v-32.8h-32.9v32.8z"/>
			<path id="Layer" class="s0" d="m1477.9 531.5v-32.7h-32.9v32.7z"/>
			<path id="Layer" class="s0" d="m570.5 531.8v-32.7h-33v32.7z"/>
			<path id="Layer" class="s0" d="m1629.1 531.5v-32.7h-32.9v32.7z"/>
			<path id="Layer" class="s0" d="m872.9 531.8v-32.7h-32.9v32.7z"/>
			<path id="Layer" class="s0" d="m1175.4 531.8v-32.8h-32.9v32.8z"/>
			<path id="Layer" class="s0" d="m1326.6 531.5v-32.7h-32.9v32.7z"/>
			<path id="Layer" class="s0" d="m116.8 531.8v-32.7h-33v32.7z"/>
			<path id="Layer" class="s0" d="m268 531.8v-32.7h-32.9v32.7z"/>
			<path id="Layer" class="s0" d="m419.2 531.8v-32.8h-32.8v32.8z"/>
			<path id="Layer" class="s0" d="m1931.6 531.5v-32.7h-32.9v32.7z"/>
			<path id="Layer" class="s0" d="m721.7 531.8v-32.8h-32.9v32.8z"/>
			<path id="Layer" class="s0" d="m2082.8 531.5v-32.8h-32.9v32.8z"/>
			<path id="Layer" class="s0" d="m2234.1 531.5v-32.8h-33v32.8z"/>
			<path id="Layer" class="s0" d="m1024.2 531.8v-32.8h-32.9v32.8z"/>
			<path id="Layer" class="s0" d="m1855.9 531.5v-32.8h-32.7v32.8z"/>
			<path id="Layer" class="s0" d="m343.5 531.8v-32.7h-32.7v32.7z"/>
			<path id="Layer" class="s0" d="m1704.6 531.5v-32.8h-32.7v32.8z"/>
			<path id="Layer" class="s0" d="m1099.7 531.8v-32.7h-32.7v32.7z"/>
			<path id="Layer" class="s0" d="m1402.2 531.5v-32.8h-32.7v32.8z"/>
			<path id="Layer" class="s0" d="m948.5 531.8v-32.7h-32.8v32.7z"/>
			<path id="Layer" class="s0" d="m2007.1 531.5v-32.8h-32.7v32.8z"/>
			<path id="Layer" class="s0" d="m2158.3 531.5v-32.8h-32.7v32.8z"/>
			<path id="Layer" class="s0" d="m797.2 531.8v-32.7h-32.7v32.7z"/>
			<path id="Layer" class="s0" d="m2309.6 531.5v-32.8h-32.7v32.8z"/>
			<path id="Layer" class="s0" d="m1553.4 531.5v-32.8h-32.7v32.8z"/>
			<path id="Layer" class="s0" d="m646 531.8v-32.7h-32.7v32.7z"/>
			<path id="Layer" class="s0" d="m1250.9 531.5v-32.8h-32.7v32.8z"/>
			<path id="Layer" class="s0" d="m41 531.8v-32.7h-32.7v32.7z"/>
			<path id="Layer" class="s0" d="m494.8 531.8v-32.7h-32.8v32.7z"/>
			<path id="Layer" class="s0" d="m192.3 531.8v-32.7h-32.7v32.7z"/>
			<path id="Layer" class="s0" d="m834.4 568.9v-31.4h-31.4v31.4z"/>
			<path id="Layer" class="s0" d="m531.9 568.9v-31.4h-31.4v31.4z"/>
			<path id="Layer" class="s0" d="m78.2 568.9v-31.4h-31.4v31.4z"/>
			<path id="Layer" class="s0" d="m1136.8 568.9v-31.4h-31.4v31.4z"/>
			<path id="Layer" class="s0" d="m683.1 568.9v-31.4h-31.4v31.4z"/>
			<path id="Layer" class="s0" d="m985.6 568.9v-31.4h-31.4v31.4z"/>
			<path id="Layer" class="s0" d="m229.4 568.9v-31.4h-31.4v31.4z"/>
			<path id="Layer" class="s0" d="m380.6 568.9v-31.4h-31.4v31.4z"/>
			<path id="Layer" class="s0" d="m305 568.9v-31.4h-31.2v31.4z"/>
			<path id="Layer" class="s0" d="m2271.1 568.5v-31.2h-31.3l0.1 31.2z"/>
			<path id="Layer" class="s0" d="m2195.5 568.5v-31.2h-31.4v31.2z"/>
			<path id="Layer" class="s0" d="m2119.8 568.5v-31.2h-31.2v31.2z"/>
			<path id="Layer" class="s0" d="m2044.2 568.5v-31.2h-31.4v31.2z"/>
			<path id="Layer" class="s0" d="m1968.6 568.5v-31.2h-31.2v31.2z"/>
			<path id="Layer" class="s0" d="m1893 568.5v-31.2h-31.4v31.2z"/>
			<path id="Layer" class="s0" d="m1817.3 568.5v-31.2h-31.1v31.2z"/>
			<path id="Layer" class="s0" d="m1741.8 568.5v-31.2h-31.4v31.2z"/>
			<path id="Layer" class="s0" d="m456.2 568.9v-31.4h-31.2v31.4z"/>
			<path id="Layer" class="s0" d="m1666.1 568.5v-31.2h-31.2v31.2z"/>
			<path id="Layer" class="s0" d="m1590.5 568.5v-31.2h-31.4v31.2z"/>
			<path id="Layer" class="s0" d="m153.8 568.9v-31.4h-31.2v31.4z"/>
			<path id="Layer" class="s0" d="m1439.3 568.5v-31.2h-31.4v31.2z"/>
			<path id="Layer" class="s0" d="m1363.6 568.5v-31.2h-31.2v31.2z"/>
			<path id="Layer" class="s0" d="m1288 568.5v-31.2h-31.3v31.2z"/>
			<path id="Layer" class="s0" d="m1212.4 568.5v-31.2h-31.2v31.2z"/>
			<path id="Layer" class="s0" d="m1514.9 568.5v-31.2h-31.2v31.2z"/>
			<path id="Layer" class="s0" d="m1061.2 568.9v-31.4h-31.2v31.4z"/>
			<path id="Layer" class="s0" d="m909.9 568.9v-31.4h-31.2v31.4z"/>
			<path id="Layer" class="s0" d="m758.7 568.9v-31.4h-31.2v31.4z"/>
			<path id="Layer" class="s0" d="m607.5 568.9v-31.4h-31.2v31.4z"/>
			<path id="Layer" class="s0" d="m1098.1 605.9v-29.6h-29.6v29.6z"/>
			<path id="Layer" class="s0" d="m946.9 605.9v-29.6h-29.7v29.6z"/>
			<path id="Layer" class="s0" d="m1551.8 605.5v-29.7h-29.6v29.7z"/>
			<path id="Layer" class="s0" d="m39.5 605.9v-29.6h-29.7v29.6z"/>
			<path id="Layer" class="s0" d="m2005.5 605.5v-29.7h-29.6v29.7z"/>
			<path id="Layer" class="s0" d="m1703.1 605.5v-29.7h-29.7v29.7z"/>
			<path id="Layer" class="s0" d="m1854.3 605.5v-29.7h-29.7v29.7z"/>
			<path id="Layer" class="s0" d="m644.4 605.9v-29.6h-29.6v29.6z"/>
			<path id="Layer" class="s0" d="m342 605.9v-29.6h-29.7v29.6z"/>
			<path id="Layer" class="s0" d="m1400.6 605.5v-29.7h-29.7v29.7z"/>
			<path id="Layer" class="s0" d="m190.7 605.9v-29.6h-29.6v29.6z"/>
			<path id="Layer" class="s0" d="m795.7 605.9v-29.6h-29.7v29.6z"/>
			<path id="Layer" class="s0" d="m1249.4 605.5v-29.7h-29.7v29.7z"/>
			<path id="Layer" class="s0" d="m2156.8 605.5v-29.7h-29.7v29.7z"/>
			<path id="Layer" class="s0" d="m2308 605.5v-29.7h-29.7v29.7z"/>
			<path id="Layer" class="s0" d="m493.2 605.9v-29.6h-29.7v29.6z"/>
			<path id="Layer" class="s0" d="m417.7 605.9v-29.6h-29.6v29.6z"/>
			<path id="Layer" class="s0" d="m2081.2 605.5v-29.7h-29.6v29.7z"/>
			<path id="Layer" class="s0" d="m1930 605.5v-29.7h-29.6v29.7z"/>
			<path id="Layer" class="s0" d="m1476.3 605.5v-29.7h-29.6v29.7z"/>
			<path id="Layer" class="s0" d="m2232.5 605.5v-29.6h-29.6v29.6z"/>
			<path id="Layer" class="s0" d="m1778.8 605.5v-29.7h-29.6v29.7z"/>
			<path id="Layer" class="s0" d="m1627.5 605.5v-29.7h-29.6v29.7z"/>
			<path id="Layer" class="s0" d="m266.4 605.9v-29.6h-29.6v29.6z"/>
			<path id="Layer" class="s0" d="m1325.1 605.5v-29.7h-29.6v29.7z"/>
			<path id="Layer" class="s0" d="m720.1 605.9v-29.6h-29.6v29.6z"/>
			<path id="Layer" class="s0" d="m568.9 605.9v-29.6h-29.6v29.6z"/>
			<path id="Layer" class="s0" d="m1173.8 605.9v-29.6h-29.6v29.6z"/>
			<path id="Layer" class="s0" d="m1022.6 605.9v-29.6h-29.6v29.6z"/>
			<path id="Layer" class="s0" d="m115.2 605.9v-29.6h-29.7v29.6z"/>
			<path id="Layer" class="s0" d="m871.4 605.9v-29.6h-29.6v29.6z"/>
			<path id="Layer" class="s0" d="m454.6 642.9v-28.1h-28v28.1z"/>
			<path id="Layer" class="s0" d="m757.1 642.9v-28.1h-28.1v28.1z"/>
			<path id="Layer" class="s0" d="m303.4 642.9v-28.1h-28v28.1z"/>
			<path id="Layer" class="s0" d="m605.9 642.9v-28.1h-28.1v28.1z"/>
			<path id="Layer" class="s0" d="m908.3 642.9v-28.1h-28v28.1z"/>
			<path id="Layer" class="s0" d="m152.2 642.9v-28.1h-28.1v28.1z"/>
			<path id="Layer" class="s0" d="m1059.6 642.9v-28.1h-28.1v28.1z"/>
			<path id="Layer" class="s0" d="m2118.2 642.4v-27.8h-28v27.8z"/>
			<path id="Layer" class="s0" d="m1362 642.4v-27.8h-28v27.8z"/>
			<path id="Layer" class="s0" d="m681.4 642.8v-28h-27.8v28z"/>
			<path id="Layer" class="s0" d="m1210.8 642.4v-27.8h-28v27.8z"/>
			<path id="Layer" class="s0" d="m2269.4 642.4v-27.8h-28v27.8z"/>
			<path id="Layer" class="s0" d="m227.7 642.8v-28h-27.8v28z"/>
			<path id="Layer" class="s0" d="m983.8 642.8v-28h-27.8v28z"/>
			<path id="Layer" class="s0" d="m1664.5 642.4v-27.8h-28v27.8z"/>
			<path id="Layer" class="s0" d="m832.6 642.9v-28.1h-27.8v28.1z"/>
			<path id="Layer" class="s0" d="m530.1 642.9v-28.1h-27.8v28.1z"/>
			<path id="Layer" class="s0" d="m76.4 642.8v-28h-27.8v28z"/>
			<path id="Layer" class="s0" d="m378.9 642.9v-28.1h-27.8v28.1z"/>
			<path id="Layer" class="s0" d="m1135.1 642.9v-28.1h-27.8v28.1z"/>
			<path id="Layer" class="s0" d="m1815.7 642.4v-27.8h-28v27.8z"/>
			<path id="Layer" class="s0" d="m1513.2 642.4v-27.8h-28v27.8z"/>
			<path id="Layer" class="s0" d="m1967 642.4v-27.8h-28.1v27.8z"/>
			<path id="Layer" class="s0" d="m2042.5 642.4v-27.8h-27.8v27.8z"/>
			<path id="Layer" class="s0" d="m1588.8 642.4v-27.8h-27.8v27.8z"/>
			<path id="Layer" class="s0" d="m1740 642.4v-27.8h-27.8v27.8z"/>
			<path id="Layer" class="s0" d="m1437.5 642.4v-27.8h-27.8l0.1 27.8z"/>
			<path id="Layer" class="s0" d="m1891.2 642.4v-27.8h-27.8l0.1 27.8z"/>
			<path id="Layer" class="s0" d="m1286.3 642.4v-27.8h-27.8v27.8z"/>
			<path id="Layer" class="s0" d="m2193.7 642.4v-27.8h-27.8v27.8z"/>
			<path id="Layer" class="s0" d="m567 679.7v-26h-26.1v26z"/>
			<path id="Layer" class="s0" d="m2230.6 679.3v-26h-26.1v26z"/>
			<path id="Layer" class="s0" d="m1625.7 679.3v-26h-26.1v26z"/>
			<path id="Layer" class="s0" d="m113.3 679.7v-26h-26.1v26z"/>
			<path id="Layer" class="s0" d="m1474.4 679.3v-26h-26.1v26z"/>
			<path id="Layer" class="s0" d="m1928.1 679.3v-26h-26.1v26z"/>
			<path id="Layer" class="s0" d="m1020.7 679.7v-26h-26.1v26z"/>
			<path id="Layer" class="s0" d="m718.3 679.7v-26h-26.1v26z"/>
			<path id="Layer" class="s0" d="m1776.9 679.3v-26h-26.1v26z"/>
			<path id="Layer" class="s0" d="m1323.2 679.3v-26h-26.1v26z"/>
			<path id="Layer" class="s0" d="m1172 679.7v-26h-26.1v26z"/>
			<path id="Layer" class="s0" d="m869.5 679.7v-26h-26.1v26z"/>
			<path id="Layer" class="s0" d="m2079.4 679.3v-26h-26.1v26z"/>
			<path id="Layer" class="s0" d="m264.6 679.7l-0.1-26h-26.1v26z"/>
			<path id="Layer" class="s0" d="m415.8 679.7v-26h-26.1v26z"/>
			<path id="Layer" class="s0" d="m189 679.7v-26h-26v26z"/>
			<path id="Layer" class="s0" d="m1096.4 679.7v-26h-26v26z"/>
			<path id="Layer" class="s0" d="m1247.6 679.3v-26h-26v26z"/>
			<path id="Layer" class="s0" d="m2306.3 679.3v-26.1h-26v26.1z"/>
			<path id="Layer" class="s0" d="m945.2 679.7v-26h-26v26z"/>
			<path id="Layer" class="s0" d="m1701.3 679.3v-26h-26v26z"/>
			<path id="Layer" class="s0" d="m2003.8 679.3v-26.1h-26v26.1z"/>
			<path id="Layer" class="s0" d="m340.3 679.8v-26.1h-26.1v26.1z"/>
			<path id="Layer" class="s0" d="m1550.1 679.3v-26h-26v26z"/>
			<path id="Layer" class="s0" d="m642.7 679.7v-26h-26v26z"/>
			<path id="Layer" class="s0" d="m1852.6 679.3v-26.1h-26v26.1z"/>
			<path id="Layer" class="s0" d="m37.8 679.8v-26.1h-26v26.1z"/>
			<path id="Layer" class="s0" d="m2155.1 679.3v-26h-26.1v26z"/>
			<path id="Layer" class="s0" d="m491.5 679.8v-26.1h-26.1v26.1z"/>
			<path id="Layer" class="s0" d="m794 679.7v-26h-26.1v26z"/>
			<path id="Layer" class="s0" d="m1398.9 679.3v-26h-26.1v26z"/>
			<path id="Layer" class="s0" d="m225.8 716.5v-24.2h-24.2v24.2z"/>
			<path id="Layer" class="s0" d="m982 716.5v-24.2h-24.2v24.2z"/>
			<path id="Layer" class="s0" d="m830.7 716.5v-24.2h-24.1v24.2z"/>
			<path id="Layer" class="s0" d="m528.3 716.5v-24.2h-24.2v24.2z"/>
			<path id="Layer" class="s0" d="m74.5 716.5v-24.2h-24.1v24.2z"/>
			<path id="Layer" class="s0" d="m1133.2 716.5v-24.2h-24.2v24.2z"/>
			<path id="Layer" class="s0" d="m377 716.5v-24.2h-24.1v24.2z"/>
			<path id="Layer" class="s0" d="m679.5 716.5v-24.2h-24.2v24.2z"/>
			<path id="Layer" class="s0" d="m755.1 716.5v-24.2h-24v24.2z"/>
			<path id="Layer" class="s0" d="m2040.6 716.1v-24h-24.1v24z"/>
			<path id="Layer" class="s0" d="m1511.3 716.1v-24h-24v24z"/>
			<path id="Layer" class="s0" d="m2116.2 716.1v-24h-24v24z"/>
			<path id="Layer" class="s0" d="m1057.6 716.5v-24.2h-24v24.2z"/>
			<path id="Layer" class="s0" d="m1738.1 716.1v-24h-24.1v24z"/>
			<path id="Layer" class="s0" d="m2191.8 716.1v-24h-24.1v24z"/>
			<path id="Layer" class="s0" d="m301.4 716.5v-24.2h-24v24.2z"/>
			<path id="Layer" class="s0" d="m2267.4 716.1v-24h-24v24z"/>
			<path id="Layer" class="s0" d="m1435.6 716.1v-24h-24.1v24z"/>
			<path id="Layer" class="s0" d="m906.3 716.5v-24.2h-24v24.2z"/>
			<path id="Layer" class="s0" d="m603.9 716.5v-24.2h-24v24.2z"/>
			<path id="Layer" class="s0" d="m1208.8 716.1v-24h-24v24z"/>
			<path id="Layer" class="s0" d="m1360 716.1v-24h-24v24z"/>
			<path id="Layer" class="s0" d="m1813.8 716.1v-24h-24v24z"/>
			<path id="Layer" class="s0" d="m452.6 716.5v-24.2h-24v24.2z"/>
			<path id="Layer" class="s0" d="m1284.4 716.1v-24h-24.1v24z"/>
			<path id="Layer" class="s0" d="m1586.9 716.1v-24h-24.2v24z"/>
			<path id="Layer" class="s0" d="m150.2 716.5v-24.2h-24v24.2z"/>
			<path id="Layer" class="s0" d="m1662.5 716.1v-24h-24v24z"/>
			<path id="Layer" class="s0" d="m1889.3 716.1v-24h-24.1v24z"/>
			<path id="Layer" class="s0" d="m1965 716.1v-24h-24v24z"/>
			<path id="Layer" class="s0" d="m187.1 753.3v-22.1h-22.4v22.1z"/>
			<path id="Layer" class="s0" d="m489.5 753.3v-22.1h-22.3v22.1z"/>
			<path id="Layer" class="s0" d="m2153.1 753v-22.1h-22.3v22.1z"/>
			<path id="Layer" class="s0" d="m1094.5 753.3v-22.1h-22.3v22.1z"/>
			<path id="Layer" class="s0" d="m1548.2 753v-22.1h-22.3v22.1z"/>
			<path id="Layer" class="s0" d="m35.8 753.4v-22.2h-22.3v22.2z"/>
			<path id="Layer" class="s0" d="m1850.6 753v-22.1h-22.3v22.1z"/>
			<path id="Layer" class="s0" d="m1396.9 753v-22.1h-22.3v22.1z"/>
			<path id="Layer" class="s0" d="m1245.7 753v-22.1h-22.3v22.1z"/>
			<path id="Layer" class="s0" d="m792 753.3v-22.1h-22.3v22.1z"/>
			<path id="Layer" class="s0" d="m2001.9 753v-22.1h-22.3v22.1z"/>
			<path id="Layer" class="s0" d="m640.8 753.3v-22.1h-22.4v22.1z"/>
			<path id="Layer" class="s0" d="m338.3 753.3v-22.1h-22.3v22.1z"/>
			<path id="Layer" class="s0" d="m1699.4 753v-22.1h-22.3v22.1z"/>
			<path id="Layer" class="s0" d="m2304.3 753v-22.1h-22.3v22.1z"/>
			<path id="Layer" class="s0" d="m943.2 753.3v-22.1h-22.3v22.1z"/>
			<path id="Layer" class="s0" d="m1472.5 753v-22.1h-22.1v22.1z"/>
			<path id="Layer" class="s0" d="m1170 753v-22.1h-22.1v22.1z"/>
			<path id="Layer" class="s0" d="m262.6 753.3v-22.1h-22.1v22.1z"/>
			<path id="Layer" class="s0" d="m2077.4 753v-22.1h-22.1v22.1z"/>
			<path id="Layer" class="s0" d="m716.3 753.3v-22.1h-22.1v22.1z"/>
			<path id="Layer" class="s0" d="m1321.3 753v-22.1h-22.1v22.1z"/>
			<path id="Layer" class="s0" d="m413.9 753.3v-22.1h-22.2v22.1z"/>
			<path id="Layer" class="s0" d="m1018.8 753.3v-22.1h-22.1v22.1z"/>
			<path id="Layer" class="s0" d="m867.6 753.3v-22.1h-22.1v22.1z"/>
			<path id="Layer" class="s0" d="m2228.7 753v-22.1h-22.1v22.1z"/>
			<path id="Layer" class="s0" d="m1623.7 753v-22.1h-22.1v22.1z"/>
			<path id="Layer" class="s0" d="m1775 753v-22.1h-22.1v22.1z"/>
			<path id="Layer" class="s0" d="m565.1 753.3v-22.1h-22.1v22.1z"/>
			<path id="Layer" class="s0" d="m111.4 753.3v-22.1h-22.1v22.1z"/>
			<path id="Layer" class="s0" d="m1926.2 753v-22.1h-22.1v22.1z"/>
			<path id="Layer" class="s0" d="m979.9 789.9v-19.7h-19.9v19.7z"/>
			<path id="Layer" class="s0" d="m2265.3 789.7v-19.9h-19.8v19.9z"/>
			<path id="Layer" class="s0" d="m1206.6 789.7v-19.9h-19.7v19.9z"/>
			<path id="Layer" class="s0" d="m1660.3 789.7v-19.9h-19.7v19.9z"/>
			<path id="Layer" class="s0" d="m526.2 789.9v-19.8l-19.9 0.1v19.7z"/>
			<path id="Layer" class="s0" d="m375 789.9v-19.7h-20v19.7z"/>
			<path id="Layer" class="s0" d="m677.5 789.9v-19.7h-20v19.7z"/>
			<path id="Layer" class="s0" d="m828.7 789.9v-19.7h-20v19.7z"/>
			<path id="Layer" class="s0" d="m2114 789.7v-19.9h-19.7v19.9z"/>
			<path id="Layer" class="s0" d="m1811.6 789.7v-19.9h-19.8v19.9z"/>
			<path id="Layer" class="s0" d="m1509.1 789.7v-19.9h-19.8v19.9z"/>
			<path id="Layer" class="s0" d="m223.7 789.9v-19.8l-19.9 0.1v19.7z"/>
			<path id="Layer" class="s0" d="m72.5 789.9v-19.7h-19.9v19.7z"/>
			<path id="Layer" class="s0" d="m1962.8 789.7v-19.9h-19.8v19.9z"/>
			<path id="Layer" class="s0" d="m1131.2 789.9v-19.7h-20v19.7z"/>
			<path id="Layer" class="s0" d="m1357.9 789.7v-19.9h-19.8v19.9z"/>
			<path id="Layer" class="s0" d="m1736.1 789.7v-19.9h-19.9v19.9z"/>
			<path id="Layer" class="s0" d="m2189.8 789.7v-19.9h-19.9v19.9z"/>
			<path id="Layer" class="s0" d="m1584.9 789.7v-19.9h-20v19.9z"/>
			<path id="Layer" class="s0" d="m1433.6 789.7v-19.9h-19.9v19.9z"/>
			<path id="Layer" class="s0" d="m1887.3 789.7v-19.9h-19.9v19.9z"/>
			<path id="Layer" class="s0" d="m2038.6 789.7v-19.9h-20v19.9z"/>
			<path id="Layer" class="s0" d="m1282.4 789.7v-19.9h-20v19.9z"/>
			<path id="Layer" class="s0" d="m904.1 789.9v-19.7h-19.7v19.7z"/>
			<path id="Layer" class="s0" d="m299.2 789.9v-19.7h-19.7v19.7z"/>
			<path id="Layer" class="s0" d="m752.9 789.9v-19.7h-19.7v19.7z"/>
			<path id="Layer" class="s0" d="m450.4 789.9l0.1-19.7h-19.8v19.7z"/>
			<path id="Layer" class="s0" d="m601.7 789.9v-19.7h-19.8v19.7z"/>
			<path id="Layer" class="s0" d="m148 789.9v-19.7h-19.8v19.7z"/>
			<path id="Layer" class="s0" d="m1055.4 789.9v-19.7h-19.8l0.1 19.7z"/>
			<path id="Layer" class="s0" d="m2301.9 826.2v-17.3h-17.3v17.3z"/>
			<path id="Layer" class="s0" d="m1243.2 826.2v-17.3h-17.3v17.3z"/>
			<path id="Layer" class="s0" d="m1696.9 826.2v-17.3h-17.3v17.3z"/>
			<path id="Layer" class="s0" d="m487 826.5v-17.3h-17.3v17.3z"/>
			<path id="Layer" class="s0" d="m184.6 826.5v-17.3h-17.3v17.3z"/>
			<path id="Layer" class="s0" d="m638.3 826.5v-17.3h-17.3v17.3z"/>
			<path id="Layer" class="s0" d="m1394.5 826.2v-17.3h-17.3v17.3z"/>
			<path id="Layer" class="s0" d="m1092 826.5v-17.3h-17.3v17.3z"/>
			<path id="Layer" class="s0" d="m335.8 826.5v-17.3h-17.3v17.3z"/>
			<path id="Layer" class="s0" d="m1545.7 826.2v-17.3h-17.3v17.3z"/>
			<path id="Layer" class="s0" d="m940.8 826.5v-17.3h-17.3v17.3z"/>
			<path id="Layer" class="s0" d="m1848.2 826.2v-17.3h-17.3v17.3z"/>
			<path id="Layer" class="s0" d="m789.5 826.5v-17.3h-17.3v17.3z"/>
			<path id="Layer" class="s0" d="m33.3 826.5v-17.3h-17.3v17.3z"/>
			<path id="Layer" class="s0" d="m1999.4 826.2v-17.3h-17.3v17.3z"/>
			<path id="Layer" class="s0" d="m2150.6 826.2v-17.3h-17.3v17.3z"/>
			<path id="Layer" class="s0" d="m865 826.5v-17.3h-17.1v17.3z"/>
			<path id="Layer" class="s0" d="m1016.2 826.5v-17.3h-17v17.3z"/>
			<path id="Layer" class="s0" d="m108.8 826.5v-17.3h-17v17.3z"/>
			<path id="Layer" class="s0" d="m2074.9 826.2v-17.3h-17.1v17.3z"/>
			<path id="Layer" class="s0" d="m713.8 826.5v-17.3h-17.1v17.3z"/>
			<path id="Layer" class="s0" d="m562.5 826.5v-17.3h-17v17.3z"/>
			<path id="Layer" class="s0" d="m1318.7 826.2v-17.3h-17.1v17.3z"/>
			<path id="Layer" class="s0" d="m1469.9 826.2v-17.3h-17v17.3z"/>
			<path id="Layer" class="s0" d="m1772.4 826.2v-17.3h-17.1v17.3z"/>
			<path id="Layer" class="s0" d="m1167.5 826.2v-17.3h-17.1v17.3z"/>
			<path id="Layer" class="s0" d="m2226.1 826.2v-17.3h-17v17.3z"/>
			<path id="Layer" class="s0" d="m1621.2 826.2v-17.3h-17.1v17.3z"/>
			<path id="Layer" class="s0" d="m411.3 826.5v-17.3h-17.1v17.3z"/>
			<path id="Layer" class="s0" d="m1923.6 826.2v-17.3h-17v17.3z"/>
			<path id="Layer" class="s0" d="m260 826.5v-17.3h-17v17.3z"/>
			<path id="Layer" class="s0" d="m1355 862.4v-14.1h-14v14.1z"/>
			<path id="Layer" class="s0" d="m1657.5 862.4v-14.1h-14v14.1z"/>
			<path id="Layer" class="s0" d="m2262.5 862.4v-14.1h-14.1v14.1z"/>
			<path id="Layer" class="s0" d="m1506.3 862.4v-14.1h-14v14.1z"/>
			<path id="Layer" class="s0" d="m2111.2 862.4v-14.1h-14v14.1z"/>
			<path id="Layer" class="s0" d="m1960 862.4v-14.1h-14v14.1z"/>
			<path id="Layer" class="s0" d="m1808.8 862.4v-14.1h-14.1v14.1z"/>
			<path id="Layer" class="s0" d="m1203.8 862.4v-14.1h-14v14.1z"/>
			<path id="Layer" class="s0" d="m2186.7 862.4v-14.1h-13.9v14.1z"/>
			<path id="Layer" class="s0" d="m1128.1 862.6v-13.9h-13.9v13.9z"/>
			<path id="Layer" class="s0" d="m598.9 862.6v-13.9h-14.1v13.9z"/>
			<path id="Layer" class="s0" d="m1733 862.4v-14.1h-13.9v14.1z"/>
			<path id="Layer" class="s0" d="m145.2 862.6v-13.9h-14.1v13.9z"/>
			<path id="Layer" class="s0" d="m523.1 862.6v-13.9h-13.9v13.9z"/>
			<path id="Layer" class="s0" d="m69.4 862.6v-13.9h-13.9v13.9z"/>
			<path id="Layer" class="s0" d="m1430.5 862.4v-14.1h-13.8v14.1z"/>
			<path id="Layer" class="s0" d="m1884.2 862.4v-14.1h-13.9v14.1z"/>
			<path id="Layer" class="s0" d="m1581.8 862.4v-14.1h-13.9v14.1z"/>
			<path id="Layer" class="s0" d="m296.4 862.6v-13.9h-14v13.9z"/>
			<path id="Layer" class="s0" d="m976.8 862.6v-13.9h-13.9v13.9z"/>
			<path id="Layer" class="s0" d="m371.9 862.6v-13.9h-13.9v13.9z"/>
			<path id="Layer" class="s0" d="m750.1 862.6v-13.9h-14v13.9z"/>
			<path id="Layer" class="s0" d="m2035.5 862.4v-14.1h-13.9v14.1z"/>
			<path id="Layer" class="s0" d="m1052.6 862.6v-13.9h-14v13.9z"/>
			<path id="Layer" class="s0" d="m447.6 862.6v-13.9h-14v13.9z"/>
			<path id="Layer" class="s0" d="m674.4 862.6v-13.9h-13.9v13.9z"/>
			<path id="Layer" class="s0" d="m825.6 862.6v-13.9h-13.9v13.9z"/>
			<path id="Layer" class="s0" d="m220.7 862.6v-13.9h-13.9v13.9z"/>
			<path id="Layer" class="s0" d="m901.4 862.6v-13.9h-14.1v13.9z"/>
			<path id="Layer" class="s0" d="m1279.3 862.4v-14.1h-13.9v14.1z"/>
			<path id="Layer" class="s0" d="m1088.3 898.3v-9.7h-9.8v9.7z"/>
			<path id="Layer" class="s0" d="m937 898.3v-9.7h-9.8l0.1 9.7z"/>
			<path id="Layer" class="s0" d="m1239.5 898.1v-9.7h-9.8v9.7z"/>
			<path id="Layer" class="s0" d="m1542 898.1v-9.7h-9.8v9.7z"/>
			<path id="Layer" class="s0" d="m2298.2 898.1v-9.7h-9.8v9.7z"/>
			<path id="Layer" class="s0" d="m1995.7 898.1v-9.7h-9.8v9.7z"/>
			<path id="Layer" class="s0" d="m1390.8 898.1v-9.7h-9.8v9.7z"/>
			<path id="Layer" class="s0" d="m785.8 898.3v-9.7h-9.8v9.7z"/>
			<path id="Layer" class="s0" d="m634.6 898.3v-9.7h-9.8v9.7z"/>
			<path id="Layer" class="s0" d="m332.1 898.3v-9.7h-9.8v9.7z"/>
			<path id="Layer" class="s0" d="m2146.9 898.1v-9.7h-9.8v9.7z"/>
			<path id="Layer" class="s0" d="m1844.5 898.1v-9.7h-9.8v9.7z"/>
			<path id="Layer" class="s0" d="m180.9 898.3v-9.7h-9.8v9.7z"/>
			<path id="Layer" class="s0" d="m29.6 898.3v-9.7h-9.8v9.7z"/>
			<path id="Layer" class="s0" d="m483.4 898.3v-9.7h-9.9v9.7z"/>
			<path id="Layer" class="s0" d="m1693.2 898.1v-9.7h-9.8v9.7z"/>
			<path id="Layer" class="s0" d="m256.3 898.3v-9.7h-9.6v9.7z"/>
			<path id="Layer" class="s0" d="m2071.2 898.1v-9.7h-9.7v9.7z"/>
			<path id="Layer" class="s0" d="m1466.2 898.1v-9.7h-9.7v9.7z"/>
			<path id="Layer" class="s0" d="m1315 898.1v-9.7h-9.7v9.7z"/>
			<path id="Layer" class="s0" d="m1163.8 898.1v-9.7h-9.7v9.7z"/>
			<path id="Layer" class="s0" d="m1617.5 898.1v-9.7h-9.7v9.7z"/>
			<path id="Layer" class="s0" d="m861.3 898.3v-9.7h-9.7v9.7z"/>
			<path id="Layer" class="s0" d="m105.1 898.3v-9.7h-9.7v9.7z"/>
			<path id="Layer" class="s0" d="m558.8 898.3v-9.7h-9.6v9.7z"/>
			<path id="Layer" class="s0" d="m1012.5 898.3v-9.7h-9.6v9.7z"/>
			<path id="Layer" class="s0" d="m1919.9 898.1v-9.7h-9.6v9.7z"/>
			<path id="Layer" class="s0" d="m710 898.3v-9.7h-9.6v9.7z"/>
			<path id="Layer" class="s0" d="m1768.7 898.1v-9.7h-9.7v9.7z"/>
			<path id="Layer" class="s0" d="m407.6 898.3v-9.7h-9.7v9.7z"/>
			<path id="Layer" class="s0" d="m2222.4 898.1v-9.7h-9.7v9.7z"/>
		</g>
	</g>
</svg>