<svg width="2318" height="898" viewBox="0 0 2318 898" fill="none" xmlns="http://www.w3.org/2000/svg">
<g clip-path="url(#clip0_5656_221737)">
<path d="M578.8 10.87V-38.64L529.29 -38.64V10.87L578.8 10.87Z" fill="#1A2C3D"/>
<path d="M1486.21 10.51V-39L1436.71 -39V10.51L1486.21 10.51Z" fill="#1A2C3D"/>
<path d="M2091.15 10.51V-39L2041.65 -39V10.51H2091.15Z" fill="#1A2C3D"/>
<path d="M2242.38 10.51V-39L2192.88 -39V10.51H2242.38Z" fill="#1A2C3D"/>
<path d="M881.27 10.86V-38.65L831.77 -38.65V10.86L881.27 10.86Z" fill="#1A2C3D"/>
<path d="M125.09 10.8599V-38.6501L75.5901 -38.6501V10.8599H125.09Z" fill="#1A2C3D"/>
<path d="M1032.5 10.87V-38.64L983 -38.64V10.87H1032.5Z" fill="#1A2C3D"/>
<path d="M1183.74 10.87V-38.64L1134.23 -38.64V10.87L1183.74 10.87Z" fill="#1A2C3D"/>
<path d="M427.57 10.87V-38.64L378.06 -38.64V10.87H427.57Z" fill="#1A2C3D"/>
<path d="M276.32 10.8699V-38.6401L226.82 -38.6401V10.8699L276.32 10.8699Z" fill="#1A2C3D"/>
<path d="M1788.68 10.52V-38.99L1739.18 -38.99V10.52H1788.68Z" fill="#1A2C3D"/>
<path d="M1334.97 10.52V-38.99L1285.46 -38.99V10.52H1334.97Z" fill="#1A2C3D"/>
<path d="M1637.44 10.51V-39L1587.94 -39V10.51H1637.44Z" fill="#1A2C3D"/>
<path d="M1939.91 10.52V-38.99L1890.41 -38.99V10.52H1939.91Z" fill="#1A2C3D"/>
<path d="M730.03 10.87V-38.64L680.52 -38.64V10.87L730.03 10.87Z" fill="#1A2C3D"/>
<path d="M1259.26 10.51V-38.99L1209.87 -38.99V10.51H1259.26Z" fill="#1A2C3D"/>
<path d="M1108.01 10.86V-38.64L1058.61 -38.64V10.86H1108.01Z" fill="#1A2C3D"/>
<path d="M351.85 10.86V-38.65L302.47 -38.65V10.86L351.85 10.86Z" fill="#1A2C3D"/>
<path d="M503.09 10.85V-38.65L453.71 -38.65V10.85L503.09 10.85Z" fill="#1A2C3D"/>
<path d="M805.56 10.85V-38.65L756.18 -38.65V10.85H805.56Z" fill="#1A2C3D"/>
<path d="M2317.91 10.51V-38.99L2268.52 -38.99V10.51L2317.91 10.51Z" fill="#1A2C3D"/>
<path d="M200.62 10.8599V-38.6401L151.23 -38.6401V10.8599L200.62 10.8599Z" fill="#1A2C3D"/>
<path d="M2015.44 10.51V-38.99L1966.06 -38.99V10.51H2015.44Z" fill="#1A2C3D"/>
<path d="M1410.5 10.51V-38.99L1361.12 -38.99V10.51H1410.5Z" fill="#1A2C3D"/>
<path d="M1712.97 10.51V-38.99L1663.59 -38.99V10.51L1712.97 10.51Z" fill="#1A2C3D"/>
<path d="M654.32 10.86V-38.64L604.93 -38.64V10.86L654.32 10.86Z" fill="#1A2C3D"/>
<path d="M49.3801 10.8599L49.3801 -38.6401L-0.00976346 -38.6401L-0.00976562 10.8599L49.3801 10.8599Z" fill="#1A2C3D"/>
<path d="M956.79 10.86V-38.64L907.41 -38.64V10.86H956.79Z" fill="#1A2C3D"/>
<path d="M1561.71 10.52V-38.99L1512.31 -38.99V10.52L1561.71 10.52Z" fill="#1A2C3D"/>
<path d="M1864.18 10.51V-38.99L1814.78 -38.99V10.51H1864.18Z" fill="#1A2C3D"/>
<path d="M2166.66 10.52V-38.99L2117.26 -38.99V10.52L2166.66 10.52Z" fill="#1A2C3D"/>
<path d="M1901.59 47.86L1901.59 -0.669979H1853.08V47.86L1901.59 47.86Z" fill="#1A2C3D"/>
<path d="M1447.89 47.86V-0.669998H1399.38V47.86H1447.89Z" fill="#1A2C3D"/>
<path d="M1750.36 47.83L1750.36 -0.629986L1701.85 -0.62999L1701.85 47.83H1750.36Z" fill="#1A2C3D"/>
<path d="M1296.61 47.84L1296.61 -0.640007H1248.14V47.84H1296.61Z" fill="#1A2C3D"/>
<path d="M1599.12 47.85L1599.12 -0.679993L1550.61 -0.679996L1550.61 47.85H1599.12Z" fill="#1A2C3D"/>
<path d="M2204.06 47.85V-0.679966L2155.55 -0.67997V47.85H2204.06Z" fill="#1A2C3D"/>
<path d="M2052.83 47.86V-0.669971H2004.32V47.86L2052.83 47.86Z" fill="#1A2C3D"/>
<path d="M1145.38 48.1V-0.310013L1096.91 -0.310017V48.1H1145.38Z" fill="#1A2C3D"/>
<path d="M1523.4 47.83V-0.639996L1475.04 -0.639999V47.83H1523.4Z" fill="#1A2C3D"/>
<path d="M691.68 48.06V-0.300034H643.21V48.06L691.68 48.06Z" fill="#1A2C3D"/>
<path d="M1977.1 47.84L1977.1 -0.629978H1928.75V47.84H1977.1Z" fill="#1A2C3D"/>
<path d="M237.97 48.0599V-0.300053H189.5V48.0599H237.97Z" fill="#1A2C3D"/>
<path d="M1674.64 47.83V-0.639988L1626.28 -0.639992V47.83H1674.64Z" fill="#1A2C3D"/>
<path d="M1372.23 47.84L1372.23 -0.630005H1323.81V47.84L1372.23 47.84Z" fill="#1A2C3D"/>
<path d="M994.14 48.06V-0.300018L945.67 -0.300022V48.06H994.14Z" fill="#1A2C3D"/>
<path d="M1825.87 47.84V-0.629986H1777.51V47.84H1825.87Z" fill="#1A2C3D"/>
<path d="M389.21 48.06V-0.310047L340.73 -0.310051V48.06H389.21Z" fill="#1A2C3D"/>
<path d="M2279.58 47.83V-0.639961L2231.22 -0.639965V47.83H2279.58Z" fill="#1A2C3D"/>
<path d="M2128.34 47.84V-0.629971L2079.99 -0.629974V47.84H2128.34Z" fill="#1A2C3D"/>
<path d="M540.44 48.06V-0.300037L491.97 -0.300041V48.06H540.44Z" fill="#1A2C3D"/>
<path d="M86.7402 48.0999V-0.310059L38.2703 -0.310062V48.0999H86.7402Z" fill="#1A2C3D"/>
<path d="M842.91 48.06V-0.310028H794.43V48.06L842.91 48.06Z" fill="#1A2C3D"/>
<path d="M615.98 48.04V-0.310036L567.63 -0.31004V48.04H615.98Z" fill="#1A2C3D"/>
<path d="M767.21 48.04V-0.310032H718.86V48.04H767.21Z" fill="#1A2C3D"/>
<path d="M162.27 48.0399V-0.310059H113.92V48.0399L162.27 48.0399Z" fill="#1A2C3D"/>
<path d="M313.51 48.04V-0.310051H265.16V48.0399L313.51 48.04Z" fill="#1A2C3D"/>
<path d="M464.74 48.04V-0.310043L416.39 -0.310047V48.04H464.74Z" fill="#1A2C3D"/>
<path d="M1220.92 48.04V-0.310009L1172.57 -0.310013V48.04L1220.92 48.04Z" fill="#1A2C3D"/>
<path d="M918.45 48.04V-0.310024H870.1V48.04H918.45Z" fill="#1A2C3D"/>
<path d="M1069.68 48.09V-0.310017L1021.34 -0.31002V48.09H1069.68Z" fill="#1A2C3D"/>
<path d="M1258.34 85.14V37.63H1210.86V85.14H1258.34Z" fill="#1A2C3D"/>
<path d="M124.13 85.4599V37.9999H76.4802V85.4599H124.13Z" fill="#1A2C3D"/>
<path d="M728.99 85.54V38H681.43V85.54H728.99Z" fill="#1A2C3D"/>
<path d="M502.17 85.47V38L454.66 38V85.47L502.17 85.47Z" fill="#1A2C3D"/>
<path d="M2014.52 85.14V37.64H1967.05V85.14H2014.52Z" fill="#1A2C3D"/>
<path d="M199.7 85.4699V37.9999H152.19V85.4699H199.7Z" fill="#1A2C3D"/>
<path d="M275.29 85.4999V37.9999H227.72V85.4999H275.29Z" fill="#1A2C3D"/>
<path d="M1182.71 85.46V37.98L1135.14 37.98V85.46L1182.71 85.46Z" fill="#1A2C3D"/>
<path d="M350.93 85.47V38H303.43V85.47H350.93Z" fill="#1A2C3D"/>
<path d="M426.58 85.47V38.01H378.96V85.47H426.58Z" fill="#1A2C3D"/>
<path d="M1938.93 85.11V37.65H1891.32V85.11H1938.93Z" fill="#1A2C3D"/>
<path d="M1031.47 85.52V37.97L983.91 37.97V85.52L1031.47 85.52Z" fill="#1A2C3D"/>
<path d="M1863.29 85.14V37.64H1815.82V85.14H1863.29Z" fill="#1A2C3D"/>
<path d="M1333.94 85.11V37.58H1286.38V85.11H1333.94Z" fill="#1A2C3D"/>
<path d="M1107.11 85.48V37.97H1059.64V85.48H1107.11Z" fill="#1A2C3D"/>
<path d="M2316.99 85.14V37.63H2269.52V85.14H2316.99Z" fill="#1A2C3D"/>
<path d="M577.78 85.47V38.01H530.19V85.47H577.78Z" fill="#1A2C3D"/>
<path d="M1409.58 85.14V37.63H1362.1V85.14H1409.58Z" fill="#1A2C3D"/>
<path d="M2241.36 85.13V37.65L2193.79 37.65V85.13L2241.36 85.13Z" fill="#1A2C3D"/>
<path d="M1787.69 85.11V37.65H1740.08V85.11H1787.69Z" fill="#1A2C3D"/>
<path d="M1485.17 85.11V37.57H1437.61V85.11H1485.17Z" fill="#1A2C3D"/>
<path d="M880.25 85.47V38.01H832.66V85.47H880.25Z" fill="#1A2C3D"/>
<path d="M804.64 85.47V37.99H757.13V85.47H804.64Z" fill="#1A2C3D"/>
<path d="M653.4 85.47V38L605.89 38V85.47L653.4 85.47Z" fill="#1A2C3D"/>
<path d="M2165.75 85.14V37.63H2118.27V85.14H2165.75Z" fill="#1A2C3D"/>
<path d="M1560.81 85.14V37.63L1513.34 37.63V85.14L1560.81 85.14Z" fill="#1A2C3D"/>
<path d="M955.87 85.48V37.97H908.39V85.48H955.87Z" fill="#1A2C3D"/>
<path d="M1712.05 85.14V37.63L1664.58 37.63V85.14L1712.05 85.14Z" fill="#1A2C3D"/>
<path d="M1636.46 85.1V37.64H1588.83V85.1H1636.46Z" fill="#1A2C3D"/>
<path d="M2090.11 85.13V37.57L2042.55 37.57V85.13L2090.11 85.13Z" fill="#1A2C3D"/>
<path d="M48.4702 85.4699L48.4702 37.9999H0.960204L0.960202 85.4699H48.4702Z" fill="#1A2C3D"/>
<path d="M1144.44 122.8V76.32H1097.96V122.8H1144.44Z" fill="#1A2C3D"/>
<path d="M85.79 122.8L85.79 76.3099H39.2803V122.8H85.79Z" fill="#1A2C3D"/>
<path d="M539.5 122.8V76.32H493.02V122.8H539.5Z" fill="#1A2C3D"/>
<path d="M388.26 122.8V76.32H341.78V122.8H388.26Z" fill="#1A2C3D"/>
<path d="M690.72 122.8V76.27L644.25 76.27V122.8H690.72Z" fill="#1A2C3D"/>
<path d="M237.01 122.8V76.2999H190.54V122.8L237.01 122.8Z" fill="#1A2C3D"/>
<path d="M841.97 122.8V76.31L795.46 76.31V122.8H841.97Z" fill="#1A2C3D"/>
<path d="M993.19 122.79V76.3H946.72V122.79H993.19Z" fill="#1A2C3D"/>
<path d="M2127.36 122.47V76.01H2080.93V122.47H2127.36Z" fill="#1A2C3D"/>
<path d="M1522.42 122.47V76.01H1475.98V122.47H1522.42Z" fill="#1A2C3D"/>
<path d="M1976.14 122.47V76.03H1929.69V122.47L1976.14 122.47Z" fill="#1A2C3D"/>
<path d="M2278.59 122.47V76.01H2232.16V122.47H2278.59Z" fill="#1A2C3D"/>
<path d="M1371.18 122.47V76.01L1324.75 76.01V122.47H1371.18Z" fill="#1A2C3D"/>
<path d="M1673.67 122.47V76.03H1627.22V122.47H1673.67Z" fill="#1A2C3D"/>
<path d="M1824.91 122.47V76.03H1778.46V122.47H1824.91Z" fill="#1A2C3D"/>
<path d="M2203.09 122.45V76.04H2156.59V122.45H2203.09Z" fill="#1A2C3D"/>
<path d="M1900.62 122.44V76.03L1854.11 76.03V122.44H1900.62Z" fill="#1A2C3D"/>
<path d="M463.77 122.81V76.3H417.36V122.81H463.77Z" fill="#1A2C3D"/>
<path d="M1295.68 122.44V76.04H1249.18V122.44L1295.68 122.44Z" fill="#1A2C3D"/>
<path d="M917.47 122.8V76.3H871.07V122.8L917.47 122.8Z" fill="#1A2C3D"/>
<path d="M1219.94 122.8V76.3L1173.54 76.3V122.8H1219.94Z" fill="#1A2C3D"/>
<path d="M1068.71 122.81V76.31H1022.3V122.81H1068.71Z" fill="#1A2C3D"/>
<path d="M1749.38 122.44V76.03H1702.87V122.44H1749.38Z" fill="#1A2C3D"/>
<path d="M2051.85 122.45V76.04L2005.35 76.04V122.45H2051.85Z" fill="#1A2C3D"/>
<path d="M766.24 122.8V76.3H719.83V122.8H766.24Z" fill="#1A2C3D"/>
<path d="M312.53 122.81V76.3L266.12 76.2999V122.81H312.53Z" fill="#1A2C3D"/>
<path d="M1598.15 122.44V76.03H1551.64V122.44H1598.15Z" fill="#1A2C3D"/>
<path d="M615 122.81V76.3H568.59V122.81H615Z" fill="#1A2C3D"/>
<path d="M1446.91 122.44V76.03H1400.4V122.44H1446.91Z" fill="#1A2C3D"/>
<path d="M161.3 122.81V76.2999L114.89 76.2999L114.89 122.81H161.3Z" fill="#1A2C3D"/>
<path d="M501.09 159.97V114.57H455.74V159.97H501.09Z" fill="#1A2C3D"/>
<path d="M1257.27 159.76V114.36H1211.92V159.76H1257.27Z" fill="#1A2C3D"/>
<path d="M803.56 160.01V114.59H758.21V160.01H803.56Z" fill="#1A2C3D"/>
<path d="M1710.98 159.75V114.35H1665.62V159.75H1710.98Z" fill="#1A2C3D"/>
<path d="M2164.68 159.77V114.37H2119.33V159.77H2164.68Z" fill="#1A2C3D"/>
<path d="M954.8 159.98V114.58L909.45 114.58V159.98L954.8 159.98Z" fill="#1A2C3D"/>
<path d="M47.3901 160.01L47.3901 114.59H2.04003L2.04003 160.01H47.3901Z" fill="#1A2C3D"/>
<path d="M1559.74 159.77V114.37H1514.39V159.77H1559.74Z" fill="#1A2C3D"/>
<path d="M198.62 159.98V114.58H153.27V159.98H198.62Z" fill="#1A2C3D"/>
<path d="M652.33 159.97V114.57H606.98V159.97H652.33Z" fill="#1A2C3D"/>
<path d="M1408.5 159.77V114.37H1363.15V159.77H1408.5Z" fill="#1A2C3D"/>
<path d="M2013.44 159.77V114.37H1968.09V159.77H2013.44Z" fill="#1A2C3D"/>
<path d="M2315.91 159.76V114.36L2270.56 114.36V159.76L2315.91 159.76Z" fill="#1A2C3D"/>
<path d="M349.86 159.97V114.57H304.51V159.97H349.86Z" fill="#1A2C3D"/>
<path d="M1106.03 160V114.58H1060.68V160H1106.03Z" fill="#1A2C3D"/>
<path d="M1862.21 159.76V114.36H1816.86V159.76H1862.21Z" fill="#1A2C3D"/>
<path d="M122.95 159.96V114.59H77.5801V159.96H122.95Z" fill="#1A2C3D"/>
<path d="M727.89 159.96V114.59H682.52V159.96H727.89Z" fill="#1A2C3D"/>
<path d="M879.13 159.96V114.59H833.76V159.96H879.13Z" fill="#1A2C3D"/>
<path d="M425.42 159.96V114.59H380.05V159.96H425.42Z" fill="#1A2C3D"/>
<path d="M1635.3 159.75V114.38L1589.93 114.38V159.75L1635.3 159.75Z" fill="#1A2C3D"/>
<path d="M2089.01 159.75V114.38H2043.64V159.75H2089.01Z" fill="#1A2C3D"/>
<path d="M576.65 159.96V114.59L531.28 114.59V159.96L576.65 159.96Z" fill="#1A2C3D"/>
<path d="M274.19 159.96V114.59H228.82V159.96H274.19Z" fill="#1A2C3D"/>
<path d="M1030.36 159.96V114.59H984.99V159.96H1030.36Z" fill="#1A2C3D"/>
<path d="M2240.24 159.75V114.38H2194.87V159.75H2240.24Z" fill="#1A2C3D"/>
<path d="M1786.54 159.75V114.38H1741.17V159.75H1786.54Z" fill="#1A2C3D"/>
<path d="M1484.07 159.75V114.38H1438.7V159.75H1484.07Z" fill="#1A2C3D"/>
<path d="M1181.6 159.96V114.59H1136.23V159.96H1181.6Z" fill="#1A2C3D"/>
<path d="M1332.83 159.75V114.38H1287.46V159.75H1332.83Z" fill="#1A2C3D"/>
<path d="M1937.77 159.75V114.38H1892.4V159.75H1937.77Z" fill="#1A2C3D"/>
<path d="M2050.73 196.94V152.66H2006.48V196.94H2050.73Z" fill="#1A2C3D"/>
<path d="M1445.79 196.94V152.67H1401.55V196.94H1445.79Z" fill="#1A2C3D"/>
<path d="M1899.49 196.94V152.66H1855.24V196.94H1899.49Z" fill="#1A2C3D"/>
<path d="M2201.96 196.94V152.66H2157.71V196.94H2201.96Z" fill="#1A2C3D"/>
<path d="M1597.02 196.94V152.67H1552.78V196.94H1597.02Z" fill="#1A2C3D"/>
<path d="M1294.55 196.94V152.66L1250.3 152.66V196.94L1294.55 196.94Z" fill="#1A2C3D"/>
<path d="M1748.26 196.94V152.67H1704.02V196.94H1748.26Z" fill="#1A2C3D"/>
<path d="M1067.65 197.27V152.97H1023.36V197.27H1067.65Z" fill="#1A2C3D"/>
<path d="M613.97 197.25V152.93H569.63V197.25H613.97Z" fill="#1A2C3D"/>
<path d="M765.19 197.27V152.93H720.87V197.27H765.19Z" fill="#1A2C3D"/>
<path d="M160.24 197.27L160.24 152.97H115.95V197.27H160.24Z" fill="#1A2C3D"/>
<path d="M916.43 197.25V152.96L872.1 152.96V197.25L916.43 197.25Z" fill="#1A2C3D"/>
<path d="M462.72 197.27V152.93H418.39V197.27H462.72Z" fill="#1A2C3D"/>
<path d="M1218.91 197.25V152.93H1174.57V197.25H1218.91Z" fill="#1A2C3D"/>
<path d="M311.48 197.27V152.97H267.19V197.27H311.48Z" fill="#1A2C3D"/>
<path d="M235.9 197.26L235.9 152.93L191.65 152.93L191.65 197.26L235.9 197.26Z" fill="#1A2C3D"/>
<path d="M538.37 197.27V152.94H494.12V197.27H538.37Z" fill="#1A2C3D"/>
<path d="M84.6902 197.27V152.98H40.4302V197.27H84.6902Z" fill="#1A2C3D"/>
<path d="M840.84 197.26V152.93H796.59V197.26H840.84Z" fill="#1A2C3D"/>
<path d="M1143.31 197.27V152.94H1099.06V197.27H1143.31Z" fill="#1A2C3D"/>
<path d="M689.62 197.27V152.98H645.35V197.27H689.62Z" fill="#1A2C3D"/>
<path d="M992.1 197.27V152.98H947.83V197.27H992.1Z" fill="#1A2C3D"/>
<path d="M387.16 197.27V152.98H342.9V197.27H387.16Z" fill="#1A2C3D"/>
<path d="M1975.07 196.93V152.67L1930.74 152.67V196.93L1975.07 196.93Z" fill="#1A2C3D"/>
<path d="M2126.31 196.93V152.67H2081.98V196.93H2126.31Z" fill="#1A2C3D"/>
<path d="M1823.83 196.92V152.67H1779.51V196.92H1823.83Z" fill="#1A2C3D"/>
<path d="M1370.13 196.93V152.67H1325.8V196.93H1370.13Z" fill="#1A2C3D"/>
<path d="M1672.6 196.92V152.67H1628.29V196.92H1672.6Z" fill="#1A2C3D"/>
<path d="M1521.36 196.93V152.67H1477.04V196.93H1521.36Z" fill="#1A2C3D"/>
<path d="M2277.54 196.93V152.67H2233.21V196.93H2277.54Z" fill="#1A2C3D"/>
<path d="M1483.02 234.21V191.02H1439.85V234.21H1483.02Z" fill="#1A2C3D"/>
<path d="M1785.42 234.22V191.02H1742.32V234.22H1785.42Z" fill="#1A2C3D"/>
<path d="M1029.24 234.51V191.34H986.12V234.51H1029.24Z" fill="#1A2C3D"/>
<path d="M273.1 234.51V191.35H229.97V234.51H273.1Z" fill="#1A2C3D"/>
<path d="M878.01 234.52V191.35H834.89V234.52H878.01Z" fill="#1A2C3D"/>
<path d="M1180.54 234.56V191.36H1137.37V234.56H1180.54Z" fill="#1A2C3D"/>
<path d="M2087.96 234.21V191.02H2044.79V234.21H2087.96Z" fill="#1A2C3D"/>
<path d="M2239.12 234.22V191.02H2196.02V234.22H2239.12Z" fill="#1A2C3D"/>
<path d="M1634.18 234.22V191.02L1591.08 191.02V234.22H1634.18Z" fill="#1A2C3D"/>
<path d="M424.37 234.56V191.37H381.2V234.56L424.37 234.56Z" fill="#1A2C3D"/>
<path d="M1936.68 234.23V191.07H1893.55V234.23H1936.68Z" fill="#1A2C3D"/>
<path d="M1331.78 234.21V191.07H1288.61V234.21H1331.78Z" fill="#1A2C3D"/>
<path d="M726.77 234.51V191.35H683.65V234.51H726.77Z" fill="#1A2C3D"/>
<path d="M121.83 234.51V191.35H78.7102V234.51H121.83Z" fill="#1A2C3D"/>
<path d="M575.54 234.52V191.35L532.42 191.35V234.52H575.54Z" fill="#1A2C3D"/>
<path d="M953.74 234.55V191.36L910.53 191.36V234.55H953.74Z" fill="#1A2C3D"/>
<path d="M500.06 234.6V191.35H456.81V234.6H500.06Z" fill="#1A2C3D"/>
<path d="M1558.71 234.23V190.98H1515.46V234.23H1558.71Z" fill="#1A2C3D"/>
<path d="M651.29 234.6V191.35H608.04V234.6H651.29Z" fill="#1A2C3D"/>
<path d="M197.59 234.6V191.35H154.34V234.6H197.59Z" fill="#1A2C3D"/>
<path d="M1861.13 234.22V191.01H1817.94V234.22H1861.13Z" fill="#1A2C3D"/>
<path d="M46.3601 234.6L46.3601 191.35H3.1101L3.1101 234.6H46.3601Z" fill="#1A2C3D"/>
<path d="M348.8 234.6V191.37H305.58V234.6H348.8Z" fill="#1A2C3D"/>
<path d="M2163.65 234.23V190.98H2120.4V234.23H2163.65Z" fill="#1A2C3D"/>
<path d="M1407.42 234.22V191.01H1364.23V234.22H1407.42Z" fill="#1A2C3D"/>
<path d="M1256.23 234.23V190.98H1212.98V234.23H1256.23Z" fill="#1A2C3D"/>
<path d="M2012.36 234.22V191.01H1969.17V234.22H2012.36Z" fill="#1A2C3D"/>
<path d="M1104.97 234.6V191.37H1061.75V234.6L1104.97 234.6Z" fill="#1A2C3D"/>
<path d="M2314.88 234.23V190.98L2271.63 190.98V234.23H2314.88Z" fill="#1A2C3D"/>
<path d="M802.5 234.55V191.36H759.29V234.55H802.5Z" fill="#1A2C3D"/>
<path d="M1709.94 234.23V190.98H1666.69V234.23H1709.94Z" fill="#1A2C3D"/>
<path d="M915.3 271.73V229.82H873.26V271.73H915.3Z" fill="#1A2C3D"/>
<path d="M1898.32 271.49V229.46H1856.39V271.49H1898.32Z" fill="#1A2C3D"/>
<path d="M1293.4 271.44V229.44H1251.46V271.44H1293.4Z" fill="#1A2C3D"/>
<path d="M1066.52 271.74V229.81H1024.49V271.74H1066.52Z" fill="#1A2C3D"/>
<path d="M1444.61 271.52V229.43H1402.7V271.52H1444.61Z" fill="#1A2C3D"/>
<path d="M764.07 271.74V229.79H722.02V271.74H764.07Z" fill="#1A2C3D"/>
<path d="M310.37 271.74V229.82H268.32V271.74H310.37Z" fill="#1A2C3D"/>
<path d="M1747.08 271.49V229.44H1705.13V271.49H1747.08Z" fill="#1A2C3D"/>
<path d="M159.14 271.74V229.79H117.08V271.74H159.14Z" fill="#1A2C3D"/>
<path d="M2049.58 271.44V229.44H2007.64V271.44H2049.58Z" fill="#1A2C3D"/>
<path d="M612.84 271.73V229.82H570.78V271.73H612.84Z" fill="#1A2C3D"/>
<path d="M461.6 271.74V229.79H419.55V271.74H461.6Z" fill="#1A2C3D"/>
<path d="M1595.85 271.49V229.44H1553.93V271.49H1595.85Z" fill="#1A2C3D"/>
<path d="M2200.79 271.5V229.44H2158.86V271.5H2200.79Z" fill="#1A2C3D"/>
<path d="M1142.15 271.76V229.83H1100.2V271.76H1142.15Z" fill="#1A2C3D"/>
<path d="M385.96 271.74V229.77H344.02V271.74H385.96Z" fill="#1A2C3D"/>
<path d="M537.2 271.74V229.8H495.3V271.74H537.2Z" fill="#1A2C3D"/>
<path d="M839.67 271.74V229.8H797.77V271.74H839.67Z" fill="#1A2C3D"/>
<path d="M234.73 271.75V229.78H192.79V271.75H234.73Z" fill="#1A2C3D"/>
<path d="M990.91 271.76V229.83H948.96V271.76H990.91Z" fill="#1A2C3D"/>
<path d="M83.4902 271.75V229.82H41.5303V271.75H83.4902Z" fill="#1A2C3D"/>
<path d="M688.45 271.74V229.8H646.53V271.74H688.45Z" fill="#1A2C3D"/>
<path d="M1973.96 271.52V229.43H1931.9V271.52H1973.96Z" fill="#1A2C3D"/>
<path d="M1369.01 271.52V229.43H1326.93V271.52H1369.01Z" fill="#1A2C3D"/>
<path d="M1217.77 271.48V229.46H1175.75V271.48H1217.77Z" fill="#1A2C3D"/>
<path d="M2276.43 271.53V229.44H2234.37V271.53H2276.43Z" fill="#1A2C3D"/>
<path d="M1520.22 271.47V229.44H1478.2V271.47H1520.22Z" fill="#1A2C3D"/>
<path d="M1822.69 271.47V229.44L1780.67 229.44V271.47L1822.69 271.47Z" fill="#1A2C3D"/>
<path d="M1671.48 271.5V229.44H1629.4V271.5H1671.48Z" fill="#1A2C3D"/>
<path d="M2125.19 271.52V229.44H2083.13V271.52H2125.19Z" fill="#1A2C3D"/>
<path d="M498.84 308.91V268.17H458.01V308.91H498.84Z" fill="#1A2C3D"/>
<path d="M2162.42 308.65V267.93H2121.6V308.65H2162.42Z" fill="#1A2C3D"/>
<path d="M2313.66 308.64V267.93H2272.83V308.64H2313.66Z" fill="#1A2C3D"/>
<path d="M1859.96 308.64V267.93H1819.13V308.64H1859.96Z" fill="#1A2C3D"/>
<path d="M347.61 308.88V268.17H306.77V308.88H347.61Z" fill="#1A2C3D"/>
<path d="M801.31 308.91V268.17H760.48V308.91H801.31Z" fill="#1A2C3D"/>
<path d="M45.0801 308.88V268.14H4.30004L4.30004 308.88H45.0801Z" fill="#1A2C3D"/>
<path d="M1557.48 308.65V267.93H1516.66V308.65H1557.48Z" fill="#1A2C3D"/>
<path d="M1708.72 308.64V267.93H1667.88V308.64H1708.72Z" fill="#1A2C3D"/>
<path d="M1254.97 308.65V267.9H1214.19V308.65H1254.97Z" fill="#1A2C3D"/>
<path d="M1103.78 308.87V268.16L1062.95 268.16V308.87L1103.78 308.87Z" fill="#1A2C3D"/>
<path d="M650.07 308.94V268.16H609.25V308.94H650.07Z" fill="#1A2C3D"/>
<path d="M2011.18 308.65V267.93H1970.36V308.65H2011.18Z" fill="#1A2C3D"/>
<path d="M1406.25 308.64V267.9H1365.42V308.64H1406.25Z" fill="#1A2C3D"/>
<path d="M196.36 308.88V268.16H155.54V308.88H196.36Z" fill="#1A2C3D"/>
<path d="M952.54 308.91V268.17H911.71V308.91H952.54Z" fill="#1A2C3D"/>
<path d="M1632.97 308.65V267.94H1592.27V308.65H1632.97Z" fill="#1A2C3D"/>
<path d="M1481.74 308.65V267.94H1441.04V308.65H1481.74Z" fill="#1A2C3D"/>
<path d="M2086.68 308.64V267.94H2045.98V308.64H2086.68Z" fill="#1A2C3D"/>
<path d="M1028.03 308.87V268.16H987.33V308.87H1028.03Z" fill="#1A2C3D"/>
<path d="M271.86 308.87V268.16H231.15V308.87H271.86Z" fill="#1A2C3D"/>
<path d="M2237.91 308.64V267.94H2197.21V308.64H2237.91Z" fill="#1A2C3D"/>
<path d="M1935.44 308.65V267.94H1894.74V308.65H1935.44Z" fill="#1A2C3D"/>
<path d="M574.33 308.87V268.16H533.63V308.87H574.33Z" fill="#1A2C3D"/>
<path d="M423.09 308.86V268.16L382.39 268.16V308.86L423.09 308.86Z" fill="#1A2C3D"/>
<path d="M1784.21 308.65V267.94H1743.5V308.65H1784.21Z" fill="#1A2C3D"/>
<path d="M1330.5 308.64V267.94H1289.8V308.64H1330.5Z" fill="#1A2C3D"/>
<path d="M725.56 308.87V268.16H684.86V308.87H725.56Z" fill="#1A2C3D"/>
<path d="M1179.27 308.86V268.16H1138.57V308.86H1179.27Z" fill="#1A2C3D"/>
<path d="M876.8 308.86V268.16H836.1V308.86H876.8Z" fill="#1A2C3D"/>
<path d="M120.62 308.86L120.62 268.16H79.9202L79.9202 308.86H120.62Z" fill="#1A2C3D"/>
<path d="M1745.87 345.8V306.28H1706.33V345.8H1745.87Z" fill="#1A2C3D"/>
<path d="M1443.41 345.82V306.29H1403.89V345.82H1443.41Z" fill="#1A2C3D"/>
<path d="M1292.16 345.76V306.29H1252.65V345.76H1292.16Z" fill="#1A2C3D"/>
<path d="M1594.64 345.8V306.29H1555.16V345.8H1594.64Z" fill="#1A2C3D"/>
<path d="M2048.34 345.8V306.29H2008.83V345.8H2048.34Z" fill="#1A2C3D"/>
<path d="M1897.1 345.76V306.29H1857.59V345.76H1897.1Z" fill="#1A2C3D"/>
<path d="M2199.58 345.8V306.29H2160.1V345.8H2199.58Z" fill="#1A2C3D"/>
<path d="M611.58 346.1V306.51H572.01V346.1H611.58Z" fill="#1A2C3D"/>
<path d="M914.04 346.12V306.54H874.45V346.12H914.04Z" fill="#1A2C3D"/>
<path d="M309.11 346.12V306.58H269.54V346.12H309.11Z" fill="#1A2C3D"/>
<path d="M157.87 346.1V306.51H118.3V346.1H157.87Z" fill="#1A2C3D"/>
<path d="M762.82 346.1V306.51H723.25V346.1H762.82Z" fill="#1A2C3D"/>
<path d="M460.35 346.13V306.58H420.77V346.13H460.35Z" fill="#1A2C3D"/>
<path d="M1065.28 346.1V306.51H1025.71V346.1H1065.28Z" fill="#1A2C3D"/>
<path d="M384.75 346.12V306.56H345.23V346.12H384.75Z" fill="#1A2C3D"/>
<path d="M1140.93 346.11V306.59H1101.41V346.11H1140.93Z" fill="#1A2C3D"/>
<path d="M989.69 346.12V306.55H950.21V346.12H989.69Z" fill="#1A2C3D"/>
<path d="M535.99 346.11V306.55H496.51V346.11H535.99Z" fill="#1A2C3D"/>
<path d="M82.3 346.12V306.56H42.81L42.81 346.12H82.3Z" fill="#1A2C3D"/>
<path d="M233.52 346.12V306.55H194.04V346.12H233.52Z" fill="#1A2C3D"/>
<path d="M838.46 346.12V306.55H798.98V346.12H838.46Z" fill="#1A2C3D"/>
<path d="M687.22 346.12V306.55H647.74V346.12H687.22Z" fill="#1A2C3D"/>
<path d="M1670.23 345.77V306.26H1630.71V345.77H1670.23Z" fill="#1A2C3D"/>
<path d="M2275.16 345.76V306.28H2235.6V345.76H2275.16Z" fill="#1A2C3D"/>
<path d="M1518.99 345.8V306.28H1479.42V345.8H1518.99Z" fill="#1A2C3D"/>
<path d="M1216.53 345.81V306.29H1176.95V345.81H1216.53Z" fill="#1A2C3D"/>
<path d="M1821.46 345.78V306.28L1781.89 306.28V345.78L1821.46 345.78Z" fill="#1A2C3D"/>
<path d="M1367.76 345.81V306.29H1328.19V345.81H1367.76Z" fill="#1A2C3D"/>
<path d="M2123.94 345.77V306.26H2084.41V345.77H2123.94Z" fill="#1A2C3D"/>
<path d="M1972.69 345.8V306.28H1933.12V345.8H1972.69Z" fill="#1A2C3D"/>
<path d="M2085.45 382.95V344.7H2047.22V382.95H2085.45Z" fill="#1A2C3D"/>
<path d="M875.55 383.33V345.09H837.33V383.33H875.55Z" fill="#1A2C3D"/>
<path d="M1026.79 383.33V345.09H988.57V383.33H1026.79Z" fill="#1A2C3D"/>
<path d="M1329.27 382.96V344.76H1291.02V382.96H1329.27Z" fill="#1A2C3D"/>
<path d="M1631.74 382.95V344.7H1593.51V382.95H1631.74Z" fill="#1A2C3D"/>
<path d="M2236.68 382.96V344.76H2198.43V382.96H2236.68Z" fill="#1A2C3D"/>
<path d="M573.1 383.29V345.09H534.85V383.29H573.1Z" fill="#1A2C3D"/>
<path d="M1178.03 383.34V345.09H1139.8V383.34H1178.03Z" fill="#1A2C3D"/>
<path d="M1783.01 382.95V344.7H1744.75V382.95H1783.01Z" fill="#1A2C3D"/>
<path d="M119.39 383.34V345.09H81.1601V383.34H119.39Z" fill="#1A2C3D"/>
<path d="M421.89 383.3L421.89 345.09L383.63 345.09L383.63 383.3L421.89 383.3Z" fill="#1A2C3D"/>
<path d="M270.63 383.29L270.63 345.09H232.38V383.29H270.63Z" fill="#1A2C3D"/>
<path d="M1480.5 382.95V344.71H1442.28V382.95H1480.5Z" fill="#1A2C3D"/>
<path d="M724.31 383.33V345.09H686.09V383.33H724.31Z" fill="#1A2C3D"/>
<path d="M1934.2 382.95V344.66H1895.98V382.95H1934.2Z" fill="#1A2C3D"/>
<path d="M1707.43 382.95V344.7H1669.22V382.95H1707.43Z" fill="#1A2C3D"/>
<path d="M1556.22 382.94V344.73H1517.97V382.94H1556.22Z" fill="#1A2C3D"/>
<path d="M2161.13 382.95V344.7H2122.92V382.95H2161.13Z" fill="#1A2C3D"/>
<path d="M648.81 383.31V345.1H610.56V383.31H648.81Z" fill="#1A2C3D"/>
<path d="M346.34 383.31L346.34 345.1H308.09L308.09 383.31H346.34Z" fill="#1A2C3D"/>
<path d="M1253.72 382.95V344.7H1215.51V382.95H1253.72Z" fill="#1A2C3D"/>
<path d="M1858.65 382.95V344.7H1820.44V382.95H1858.65Z" fill="#1A2C3D"/>
<path d="M2009.9 382.95V344.7H1971.69V382.95H2009.9Z" fill="#1A2C3D"/>
<path d="M195.1 383.31V345.1H156.86V383.31H195.1Z" fill="#1A2C3D"/>
<path d="M1404.99 382.96V344.67H1366.73V382.96H1404.99Z" fill="#1A2C3D"/>
<path d="M2312.37 382.95V344.7H2274.16V382.95H2312.37Z" fill="#1A2C3D"/>
<path d="M800.01 383.34V345.09H761.8V383.34H800.01Z" fill="#1A2C3D"/>
<path d="M497.57 383.32L497.57 345.1H459.32L459.32 383.32H497.57Z" fill="#1A2C3D"/>
<path d="M43.8701 383.31V345.1H5.63011L5.63011 383.31H43.8701Z" fill="#1A2C3D"/>
<path d="M951.28 383.31V345.1H913.04V383.31H951.28Z" fill="#1A2C3D"/>
<path d="M1102.51 383.32V345.1L1064.26 345.1V383.32L1102.51 383.32Z" fill="#1A2C3D"/>
<path d="M1290.96 420.29V383.16H1253.89V420.29H1290.96Z" fill="#1A2C3D"/>
<path d="M1668.99 420.33V383.16H1631.83V420.33H1668.99Z" fill="#1A2C3D"/>
<path d="M1895.9 420.3V383.16H1858.82V420.3H1895.9Z" fill="#1A2C3D"/>
<path d="M232.31 420.55V383.49H195.25V420.55H232.31Z" fill="#1A2C3D"/>
<path d="M988.49 420.55V383.49H951.43V420.55H988.49Z" fill="#1A2C3D"/>
<path d="M1517.75 420.3V383.16H1480.59V420.3H1517.75Z" fill="#1A2C3D"/>
<path d="M1139.72 420.55V383.49H1102.66V420.55H1139.72Z" fill="#1A2C3D"/>
<path d="M1442.2 420.3V383.16H1405.12V420.3H1442.2Z" fill="#1A2C3D"/>
<path d="M383.55 420.55V383.49H346.48V420.55H383.55Z" fill="#1A2C3D"/>
<path d="M912.82 420.55V383.48H875.69V420.55H912.82Z" fill="#1A2C3D"/>
<path d="M1593.43 420.29V383.15H1556.35V420.29H1593.43Z" fill="#1A2C3D"/>
<path d="M1215.29 420.33V383.16H1178.13V420.33H1215.29Z" fill="#1A2C3D"/>
<path d="M156.65 420.58V383.48H119.57V420.58H156.65Z" fill="#1A2C3D"/>
<path d="M2047.14 420.29V383.16H2010.07V420.29H2047.14Z" fill="#1A2C3D"/>
<path d="M1971.47 420.3V383.17H1934.33V420.3H1971.47Z" fill="#1A2C3D"/>
<path d="M1744.69 420.23V383.15H1707.59V420.23H1744.69Z" fill="#1A2C3D"/>
<path d="M534.78 420.55V383.49H497.72V420.55H534.78Z" fill="#1A2C3D"/>
<path d="M459.12 420.57V383.47H422.04V420.57H459.12Z" fill="#1A2C3D"/>
<path d="M610.35 420.56V383.48H573.22V420.56H610.35Z" fill="#1A2C3D"/>
<path d="M2273.93 420.33V383.16H2236.77V420.33H2273.93Z" fill="#1A2C3D"/>
<path d="M2198.39 420.24V383.15H2161.29V420.24H2198.39Z" fill="#1A2C3D"/>
<path d="M1820.23 420.33V383.16L1783.07 383.16V420.33L1820.23 420.33Z" fill="#1A2C3D"/>
<path d="M81.0801 420.55V383.49H44.0202L44.0202 420.55H81.0801Z" fill="#1A2C3D"/>
<path d="M686.02 420.55V383.49H648.96V420.55H686.02Z" fill="#1A2C3D"/>
<path d="M307.88 420.58V383.48H270.81V420.58H307.88Z" fill="#1A2C3D"/>
<path d="M837.25 420.55V383.49H800.19V420.55H837.25Z" fill="#1A2C3D"/>
<path d="M2122.69 420.3V383.16H2085.53V420.3H2122.69Z" fill="#1A2C3D"/>
<path d="M761.59 420.57V383.47H724.51V420.57H761.59Z" fill="#1A2C3D"/>
<path d="M1064.05 420.58V383.48H1026.98V420.58H1064.05Z" fill="#1A2C3D"/>
<path d="M1366.52 420.33V383.16H1329.36V420.33H1366.52Z" fill="#1A2C3D"/>
<path d="M118.14 457.62L118.14 421.87H82.3901L82.3901 457.62H118.14Z" fill="#1A2C3D"/>
<path d="M1932.96 457.42V421.67H1897.21V457.42H1932.96Z" fill="#1A2C3D"/>
<path d="M2235.43 457.42V421.67H2199.68V457.42H2235.43Z" fill="#1A2C3D"/>
<path d="M1781.72 457.41V421.67H1745.97V457.41H1781.72Z" fill="#1A2C3D"/>
<path d="M1328.02 457.42V421.67H1292.27V457.42H1328.02Z" fill="#1A2C3D"/>
<path d="M571.84 457.62V421.87H536.09V457.62H571.84Z" fill="#1A2C3D"/>
<path d="M874.31 457.62V421.87H838.56V457.62H874.31Z" fill="#1A2C3D"/>
<path d="M723.08 457.62V421.87H687.34V457.62H723.08Z" fill="#1A2C3D"/>
<path d="M269.37 457.62V421.87H233.62V457.62H269.37Z" fill="#1A2C3D"/>
<path d="M1025.55 457.61V421.87H989.8V457.61H1025.55Z" fill="#1A2C3D"/>
<path d="M420.61 457.61V421.87L384.86 421.87V457.61L420.61 457.61Z" fill="#1A2C3D"/>
<path d="M2084.19 457.42V421.67H2048.44V457.42H2084.19Z" fill="#1A2C3D"/>
<path d="M1479.25 457.42V421.67H1443.5V457.42H1479.25Z" fill="#1A2C3D"/>
<path d="M1630.49 457.42V421.67H1594.74V457.42H1630.49Z" fill="#1A2C3D"/>
<path d="M1176.78 457.61V421.86H1141.03V457.61H1176.78Z" fill="#1A2C3D"/>
<path d="M2311.13 457.42V421.67H2275.42V457.42H2311.13Z" fill="#1A2C3D"/>
<path d="M647.55 457.66V421.87H611.84V457.66H647.55Z" fill="#1A2C3D"/>
<path d="M2159.89 457.42V421.67H2124.19V457.42H2159.89Z" fill="#1A2C3D"/>
<path d="M1706.24 457.41V421.67H1670.48V457.41H1706.24Z" fill="#1A2C3D"/>
<path d="M193.84 457.61V421.86H158.14V457.61H193.84Z" fill="#1A2C3D"/>
<path d="M1554.96 457.42V421.67H1519.25V457.42H1554.96Z" fill="#1A2C3D"/>
<path d="M950.02 457.61V421.86H914.31V457.61H950.02Z" fill="#1A2C3D"/>
<path d="M496.36 457.61V421.87H460.6V457.61H496.36Z" fill="#1A2C3D"/>
<path d="M1403.72 457.41V421.67H1368.02V457.41H1403.72Z" fill="#1A2C3D"/>
<path d="M2008.71 457.41V421.67H1972.95V457.41H2008.71Z" fill="#1A2C3D"/>
<path d="M345.12 457.61V421.87H309.36V457.61H345.12Z" fill="#1A2C3D"/>
<path d="M42.6501 457.61V421.87H6.89012L6.89012 457.61H42.6501Z" fill="#1A2C3D"/>
<path d="M1101.26 457.66V421.87L1065.55 421.87V457.66L1101.26 457.66Z" fill="#1A2C3D"/>
<path d="M1857.43 457.41V421.62H1821.72V457.41H1857.43Z" fill="#1A2C3D"/>
<path d="M1252.54 457.41V421.67H1216.78V457.41H1252.54Z" fill="#1A2C3D"/>
<path d="M798.78 457.66V421.87H763.07V457.66H798.78Z" fill="#1A2C3D"/>
<path d="M2197.03 494.44V460.06H2162.65V494.44H2197.03Z" fill="#1A2C3D"/>
<path d="M2045.79 494.45V460.06H2011.41V494.45H2045.79Z" fill="#1A2C3D"/>
<path d="M1894.56 494.44V460.06H1860.18V494.44H1894.56Z" fill="#1A2C3D"/>
<path d="M1592.09 494.45V460.06H1557.71V494.45H1592.09Z" fill="#1A2C3D"/>
<path d="M1289.62 494.45V460.06H1255.24V494.45H1289.62Z" fill="#1A2C3D"/>
<path d="M1440.85 494.44V460.06H1406.47V494.44H1440.85Z" fill="#1A2C3D"/>
<path d="M1743.32 494.44V460.06H1708.94V494.44H1743.32Z" fill="#1A2C3D"/>
<path d="M608.91 494.68V460.39H574.62V494.68H608.91Z" fill="#1A2C3D"/>
<path d="M457.67 494.68V460.39H423.38V494.68H457.67Z" fill="#1A2C3D"/>
<path d="M760.14 494.68V460.39H725.85V494.68L760.14 494.68Z" fill="#1A2C3D"/>
<path d="M1062.61 494.68V460.39H1028.32V494.68H1062.61Z" fill="#1A2C3D"/>
<path d="M155.2 494.68V460.39H120.91V494.68H155.2Z" fill="#1A2C3D"/>
<path d="M911.38 494.68V460.39H877.09V494.68H911.38Z" fill="#1A2C3D"/>
<path d="M306.44 494.68V460.39H272.15V494.68H306.44Z" fill="#1A2C3D"/>
<path d="M1138.39 494.7V460.39H1103.98V494.7H1138.39Z" fill="#1A2C3D"/>
<path d="M987.15 494.71V460.39H952.77V494.71H987.15Z" fill="#1A2C3D"/>
<path d="M79.7402 494.68V460.39H45.3501L45.3501 494.68H79.7402Z" fill="#1A2C3D"/>
<path d="M684.68 494.68V460.38H650.29V494.68H684.68Z" fill="#1A2C3D"/>
<path d="M533.45 494.68V460.38H499.06V494.68H533.45Z" fill="#1A2C3D"/>
<path d="M835.91 494.68V460.39H801.52V494.68H835.91Z" fill="#1A2C3D"/>
<path d="M1970.03 494.45V460.06H1935.74V494.45H1970.03Z" fill="#1A2C3D"/>
<path d="M2121.26 494.45V460.06H2086.96V494.45H2121.26Z" fill="#1A2C3D"/>
<path d="M1667.56 494.45V460.09H1633.26V494.45H1667.56Z" fill="#1A2C3D"/>
<path d="M382.21 494.71V460.39H347.8V494.71H382.21Z" fill="#1A2C3D"/>
<path d="M1516.33 494.45V460.09H1482.03V494.45H1516.33Z" fill="#1A2C3D"/>
<path d="M1365.08 494.45V460.06H1330.79V494.45H1365.08Z" fill="#1A2C3D"/>
<path d="M230.98 494.68V460.39H196.59V494.68H230.98Z" fill="#1A2C3D"/>
<path d="M1818.79 494.45V460.06L1784.49 460.06V494.45H1818.79Z" fill="#1A2C3D"/>
<path d="M1213.86 494.45V460.09H1179.56V494.45H1213.86Z" fill="#1A2C3D"/>
<path d="M2272.49 494.45V460.06H2238.2V494.45H2272.49Z" fill="#1A2C3D"/>
<path d="M1780.35 531.47V498.75H1747.43V531.47H1780.35Z" fill="#1A2C3D"/>
<path d="M1477.88 531.51V498.76H1445V531.51H1477.88Z" fill="#1A2C3D"/>
<path d="M570.47 531.77V499.05H537.55V531.77H570.47Z" fill="#1A2C3D"/>
<path d="M1629.12 531.51V498.76H1596.21V531.51H1629.12Z" fill="#1A2C3D"/>
<path d="M872.94 531.77V499.05H840.02V531.77H872.94Z" fill="#1A2C3D"/>
<path d="M1175.41 531.77V499.03H1142.53V531.77H1175.41Z" fill="#1A2C3D"/>
<path d="M1326.64 531.47V498.76H1293.72V531.47H1326.64Z" fill="#1A2C3D"/>
<path d="M116.76 531.77V499.05H83.8401V531.77H116.76Z" fill="#1A2C3D"/>
<path d="M268 531.77V499.05H235.08V531.77H268Z" fill="#1A2C3D"/>
<path d="M419.24 531.77V499.03H386.36V531.77H419.24Z" fill="#1A2C3D"/>
<path d="M1931.58 531.47V498.76H1898.66V531.47H1931.58Z" fill="#1A2C3D"/>
<path d="M721.7 531.77V499H688.82V531.77H721.7Z" fill="#1A2C3D"/>
<path d="M2082.82 531.52V498.75H2049.94V531.52H2082.82Z" fill="#1A2C3D"/>
<path d="M2234.06 531.47V498.75H2201.13V531.47H2234.06Z" fill="#1A2C3D"/>
<path d="M1024.18 531.75V499H991.3V531.75H1024.18Z" fill="#1A2C3D"/>
<path d="M1855.88 531.47V498.75H1823.16V531.47H1855.88Z" fill="#1A2C3D"/>
<path d="M343.52 531.76V499.05H310.8V531.76H343.52Z" fill="#1A2C3D"/>
<path d="M1704.64 531.47V498.75H1671.93V531.47H1704.64Z" fill="#1A2C3D"/>
<path d="M1099.7 531.76V499.05H1066.98V531.76H1099.7Z" fill="#1A2C3D"/>
<path d="M1402.17 531.47V498.75H1369.46V531.47H1402.17Z" fill="#1A2C3D"/>
<path d="M948.46 531.77V499.05H915.75V531.77H948.46Z" fill="#1A2C3D"/>
<path d="M2007.11 531.47V498.75H1974.39V531.47H2007.11Z" fill="#1A2C3D"/>
<path d="M2158.34 531.47V498.75L2125.63 498.75V531.47L2158.34 531.47Z" fill="#1A2C3D"/>
<path d="M797.22 531.77V499.05H764.5V531.77H797.22Z" fill="#1A2C3D"/>
<path d="M2309.58 531.47V498.75H2276.86V531.47H2309.58Z" fill="#1A2C3D"/>
<path d="M1553.4 531.47V498.75H1520.69V531.47H1553.4Z" fill="#1A2C3D"/>
<path d="M646 531.77V499.05H613.28V531.77H646Z" fill="#1A2C3D"/>
<path d="M1250.93 531.47V498.75H1218.21V531.47H1250.93Z" fill="#1A2C3D"/>
<path d="M41.05 531.76V499.05H8.33006L8.33006 531.76H41.05Z" fill="#1A2C3D"/>
<path d="M494.76 531.77V499.05H462.04V531.77H494.76Z" fill="#1A2C3D"/>
<path d="M192.29 531.77V499.05H159.57V531.77H192.29Z" fill="#1A2C3D"/>
<path d="M834.35 568.87V537.49H802.96V568.87H834.35Z" fill="#1A2C3D"/>
<path d="M531.88 568.88V537.49H500.49V568.88H531.88Z" fill="#1A2C3D"/>
<path d="M78.1802 568.89V537.5H46.7803V568.89H78.1802Z" fill="#1A2C3D"/>
<path d="M1136.82 568.88V537.49H1105.43V568.88H1136.82Z" fill="#1A2C3D"/>
<path d="M683.12 568.89V537.5H651.72V568.89H683.12Z" fill="#1A2C3D"/>
<path d="M985.58 568.88V537.49H954.19V568.88H985.58Z" fill="#1A2C3D"/>
<path d="M229.41 568.89V537.5H198.02V568.89H229.41Z" fill="#1A2C3D"/>
<path d="M380.64 568.88V537.49H349.25V568.88H380.64Z" fill="#1A2C3D"/>
<path d="M304.99 568.88V537.5H273.79V568.88H304.99Z" fill="#1A2C3D"/>
<path d="M2271.05 568.47V537.27H2239.85V568.47H2271.05Z" fill="#1A2C3D"/>
<path d="M2195.46 568.48V537.28H2164.08V568.48H2195.46Z" fill="#1A2C3D"/>
<path d="M2119.82 568.48V537.28H2088.62V568.48H2119.82Z" fill="#1A2C3D"/>
<path d="M2044.22 568.48V537.28H2012.84V568.48H2044.22Z" fill="#1A2C3D"/>
<path d="M1968.58 568.48V537.28H1937.38V568.48H1968.58Z" fill="#1A2C3D"/>
<path d="M1892.99 568.48V537.28H1861.6V568.48H1892.99Z" fill="#1A2C3D"/>
<path d="M1817.35 568.48V537.28H1786.15V568.48H1817.35Z" fill="#1A2C3D"/>
<path d="M1741.75 568.48V537.28H1710.37V568.48H1741.75Z" fill="#1A2C3D"/>
<path d="M456.23 568.88V537.49H425.03V568.88H456.23Z" fill="#1A2C3D"/>
<path d="M1666.11 568.48V537.28H1634.91V568.48H1666.11Z" fill="#1A2C3D"/>
<path d="M1590.52 568.48V537.28H1559.14V568.48H1590.52Z" fill="#1A2C3D"/>
<path d="M153.76 568.88V537.5H122.56V568.88H153.76Z" fill="#1A2C3D"/>
<path d="M1439.28 568.48V537.28H1407.89V568.48H1439.28Z" fill="#1A2C3D"/>
<path d="M1363.64 568.48V537.28H1332.44V568.48H1363.64Z" fill="#1A2C3D"/>
<path d="M1288.05 568.48V537.28H1256.67V568.48H1288.05Z" fill="#1A2C3D"/>
<path d="M1212.41 568.48V537.28H1181.2V568.48H1212.41Z" fill="#1A2C3D"/>
<path d="M1514.88 568.48V537.28H1483.68V568.48H1514.88Z" fill="#1A2C3D"/>
<path d="M1061.17 568.88V537.5H1029.97V568.88H1061.17Z" fill="#1A2C3D"/>
<path d="M909.93 568.88V537.5H878.73V568.88H909.93Z" fill="#1A2C3D"/>
<path d="M758.7 568.88V537.5L727.5 537.5V568.88L758.7 568.88Z" fill="#1A2C3D"/>
<path d="M607.46 568.88V537.49H576.26V568.88H607.46Z" fill="#1A2C3D"/>
<path d="M1098.13 605.92V576.29H1068.45V605.92H1098.13Z" fill="#1A2C3D"/>
<path d="M946.9 605.91V576.28H917.22V605.91H946.9Z" fill="#1A2C3D"/>
<path d="M1551.84 605.46V575.82H1522.16V605.46H1551.84Z" fill="#1A2C3D"/>
<path d="M39.4902 605.91L39.4902 576.28H9.81003L9.81003 605.91H39.4902Z" fill="#1A2C3D"/>
<path d="M2005.55 605.47V575.83H1975.87V605.47H2005.55Z" fill="#1A2C3D"/>
<path d="M1703.08 605.47V575.83H1673.4V605.47H1703.08Z" fill="#1A2C3D"/>
<path d="M1854.31 605.46V575.83H1824.63V605.46H1854.31Z" fill="#1A2C3D"/>
<path d="M644.43 605.92V576.29H614.75V605.92H644.43Z" fill="#1A2C3D"/>
<path d="M341.96 605.91V576.28H312.28V605.91H341.96Z" fill="#1A2C3D"/>
<path d="M1400.61 605.47V575.83H1370.93V605.47H1400.61Z" fill="#1A2C3D"/>
<path d="M190.73 605.92V576.28H161.05V605.92H190.73Z" fill="#1A2C3D"/>
<path d="M795.66 605.92V576.29H765.98V605.92H795.66Z" fill="#1A2C3D"/>
<path d="M1249.37 605.46V575.83H1219.68V605.46H1249.37Z" fill="#1A2C3D"/>
<path d="M2156.78 605.46V575.82L2127.1 575.82V605.46L2156.78 605.46Z" fill="#1A2C3D"/>
<path d="M2308.02 605.46V575.82H2278.34V605.46H2308.02Z" fill="#1A2C3D"/>
<path d="M493.19 605.92V576.29H463.51V605.92H493.19Z" fill="#1A2C3D"/>
<path d="M417.67 605.91V576.29H388.05V605.91H417.67Z" fill="#1A2C3D"/>
<path d="M2081.22 605.49V575.84H2051.63V605.49H2081.22Z" fill="#1A2C3D"/>
<path d="M1929.98 605.49V575.84H1900.39V605.49H1929.98Z" fill="#1A2C3D"/>
<path d="M1476.32 605.47V575.84H1446.7V605.47H1476.32Z" fill="#1A2C3D"/>
<path d="M2232.46 605.5V575.88H2202.87V605.5H2232.46Z" fill="#1A2C3D"/>
<path d="M1778.79 605.46V575.83H1749.17V605.46H1778.79Z" fill="#1A2C3D"/>
<path d="M1627.55 605.46V575.84H1597.93V605.46H1627.55Z" fill="#1A2C3D"/>
<path d="M266.43 605.88V576.29H236.78V605.88H266.43Z" fill="#1A2C3D"/>
<path d="M1325.08 605.47V575.84H1295.46V605.47H1325.08Z" fill="#1A2C3D"/>
<path d="M720.14 605.92V576.29H690.52V605.92H720.14Z" fill="#1A2C3D"/>
<path d="M568.91 605.91V576.29H539.29V605.91H568.91Z" fill="#1A2C3D"/>
<path d="M1173.85 605.88V576.29H1144.2V605.88H1173.85Z" fill="#1A2C3D"/>
<path d="M1022.61 605.91V576.29H992.98V605.91H1022.61Z" fill="#1A2C3D"/>
<path d="M115.2 605.88V576.29H85.55V605.88H115.2Z" fill="#1A2C3D"/>
<path d="M871.37 605.92V576.29H841.75V605.92H871.37Z" fill="#1A2C3D"/>
<path d="M454.62 642.86V614.82H426.58V642.86H454.62Z" fill="#1A2C3D"/>
<path d="M757.09 642.86V614.82L729.05 614.82V642.86L757.09 642.86Z" fill="#1A2C3D"/>
<path d="M303.39 642.86V614.82H275.35V642.86H303.39Z" fill="#1A2C3D"/>
<path d="M605.86 642.87V614.82H577.81V642.87H605.86Z" fill="#1A2C3D"/>
<path d="M908.33 642.87V614.82H880.29V642.87H908.33Z" fill="#1A2C3D"/>
<path d="M152.15 642.86V614.82H124.11L124.11 642.86H152.15Z" fill="#1A2C3D"/>
<path d="M1059.57 642.86V614.82H1031.52V642.86H1059.57Z" fill="#1A2C3D"/>
<path d="M2118.17 642.4V614.61H2090.16V642.4H2118.17Z" fill="#1A2C3D"/>
<path d="M1362.01 642.42V614.62H1333.99V642.42H1362.01Z" fill="#1A2C3D"/>
<path d="M681.36 642.84V614.82H653.57V642.84H681.36Z" fill="#1A2C3D"/>
<path d="M1210.77 642.41V614.62H1182.75V642.41H1210.77Z" fill="#1A2C3D"/>
<path d="M2269.44 642.41V614.62H2241.39V642.41H2269.44Z" fill="#1A2C3D"/>
<path d="M227.66 642.84V614.82H199.85V642.84H227.66Z" fill="#1A2C3D"/>
<path d="M983.83 642.83V614.82H956.04V642.83H983.83Z" fill="#1A2C3D"/>
<path d="M1664.48 642.43V614.62H1636.46V642.43H1664.48Z" fill="#1A2C3D"/>
<path d="M832.6 642.87V614.82H804.81V642.87H832.6Z" fill="#1A2C3D"/>
<path d="M530.13 642.87V614.82H502.34V642.87H530.13Z" fill="#1A2C3D"/>
<path d="M76.4201 642.83L76.4201 614.82H48.6301V642.83H76.4201Z" fill="#1A2C3D"/>
<path d="M378.89 642.87V614.82H351.11V642.87H378.89Z" fill="#1A2C3D"/>
<path d="M1135.07 642.87V614.82H1107.28V642.87H1135.07Z" fill="#1A2C3D"/>
<path d="M1815.71 642.43V614.62H1787.69V642.43H1815.71Z" fill="#1A2C3D"/>
<path d="M1513.24 642.43V614.62H1485.22V642.43H1513.24Z" fill="#1A2C3D"/>
<path d="M1966.95 642.43V614.62H1938.93V642.43H1966.95Z" fill="#1A2C3D"/>
<path d="M2042.48 642.41V614.62H2014.69V642.41H2042.48Z" fill="#1A2C3D"/>
<path d="M1588.77 642.41V614.62H1560.99V642.41H1588.77Z" fill="#1A2C3D"/>
<path d="M1740.01 642.41V614.62H1712.23V642.41H1740.01Z" fill="#1A2C3D"/>
<path d="M1437.54 642.41V614.62H1409.75V642.41H1437.54Z" fill="#1A2C3D"/>
<path d="M1891.24 642.41V614.62H1863.45V642.41H1891.24Z" fill="#1A2C3D"/>
<path d="M1286.3 642.41V614.62H1258.51V642.41H1286.3Z" fill="#1A2C3D"/>
<path d="M2193.71 642.41V614.62H2165.92V642.41H2193.71Z" fill="#1A2C3D"/>
<path d="M567.02 679.73V653.7H540.92V679.73H567.02Z" fill="#1A2C3D"/>
<path d="M2230.61 679.29V653.25H2204.51V679.29H2230.61Z" fill="#1A2C3D"/>
<path d="M1625.66 679.29V653.25H1599.56V679.29H1625.66Z" fill="#1A2C3D"/>
<path d="M113.31 679.73V653.7H87.2102V679.73H113.31Z" fill="#1A2C3D"/>
<path d="M1474.43 679.29V653.25H1448.33V679.29H1474.43Z" fill="#1A2C3D"/>
<path d="M1928.13 679.29V653.25H1902.03V679.29H1928.13Z" fill="#1A2C3D"/>
<path d="M1020.72 679.74V653.7H994.62V679.74H1020.72Z" fill="#1A2C3D"/>
<path d="M718.25 679.74V653.7H692.15V679.74H718.25Z" fill="#1A2C3D"/>
<path d="M1776.9 679.29V653.25H1750.8V679.29H1776.9Z" fill="#1A2C3D"/>
<path d="M1323.19 679.29V653.25H1297.09V679.29H1323.19Z" fill="#1A2C3D"/>
<path d="M1171.96 679.73V653.69H1145.86V679.73H1171.96Z" fill="#1A2C3D"/>
<path d="M869.49 679.74V653.7H843.39V679.74H869.49Z" fill="#1A2C3D"/>
<path d="M2079.37 679.29V653.25H2053.27V679.29H2079.37Z" fill="#1A2C3D"/>
<path d="M264.55 679.74V653.7H238.45V679.74H264.55Z" fill="#1A2C3D"/>
<path d="M415.78 679.73V653.69H389.69V679.73H415.78Z" fill="#1A2C3D"/>
<path d="M189 679.69V653.68H162.96V679.69H189Z" fill="#1A2C3D"/>
<path d="M1096.4 679.7V653.68H1070.37V679.7H1096.4Z" fill="#1A2C3D"/>
<path d="M1247.64 679.32V653.29H1221.62V679.32H1247.64Z" fill="#1A2C3D"/>
<path d="M2306.3 679.32V653.24H2280.28V679.32H2306.3Z" fill="#1A2C3D"/>
<path d="M945.21 679.74V653.69H919.16V679.74H945.21Z" fill="#1A2C3D"/>
<path d="M1701.34 679.31V653.28H1675.32V679.31H1701.34Z" fill="#1A2C3D"/>
<path d="M2003.82 679.31V653.24H1977.8V679.31H2003.82Z" fill="#1A2C3D"/>
<path d="M340.27 679.75V653.7H314.22V679.75H340.27Z" fill="#1A2C3D"/>
<path d="M1550.1 679.32V653.28H1524.09V679.32H1550.1Z" fill="#1A2C3D"/>
<path d="M642.74 679.74V653.69H616.69V679.74H642.74Z" fill="#1A2C3D"/>
<path d="M1852.59 679.31V653.24H1826.57V679.31H1852.59Z" fill="#1A2C3D"/>
<path d="M37.8 679.75L37.8 653.7H11.7502L11.7502 679.75H37.8Z" fill="#1A2C3D"/>
<path d="M2155.05 679.32V653.29L2129.03 653.29V679.32L2155.05 679.32Z" fill="#1A2C3D"/>
<path d="M491.5 679.75V653.7H465.45V679.75H491.5Z" fill="#1A2C3D"/>
<path d="M793.97 679.71V653.69H767.89V679.71H793.97Z" fill="#1A2C3D"/>
<path d="M1398.87 679.31V653.28H1372.85V679.31H1398.87Z" fill="#1A2C3D"/>
<path d="M225.77 716.49V692.33H201.62V716.49H225.77Z" fill="#1A2C3D"/>
<path d="M981.95 716.49L981.95 692.33H957.79L957.79 716.49H981.95Z" fill="#1A2C3D"/>
<path d="M830.71 716.48L830.71 692.33H806.56L806.56 716.48H830.71Z" fill="#1A2C3D"/>
<path d="M528.25 716.48L528.25 692.33H504.09V716.48H528.25Z" fill="#1A2C3D"/>
<path d="M74.55 716.49V692.33H50.3901V716.49H74.55Z" fill="#1A2C3D"/>
<path d="M1133.19 716.48V692.33H1109.03V716.48H1133.19Z" fill="#1A2C3D"/>
<path d="M377 716.49V692.33H352.85V716.49H377Z" fill="#1A2C3D"/>
<path d="M679.49 716.48L679.49 692.33H655.33L655.33 716.48H679.49Z" fill="#1A2C3D"/>
<path d="M755.1 716.48L755.1 692.33L731.1 692.33L731.1 716.48L755.1 716.48Z" fill="#1A2C3D"/>
<path d="M2040.59 716.11V692.11H2016.45L2016.45 716.11H2040.59Z" fill="#1A2C3D"/>
<path d="M1511.28 716.11V692.11H1487.28V716.11H1511.28Z" fill="#1A2C3D"/>
<path d="M2116.22 716.11V692.11H2092.22V716.11H2116.22Z" fill="#1A2C3D"/>
<path d="M1057.57 716.48V692.34H1033.56V716.48H1057.57Z" fill="#1A2C3D"/>
<path d="M1738.11 716.12V692.11H1713.97V716.12H1738.11Z" fill="#1A2C3D"/>
<path d="M2191.82 716.12V692.11H2167.68V716.12H2191.82Z" fill="#1A2C3D"/>
<path d="M301.4 716.48V692.34H277.39V716.48H301.4Z" fill="#1A2C3D"/>
<path d="M2267.45 716.11V692.11H2243.45V716.11H2267.45Z" fill="#1A2C3D"/>
<path d="M1435.64 716.12V692.11H1411.5V716.12H1435.64Z" fill="#1A2C3D"/>
<path d="M906.34 716.49L906.34 692.34H882.34L882.34 716.49H906.34Z" fill="#1A2C3D"/>
<path d="M603.87 716.47L603.87 692.33H579.86L579.86 716.47H603.87Z" fill="#1A2C3D"/>
<path d="M1208.81 716.11V692.11H1184.81V716.11H1208.81Z" fill="#1A2C3D"/>
<path d="M1360.04 716.11V692.11H1336.04V716.11H1360.04Z" fill="#1A2C3D"/>
<path d="M1813.75 716.11V692.11H1789.75V716.11H1813.75Z" fill="#1A2C3D"/>
<path d="M452.63 716.48V692.34H428.62V716.48H452.63Z" fill="#1A2C3D"/>
<path d="M1284.41 716.12V692.11H1260.27V716.12H1284.41Z" fill="#1A2C3D"/>
<path d="M1586.88 716.11V692.11H1562.74V716.11H1586.88Z" fill="#1A2C3D"/>
<path d="M150.16 716.47V692.33H126.16V716.47H150.16Z" fill="#1A2C3D"/>
<path d="M1662.51 716.11V692.11H1638.51V716.11H1662.51Z" fill="#1A2C3D"/>
<path d="M1889.35 716.12V692.11H1865.21V716.12H1889.35Z" fill="#1A2C3D"/>
<path d="M1964.98 716.11V692.11H1940.98V716.11H1964.98Z" fill="#1A2C3D"/>
<path d="M187.06 753.32V731.22H164.74V753.32H187.06Z" fill="#1A2C3D"/>
<path d="M489.53 753.33V731.21H467.21V753.33H489.53Z" fill="#1A2C3D"/>
<path d="M2153.12 753.01V730.89L2130.8 730.89V753.01L2153.12 753.01Z" fill="#1A2C3D"/>
<path d="M1094.47 753.33V731.22H1072.15V753.33H1094.47Z" fill="#1A2C3D"/>
<path d="M1548.18 753.01V730.89H1525.86V753.01H1548.18Z" fill="#1A2C3D"/>
<path d="M35.82 753.35L35.82 731.22H13.5002L13.5002 753.35H35.82Z" fill="#1A2C3D"/>
<path d="M1850.64 753V730.89H1828.32V753H1850.64Z" fill="#1A2C3D"/>
<path d="M1396.94 753V730.89H1374.62V753H1396.94Z" fill="#1A2C3D"/>
<path d="M1245.7 753V730.88H1223.38V753H1245.7Z" fill="#1A2C3D"/>
<path d="M792 753.32V731.22H769.68V753.32H792Z" fill="#1A2C3D"/>
<path d="M2001.88 753V730.89H1979.56V753H2001.88Z" fill="#1A2C3D"/>
<path d="M640.76 753.33V731.21H618.44V753.33H640.76Z" fill="#1A2C3D"/>
<path d="M338.3 753.33V731.21H315.98V753.33H338.3Z" fill="#1A2C3D"/>
<path d="M1699.41 753V730.89H1677.09V753H1699.41Z" fill="#1A2C3D"/>
<path d="M2304.35 753V730.89H2282.03V753H2304.35Z" fill="#1A2C3D"/>
<path d="M943.23 753.34V731.22H920.91V753.34H943.23Z" fill="#1A2C3D"/>
<path d="M1472.5 753V730.89H1450.39V753H1472.5Z" fill="#1A2C3D"/>
<path d="M1170.03 753V730.89H1147.91V753H1170.03Z" fill="#1A2C3D"/>
<path d="M262.62 753.34V731.22H240.51V753.34H262.62Z" fill="#1A2C3D"/>
<path d="M2077.44 753V730.89H2055.33V753H2077.44Z" fill="#1A2C3D"/>
<path d="M716.32 753.34V731.22H694.21V753.34H716.32Z" fill="#1A2C3D"/>
<path d="M1321.27 753V730.89H1299.15V753H1321.27Z" fill="#1A2C3D"/>
<path d="M413.85 753.34V731.22H391.74V753.34H413.85Z" fill="#1A2C3D"/>
<path d="M1018.79 753.34V731.22H996.68V753.34H1018.79Z" fill="#1A2C3D"/>
<path d="M867.56 753.34V731.22H845.45V753.34H867.56Z" fill="#1A2C3D"/>
<path d="M2228.68 753V730.89H2206.56V753H2228.68Z" fill="#1A2C3D"/>
<path d="M1623.73 753V730.89H1601.62V753H1623.73Z" fill="#1A2C3D"/>
<path d="M1774.98 753V730.89H1752.86V753H1774.98Z" fill="#1A2C3D"/>
<path d="M565.09 753.34V731.22H542.98V753.34H565.09Z" fill="#1A2C3D"/>
<path d="M111.39 753.34V731.22H89.2702V753.34H111.39Z" fill="#1A2C3D"/>
<path d="M1926.21 753V730.89H1904.09V753H1926.21Z" fill="#1A2C3D"/>
<path d="M979.93 789.92V770.17H959.98V789.92H979.93Z" fill="#1A2C3D"/>
<path d="M2265.27 789.72V769.76H2245.51V789.72H2265.27Z" fill="#1A2C3D"/>
<path d="M1206.62 789.72V769.76H1186.86V789.72H1206.62Z" fill="#1A2C3D"/>
<path d="M1660.33 789.72V769.77H1640.56V789.72H1660.33Z" fill="#1A2C3D"/>
<path d="M526.21 789.93V770.15H506.26V789.93H526.21Z" fill="#1A2C3D"/>
<path d="M374.98 789.93V770.16H355.03V789.93H374.98Z" fill="#1A2C3D"/>
<path d="M677.45 789.93V770.16H657.5V789.93H677.45Z" fill="#1A2C3D"/>
<path d="M828.69 789.92V770.16H808.74V789.92H828.69Z" fill="#1A2C3D"/>
<path d="M2114.03 789.71V769.76H2094.27V789.71H2114.03Z" fill="#1A2C3D"/>
<path d="M1811.56 789.72V769.76H1791.79V789.72H1811.56Z" fill="#1A2C3D"/>
<path d="M1509.09 789.71V769.76H1489.34V789.71H1509.09Z" fill="#1A2C3D"/>
<path d="M223.74 789.92V770.15H203.79V789.92H223.74Z" fill="#1A2C3D"/>
<path d="M72.5102 789.91V770.16H52.56V789.91H72.5102Z" fill="#1A2C3D"/>
<path d="M1962.8 789.72V769.76H1943.04V789.72H1962.8Z" fill="#1A2C3D"/>
<path d="M1131.16 789.92V770.16H1111.21V789.92H1131.16Z" fill="#1A2C3D"/>
<path d="M1357.86 789.71V769.76H1338.11V789.71H1357.86Z" fill="#1A2C3D"/>
<path d="M1736.1 789.71V769.76H1716.15V789.71H1736.1Z" fill="#1A2C3D"/>
<path d="M2189.81 789.71V769.76H2169.86V789.71H2189.81Z" fill="#1A2C3D"/>
<path d="M1584.86 789.72V769.77H1564.91V789.72H1584.86Z" fill="#1A2C3D"/>
<path d="M1433.63 789.71V769.76H1413.68V789.71H1433.63Z" fill="#1A2C3D"/>
<path d="M1887.33 789.71V769.77H1867.39V789.71H1887.33Z" fill="#1A2C3D"/>
<path d="M2038.56 789.72V769.77H2018.61V789.72H2038.56Z" fill="#1A2C3D"/>
<path d="M1282.39 789.71V769.77H1262.44V789.71H1282.39Z" fill="#1A2C3D"/>
<path d="M904.14 789.93V770.19H884.4V789.93H904.14Z" fill="#1A2C3D"/>
<path d="M299.21 789.93V770.18H279.47V789.93H299.21Z" fill="#1A2C3D"/>
<path d="M752.91 789.93V770.18L733.17 770.18V789.93L752.91 789.93Z" fill="#1A2C3D"/>
<path d="M450.45 789.93V770.18H430.71V789.93H450.45Z" fill="#1A2C3D"/>
<path d="M601.68 789.92V770.18H581.94V789.92H601.68Z" fill="#1A2C3D"/>
<path d="M147.97 789.93V770.18H128.24V789.93H147.97Z" fill="#1A2C3D"/>
<path d="M1055.39 789.93V770.18H1035.65V789.93H1055.39Z" fill="#1A2C3D"/>
<path d="M2301.86 826.23V808.94H2284.58V826.23H2301.86Z" fill="#1A2C3D"/>
<path d="M1243.22 826.22V808.94H1225.91V826.22H1243.22Z" fill="#1A2C3D"/>
<path d="M1696.93 826.22V808.94H1679.62V826.22H1696.93Z" fill="#1A2C3D"/>
<path d="M487.04 826.51V809.23H469.74V826.51H487.04Z" fill="#1A2C3D"/>
<path d="M184.57 826.52V809.22H167.28V826.52H184.57Z" fill="#1A2C3D"/>
<path d="M638.27 826.51V809.23H620.97V826.51H638.27Z" fill="#1A2C3D"/>
<path d="M1394.45 826.24V808.94H1377.16V826.24H1394.45Z" fill="#1A2C3D"/>
<path d="M1091.98 826.51V809.21H1074.69V826.51H1091.98Z" fill="#1A2C3D"/>
<path d="M335.81 826.51V809.21H318.52V826.51H335.81Z" fill="#1A2C3D"/>
<path d="M1545.69 826.24V808.93H1528.4V826.24H1545.69Z" fill="#1A2C3D"/>
<path d="M940.75 826.51V809.23H923.45V826.51H940.75Z" fill="#1A2C3D"/>
<path d="M1848.16 826.24V808.93H1830.87V826.24H1848.16Z" fill="#1A2C3D"/>
<path d="M789.51 826.51V809.22H772.22V826.51H789.51Z" fill="#1A2C3D"/>
<path d="M33.33 826.51V809.23H16.04L16.04 826.51H33.33Z" fill="#1A2C3D"/>
<path d="M1999.39 826.24V808.93H1982.1V826.24H1999.39Z" fill="#1A2C3D"/>
<path d="M2150.63 826.24V808.94L2133.34 808.94V826.24L2150.63 826.24Z" fill="#1A2C3D"/>
<path d="M864.99 826.52V809.24H847.94V826.52H864.99Z" fill="#1A2C3D"/>
<path d="M1016.22 826.53V809.24H999.17V826.53H1016.22Z" fill="#1A2C3D"/>
<path d="M108.81 826.53V809.23H91.7602V826.53H108.81Z" fill="#1A2C3D"/>
<path d="M2074.87 826.21V808.93H2057.83V826.21H2074.87Z" fill="#1A2C3D"/>
<path d="M713.76 826.52V809.24H696.71V826.52H713.76Z" fill="#1A2C3D"/>
<path d="M562.52 826.52V809.24H545.47V826.52H562.52Z" fill="#1A2C3D"/>
<path d="M1318.7 826.22V808.94H1301.64V826.22H1318.7Z" fill="#1A2C3D"/>
<path d="M1469.93 826.22V808.94H1452.88V826.22H1469.93Z" fill="#1A2C3D"/>
<path d="M1772.4 826.22V808.94H1755.35V826.22H1772.4Z" fill="#1A2C3D"/>
<path d="M1167.45 826.24V808.93H1150.41V826.24H1167.45Z" fill="#1A2C3D"/>
<path d="M2226.1 826.22V808.94H2209.06V826.22H2226.1Z" fill="#1A2C3D"/>
<path d="M1621.16 826.22V808.94H1604.11V826.22H1621.16Z" fill="#1A2C3D"/>
<path d="M411.28 826.53V809.23H394.23V826.53H411.28Z" fill="#1A2C3D"/>
<path d="M1923.64 826.23V808.94H1906.59V826.23H1923.64Z" fill="#1A2C3D"/>
<path d="M260.04 826.52V809.24H243V826.52H260.04Z" fill="#1A2C3D"/>
<path d="M1355.05 862.36V848.33H1341.03V862.36H1355.05Z" fill="#1A2C3D"/>
<path d="M1657.52 862.36V848.33H1643.5V862.36H1657.52Z" fill="#1A2C3D"/>
<path d="M2262.46 862.38V848.34H2248.43V862.38H2262.46Z" fill="#1A2C3D"/>
<path d="M1506.29 862.36V848.33H1492.27V862.36H1506.29Z" fill="#1A2C3D"/>
<path d="M2111.22 862.36V848.33H2097.2V862.36H2111.22Z" fill="#1A2C3D"/>
<path d="M1959.99 862.37V848.34H1945.97V862.37H1959.99Z" fill="#1A2C3D"/>
<path d="M1808.76 862.37V848.34H1794.73V862.37H1808.76Z" fill="#1A2C3D"/>
<path d="M1203.82 862.38V848.34H1189.79V862.38H1203.82Z" fill="#1A2C3D"/>
<path d="M2186.7 862.37V848.33H2172.82V862.37H2186.7Z" fill="#1A2C3D"/>
<path d="M1128.06 862.59V848.69H1114.16V862.59H1128.06Z" fill="#1A2C3D"/>
<path d="M598.88 862.58V848.71H584.84V862.58H598.88Z" fill="#1A2C3D"/>
<path d="M1732.99 862.37V848.33H1719.11V862.37H1732.99Z" fill="#1A2C3D"/>
<path d="M145.17 862.58V848.71H131.13V862.58H145.17Z" fill="#1A2C3D"/>
<path d="M523.11 862.59V848.68H509.21V862.59H523.11Z" fill="#1A2C3D"/>
<path d="M69.4001 862.58V848.68H55.5002V862.58H69.4001Z" fill="#1A2C3D"/>
<path d="M1430.52 862.38V848.34H1416.65V862.38H1430.52Z" fill="#1A2C3D"/>
<path d="M1884.22 862.37V848.34H1870.35V862.37H1884.22Z" fill="#1A2C3D"/>
<path d="M1581.75 862.38V848.34H1567.88V862.38H1581.75Z" fill="#1A2C3D"/>
<path d="M296.41 862.58V848.71H282.37V862.58H296.41Z" fill="#1A2C3D"/>
<path d="M976.83 862.6V848.7H962.93V862.6H976.83Z" fill="#1A2C3D"/>
<path d="M371.88 862.59V848.69H357.98V862.59H371.88Z" fill="#1A2C3D"/>
<path d="M750.11 862.58V848.71L736.07 848.71V862.58L750.11 862.58Z" fill="#1A2C3D"/>
<path d="M2035.45 862.38V848.34H2021.58V862.38H2035.45Z" fill="#1A2C3D"/>
<path d="M1052.59 862.59V848.71H1038.55V862.59H1052.59Z" fill="#1A2C3D"/>
<path d="M447.64 862.58V848.71H433.6V862.58H447.64Z" fill="#1A2C3D"/>
<path d="M674.35 862.59V848.69H660.45V862.59H674.35Z" fill="#1A2C3D"/>
<path d="M825.58 862.58V848.68H811.67V862.58H825.58Z" fill="#1A2C3D"/>
<path d="M220.65 862.6V848.7H206.75V862.6H220.65Z" fill="#1A2C3D"/>
<path d="M901.35 862.58V848.71H887.31V862.58H901.35Z" fill="#1A2C3D"/>
<path d="M1279.28 862.38V848.34H1265.41V862.38H1279.28Z" fill="#1A2C3D"/>
<path d="M1088.28 898.3V888.6H1078.48V898.3H1088.28Z" fill="#1A2C3D"/>
<path d="M937.05 898.3V888.6H927.25V898.3H937.05Z" fill="#1A2C3D"/>
<path d="M1239.52 898.08V888.37H1229.72V898.08H1239.52Z" fill="#1A2C3D"/>
<path d="M1541.99 898.09V888.39H1532.19V898.09H1541.99Z" fill="#1A2C3D"/>
<path d="M2298.17 898.08V888.38H2288.36V898.08H2298.17Z" fill="#1A2C3D"/>
<path d="M1995.69 898.09V888.39H1985.89V898.09H1995.69Z" fill="#1A2C3D"/>
<path d="M1390.75 898.09V888.39H1380.95V898.09H1390.75Z" fill="#1A2C3D"/>
<path d="M785.82 898.3V888.61H776.01V898.3H785.82Z" fill="#1A2C3D"/>
<path d="M634.58 898.32V888.61H624.78V898.32H634.58Z" fill="#1A2C3D"/>
<path d="M332.1 898.3V888.6H322.3V898.3H332.1Z" fill="#1A2C3D"/>
<path d="M2146.93 898.09V888.39H2137.13V898.09H2146.93Z" fill="#1A2C3D"/>
<path d="M1844.47 898.08V888.39H1834.65V898.08H1844.47Z" fill="#1A2C3D"/>
<path d="M180.87 898.3V888.6H171.07V898.3H180.87Z" fill="#1A2C3D"/>
<path d="M29.6401 898.29V888.61H19.82V898.29H29.6401Z" fill="#1A2C3D"/>
<path d="M483.35 898.29V888.61H473.53V898.29H483.35Z" fill="#1A2C3D"/>
<path d="M1693.23 898.08V888.38H1683.43V898.08H1693.23Z" fill="#1A2C3D"/>
<path d="M256.34 898.29V888.62H246.68V898.29H256.34Z" fill="#1A2C3D"/>
<path d="M2071.16 898.07V888.39H2061.49V898.07H2071.16Z" fill="#1A2C3D"/>
<path d="M1466.22 898.07V888.4H1456.55V898.07H1466.22Z" fill="#1A2C3D"/>
<path d="M1314.99 898.07V888.4H1305.32V898.07H1314.99Z" fill="#1A2C3D"/>
<path d="M1163.75 898.08V888.4H1154.08V898.08H1163.75Z" fill="#1A2C3D"/>
<path d="M1617.46 898.07V888.4H1607.79V898.07H1617.46Z" fill="#1A2C3D"/>
<path d="M861.28 898.29V888.62H851.62V898.29H861.28Z" fill="#1A2C3D"/>
<path d="M105.1 898.29V888.62H95.4401V898.29H105.1Z" fill="#1A2C3D"/>
<path d="M558.81 898.29V888.62H549.15V898.29H558.81Z" fill="#1A2C3D"/>
<path d="M1012.52 898.29V888.62H1002.85V898.29H1012.52Z" fill="#1A2C3D"/>
<path d="M1919.93 898.07V888.39H1910.26V898.07H1919.93Z" fill="#1A2C3D"/>
<path d="M710.05 898.29V888.62H700.38V898.29H710.05Z" fill="#1A2C3D"/>
<path d="M1768.69 898.07V888.4H1759.03V898.07H1768.69Z" fill="#1A2C3D"/>
<path d="M407.57 898.29V888.62H397.91V898.29H407.57Z" fill="#1A2C3D"/>
<path d="M2222.39 898.06V888.4H2212.73V898.06H2222.39Z" fill="#1A2C3D"/>
</g>
<defs>
<clipPath id="clip0_5656_221737">
<rect width="898" height="2318" fill="white" transform="translate(2318) rotate(90)"/>
</clipPath>
</defs>
</svg>
