<svg width="20" height="20" viewBox="0 0 20 20" fill="none" xmlns="http://www.w3.org/2000/svg">
<g clip-path="url(#clip0_6046_8933)">
<path d="M18.3341 17.5002V15.8335C18.3341 14.2752 17.2674 12.9752 15.8341 12.6002M12.9174 2.73353C14.1341 3.2252 15.0008 4.4252 15.0008 5.81686C15.0008 7.20853 14.1341 8.40853 12.9174 8.9002M11.2174 5.78353C11.2174 7.61686 9.71745 9.11686 7.88411 9.11686C6.04245 9.11686 4.55078 7.61686 4.55078 5.78353C4.55078 3.94186 6.04245 2.4502 7.88411 2.4502C9.71745 2.4502 11.2174 3.94186 11.2174 5.78353Z" stroke="white" stroke-width="1.5" stroke-linecap="square" stroke-linejoin="round"/>
<path d="M8 12C5.90517 11.9966 3.84273 12.5457 2 13.5973V17.5H14V13.5973C12.1573 12.5457 10.0948 11.9966 8 12Z" stroke="white" stroke-width="1.5" stroke-linecap="square"/>
</g>
<defs>
<clipPath id="clip0_6046_8933">
<rect width="20" height="20" fill="white"/>
</clipPath>
</defs>
</svg>
