<?xml version="1.0" standalone="no"?>
<!DOCTYPE svg PUBLIC "-//W3C//DTD SVG 20010904//EN"
 "http://www.w3.org/TR/2001/REC-SVG-20010904/DTD/svg10.dtd">
<svg version="1.0" xmlns="http://www.w3.org/2000/svg"
 width="96.000000pt" height="96.000000pt" viewBox="0 0 96.000000 96.000000"
 preserveAspectRatio="xMidYMid meet">

<g transform="translate(0.000000,96.000000) scale(0.100000,-0.100000)"
fill="#000000" stroke="none">
<path d="M332 889 c-48 -14 -109 -80 -123 -131 -21 -80 9 -177 67 -215 l24
-16 -47 -22 c-96 -44 -175 -152 -189 -258 -6 -43 -5 -47 13 -47 16 0 22 9 27
42 24 147 125 237 291 258 137 17 200 80 200 200 0 77 -26 127 -85 166 -43 29
-125 39 -178 23z m131 -43 c103 -43 128 -177 48 -257 -65 -65 -157 -65 -222 0
-124 123 13 325 174 257z"/>
<path d="M579 472 c-149 -78 -158 -288 -16 -376 198 -122 423 103 301 301 -21
34 -44 55 -83 75 -71 37 -131 37 -202 0z m181 -34 c132 -67 132 -249 0 -316
-56 -28 -104 -28 -160 0 -132 67 -132 249 0 316 24 12 60 22 80 22 20 0 56
-10 80 -22z"/>
<path d="M709 300 c-41 -59 -47 -61 -81 -32 -18 15 -48 10 -48 -7 0 -10 79
-71 91 -71 9 0 109 136 109 149 0 5 -7 11 -15 14 -9 4 -28 -13 -56 -53z"/>
</g>
</svg>
