<svg width="121" height="76" viewBox="0 0 121 76" fill="none" xmlns="http://www.w3.org/2000/svg">
<path fill-rule="evenodd" clip-rule="evenodd" d="M101.312 74.5887V58.6578H94.7378V74.5887H101.312ZM66.5057 67.9738V58.8988H60.1332V65.836C60.1332 67.8523 60.0527 68.4176 59.9318 68.942C59.488 70.3943 57.9551 71.0382 56.3826 71.0382C54.2052 71.0382 53.1967 70.1915 52.7932 68.8607C52.6724 68.4183 52.6321 67.9342 52.5918 67.4501C52.5515 66.9257 52.5918 66.3604 52.5918 65.7568V58.8995H46.1387V68.0148C46.1387 70.0727 46.8249 71.6049 47.9536 72.653C49.8893 74.5491 53.1565 75.1137 56.1812 75.1137C59.8512 75.1137 62.6746 74.5894 64.6909 72.6134C65.7403 71.6042 66.5057 70.2734 66.5057 67.9738ZM35.2086 66.8445C34.8891 66.7889 34.5653 66.7622 34.2411 66.7646H26.9816C26.6184 66.7646 26.2149 66.8049 26.0134 66.8445C26.1343 66.7229 26.3767 66.4819 26.6184 66.1589L29.8849 60.754C30.3287 60.0288 30.5301 59.5447 30.6107 59.3433C30.6912 59.5447 30.8927 60.0288 31.3365 60.7956L34.6842 66.2409C34.846 66.4819 35.0877 66.7229 35.2086 66.8445ZM47.3889 74.5887L32.8693 52.8103H24.723L26.8601 55.351C26.9004 55.3913 26.9816 55.4309 27.0615 55.4726C26.9809 55.5128 26.9004 55.5524 26.8601 55.5927L14.1964 74.5887H21.5364L23.513 71.3215C23.5936 71.1604 23.6339 70.9986 23.6339 70.9187C23.7145 70.9187 23.9166 70.9986 24.118 70.9986H37.2256C37.427 70.9986 37.5881 70.9583 37.6687 70.9187C37.6613 71.0321 37.6895 71.145 37.7493 71.2416L39.8065 74.5887H47.3889ZM92.9639 66.402C92.9639 64.6268 92.2374 62.5695 89.9794 59.7059L84.5341 52.8097H76.9518L81.267 57.6493C81.9935 58.4564 82.9207 59.1815 82.9207 59.1815C81.8726 58.5758 80.5419 58.3348 79.4931 58.3348C76.9927 58.3348 74.4507 58.8592 72.1934 60.1101C69.7729 61.4395 68.1594 63.6586 68.1594 66.6034C68.1594 68.8614 69.1679 70.5964 70.4584 71.9272C73.363 74.8304 78.6451 75.1131 80.5815 75.1131C83.4444 75.1131 87.9215 74.4678 90.4635 72.1689C91.9561 70.7971 92.9639 68.9024 92.9639 66.402ZM86.672 66.6034C86.672 68.2572 85.5822 69.5067 84.2112 70.1922C83.0819 70.7978 81.7504 70.959 80.5815 70.959C79.4125 70.959 78.0408 70.7166 76.9115 70.1519C75.5404 69.4664 74.491 68.1356 74.491 66.6833C74.491 64.9497 75.8217 63.5773 77.3956 62.8918C78.3638 62.4493 79.5334 62.2875 80.4599 62.2875C81.3482 62.2875 82.6387 62.4077 83.6472 62.8119C85.4627 63.5773 86.672 65.0296 86.672 66.6034ZM99.2237 0.886749C94.5015 0.879125 89.9161 2.47226 86.2159 5.40615C82.5157 2.47206 77.9303 0.878909 73.208 0.886749C68.486 0.879441 63.901 2.47255 60.2008 5.40615C56.501 2.47192 51.9157 0.87874 47.1936 0.886749C42.4717 0.879441 37.8866 2.47255 34.1865 5.40615C30.4864 2.47245 25.9013 0.879334 21.1793 0.886749C9.59161 0.886749 0.201172 10.2765 0.201172 21.8649C0.201172 33.4518 9.59093 42.843 21.1793 42.843C25.9012 42.8502 30.4863 41.2571 34.1865 38.3236C37.8865 41.2573 42.4716 42.8504 47.1936 42.843C51.9157 42.8509 56.501 41.2577 60.2008 38.3236C63.901 41.2572 68.486 42.8503 73.208 42.843C77.9303 42.8507 82.5157 41.2576 86.2159 38.3236C89.916 41.2576 94.5015 42.8507 99.2237 42.843C110.811 42.843 120.201 33.4525 120.201 21.8649C120.201 10.2772 110.811 0.886749 99.2237 0.886749ZM30.7541 34.8966C28.0809 36.8467 24.7414 38.0368 21.1793 38.0368C12.2402 38.0368 5.00666 30.804 5.00666 21.8649C5.00666 12.9257 12.2402 5.69224 21.1793 5.69224C24.7414 5.69224 28.0789 6.88303 30.7541 8.83377C27.8066 12.5367 26.2064 17.1321 26.2162 21.8649C26.2184 26.5958 27.8173 31.1875 30.7541 34.8966ZM34.1871 31.4738C32.1256 28.6949 31.0157 25.325 31.0224 21.8649C31.0137 18.4044 32.1238 15.0339 34.1871 12.2559C36.2501 15.0341 37.3601 18.4045 37.3519 21.8649C37.3584 25.3249 36.2485 28.6948 34.1871 31.4738ZM56.7691 34.8966C53.9918 36.9413 50.6315 38.0404 47.1827 38.032C43.7411 38.039 40.3883 36.9398 37.6188 34.8966C40.5558 31.1879 42.1548 26.5963 42.1567 21.8655C42.1665 17.1328 40.5663 12.5374 37.6188 8.83445C40.3881 6.79064 43.741 5.6912 47.1827 5.69838C50.7708 5.69838 54.0857 6.85913 56.7691 8.83445C53.8217 12.5374 52.2214 17.1328 52.2313 21.8655C52.2333 26.5963 53.8322 31.1879 56.7691 34.8966ZM60.2008 31.4738C58.1392 28.6949 57.0293 25.325 57.0361 21.8649C57.0277 18.4045 58.1378 15.0341 60.2008 12.2559C62.2643 15.0339 63.3746 18.4044 63.3662 21.8649C63.3728 25.325 62.2627 28.695 60.2008 31.4738ZM82.7835 34.8966C80.1001 36.8726 76.7851 38.032 73.1978 38.032C69.6104 38.032 66.3166 36.8706 63.6332 34.8966C66.5705 31.1881 68.1695 26.5964 68.1711 21.8655C68.1809 17.1328 66.5807 12.5374 63.6332 8.83445C66.3166 6.85981 69.6104 5.69838 73.1978 5.69838C76.7851 5.69838 80.1001 6.85913 82.7835 8.83445C79.8364 12.5376 78.2362 17.1328 78.2456 21.8655C78.248 26.5962 79.8469 31.1877 82.7835 34.8966ZM86.2166 31.4738C84.155 28.6949 83.0451 25.325 83.0518 21.8649C83.0428 18.4044 84.153 15.0338 86.2166 12.2559C88.2795 15.0341 89.3895 18.4045 89.3813 21.8649C89.3875 25.3249 88.2776 28.6946 86.2166 31.4738ZM99.2237 38.0368C95.6602 38.0368 92.3214 36.8467 89.6489 34.8966C92.5857 31.1878 94.1846 26.5963 94.1868 21.8655C94.1963 17.1328 92.596 12.5376 89.6489 8.83445C92.3241 6.88439 95.6609 5.69292 99.2237 5.69292C108.161 5.69292 115.396 12.9264 115.396 21.8655C115.396 30.8033 108.161 38.0368 99.2237 38.0368Z" fill="#DCE0D9"/>
</svg>
