<svg width="101" height="100" viewBox="0 0 101 100" fill="none" xmlns="http://www.w3.org/2000/svg">
<path d="M50.4005 2.00904C56.8797 2.00904 63.1579 3.28981 69.0846 5.776C74.8104 8.18686 79.9334 11.6525 84.3282 16.0724C88.723 20.4923 92.1886 25.6153 94.6246 31.316C97.1359 37.2427 98.3915 43.5209 98.3915 50.0001C98.3915 56.4793 97.1108 62.7575 94.6246 68.6842C92.2137 74.41 88.7481 79.5331 84.3282 83.9278C79.9083 88.3226 74.7853 91.7882 69.0846 94.2242C63.1579 96.7355 56.8797 97.9912 50.4005 97.9912C43.9213 97.9912 37.6431 96.7104 31.7164 94.2242C25.9906 91.8133 20.8675 88.3477 16.4727 83.9278C12.078 79.5079 8.61236 74.3849 6.17639 68.6842C3.66509 62.7575 2.40944 56.4793 2.40944 50.0001C2.40944 43.5209 3.6902 37.2427 6.17639 31.316C8.58725 25.5902 12.0528 20.4671 16.4727 16.0724C20.8926 11.6776 26.0157 8.21197 31.7164 5.776C37.6431 3.28981 43.9213 2.00904 50.4005 2.00904ZM50.4005 0C22.7761 0 0.400391 22.3757 0.400391 50.0001C0.400391 77.6245 22.7761 100 50.4005 100C78.0248 100 100.401 77.6245 100.401 50.0001C100.401 22.3757 78.0248 0 50.4005 0Z" fill="#DCE0D9"/>
<path fill-rule="evenodd" clip-rule="evenodd" d="M50.3487 21.2715C50.3483 21.2715 50.348 21.2715 50.3476 21.2715C34.5363 21.2715 21.7188 34.0891 21.7188 49.9004C21.7188 49.9841 21.7191 50.0678 21.7198 50.1513H50.3487V21.2715Z" fill="#DCE0D9"/>
<path fill-rule="evenodd" clip-rule="evenodd" d="M78.9765 49.8999H50.3477V78.5293C66.1589 78.5292 78.9765 65.7117 78.9765 49.9004C78.9765 49.9002 78.9765 49.9001 78.9765 49.8999Z" fill="#DCE0D9"/>
<path d="M50.3476 78.5288C66.1589 78.5288 78.9765 65.7112 78.9765 49.8999C78.9765 34.0886 66.1589 21.271 50.3476 21.271C34.5363 21.271 21.7188 34.0886 21.7188 49.8999C21.7188 65.7112 34.5363 78.5288 50.3476 78.5288Z" stroke="#DCE0D9" stroke-width="1.00452"/>
<path fill-rule="evenodd" clip-rule="evenodd" d="M72.0751 28.3286C66.274 22.5526 58.5894 19.3632 50.4025 19.3632C42.2157 19.3632 34.5311 22.5526 28.7299 28.3286C22.9539 34.1297 19.7646 41.8143 19.7646 50.0011C19.7646 58.188 22.9539 65.8977 28.7299 71.6737C34.5311 77.4497 42.2157 80.6391 50.4025 80.6391C58.5894 80.6391 66.2991 77.4748 72.0751 71.6737C77.8511 65.8726 81.0405 58.188 81.0405 50.0011C81.0405 41.8143 77.8511 34.1046 72.0751 28.3286ZM3.94336 50.0011C3.94336 24.3356 24.737 3.54199 50.4025 3.54199C76.0681 3.54199 96.8617 24.3356 96.8617 50.0011C96.8617 75.6667 76.0681 96.4603 50.4025 96.4603C24.737 96.4603 3.94336 75.6667 3.94336 50.0011ZM46.9122 5.24931L43.8986 5.29954L44.0995 17.4794L46.1337 17.4543L45.983 8.03686H46.0081L49.5491 17.3789L51.307 17.3538L54.5214 7.88618H54.5466L54.6972 17.3036L56.7314 17.2785L56.5305 5.09863L53.5671 5.14886L50.4531 14.742H50.428L46.9122 5.24931ZM19.3875 17.6802L15.2188 21.8992L23.9079 30.4628L27.8506 26.4698C30.0606 24.2347 29.935 22.2257 28.5789 20.8947C27.3986 19.7395 26.0174 19.4884 24.7366 20.3171L24.7115 20.292C25.1384 19.1619 24.9626 18.082 24.0837 17.2282C22.6271 15.7968 20.9194 16.1232 19.3875 17.6802ZM22.7778 21.4974L20.3418 23.9836L17.9561 21.623L20.3669 19.1368C21.1957 18.3081 21.9491 18.1825 22.828 19.0363C23.6065 19.7897 23.5061 20.7691 22.7778 21.4974ZM26.821 25.0384L24.159 27.7255L21.4468 25.0635L24.1088 22.3764C25.038 21.4472 26.0425 21.397 26.8963 22.2257C27.7502 23.0795 27.7251 24.1092 26.821 25.0384ZM78.4784 14.2144L79.9349 15.8216L74.4603 23.682L74.4854 23.7071L83.074 19.3123L84.5306 20.9447L79.1815 28.9557L79.2066 28.9808L87.6697 24.4605L89.1263 26.0677L77.8003 31.693L76.3438 30.0858L81.6677 22.0496L81.6426 22.0245L73.0288 26.3942L71.5723 24.7618L78.4784 14.2144Z" fill="#DCE0D9"/>
</svg>
