<svg width="182" height="26" viewBox="0 0 182 26" fill="none" xmlns="http://www.w3.org/2000/svg">
<path opacity="0.8" fill-rule="evenodd" clip-rule="evenodd" d="M136.02 25.0961L156.847 0.903809H167.017L146.153 25.0961H136.02ZM150.229 25.0961L171.056 0.903809H181.002V1.16555L160.399 25.0961H150.229Z" fill="#DCE0D9"/>
<path fill-rule="evenodd" clip-rule="evenodd" d="M44.6698 8.38024H46.6142L46.502 8.41763H48.4464C52.1107 8.52981 54.8029 9.8759 54.8029 11.6333C54.8029 13.3907 52.1481 14.7368 48.4464 14.849H46.5394H44.6324C40.9681 14.6994 38.2759 13.4281 38.2759 11.6333C38.2759 9.8385 40.9681 8.52981 44.6698 8.38024ZM46.5393 16.7559H46.5394H46.689C47.46 16.7559 48.1099 16.7339 48.7043 16.7138C49.2055 16.6968 49.6672 16.6811 50.129 16.6811H50.0916C52.7838 16.6437 55.4386 16.1203 57.9438 15.1107C59.9629 14.1759 61.0847 12.942 61.0847 11.6707C61.0847 9.01589 56.2612 6.84719 50.0542 6.66023C48.8951 6.58545 47.6985 6.58545 46.5394 6.58545C45.3803 6.58545 44.1838 6.62284 43.0246 6.66023C36.855 6.84719 31.9941 9.05329 31.9941 11.6707C31.9941 12.9794 33.1159 14.1759 35.135 15.1107C37.6029 16.1203 40.295 16.6437 42.9872 16.6811H43.062C44.0716 16.7559 45.0811 16.7559 46.5393 16.7559ZM7.72851 8.64146C7.3172 8.64146 7.01807 8.97799 7.01807 9.38929V13.8763C7.01807 14.2876 7.3172 14.6241 7.72851 14.6241H16.7772C19.5068 14.6241 21.6381 13.3154 21.6381 11.6328C21.6381 9.98756 19.5068 8.64146 16.7772 8.64146H7.72851ZM1.67109 16.4189C1.29718 16.4189 0.998047 16.1198 0.998047 15.7458V7.44494C0.998047 7.07102 1.29718 6.77189 1.67109 6.77189H19.3199C21.5259 6.7345 23.6946 7.25798 25.6016 8.26755C27.1721 9.16494 28.1068 10.3615 28.1068 11.5954C28.1068 12.8293 27.2094 14.0258 25.6016 14.9232C23.6573 15.9328 21.4886 16.4563 19.3199 16.4189H1.67109ZM71.8926 8.64154C71.4813 8.64154 71.1821 8.97807 71.1821 9.38937V13.8763C71.1821 14.2877 71.4813 14.6242 71.8926 14.6242H80.9413C83.6709 14.6242 85.8022 13.3155 85.8022 11.6703C85.8022 10.025 83.6709 8.71633 80.9413 8.71633L71.8926 8.64154ZM65.8352 16.419C65.4612 16.419 65.1621 16.1198 65.1621 15.7459V7.44502C65.1621 7.07111 65.4612 6.77197 65.8352 6.77197L83.4839 6.80937C85.69 6.77197 87.8213 7.25806 89.7657 8.26763C91.3361 9.16502 92.2709 10.3616 92.2709 11.5955C92.2709 12.8294 91.3735 14.0259 89.7657 14.9233C87.8213 15.9329 85.6526 16.4564 83.4839 16.3816L65.8352 16.419ZM106.256 16.4565H105.957C99.3758 16.4565 95.8984 14.7365 95.8984 11.633C95.8984 9.0904 100.311 6.95909 105.994 6.80952H107.228H123.493C123.68 6.77213 123.83 6.9217 123.867 7.07126V7.14604V8.30518C123.867 8.49214 123.755 8.6417 123.568 8.6417H123.493H109.285H107.602C106.293 8.67909 102.031 9.0904 102.031 11.5956C102.031 13.353 104.312 14.4374 107.602 14.5495H109.247H116.95C117.361 14.5495 117.698 14.4374 117.698 14.0261V13.0165C117.698 12.6052 117.361 12.4556 116.95 12.4556H109.247C109.06 12.4556 108.911 12.3061 108.911 12.1191V11.1469C108.911 10.96 109.098 10.773 109.285 10.8104H123.157C123.531 10.8104 123.83 11.1095 123.83 11.4835V15.8209C123.83 16.1948 123.531 16.4939 123.157 16.4939L106.256 16.4565ZM128.391 15.7835C128.391 16.12 128.652 16.4192 129.026 16.4192V16.4566H153.293C153.518 16.4566 153.667 16.307 153.667 16.0826V14.9983V14.9609C153.667 14.7739 153.48 14.6244 153.293 14.6244H135.458C134.934 14.6244 134.523 14.4 134.523 13.9139V13.2409C134.523 12.7174 134.934 12.4557 135.458 12.4557H152.097H152.134C152.321 12.4557 152.471 12.2687 152.471 12.0818V11.1844C152.471 10.96 152.321 10.8105 152.097 10.8105H135.495C134.972 10.8105 134.56 10.5861 134.56 10.0626V9.42697V9.2774C134.635 8.8661 135.046 8.56697 135.458 8.64175H152.919C153.106 8.64175 153.293 8.49218 153.293 8.26783V7.18348C153.293 6.99653 153.144 6.80957 152.919 6.80957H129.026C128.69 6.80957 128.391 7.07131 128.391 7.44522V15.7835Z" fill="#DCE0D9"/>
</svg>
