<svg width="161" height="56" viewBox="0 0 161 56" fill="none" xmlns="http://www.w3.org/2000/svg">
<path fill-rule="evenodd" clip-rule="evenodd" d="M0.800781 28.0005C0.800781 12.7719 36.6187 0.430664 80.8035 0.430664C124.984 0.430664 160.801 12.7719 160.801 28.0005C160.801 43.2266 124.984 55.5698 80.8035 55.5698C36.6184 55.5698 0.800781 43.2266 0.800781 28.0005ZM157.991 28.0002C157.991 14.0904 123.436 2.81863 80.8035 2.81863C38.1709 2.81863 3.61405 14.0904 3.61405 28.0002C3.61405 41.91 38.1709 53.1841 80.8035 53.1841C123.436 53.1841 157.991 41.91 157.991 28.0002ZM56.5056 7.43919C57.6544 7.34519 58.7954 7.30097 59.9308 7.29742C65.1512 7.28106 70.2486 8.12774 75.395 8.98257C78.0834 9.42913 80.7852 9.87791 83.525 10.207C90.5162 11.045 97.2188 11.0631 104.246 9.46415C104.76 9.35373 105.179 9.51272 105.411 9.84693C105.436 9.87866 105.458 9.91871 105.48 9.96195C105.479 9.96055 105.479 9.95915 105.478 9.95775C105.576 10.1466 105.622 10.3786 105.605 10.6411C105.536 11.8422 104.598 12.9984 102.283 14.2485C99.6511 15.6779 96.8975 16.1113 94.0219 16.1346C89.2388 16.1739 84.6813 14.9166 80.1207 13.6584C78.0504 13.0872 75.9794 12.5159 73.8865 12.0656C73.8881 12.1137 73.8915 12.1633 73.8949 12.2135C73.9123 12.4664 73.9306 12.7335 73.7253 12.886C70.0124 15.5981 66.656 18.3515 64.4079 22.2189C64.332 22.3084 64.3733 22.3937 64.5043 22.3844C65.1383 22.351 65.7516 22.3233 66.3533 22.2961C67.6037 22.2395 68.8036 22.1853 70.0338 22.0879C70.3517 22.0616 70.3638 21.983 70.3355 21.7524C70.1751 20.4193 70.5677 18.8995 71.7522 17.8537C72.9641 16.7773 74.4826 16.6547 75.4881 17.43C76.6329 18.3128 76.5314 19.9003 75.9053 21.0906C75.2683 22.2987 74.2168 22.9441 73.2065 23.258C73.2065 23.258 72.9956 23.3039 73.0262 23.4942C73.0505 23.6781 73.56 24.0256 73.9866 24.3165C74.2677 24.5082 74.5129 24.6754 74.5596 24.7552C74.673 24.9464 74.6148 25.2431 74.4055 25.4701C74.2589 25.6351 74.0319 25.7906 73.7399 25.7848C73.5099 25.7803 73.3677 25.7037 73.0832 25.5507L73.0589 25.5376C72.4408 25.2062 71.6699 24.6622 71.1559 24.0207C70.9799 23.8038 70.8916 23.7992 70.4533 23.8225C68.4816 23.9353 65.4066 24.2292 63.3234 24.4872C62.8192 24.5493 62.7445 24.6427 62.6405 24.8158C62.5664 24.9368 62.4922 25.058 62.4179 25.1795C59.1614 30.4985 55.687 36.1735 51.8809 40.0011C47.7047 44.199 44.2332 45.3038 40.5486 45.3324C35.9186 45.3653 31.8398 42.5318 31.3721 37.6274C31.1119 34.9098 31.8877 32.4874 33.4405 30.4923C34.8187 28.7144 37.1508 27.2373 39.1248 26.8765C39.7674 26.7599 40.6304 26.8342 40.9869 27.255C41.5468 27.9001 41.3853 28.6083 40.8263 28.891C39.3204 29.6526 37.508 30.9559 36.6116 32.7353C35.8837 34.1879 35.7372 35.9388 36.8481 37.6063C38.7076 40.386 43.8901 40.4625 48.7088 36.0297C49.9019 34.9451 50.9704 33.9028 52.0557 32.6681C54.1781 30.2653 54.8838 29.3899 57.705 25.5149C57.7389 25.4706 57.7479 25.4114 57.7332 25.3829C57.7099 25.3333 57.6707 25.3194 57.5885 25.3144C55.7055 25.3658 54.0632 25.9219 52.4677 27.1032C52.0079 27.4346 51.3469 27.388 51.0572 26.9514C50.7352 26.4579 50.9657 25.8142 51.4965 25.4517C53.8306 23.8442 56.3608 23.433 58.9538 23.0117C59.2127 22.9696 59.4722 22.9274 59.7322 22.884C59.7299 22.884 59.9316 22.8936 60.0952 22.678C60.5931 22.0452 61.0395 21.4387 61.484 20.8348C62.0888 20.013 62.6899 19.1963 63.412 18.3254C64.6745 16.7923 66.3067 15.3848 67.5531 14.3274C69.0555 13.048 70.0922 12.5017 71.0774 11.9827C71.233 11.9007 71.3873 11.8194 71.542 11.736C71.8405 11.5821 71.5036 11.397 71.4132 11.397C70.9477 11.3104 70.4809 11.2219 70.013 11.1332C64.1163 10.0157 58.04 8.86414 52.2144 10.9996C47.8607 12.6088 45.9529 16.0276 46.8707 18.3121C47.523 19.9323 49.6758 20.1958 51.6908 19.2194C53.3648 18.4071 54.913 17.099 56.0113 15.4138C56.6262 14.4785 57.9201 15.1533 57.2213 16.7779C55.3815 21.0598 51.8666 24.4563 47.5851 24.5991C43.9417 24.7163 41.5908 22.0623 41.5984 18.7877C41.612 12.3294 48.8748 8.07516 56.5056 7.43919ZM74.3981 18.6728C74.2737 18.5673 74.1201 18.5129 73.9559 18.5041C73.6822 18.4895 73.3788 18.6024 73.1296 18.8204C72.3354 19.515 72.093 20.5017 72.196 21.2379C72.2484 21.5163 72.3582 21.5697 72.485 21.5464C73.1173 21.4211 73.8105 20.9054 74.2193 20.3088C74.5935 19.7676 74.7684 18.9858 74.3981 18.6728ZM128.266 18.6483C129.003 18.6476 129.733 18.6469 130.365 18.6469C130.61 18.6469 130.726 18.7879 130.616 18.9797C130.432 19.2949 129.289 21.0448 127.731 23.4298C123.831 29.4014 117.33 39.3547 116.769 40.7391C116.52 41.352 116.491 41.8202 116.744 42.1577C117.394 43.0278 118.839 42.5219 119.747 41.8953C121.675 40.5784 123.178 39.0644 124.636 37.5952C125.211 37.0155 125.78 36.4427 126.365 35.8918C126.482 35.804 126.686 35.7703 126.825 35.8869C126.931 35.9843 127.053 36.0918 127.181 36.2039C127.421 36.415 127.681 36.6426 127.881 36.8504C128.025 37.0034 127.97 37.1562 127.895 37.2501C125.878 39.6905 123.645 41.9947 121.511 43.6257C118.187 46.1731 114.875 46.8194 113.233 45.1884C112.621 44.5798 112.287 43.7099 112.245 42.9772C112.226 42.5788 112.02 42.5592 111.828 42.7443C109.87 44.6636 106.465 46.7893 103.367 45.2769C100.778 44.0096 100.179 40.9533 100.664 38.3738C100.672 38.3182 100.616 37.9549 100.301 38.1717C99.7604 38.5541 99.0561 38.9773 98.1789 39.2994C97.1009 39.6978 96.5956 39.8483 95.5959 39.8369C94.3396 39.8291 93.2065 39.2999 92.4073 38.0679C91.9628 37.4016 91.7787 36.3867 91.7351 35.6449C91.7304 35.5625 91.6212 35.4167 91.5029 35.605C89.8792 38.0597 88.3391 40.4529 86.7627 42.9027C86.2859 43.6436 85.8057 44.3897 85.319 45.1442C85.2109 45.2952 85.114 45.3926 84.8979 45.4028C84.5894 45.4028 84.2742 45.4026 83.9537 45.4024C82.9258 45.4019 81.8433 45.4013 80.7539 45.4064C80.4957 45.4064 80.3787 45.2146 80.5132 44.9704C80.7934 44.4353 81.548 43.2649 82.5259 41.7483C84.1203 39.2755 86.3082 35.8822 88.0012 32.8209C88.7542 31.465 88.6025 30.7646 88.1332 30.4641C87.5486 30.089 86.3856 30.6542 85.403 31.3948C83.1542 33.0818 81.2079 35.558 79.9666 37.1374C79.7291 37.4396 79.5174 37.7089 79.3343 37.9336C79.1187 38.1981 78.9071 38.5025 78.6612 38.8563C78.1403 39.6059 77.4654 40.577 76.2725 41.8586C73.5105 44.8272 69.8502 46.5328 66.3219 45.3545C64.3944 44.7124 63.0001 43.1769 62.4676 41.2961C62.3617 40.9306 62.1562 40.8296 61.9564 41.0703C61.3856 41.7733 60.2202 42.8094 59.2456 43.4635C59.1405 43.5387 58.8773 43.6927 58.6503 43.5822C58.446 43.4919 57.7219 42.4797 57.5798 42.1882C57.4741 41.9731 57.568 41.7413 57.6936 41.6303C59.0866 40.4192 59.8473 39.7325 60.454 38.9776C60.9041 38.4162 61.2524 37.7826 61.6592 36.7683C62.5052 34.6558 64.4347 30.7065 68.2823 28.6662C69.7518 27.8874 71.2393 27.328 72.8883 27.1379C73.5995 27.061 74.1828 27.1506 74.391 27.6988C74.4207 27.7834 74.4661 27.9048 74.5176 28.0429C74.6063 28.2803 74.7134 28.5672 74.7916 28.8012C74.867 29.0259 74.812 29.1955 74.5447 29.2975C72.2749 30.1504 70 31.4751 68.4264 33.5596C66.6443 35.9278 66.1614 38.7792 67.3574 40.4192C68.2279 41.6072 69.6354 41.8152 70.9889 41.3905C73.0433 40.749 74.7916 38.8522 75.6909 36.7499C76.6699 34.454 76.8291 31.7358 76.1064 29.3455C75.9875 28.9343 76.0927 28.6139 76.3647 28.3924C76.8099 28.0368 77.3918 27.7438 77.7091 27.584C77.7813 27.5476 77.8399 27.5182 77.88 27.4964C78.348 27.2373 78.9045 27.4271 79.1692 27.8101C79.9171 28.9104 80.324 30.4607 80.3643 32.0608C80.4108 32.3989 80.5565 32.4071 80.7231 32.2328C81.0582 31.8787 81.3876 31.5189 81.7157 31.1606C82.6984 30.0874 83.6687 29.0278 84.7399 28.1761C86.0434 27.1469 87.7158 26.3067 89.2807 26.3431C91.2977 26.3877 92.3071 27.7464 92.237 30.1618C92.2299 30.471 92.4561 30.4496 92.6033 30.2406C93.2067 29.3901 93.6042 28.9661 94.3022 28.3928C95.6951 27.254 97.1245 26.7406 98.6152 26.844C100.45 26.9772 101.917 28.6414 101.617 30.528C101.423 31.744 100.758 32.8152 99.6273 33.3702C98.6689 33.8333 97.5495 33.7543 96.767 33.0604C96.1265 32.4774 95.9184 31.6461 96.0874 30.8099C96.123 30.6359 95.8965 30.4743 95.7072 30.6678C93.9139 32.516 93.7818 34.9065 94.9539 35.9823C96.2491 37.1697 98.1843 36.3743 99.5982 35.4623C101.103 34.4881 102.411 33.3139 103.699 32.1575C104.627 31.3246 105.545 30.5009 106.518 29.7679C108.061 28.6085 109.816 27.5791 111.785 27.3173C112.875 27.1739 113.925 27.2519 114.998 27.6833C116.21 28.1684 117.042 29.1089 117.321 30.0152C117.167 29.5122 116.843 28.9994 116.379 28.5615C116.981 29.0812 117.603 29.7437 117.865 30.0506C117.921 30.1203 117.975 30.1886 118.027 30.2588C118.48 29.568 119.325 28.299 120.289 26.8523C122.419 23.6566 125.126 19.5938 125.45 18.9797C125.599 18.6883 125.763 18.6498 126.081 18.6498C126.753 18.6498 127.513 18.649 128.266 18.6483ZM117.871 30.4992C117.866 30.5069 117.86 30.5145 117.855 30.5219C117.752 30.6666 117.636 30.7206 117.549 30.6901C117.636 30.721 117.752 30.6671 117.856 30.5222C117.861 30.5147 117.866 30.507 117.871 30.4992ZM113.873 30.5407C113.596 30.4086 113.291 30.3468 112.966 30.3496C111.558 30.3617 109.76 31.5904 108.105 33.6083C106.434 35.6409 105.531 37.7094 105.498 39.724C105.486 40.4407 105.761 41.3251 106.4 41.6536C107.838 42.4047 109.577 41.2875 110.83 40.2612C111.66 39.5865 112.346 38.8846 112.954 37.9852C113.05 37.8441 113.142 37.7099 113.231 37.5802C113.755 36.8176 114.174 36.2081 114.624 35.2562L114.624 35.2564C114.528 35.4505 114.438 35.6338 114.347 35.8065C114.287 35.4167 114.214 34.8963 114.187 34.6159C114.19 34.6362 114.194 34.6552 114.202 34.6732C114.176 34.5872 114.18 34.4979 114.23 34.393C114.914 33.0164 115.402 31.2632 113.873 30.5407ZM114.187 34.6159C114.186 34.6092 114.186 34.6023 114.186 34.5952C114.187 34.6031 114.187 34.6054 114.187 34.6101L114.187 34.6159Z" fill="#DCE0D9"/>
</svg>
