<svg width="121" height="76" viewBox="0 0 121 76" fill="none" xmlns="http://www.w3.org/2000/svg">
<path fill-rule="evenodd" clip-rule="evenodd" d="M81.1656 1.22757C86.2692 2.09998 92.1143 3.93205 92.9867 12.6562C93.2048 15.0117 93.2921 18.1088 93.3357 21.4676C93.2604 26.249 92.8927 29.6981 92.6251 32.2076C92.5827 32.6056 92.5427 32.9801 92.5069 33.3325C92.3324 35.0773 91.5909 40.4426 90.6312 43.1908C89.3226 46.9858 88.1448 48.0763 86.749 49.2104C84.4394 51.1218 80.7483 51.7973 79.4591 52.0332C79.3361 52.0557 79.235 52.0742 79.159 52.0894C74.448 52.9618 64.8951 53.0927 60.7075 53.0927C56.4763 53.0927 46.967 52.9182 42.256 52.0894C42.1891 52.076 42.1026 52.0598 41.9988 52.0403C40.7506 51.8063 37.0019 51.1033 34.666 49.2104C33.2702 48.0763 32.0924 46.9858 30.7838 43.1908C29.8242 40.4426 29.0826 35.1209 28.9081 33.3325C28.8691 32.9425 28.8253 32.5284 28.7786 32.0876C28.5121 29.5697 28.1536 26.1821 28.0793 21.4676C28.0357 18.1524 28.0793 15.0554 28.3411 12.6562C29.2135 3.93205 35.0586 2.09998 40.1622 1.22757C42.7358 0.791357 47.316 0.442391 50.2386 0.311529C52.8122 0.137046 58.8318 0.0498047 60.6639 0.0498047C62.496 0.0498047 68.5156 0.137046 71.0892 0.311529C74.0118 0.442391 78.5919 0.791357 81.1656 1.22757ZM87.7523 41.4895C88.6247 38.4797 89.2354 34.2921 89.7588 27.3128C90.0642 23.0816 90.0205 16.2767 89.5407 12.6562C88.8428 7.20361 86.1383 4.4555 80.3368 3.4086C77.6323 2.92878 73.9682 2.57981 70.5221 2.40533C67.774 2.23084 63.1939 2.09998 60.6639 2.1436C58.0903 2.1436 53.5537 2.23084 50.762 2.40533C47.316 2.57981 43.6519 2.92878 40.9474 3.4086C35.1459 4.41188 32.4414 7.15999 31.7871 12.6562C31.3072 16.3204 31.2636 23.1252 31.569 27.3128C32.0488 34.2921 32.7031 38.4797 33.5755 41.4895C34.3607 44.1068 35.3203 45.8952 36.7162 47.1602C38.979 49.2136 42.047 49.6969 43.9864 50.0025C44.0659 50.015 44.1434 50.0272 44.2189 50.0392C48.3193 50.6499 55.2113 50.868 60.6639 50.868C66.0728 50.868 73.0085 50.6499 77.1088 50.0392C77.1844 50.0272 77.2619 50.015 77.3413 50.0025C79.2808 49.6969 82.3488 49.2136 84.6116 47.1602C86.0074 45.8952 86.9671 44.1504 87.7523 41.4895ZM75.6705 4.54245C75.2617 6.38245 74.9191 7.95057 74.6117 9.35742C73.8043 13.0534 73.24 15.6364 72.3554 19.1118C72.1986 19.7271 72.0466 20.337 71.8969 20.9369C70.9222 24.8455 70.0526 28.3327 68.6912 30.1478C67.1209 32.2853 64.9835 32.7215 63.544 32.896C62.8025 32.9832 62.2354 33.0268 60.6214 33.0268C59.0075 33.0268 58.4404 32.9832 57.6989 32.896C56.2594 32.7215 54.122 32.2853 52.5516 30.1478C51.1507 28.28 50.2706 24.6416 49.2917 20.5954L49.2913 20.5938C49.1731 20.105 49.0534 19.6101 48.9311 19.1118C48.0345 15.5574 47.467 12.9668 46.6419 9.20023C46.343 7.83584 46.0103 6.31715 45.616 4.54245C45.616 4.54245 44.1329 4.58607 43.4786 4.62969C42.6258 4.67029 41.9621 4.7487 41.2763 4.82971L41.123 4.84779C41.123 4.84779 41.9955 18.5883 42.388 24.4335C42.7806 30.5404 43.5222 40.8785 44.1765 48.6867C44.1765 48.6867 45.4415 48.9048 47.5353 48.992C49.7163 49.1229 50.7196 49.1229 50.7196 49.1229C50.8641 48.5793 51.0129 48.0031 51.1661 47.4101L51.1662 47.4097C51.9841 44.2437 52.9257 40.5987 53.9911 38.872C55.0062 37.2648 56.5134 37.0519 57.4391 36.9211L57.5244 36.9091C58.9202 36.7346 60.1416 36.691 60.6651 36.691C61.2321 36.691 62.4099 36.691 63.8057 36.9091L63.891 36.9211C64.8167 37.0519 66.3239 37.2648 67.339 38.872C68.5067 40.7645 69.563 44.9617 70.4047 48.3066L70.4051 48.308C70.4751 48.5861 70.5436 48.8584 70.6105 49.1229C70.6105 49.1229 71.5702 49.1229 73.7512 48.992C75.845 48.8612 77.11 48.6867 77.11 48.6867C77.7643 40.8785 78.5059 30.584 78.8985 24.4335C79.291 18.632 80.1635 4.84779 80.1635 4.84779C79.4219 4.76055 78.6804 4.67331 77.8079 4.62969C77.1536 4.58607 75.6705 4.54245 75.6705 4.54245ZM25.8576 68.6654C25.8576 65.3066 28.1258 61.4243 36.9808 61.4243C45.8358 61.4243 48.104 65.3066 48.104 68.709C48.104 72.0678 45.8358 75.95 36.9808 75.95C28.1258 75.95 25.8576 72.0242 25.8576 68.6654ZM32.1389 68.709C32.1389 71.9369 33.5348 73.3764 36.9808 73.3764C40.4268 73.3764 41.8227 71.9369 41.8227 68.709C41.8227 65.4811 40.4268 64.0416 36.9808 64.0416C33.5784 64.0416 32.1389 65.4811 32.1389 68.709ZM63.891 63.7365L65.7231 63.9546C66.5519 64.0419 66.6391 64.7398 66.6391 65.176V71.9809L59.4417 62.4715C59.1364 62.0353 58.8311 61.9045 58.0459 61.9045H48.7111V63.7365L50.5431 63.9546C51.3719 64.0419 51.4592 64.7398 51.4592 65.176V72.2426C51.4592 72.6788 51.3719 73.3767 50.5431 73.464L48.7111 73.6821V75.5141H57.4352V73.6821L55.6031 73.464C54.7743 73.3767 54.6871 72.6788 54.6871 72.2426V65.4377L61.8845 74.9035C62.2335 75.3397 62.4952 75.4705 63.2803 75.4705H63.3676H69.9107V65.1324C69.9107 64.6962 69.9979 63.9983 70.8267 63.911L72.6588 63.6929V61.8608H63.9783L63.891 63.7365ZM14.4273 63.7357L16.2594 63.9538C17.0882 64.041 17.1754 64.739 17.1754 65.1752V67.3126H8.75665V65.1752C8.75665 64.739 8.8439 64.041 9.67269 63.9538L11.5048 63.7357V61.9036H0.599609V63.7357L2.43167 63.9538C3.26046 64.041 3.3477 64.739 3.3477 65.1752V72.2418C3.3477 72.678 3.26046 73.3759 2.43167 73.4631L0.599609 73.6812V75.5133H11.5048V73.6812L9.67269 73.4631C8.84389 73.3759 8.75665 72.678 8.75665 72.2418V70.1043H17.1318V72.2418C17.1318 72.678 17.0446 73.3759 16.2158 73.4631L14.3837 73.6812V75.5133H25.2888V73.6812L23.4568 73.4631C22.628 73.3759 22.5408 72.678 22.5408 72.2418V65.1752C22.5408 64.739 22.628 64.041 23.4568 63.9538L25.2888 63.7357V61.9036H14.3837V63.7357H14.4273ZM87.057 61.9038H73.6219V63.7359L75.2358 63.9104C75.8029 63.9976 76.1955 64.2157 76.1955 65.0009V72.1983C76.1955 72.6345 76.1083 73.3325 75.2795 73.4197L73.4474 73.6378V75.4699H87.057C91.9425 75.4699 95.9556 73.5069 95.9556 68.665C95.9556 63.8231 91.9425 61.9038 87.057 61.9038ZM86.0537 72.8962H81.4736V64.5211H86.0537C88.7582 64.5211 89.6742 65.7861 89.6742 68.7086C89.6742 71.5876 88.7582 72.8962 86.0537 72.8962ZM117.501 72.5488C117.741 72.9258 118.033 73.3853 118.811 73.4631L120.6 73.6376V75.4697H108.822V73.6376L110.349 73.4631C110.96 73.4195 111.657 73.0705 111.09 72.2418L110.48 71.3257H102.105L101.407 72.4599C101.058 72.9833 101.407 73.4195 102.061 73.5068L103.544 73.6376V75.4697H94.8636V73.6376L96.6956 73.4195C97.2191 73.3323 97.4808 72.9833 97.6553 72.678L102.323 65.1316C102.715 64.5209 102.235 64.041 101.886 63.9974L99.4001 63.7357V61.9036H109.695C110.349 61.9036 110.698 62.1217 111.134 62.8197L117.415 72.4162C117.444 72.4587 117.472 72.5031 117.501 72.5488ZM106.118 64.739L103.544 68.9266H108.866L106.118 64.739Z" fill="#DCE0D9"/>
</svg>
