<svg width="101" height="42" viewBox="0 0 101 42" fill="none" xmlns="http://www.w3.org/2000/svg">
<path fill-rule="evenodd" clip-rule="evenodd" d="M25.9492 0.869629H17.7551V22.5412C17.7551 25.3585 15.9049 27.0316 12.91 27.0316C9.91635 27.0316 8.33002 24.8301 8.33002 22.4517V18.577H0.400391V22.5412C0.400391 26.5908 1.63338 33.8191 12.9981 33.8191C24.3615 33.8191 25.9492 26.0638 25.9492 22.3662V0.869629ZM88.4227 29.2343C84.721 29.2343 83.7512 26.8558 83.8325 22.3654C83.9241 17.8702 85.6827 16.0193 88.0646 16.0193C91.9473 16.0193 92.6486 19.0143 92.6486 22.0995C92.6486 25.1826 92.1182 29.2343 88.4227 29.2343ZM76.3438 10.734V41.1301H84.0096V32.7576C84.0096 32.1411 84.6254 32.2326 85.0689 32.7576C85.5118 33.29 87.4488 34.6091 90.7991 34.6091C96.8793 34.6091 100.4 29.3238 100.4 22.0995C100.4 12.7599 94.4987 10.1175 90.7055 10.1175C86.9332 10.1175 85.2403 12.1503 85.1245 12.2894L85.1218 12.2926C84.5874 12.9335 83.9241 13.6117 83.9241 11.967V10.734H76.3438ZM43.0849 19.1061C43.0849 16.9012 41.854 14.7873 39.0347 14.7873C36.3035 14.7873 35.3337 16.7235 35.3337 19.1061H43.0849ZM38.2446 9.85463C44.6794 9.85463 50.3153 12.3206 50.3153 23.6861H35.0753C35.0753 27.2982 36.5714 28.7964 39.2144 28.7964C41.8581 28.7964 42.7384 26.6804 42.7384 26.6804H50.2292C50.2292 29.9412 45.7354 34.3462 38.9499 34.2587C31.1993 34.2587 27.4102 28.5319 27.4102 22.6287C27.4102 16.7235 30.7558 9.85463 38.2446 9.85463ZM63.3986 14.7863C66.2179 14.7863 67.4503 16.9003 67.4503 19.1051H59.697C59.697 16.7226 60.6688 14.7863 63.3986 14.7863ZM74.6786 23.6851C74.6786 12.3196 69.0441 9.85365 62.6099 9.85365C55.1231 9.85365 51.7734 16.7226 51.7734 22.6278C51.7734 28.5309 55.5626 34.2577 63.3172 34.2577C70.1007 34.3452 74.5952 29.9402 74.5952 26.6794H67.1044C67.1044 26.6794 66.2227 28.7954 63.5817 28.7954C60.9367 28.7954 59.4392 27.2972 59.4392 23.6851H74.6786ZM95.3812 37.4868C95.3812 36.2829 96.3612 35.305 97.5691 35.305C98.7729 35.305 99.7509 36.2829 99.7509 37.4868C99.7509 38.6885 98.7729 39.6726 97.5691 39.6726C96.3612 39.6726 95.3812 38.6885 95.3812 37.4868ZM95.1289 37.4868C95.1289 38.8337 96.2195 39.927 97.5691 39.927C98.9099 39.927 100.007 38.8337 100.007 37.4868C100.007 36.1398 98.9099 35.0466 97.5691 35.0466C96.2195 35.0466 95.1289 36.1398 95.1289 37.4868ZM98.0404 37.5382L98.547 38.7346H98.2113L97.7284 37.6142H96.9932V38.7346H96.6914V36.1479H97.7087C98.1896 36.1479 98.5212 36.4415 98.5212 36.8729C98.5212 37.0438 98.4514 37.2323 98.3401 37.3517C98.2547 37.4433 98.2011 37.4826 98.0404 37.5382ZM96.9851 36.4293V37.3517H97.6606C97.9909 37.3517 98.193 37.1652 98.193 36.8647C98.193 36.6002 98.0024 36.4293 97.7026 36.4293H96.9851Z" fill="#DCE0D9"/>
</svg>
