<svg width="121" height="102" viewBox="0 0 121 102" fill="none" xmlns="http://www.w3.org/2000/svg">
<path fill-rule="evenodd" clip-rule="evenodd" d="M17.4151 36.0593C23.6532 17.845 40.8437 5.60689 60.2247 5.60689C79.6057 5.60689 96.82 17.845 103.034 36.0593L103.082 36.2021H116.725V34.5593L111.058 33.8926C107.576 33.4899 106.828 31.9558 105.882 30.0174L105.868 29.9878L105.63 29.5116C97.4391 12.0831 79.6057 0.797363 60.2247 0.797363C40.8199 0.797363 23.0104 12.0831 14.8199 29.5593L14.5818 30.0355L14.5674 30.065C13.6219 32.0034 12.8736 33.5375 9.39129 33.9402L3.72461 34.6069V36.2497H17.3437L17.4151 36.0593ZM27.5113 43.9878H24.416V57.964H27.5113V43.9878ZM46.2257 55.0354C46.3685 55.0354 46.7495 55.0354 46.8447 55.0116C47.6542 54.8687 47.9876 54.2497 47.9876 53.6782C47.9876 53.083 47.678 52.4163 46.7733 52.2973C46.7018 52.2735 46.3447 52.2735 46.2018 52.2735H38.2495C37.9875 52.2735 37.3923 52.2735 36.9637 52.2259C34.6066 51.8925 33.5352 49.8925 33.5352 48.1782C33.5352 46.083 34.9637 44.4402 37.0114 44.1544C37.3209 44.1068 37.7018 44.083 38.2018 44.083H50.178V46.8925H38.3923C37.9399 46.8925 37.7256 46.9163 37.5352 46.964C36.8685 47.1544 36.6304 47.7259 36.6304 48.1544C36.6304 48.6306 36.8685 49.2021 37.5114 49.3687C37.6542 49.4163 38.059 49.4401 38.4161 49.4401H46.5828C46.7495 49.4401 47.1304 49.4401 47.5828 49.4878C49.8923 49.7021 51.1066 51.7497 51.1066 53.6544C51.1066 55.5116 49.9399 57.6306 47.3923 57.8687C47.2495 57.8925 46.5114 57.8925 46.4161 57.8925H33.9161V55.0354H46.2257ZM69.487 55.0354C69.6537 55.0354 70.0346 55.0354 70.1299 55.0116C70.9156 54.8687 71.2727 54.2497 71.2727 53.6782C71.2727 53.083 70.9632 52.4163 70.0584 52.2973C69.987 52.2735 69.6299 52.2735 69.487 52.2735H61.5346C61.2727 52.2735 60.6775 52.2735 60.2489 52.2259C57.8917 51.8925 56.8203 49.8925 56.8203 48.1782C56.8203 46.083 58.2489 44.4402 60.2965 44.1544C60.606 44.1068 60.987 44.083 61.487 44.083H73.4632V46.8925H61.6775C61.2251 46.8925 61.0108 46.9163 60.8203 46.964C60.1537 47.1544 59.9156 47.7259 59.9156 48.1544C59.9156 48.6306 60.1537 49.2021 60.7965 49.3687C60.9394 49.4163 61.3441 49.4401 61.7013 49.4401H69.868C70.0346 49.4401 70.4156 49.4401 70.868 49.4878C73.1775 49.7021 74.3918 51.7497 74.3918 53.6544C74.3918 55.5116 73.2251 57.6306 70.6775 57.8687C70.5346 57.8925 69.7965 57.8925 69.7013 57.8925H57.2013V55.0354H69.487ZM17.5822 43.9879V57.9641H13.6774L3.29642 47.4879V57.9641H0.201172V43.9879H4.17737L14.4869 54.4165V43.9879H17.5822ZM117.129 43.9878V54.4164L106.82 43.9878H102.844V57.964H105.939V47.4878L116.296 57.964H120.201V43.9878H117.129ZM78.0098 57.964L86.7241 43.9878H90.0574L98.7717 57.964H95.0336L93.486 55.464H83.3193L81.7717 57.964H78.0098ZM84.9145 52.8211H91.8907L88.4146 47.2021L84.9145 52.8211ZM103.034 65.9167L103.082 65.7738H116.748V67.4167L111.082 68.0833C107.599 68.4861 106.851 70.0201 105.906 71.9585L105.891 71.9881L105.653 72.4643C97.4625 89.9167 79.6291 101.202 60.2481 101.202C40.8672 101.202 23.0338 89.9167 14.8433 72.4405L14.6052 71.9643L14.5908 71.9347C13.6453 69.9963 12.897 68.4622 9.41472 68.0595L3.74805 67.3929V65.75H17.3671L17.4147 65.8929C23.629 84.1071 40.8434 96.3452 60.2243 96.3452C79.6053 96.3452 96.7958 84.131 103.034 65.9167Z" fill="#DCE0D9"/>
</svg>
