<svg width="120" height="92" viewBox="0 0 120 92" fill="none" xmlns="http://www.w3.org/2000/svg">
<path fill-rule="evenodd" clip-rule="evenodd" d="M57.1294 0.990234C77.4739 0.990234 96.4182 7.29653 106.57 17.4488C111.6 22.4787 114.259 28.2556 114.259 34.1549C114.259 40.0534 111.6 45.8296 106.57 50.8602C96.4182 61.0118 77.4739 67.3188 57.1294 67.3188C36.7856 67.3188 17.8405 61.0118 7.68899 50.8602C2.65838 45.8296 0 40.0534 0 34.1549C0 25.1247 6.06236 16.7054 17.0701 10.4471C27.7961 4.34835 42.023 0.990234 57.1294 0.990234ZM57.1294 4.15758C37.5945 4.15758 19.5086 10.1085 9.9287 19.6885C5.50535 24.1118 3.16734 29.1141 3.16734 34.1549C3.16734 39.195 5.50535 44.1972 9.9287 48.6205C19.5086 58.1997 37.5945 64.1514 57.1294 64.1514C86.8842 64.1514 111.091 50.695 111.091 34.1549C111.091 29.1141 108.753 24.1118 104.331 19.6885C94.7508 10.1085 76.6642 4.15758 57.1294 4.15758Z" fill="#DCE0D9"/>
<path fill-rule="evenodd" clip-rule="evenodd" d="M48.1272 45.0618L48.149 45.1163L50.1754 50.9872C50.2427 51.1827 50.4469 51.3724 50.6526 51.4407L50.7295 51.4605L61.0769 53.2866C61.2854 53.3237 61.3037 53.38 61.133 53.4189L61.0761 53.43L50.7302 55.1688C50.5263 55.2031 50.3052 55.3738 50.2039 55.5652L50.1717 55.6377L48.1527 61.3237C48.0818 61.5229 47.9683 61.5416 47.888 61.3792L47.865 61.3251L45.7622 55.6355C45.6904 55.442 45.4822 55.2548 45.2757 55.189L45.1987 55.1703L34.6642 53.4293C34.4556 53.3942 34.4367 53.3387 34.6073 53.2988L34.6642 53.2873L45.1987 51.4597C45.4025 51.4241 45.6242 51.2528 45.7262 51.0617L45.7586 50.9894L47.8687 45.1149C47.9395 44.9156 48.0507 44.8981 48.1272 45.0618ZM77.5143 42.4697L77.5361 42.5242L79.5618 48.3958C79.6291 48.5906 79.8339 48.7808 80.0396 48.8488L80.1166 48.8683L90.464 50.6945C90.6718 50.7316 90.6907 50.7879 90.5201 50.8268L90.4632 50.8379L80.1166 52.5767C79.9127 52.611 79.6916 52.7816 79.5907 52.9731L79.5588 53.0456L77.5398 58.7315C77.4689 58.9308 77.3554 58.9495 77.2746 58.7871L77.2514 58.733L75.1486 53.0434C75.0774 52.8499 74.8687 52.6627 74.6621 52.5969L74.585 52.5781L64.0513 50.8372C63.8427 50.8021 63.8238 50.7466 63.9938 50.7072L64.0505 50.6959L74.5858 48.8669C74.7896 48.8319 75.0113 48.6606 75.1133 48.4696L75.1457 48.3973L77.2551 42.5227C77.3265 42.3235 77.4378 42.306 77.5143 42.4697ZM36.7656 8.94479L36.7968 9.0268L41.3505 22.2226C41.5095 22.6841 42.0085 23.1315 42.4929 23.2631L42.5963 23.2864L65.8534 27.3908C66.3395 27.4768 66.3659 27.6108 65.9331 27.6984L65.8519 27.7134L42.5978 31.622C42.1166 31.7028 41.5924 32.1205 41.3825 32.5766L41.3425 32.6748L36.8048 45.4542C36.6404 45.9174 36.3727 45.9466 36.1906 45.5399L36.1575 45.4585L31.4313 32.6705C31.2627 32.2131 30.7549 31.7722 30.2688 31.6462L30.1651 31.6242L6.48865 27.7105C6.00178 27.63 5.97408 27.4983 6.40617 27.4084L6.4872 27.393L30.1658 23.2835C30.6469 23.2006 31.1712 22.7802 31.3828 22.325L31.4233 22.227L36.1655 9.02316C36.3321 8.5599 36.5934 8.53459 36.7656 8.94479ZM67.6147 29.3765L67.6365 29.431L69.6629 35.3019C69.7302 35.4974 69.935 35.6877 70.1403 35.7557L70.217 35.7752L80.5651 37.6013C80.773 37.6377 80.7919 37.6946 80.6213 37.7336L80.5644 37.7448L70.2177 39.4835C70.0139 39.5178 69.7927 39.6885 69.6914 39.8799L69.6593 39.9525L67.6402 45.6377C67.57 45.8369 67.4565 45.8562 67.3757 45.694L67.3526 45.6398L65.2497 39.9503C65.1779 39.7567 64.9697 39.5696 64.7632 39.5038L64.6862 39.485L54.1524 37.744C53.9439 37.7096 53.9243 37.6535 54.0948 37.6141L54.1517 37.6028L64.6869 35.7745C64.8908 35.7389 65.1119 35.5675 65.2138 35.3764L65.2461 35.3041L67.3562 29.4289C67.4277 29.2303 67.5383 29.2128 67.6147 29.3765ZM95.8637 29.4289C95.9424 29.2104 96.0683 29.2112 96.1441 29.431L98.1704 35.3019C98.2462 35.5218 98.4959 35.7352 98.7245 35.7752L109.072 37.6013C109.301 37.6414 109.301 37.7062 109.071 37.7448L98.7253 39.4835C98.4959 39.5221 98.2447 39.7333 98.1668 39.9525L96.1477 45.6377C96.0698 45.8568 95.9402 45.8583 95.8601 45.6398L93.7573 39.9503C93.6764 39.7326 93.4231 39.5229 93.1937 39.485L82.6599 37.744C82.4298 37.7062 82.4298 37.6421 82.6592 37.6028L93.1944 35.7745C93.4231 35.7344 93.675 35.5225 93.7536 35.3041L95.8637 29.4289ZM87.4699 12.6412C87.5486 12.4228 87.6745 12.4235 87.7502 12.6434L89.7766 18.5143C89.8523 18.7342 90.1021 18.9475 90.3307 18.9876L100.678 20.8137C100.907 20.8545 100.907 20.9185 100.678 20.9571L90.3314 22.6959C90.1021 22.7345 89.8509 22.9456 89.773 23.1648L87.7539 28.8507C87.676 29.0699 87.5464 29.0706 87.4663 28.8522L85.3634 23.1626C85.2826 22.9442 85.0292 22.7352 84.7999 22.6973L74.2654 20.9564C74.036 20.9178 74.036 20.8545 74.2654 20.8151L84.7999 18.9861C85.0292 18.9468 85.2812 18.7349 85.3598 18.5165L87.4699 12.6412Z" fill="#DCE0D9"/>
<path fill-rule="evenodd" clip-rule="evenodd" d="M0.962891 86.1985H5.32217C5.34183 87.7108 5.95054 87.8288 7.20801 87.8288H12.5488C13.4721 87.8288 14.4143 87.7305 14.4143 86.631C14.4143 85.3932 13.9038 85.3146 8.28782 85.3146C1.72888 85.3146 0.98255 84.5296 0.98255 81.0339C0.98255 78.4614 1.21846 76.478 6.71653 76.478H12.8044C17.8313 76.478 18.3024 78.1862 18.3024 80.6808V81.1322H13.9432C13.9432 80.0917 13.8252 79.6592 11.8221 79.6592H6.99176C6.00952 79.6592 5.34183 79.9934 5.34183 80.7594C5.34183 81.9965 5.87263 82.0358 10.5457 82.0161C17.3209 81.9965 18.8922 82.4086 18.8922 86.5524C18.8922 90.3816 17.5962 91.01 11.8025 91.01H6.52066C2.55384 91.01 0.962891 90.2636 0.962891 87.1807V86.1985Z" fill="#DCE0D9"/>
<path fill-rule="evenodd" clip-rule="evenodd" d="M19.7988 76.6353H24.1581V84.8434C24.1581 86.6506 24.8061 87.3569 26.593 87.3569H30.9136C32.7005 87.3569 33.3485 86.6506 33.3485 84.8434V76.6353H37.7078V85.7863C37.7078 89.3206 35.8816 91.0099 31.8755 91.0099H25.6311C21.625 91.0099 19.7988 89.3206 19.7988 85.7863V76.6353Z" fill="#DCE0D9"/>
<path fill-rule="evenodd" clip-rule="evenodd" d="M51.0985 76.6353C54.5746 76.6353 56.2639 77.5774 56.2639 80.3662C56.2639 82.801 55.3799 83.2728 54.1625 83.626V83.685C56.0673 83.9209 56.7743 84.9417 56.7743 87.0824C56.7743 90.2046 54.9285 90.8526 52.4339 90.8526H38.5508V76.6353H51.0985ZM50.7257 85.2169H42.9101V87.4355H50.7257C51.6687 87.4355 52.297 87.22 52.297 86.395C52.297 85.4325 51.6687 85.2169 50.7257 85.2169ZM50.6275 80.0523H42.9101V82.2709H50.6275C51.4328 82.2709 51.9039 81.9768 51.9039 81.1715C51.9039 80.3465 51.4328 80.0523 50.6275 80.0523Z" fill="#DCE0D9"/>
<path fill-rule="evenodd" clip-rule="evenodd" d="M69.4411 76.6353L77.2568 90.8526H72.406L71.051 88.3391H62.2145L60.9381 90.8526H56.0684L63.7654 76.6353H69.4411ZM66.5934 79.9344L63.844 85.2759H69.4214L66.5934 79.9344Z" fill="#DCE0D9"/>
<path fill-rule="evenodd" clip-rule="evenodd" d="M91.0803 76.6353C94.4384 76.6353 95.342 78.3041 95.342 80.8569V81.7605C95.342 83.6653 94.9102 84.7844 92.9072 85.2563V85.2956C94.2032 85.5308 95.283 86.1002 95.283 88.4374V90.8526H90.9238V89.1444C90.9238 87.6518 90.4913 87.161 89.1369 87.161H82.2831V90.8526H77.9238V76.6353H91.0803ZM89.0969 80.1703H82.2831V83.626H89.4901C90.6682 83.626 91.1 83.1549 91.1 82.1333V81.6622C91.1 80.4055 90.4723 80.1703 89.0969 80.1703Z" fill="#DCE0D9"/>
<path fill-rule="evenodd" clip-rule="evenodd" d="M96.1855 76.6353H100.545V84.8434C100.545 86.6506 101.193 87.3569 102.98 87.3569H107.3C109.087 87.3569 109.735 86.6506 109.735 84.8434V76.6353H114.094V85.7863C114.094 89.3206 112.268 91.0099 108.262 91.0099H102.018C98.0117 91.0099 96.1855 89.3206 96.1855 85.7863V76.6353Z" fill="#DCE0D9"/>
<path fill-rule="evenodd" clip-rule="evenodd" d="M117.343 85.5308C118.814 85.5308 119.999 86.7227 119.999 88.1862C119.999 89.6636 118.814 90.8417 117.343 90.8417C115.866 90.8417 114.674 89.6636 114.674 88.1862C114.674 86.7227 115.866 85.5308 117.343 85.5308ZM117.343 85.9494C116.102 85.9494 115.106 86.9528 115.106 88.1724C115.106 89.4197 116.102 90.4238 117.343 90.4238C118.577 90.4238 119.566 89.4197 119.566 88.1724C119.566 86.9528 118.577 85.9494 117.343 85.9494Z" fill="#DCE0D9"/>
<path fill-rule="evenodd" clip-rule="evenodd" d="M117.652 86.7017C118.188 86.7017 118.711 86.848 118.711 87.4895C118.711 88.0749 118.313 88.3188 117.784 88.3327L118.669 89.6775H118.202L117.352 88.3749H116.773V89.6775H116.355V86.7017H117.652ZM117.568 87.057H116.773V88.0188H117.554C118.153 88.0188 118.293 87.7749 118.293 87.4822C118.293 87.0919 117.882 87.057 117.568 87.057Z" fill="#DCE0D9"/>
</svg>
