<svg width="161" height="22" viewBox="0 0 161 22" fill="none" xmlns="http://www.w3.org/2000/svg">
<path d="M110.735 0.596922L106.681 0.607449V21.4129H125.276C127.31 20.5499 128.399 19.0579 128.82 17.316H110.725L110.735 0.596922ZM141.079 4.75433H156.591C158.746 4.32807 160.351 2.42566 160.801 0.586397H136.867C137.314 2.42566 138.943 4.32807 141.079 4.75433ZM90.8457 4.69645C93.0007 4.0702 94.8163 2.42566 95.2583 0.602184H72.4978V12.8955H91.1272V17.2108L76.5157 17.2239C74.2239 17.8607 72.2873 19.3974 71.3164 21.4287L72.4978 21.4077H95.132V8.80913H76.5157V4.69645H90.8457ZM137.493 21.4077H141.527V13.0323H156.212V21.4077H160.243V8.84596L137.493 8.82491V21.4077ZM41.1488 4.74118H56.6575C58.8152 4.31228 60.4176 2.40987 60.8675 0.57061H36.9361C37.3834 2.40987 39.0095 4.31228 41.1488 4.74118ZM0.800781 0.617973C1.26652 2.43881 2.84265 4.29386 5.00293 4.76223H11.5311L11.8627 4.89379V21.3656H15.9411V4.89379L16.3095 4.76223H22.8456C25.0269 4.19914 26.5689 2.43881 27.0293 0.617973V0.578505H0.800781V0.617973ZM41.1488 21.4103H56.6575C58.8152 20.9788 60.4176 19.0816 60.8675 17.2397H36.9361C37.3834 19.0816 39.0095 20.9788 41.1488 21.4103ZM41.1488 12.9639H56.6575C58.8152 12.5376 60.4176 10.6352 60.8675 8.79597H36.9361C37.3834 10.6352 39.0095 12.5376 41.1488 12.9639Z" fill="#DCE0D9"/>
</svg>
