<svg width="121" height="88" viewBox="0 0 121 88" fill="none" xmlns="http://www.w3.org/2000/svg">
<path fill-rule="evenodd" clip-rule="evenodd" d="M57.6017 55.2146C52.9583 52.3283 49.5375 42.3677 49.5375 30.5332C49.5375 30.0989 49.541 29.6709 49.5501 29.2429L49.5558 29.2492C36.6407 27.2349 27.3093 21.7166 27.0703 15.1911L27.0324 15.2663C23.8724 19.1636 22.0686 23.6695 22.0686 28.4708C22.0686 42.5989 37.6963 54.1751 57.5182 55.1989L57.6017 55.2146ZM16.0977 29.5017C16.0977 13.6933 35.9213 0.875977 60.3768 0.875977C84.8316 0.875977 104.656 13.6933 104.656 29.5017C104.656 45.3101 84.8313 58.1277 60.3768 58.1277C35.9213 58.1277 16.0977 45.3097 16.0977 29.5017ZM60.3768 5.00725C65.0978 5.00725 69.1134 12.114 70.601 22.03L70.6066 22.015C79.791 20.5963 86.2216 17.3234 86.2216 13.515C86.2216 8.40337 74.6492 4.26444 60.3768 4.26444C46.1034 4.26444 34.532 8.40372 34.532 13.515C34.532 17.3234 40.9616 20.5963 50.1471 22.015L50.1527 22.03C51.6402 12.1143 55.6569 5.00725 60.3768 5.00725ZM63.2347 55.1986C83.0566 54.1751 98.6864 42.5986 98.6864 28.4705C98.6864 23.6695 96.8806 19.1636 93.7208 15.266L93.6822 15.1907C93.4433 21.7162 84.1143 27.2346 71.1979 29.2488L71.2035 29.2426C71.2123 29.6706 71.2169 30.0986 71.2169 30.5328C71.2169 42.3674 67.7936 52.328 63.153 55.2143L63.2347 55.1986ZM60.3768 22.7669C62.4918 22.7669 64.5479 22.6774 66.5152 22.5054L66.5117 22.5085C65.5326 16.1519 63.1547 11.6658 60.3761 11.6658C57.5975 11.6658 55.22 16.1519 54.2395 22.5085L54.236 22.5054C56.2033 22.6774 58.2601 22.7669 60.3751 22.7669H60.3768ZM60.3768 46.3064C63.931 46.3064 66.8303 38.9664 66.9851 29.7601L67.004 29.7667C64.8616 29.9634 62.6455 30.0662 60.3772 30.0662C58.1067 30.0662 55.8927 29.9634 53.7503 29.7667L53.7703 29.7601C53.9226 38.966 56.8213 46.3064 60.3768 46.3064Z" fill="#DCE0D9"/>
<path fill-rule="evenodd" clip-rule="evenodd" d="M60.5078 76.5045C60.5078 70.6395 65.2634 65.8848 71.127 65.8848C76.9937 65.8848 81.7486 70.6393 81.7486 76.5045C81.7486 82.3701 76.9937 87.1242 71.127 87.1242C65.2634 87.1242 60.5078 82.3701 60.5078 76.5045ZM71.127 83.23C74.4028 83.23 77.0581 80.2186 77.0581 76.5045C77.0581 72.7905 74.4028 69.7787 71.127 69.7787C67.8536 69.7787 65.1988 72.7905 65.1988 76.5045C65.1988 80.2184 67.8536 83.23 71.127 83.23Z" fill="#DCE0D9"/>
<path fill-rule="evenodd" clip-rule="evenodd" d="M93.7991 86.6422H89.3248V70.3097H89.3395H83.082V66.6172H100.041V70.3097H93.8138H93.7991V86.6422Z" fill="#DCE0D9"/>
<path fill-rule="evenodd" clip-rule="evenodd" d="M105.454 82.1363L105.45 82.1406L103.733 86.6419H98.5078L106.769 66.6167H109.555H112.338L120.6 86.6419H115.374L113.657 82.1406L113.653 82.1363H109.555H105.454ZM109.555 78.7566H112.37L112.368 78.7574L109.574 71.4281H109.535L106.739 78.7574L106.737 78.7566H109.554H109.555Z" fill="#DCE0D9"/>
<path fill-rule="evenodd" clip-rule="evenodd" d="M11.317 86.6422H6.84239V70.3097H6.85761H0.599609V66.6172H17.5591V70.3097H11.3326H11.317V86.6422Z" fill="#DCE0D9"/>
<path fill-rule="evenodd" clip-rule="evenodd" d="M18.7031 76.5045C18.7031 70.6395 23.4585 65.8848 29.3242 65.8848C35.1895 65.8848 39.9444 70.6393 39.9444 76.5045C39.9444 82.3701 35.1895 87.1242 29.3242 87.1242C23.4585 87.1242 18.7031 82.3701 18.7031 76.5045ZM29.3242 83.23C32.5983 83.23 35.2537 80.2186 35.2537 76.5045C35.2537 72.7905 32.5985 69.7787 29.3242 69.7787C26.0496 69.7787 23.3941 72.7905 23.3941 76.5045C23.3941 80.2184 26.0496 83.23 29.3242 83.23Z" fill="#DCE0D9"/>
<path fill-rule="evenodd" clip-rule="evenodd" d="M50.2263 86.6422H52.4951V79.132V79.0384L60.3012 66.6172H55.0767L50.2263 75.0342L45.3766 66.6172H40.1504L47.9573 79.0384V79.132V86.6422H50.2263Z" fill="#DCE0D9"/>
</svg>
