<svg width="53" height="36" viewBox="0 0 53 36" fill="none" xmlns="http://www.w3.org/2000/svg">
<rect width="52.5" height="36" rx="4.5" fill="#1F72CD"/>
<path fill-rule="evenodd" clip-rule="evenodd" d="M9.41201 12.75L4.5 23.6201H10.3804L11.1094 21.887H12.7757L13.5047 23.6201H19.9773V22.2973L20.554 23.6201H23.9022L24.479 22.2694V23.6201H37.9403L39.5771 21.932L41.1097 23.6201L48.0238 23.6341L43.0962 18.2154L48.0238 12.75H41.217L39.6236 14.4069L38.1392 12.75H23.4951L22.2376 15.5557L20.9506 12.75H15.0825V14.0278L14.4297 12.75H9.41201ZM29.5137 14.2936H37.2438L39.6081 16.8474L42.0486 14.2936H44.4129L40.8206 18.2139L44.4129 22.089H41.9413L39.5771 19.5055L37.1241 22.089H29.5137V14.2936ZM31.4224 17.3324V15.9085V15.9071H36.2457L38.3504 18.1843L36.1525 20.4739H31.4224V18.9194H35.6395V17.3324H31.4224ZM10.5491 14.2936H13.4155L16.6736 21.6647V14.2936H19.8136L22.3302 19.5786L24.6494 14.2936H27.7737V22.0936H25.8727L25.8571 15.9815L23.0856 22.0936H21.385L18.5979 15.9815V22.0936H14.687L13.9455 20.3449H9.93983L9.19992 22.0921H7.10449L10.5491 14.2936ZM10.6245 18.7285L11.9442 15.6134L13.2624 18.7285H10.6245Z" fill="white"/>
</svg>
