<svg width="73" height="30" viewBox="0 0 73 30" fill="none" xmlns="http://www.w3.org/2000/svg">
<path d="M60.6702 29.9821C64.0381 29.9821 65.6233 28.6971 67.0079 24.8019L73.0737 7.78893H69.5617L65.4941 20.9512H65.4228L61.3551 7.80676H57.7435L63.5954 23.9997L63.282 24.9846C63.0606 26.3944 61.7949 27.4002 60.3701 27.2962C60.0983 27.2962 59.5709 27.268 59.3569 27.2397V29.9138C59.7922 29.9732 60.232 30.0014 60.6702 29.9999V29.9821ZM48.9665 21.4623C47.1243 21.4623 45.9551 20.5709 45.9551 19.222C45.9551 17.8241 47.0827 17.01 49.2383 16.8807L53.0772 16.6386V17.8954C52.9925 19.9663 51.2439 21.5781 49.173 21.4935C49.1031 21.4905 49.0348 21.4846 48.9665 21.4786V21.4623ZM48.0394 24.1022C50.1297 24.1586 52.0848 23.0697 53.1351 21.2617H53.2064V23.9358H56.4035V12.8607C56.4035 9.64889 53.8349 7.57947 49.8801 7.57947C46.2121 7.57947 43.4994 9.67711 43.3998 12.5606H46.5122C46.8836 11.0944 48.2771 10.1272 49.7806 10.2907C51.8931 10.2907 53.0772 11.2756 53.0772 13.088V14.3151L48.7689 14.5721C44.7577 14.8143 42.5887 16.4558 42.5887 19.3111C42.5857 22.2066 44.826 24.1185 48.0379 24.1185L48.0394 24.1022ZM29.5122 4.59195H33.4937C36.4917 4.59195 38.2046 6.19044 38.2046 9.00266C38.2046 11.8149 36.4917 13.4267 33.4803 13.4267H29.5122V4.59195ZM26.0581 1.6802V23.9313H29.5122V16.3459H34.2944C38.1897 16.5554 41.516 13.5679 41.7255 9.67266C41.7374 9.45131 41.7389 9.23144 41.73 9.01009C41.9142 5.15796 38.9415 1.8867 35.0892 1.701C34.8619 1.6906 34.6361 1.69208 34.4088 1.70248L26.0581 1.6802ZM14.5935 5.83241C12.6087 5.71802 10.9106 6.95998 9.96876 6.95998C9.02687 6.95998 7.57095 5.89035 6.00065 5.92006C3.92077 5.97355 2.02511 7.12488 1.01934 8.94621C-1.12145 12.629 0.46223 18.0811 2.53171 21.0775C3.54491 22.5631 4.76015 24.1898 6.3572 24.1319C7.86957 24.0754 8.46976 23.1469 10.2971 23.1469C12.1244 23.1469 12.6667 24.1319 14.2652 24.1022C15.9202 24.0739 16.9631 22.6166 17.9793 21.131C18.6953 20.0792 19.2524 18.9279 19.6342 17.7141C17.6836 16.8614 16.4193 14.9405 16.4089 12.8117C16.4387 10.9339 17.4221 9.20173 19.0207 8.21678C18.0015 6.76982 16.3659 5.88144 14.5965 5.81904L14.5935 5.83241ZM13.3545 3.86698C12.4854 4.96186 11.1558 5.59026 9.7578 5.56501C9.66866 4.20124 10.1322 2.85976 11.0429 1.84064C11.9491 0.788847 13.2267 0.129246 14.6084 0C14.7064 1.40239 14.2563 2.78696 13.3515 3.86253" fill="white"/>
</svg>
