<svg width="53" height="36" viewBox="0 0 53 36" fill="none" xmlns="http://www.w3.org/2000/svg">
<rect x="0.5" width="52.5" height="36" rx="4.5" fill="white"/>
<path d="M22.6016 35.25L52.2266 26.625V31.5C52.2266 33.5711 50.5476 35.25 48.4766 35.25H22.6016Z" fill="#FD6020"/>
<path fill-rule="evenodd" clip-rule="evenodd" d="M46.6027 14.4165C48.2326 14.4165 49.129 15.1418 49.129 16.5119C49.2105 17.5595 48.477 18.446 47.4991 18.6072L49.6994 21.5891H47.9881L46.1138 18.6878H45.9508V21.5891H44.5654V14.4165H46.6027ZM45.9512 17.7207H46.3586C47.255 17.7207 47.6625 17.3178 47.6625 16.5925C47.6625 15.9478 47.255 15.5448 46.3586 15.5448H45.9512V17.7207ZM39.7588 21.5888H43.6704V20.38H41.1441V18.4458H43.5889V17.2369H41.1441V15.6251H43.6704V14.4163H39.7588V21.5888ZM35.6834 19.2517L33.8091 14.4163H32.3423L35.3575 21.75H36.0909L39.1061 14.4163H37.6392L35.6834 19.2517ZM19.1411 18.0428C19.1411 20.0576 20.7709 21.75 22.8082 21.75C23.4602 21.75 24.0306 21.5888 24.6011 21.3471V19.7352C24.1936 20.2188 23.6232 20.5411 22.9712 20.5411C21.6674 20.5411 20.608 19.5741 20.608 18.2846V18.1234C20.5265 16.834 21.5859 15.7057 22.8897 15.6251C23.5417 15.6251 24.1936 15.9475 24.6011 16.431V14.8192C24.1121 14.4969 23.4602 14.4163 22.8897 14.4163C20.7709 14.2551 19.1411 15.9475 19.1411 18.0428ZM16.615 17.1563C15.8 16.834 15.5556 16.6728 15.5556 16.2699C15.6371 15.7863 16.0445 15.3834 16.5335 15.4639C16.9409 15.4639 17.3484 15.7057 17.6743 16.0281L18.4078 15.061C17.8373 14.5775 17.1039 14.2551 16.3705 14.2551C15.2296 14.1745 14.2517 15.061 14.1702 16.1893V16.2699C14.1702 17.2369 14.5777 17.8011 15.8815 18.204C16.2075 18.2846 16.5335 18.4458 16.8594 18.607C17.1039 18.7682 17.2669 19.0099 17.2669 19.3323C17.2669 19.8964 16.7779 20.38 16.289 20.38H16.2075C15.5556 20.38 14.9851 19.977 14.7406 19.4129L13.8442 20.2994C14.3332 21.1859 15.3111 21.6694 16.289 21.6694C17.5929 21.75 18.6522 20.7829 18.7337 19.4935V19.2517C18.6522 18.2846 18.2448 17.8011 16.615 17.1563ZM11.8887 21.5888H13.274V14.4163H11.8887V21.5888ZM5.45117 14.4165H7.48846H7.89592C9.85172 14.4971 11.4001 16.1089 11.3186 18.0431C11.3186 19.0907 10.8296 20.0578 10.0147 20.7831C9.28128 21.3473 8.38487 21.6696 7.48846 21.5891H5.45117V14.4165ZM7.24437 20.3803C7.89631 20.4609 8.62973 20.2191 9.11868 19.8161C9.60763 19.3326 9.85211 18.6879 9.85211 17.9625C9.85211 17.3178 9.60763 16.6731 9.11868 16.1896C8.62973 15.7866 7.89631 15.5448 7.24437 15.6254H6.83691V20.3803H7.24437Z" fill="black"/>
<path fill-rule="evenodd" clip-rule="evenodd" d="M28.7564 14.25C26.7191 14.25 25.0078 15.8618 25.0078 17.9572C25.0078 19.9719 26.6376 21.6643 28.7564 21.7449C30.8752 21.8255 32.5051 20.1331 32.5865 18.0377C32.5051 15.9424 30.8752 14.25 28.7564 14.25V14.25Z" fill="#FD6020"/>
</svg>
