<svg width="82" height="33" viewBox="0 0 82 33" fill="none" xmlns="http://www.w3.org/2000/svg">
<path d="M39.2367 16.578V25.958H36.2402V2.79355H44.1875C45.1361 2.77387 46.0792 2.94095 46.9625 3.28514C47.8458 3.62933 48.6516 4.14383 49.3336 4.79893C50.0225 5.41426 50.5707 6.16889 50.9415 7.01211C51.3123 7.85533 51.497 8.76761 51.4833 9.68762C51.503 10.6125 51.3211 11.5308 50.9501 12.3794C50.579 13.228 50.0276 13.9869 49.3336 14.604C47.9439 15.92 46.2285 16.5774 44.1875 16.5761H39.2367V16.578ZM39.2367 5.64544V13.7316H44.2619C44.8128 13.7479 45.3611 13.6497 45.8716 13.4435C46.3821 13.2372 46.8437 12.9275 47.2268 12.534C47.6078 12.166 47.9108 11.726 48.1176 11.2398C48.3244 10.7536 48.431 10.2311 48.431 9.70333C48.431 9.17552 48.3244 8.65307 48.1176 8.16688C47.9108 7.68068 47.6078 7.24061 47.2268 6.87269C46.8485 6.47089 46.3885 6.15352 45.8774 5.94162C45.3662 5.72972 44.8156 5.62814 44.2619 5.64359H39.2367V5.64544Z" fill="white"/>
<path d="M58.385 9.5918C60.5998 9.5918 62.3481 10.1795 63.6298 11.3551C64.9115 12.5306 65.5518 14.1423 65.5505 16.1901V25.9583H62.6843V23.7588H62.554C61.3132 25.5701 59.663 26.4758 57.6033 26.4758C55.8451 26.4758 54.3742 25.9583 53.1904 24.9232C52.6224 24.4482 52.1682 23.8532 51.861 23.1818C51.5539 22.5103 51.4014 21.7792 51.4149 21.0419C51.4149 19.4018 52.039 18.0976 53.2872 17.1291C54.5355 16.1606 56.2018 15.6751 58.2863 15.6726C60.0656 15.6726 61.531 15.9961 62.6824 16.643V15.9628C62.6858 15.4601 62.5765 14.963 62.3625 14.5074C62.1484 14.0519 61.8349 13.6493 61.4448 13.329C60.6524 12.619 59.6197 12.2317 58.5525 12.2441C56.8787 12.2441 55.5541 12.9452 54.5789 14.3474L51.9397 12.6969C53.3914 10.6268 55.5399 9.5918 58.385 9.5918ZM54.5082 21.1066C54.5061 21.4853 54.5953 21.859 54.7682 22.1966C54.941 22.5341 55.1927 22.8258 55.502 23.0472C56.1647 23.5649 56.9873 23.8392 57.8304 23.8235C59.0948 23.8214 60.3069 23.3216 61.2009 22.4336C62.1936 21.5058 62.6899 20.4171 62.6899 19.1677C61.7556 18.4284 60.4528 18.0587 58.7814 18.0587C57.5642 18.0587 56.5492 18.3502 55.7365 18.933C54.9158 19.5244 54.5082 20.2434 54.5082 21.1066Z" fill="white"/>
<path d="M82.0003 10.1084L71.9946 32.9438H68.9014L72.6144 24.9537L66.0352 10.1084H69.2922L74.0475 21.4938H74.1127L78.7377 10.1084H82.0003Z" fill="white"/>
<path d="M27.126 14.5555C27.1271 13.6486 27.0499 12.7434 26.8952 11.8496H14.2578V16.9749H21.4959C21.3478 17.7935 21.0343 18.5738 20.5743 19.2688C20.1144 19.9638 19.5175 20.5592 18.8196 21.0189V24.3458H23.1393C25.6687 22.0299 27.126 18.6051 27.126 14.5555Z" fill="#4285F4"/>
<path d="M14.2581 27.5605C17.8744 27.5605 20.9193 26.3813 23.1396 24.3482L18.8199 21.0213C17.6175 21.8308 16.069 22.2929 14.2581 22.2929C10.7628 22.2929 7.7961 19.953 6.73523 16.7998H2.28516V20.2284C3.4005 22.4324 5.11075 24.2852 7.22498 25.5799C9.33921 26.8747 11.7742 27.5603 14.2581 27.5605Z" fill="#34A853"/>
<path d="M6.73441 16.8007C6.17356 15.1484 6.17356 13.3591 6.73441 11.7069V8.27832H2.28433C1.34607 10.1324 0.857422 12.1787 0.857422 14.2538C0.857422 16.3289 1.34607 18.3752 2.28433 20.2293L6.73441 16.8007Z" fill="#FBBC04"/>
<path d="M14.2581 6.21279C16.1691 6.18179 18.0157 6.89883 19.3987 8.20893L23.2234 4.41073C20.7981 2.14858 17.5852 0.906619 14.2581 0.945209C11.7742 0.945321 9.33921 1.63102 7.22498 2.92575C5.11075 4.22048 3.4005 6.07329 2.28516 8.27732L6.73523 11.7059C7.7961 8.55271 10.7628 6.21279 14.2581 6.21279Z" fill="#EA4335"/>
</svg>
