<svg width="53" height="36" viewBox="0 0 53 36" fill="none" xmlns="http://www.w3.org/2000/svg">
<rect x="0.5" width="52.5" height="36" rx="4.5" fill="white"/>
<path fill-rule="evenodd" clip-rule="evenodd" d="M27.1251 25.7354C25.3377 27.2778 23.0192 28.209 20.4857 28.209C14.8327 28.209 10.25 23.5731 10.25 17.8545C10.25 12.1359 14.8327 7.5 20.4857 7.5C23.0192 7.5 25.3377 8.43115 27.1251 9.9736C28.9124 8.43115 31.231 7.5 33.7645 7.5C39.4175 7.5 44.0001 12.1359 44.0001 17.8545C44.0001 23.5731 39.4175 28.209 33.7645 28.209C31.231 28.209 28.9124 27.2778 27.1251 25.7354Z" fill="#ED0006"/>
<path fill-rule="evenodd" clip-rule="evenodd" d="M27.125 25.7354C29.3258 23.8362 30.7213 21.0102 30.7213 17.8545C30.7213 14.6988 29.3258 11.8728 27.125 9.9736C28.9124 8.43115 31.2309 7.5 33.7644 7.5C39.4174 7.5 44.0001 12.1359 44.0001 17.8545C44.0001 23.5731 39.4174 28.209 33.7644 28.209C31.2309 28.209 28.9124 27.2778 27.125 25.7354Z" fill="#F9A000"/>
<path fill-rule="evenodd" clip-rule="evenodd" d="M27.1236 25.7354C29.3244 23.8362 30.7198 21.0102 30.7198 17.8545C30.7198 14.6988 29.3244 11.8728 27.1236 9.97363C24.9228 11.8728 23.5273 14.6988 23.5273 17.8545C23.5273 21.0102 24.9228 23.8362 27.1236 25.7354Z" fill="#FF5E00"/>
</svg>
