<svg width="113" height="30" viewBox="0 0 113 30" fill="none" xmlns="http://www.w3.org/2000/svg">
<path d="M19.5154 1.45569C18.1049 0.486014 16.2643 0 13.9936 0H5.20276C4.50666 0 4.12208 0.348136 4.04903 1.04374L0.478006 23.4602C0.440892 23.6803 0.495975 23.8817 0.642753 24.0648C0.78869 24.2481 0.972246 24.3393 1.19208 24.3393H5.36767C6.10005 24.3393 6.5026 23.992 6.57649 23.2956L7.5653 17.2522C7.60141 16.9593 7.73022 16.7211 7.95005 16.5378C8.16971 16.3547 8.44446 16.235 8.77412 16.1802C9.10378 16.1258 9.41463 16.0983 9.70819 16.0983C10.0009 16.0983 10.3487 16.1169 10.7523 16.1533C11.1548 16.1898 11.4114 16.2078 11.5214 16.2078C14.6712 16.2078 17.1436 15.3202 18.9387 13.5431C20.7329 11.767 21.6311 9.30396 21.6311 6.1531C21.6311 3.99207 20.9252 2.42638 19.5154 1.45519V1.45569ZM14.9829 8.18667C14.7992 9.46888 14.3236 10.3109 13.5545 10.714C12.7851 11.1175 11.6863 11.3184 10.258 11.3184L8.44479 11.3731L9.37903 5.49411C9.45191 5.09156 9.68988 4.89004 10.0931 4.89004H11.1373C12.6017 4.89004 13.6646 5.10113 14.3239 5.52165C14.9829 5.94318 15.2028 6.83174 14.9829 8.18667Z" fill="#003087"/>
<path d="M112.285 0H108.22C107.816 0 107.578 0.201529 107.505 0.604749L103.934 23.4612L103.879 23.571C103.879 23.7551 103.952 23.9282 104.099 24.0931C104.245 24.2577 104.429 24.3402 104.648 24.3402H108.275C108.97 24.3402 109.355 23.9929 109.429 23.2964L113 0.824579V0.77C113 0.256947 112.761 0.000673948 112.285 0.000673948V0Z" fill="#009CDE"/>
<path d="M63.1717 8.8468C63.1717 8.66408 63.0982 8.48976 62.9526 8.32535C62.8056 8.1606 62.6407 8.07764 62.458 8.07764H58.2275C57.8237 8.07764 57.4941 8.2617 57.2381 8.62696L51.4144 17.1984L48.9969 8.95696C48.8128 8.37136 48.4105 8.07764 47.7882 8.07764H43.6669C43.4833 8.07764 43.3186 8.16026 43.173 8.32535C43.026 8.48976 42.9531 8.66441 42.9531 8.8468C42.9531 8.92052 43.3103 10.0007 44.0244 12.0885C44.7385 14.177 45.5076 16.4297 46.3319 18.8474C47.1561 21.2645 47.5862 22.5472 47.623 22.6925C44.6192 26.7956 43.118 28.9932 43.118 29.2858C43.118 29.7624 43.3557 30.0002 43.8323 30.0002H48.0628C48.4655 30.0002 48.795 29.8175 49.052 29.451L63.0626 9.23121C63.1353 9.15866 63.1717 9.03102 63.1717 8.84663V8.8468Z" fill="#003087"/>
<path d="M102.559 8.07745H98.3829C97.8695 8.07745 97.5594 8.68203 97.4494 9.89103C96.4958 8.42626 94.7572 7.69287 92.2293 7.69287C89.5922 7.69287 87.3484 8.68203 85.4991 10.66C83.6491 12.638 82.7246 14.9646 82.7246 17.6382C82.7246 19.7998 83.3564 21.5212 84.6198 22.8027C85.8835 24.0856 87.5773 24.7258 89.7025 24.7258C90.7645 24.7258 91.845 24.5056 92.9438 24.0665C94.0426 23.627 94.9026 23.0412 95.5265 22.3083C95.5265 22.3451 95.489 22.5093 95.4167 22.8022C95.3426 23.0958 95.3065 23.3163 95.3065 23.4615C95.3065 24.0483 95.544 24.3405 96.0209 24.3405H99.8122C100.507 24.3405 100.911 23.9932 101.02 23.2968L103.273 8.95645C103.309 8.73645 103.255 8.53542 103.108 8.35203C102.961 8.16931 102.778 8.07745 102.559 8.07745ZM95.3888 18.9018C94.4547 19.8176 93.3282 20.2752 92.0098 20.2752C90.9471 20.2752 90.0871 19.9827 89.4274 19.3962C88.7678 18.8115 88.4381 18.0055 88.4381 16.9787C88.4381 15.6245 88.8961 14.4788 89.8122 13.5449C90.7266 12.6108 91.8632 12.1439 93.2184 12.1439C94.2431 12.1439 95.0949 12.4461 95.7732 13.0501C96.4501 13.6547 96.79 14.488 96.79 15.5506C96.7897 16.8691 96.3227 17.9865 95.3888 18.9018Z" fill="#009CDE"/>
<path d="M40.1491 8.07745H35.9733C35.4598 8.07745 35.1491 8.68203 35.0391 9.89103C34.0501 8.42626 32.3101 7.69287 29.8195 7.69287C27.1822 7.69287 24.9384 8.68203 23.0889 10.66C21.2389 12.638 20.3145 14.9646 20.3145 17.6382C20.3145 19.7998 20.9464 21.5212 22.2101 22.8027C23.4738 24.0856 25.1675 24.7258 27.2922 24.7258C28.3173 24.7258 29.3802 24.5056 30.4788 24.0665C31.5776 23.627 32.4568 23.0412 33.1161 22.3083C32.9691 22.7475 32.8962 23.1322 32.8962 23.4615C32.8962 24.0483 33.1342 24.3405 33.6105 24.3405H37.4015C38.0969 24.3405 38.5003 23.9932 38.6103 23.2968L40.8628 8.95645C40.8989 8.73645 40.8442 8.53542 40.6981 8.35203C40.5515 8.16931 40.3686 8.07745 40.1491 8.07745ZM32.979 18.929C32.0448 19.8275 30.8997 20.2752 29.5452 20.2752C28.4824 20.2752 27.6308 19.9827 26.9903 19.3962C26.3489 18.8115 26.0287 18.0055 26.0287 16.9787C26.0287 15.6245 26.4863 14.4788 27.4024 13.5449C28.3175 12.6108 29.453 12.1438 30.8088 12.1438C31.8339 12.1438 32.6855 12.4461 33.3638 13.0501C34.0409 13.6547 34.3801 14.488 34.3801 15.5506C34.38 16.9059 33.9131 18.0326 32.979 18.929Z" fill="#003087"/>
<path d="M81.9239 1.45569C80.5135 0.486014 78.6735 0 76.4023 0H67.6662C66.9335 0 66.5303 0.348136 66.4576 1.04374L62.8862 23.4602C62.8491 23.6803 62.9042 23.8817 63.0511 24.0648C63.1964 24.2481 63.3804 24.3393 63.6003 24.3393H68.1054C68.5448 24.3393 68.8377 24.1015 68.9847 23.6253L69.9737 17.2522C70.0101 16.9593 70.1382 16.7211 70.3584 16.5378C70.5782 16.3547 70.8526 16.235 71.1826 16.1802C71.5119 16.1258 71.8228 16.0983 72.1165 16.0983C72.4094 16.0983 72.757 16.1169 73.1603 16.1533C73.563 16.1898 73.8202 16.2078 73.9294 16.2078C77.0799 16.2078 79.5518 15.3202 81.3468 13.5431C83.1418 11.767 84.039 9.30396 84.039 6.1531C84.0392 3.99207 83.3337 2.42621 81.9239 1.45519V1.45569ZM76.2924 10.494C75.4865 11.0433 74.2775 11.3179 72.6664 11.3179L70.9079 11.373L71.842 5.49377C71.9145 5.09139 72.1526 4.88953 72.556 4.88953H73.5447C74.3506 4.88953 74.9914 4.92631 75.4684 4.99936C75.9436 5.07292 76.4023 5.30148 76.8418 5.6859C77.2816 6.07064 77.5011 6.62954 77.5011 7.36176C77.5011 8.90075 77.0977 9.94415 76.2924 10.494Z" fill="#009CDE"/>
</svg>
