<svg width="53" height="36" viewBox="0 0 53 36" fill="none" xmlns="http://www.w3.org/2000/svg">
<rect width="52.5" height="36" rx="4.5" fill="white"/>
<path fill-rule="evenodd" clip-rule="evenodd" d="M15.9379 24.3872H12.7574L10.3724 15.2884C10.2592 14.8699 10.0189 14.4999 9.66531 14.3255C8.78297 13.8872 7.81068 13.5384 6.75 13.3625V13.0122H11.8735C12.5806 13.0122 13.111 13.5384 13.1994 14.1496L14.4368 20.7128L17.6157 13.0122H20.7078L15.9379 24.3872ZM22.4759 24.3872H19.4722L21.9455 13.0122H24.9492L22.4759 24.3872ZM28.8353 16.1636C28.9237 15.5509 29.4541 15.2006 30.0728 15.2006C31.0451 15.1127 32.1042 15.2886 32.9881 15.7253L33.5184 13.2762C32.6345 12.9259 31.6623 12.75 30.7799 12.75C27.8646 12.75 25.7432 14.3256 25.7432 16.5124C25.7432 18.1759 27.2459 19.0494 28.3065 19.5756C29.4541 20.1003 29.896 20.4506 29.8076 20.9753C29.8076 21.7624 28.9237 22.1127 28.0414 22.1127C26.9807 22.1127 25.92 21.8503 24.9493 21.4121L24.4189 23.8627C25.4796 24.2994 26.6271 24.4753 27.6878 24.4753C30.9567 24.5618 32.9881 22.9877 32.9881 20.625C32.9881 17.6497 28.8353 17.4753 28.8353 16.1636ZM43.4995 24.3872L41.1145 13.0122H38.5528C38.0224 13.0122 37.4921 13.3625 37.3153 13.8872L32.8989 24.3872H35.991L36.6082 22.7252H40.4074L40.761 24.3872H43.4995ZM38.9958 16.0756L39.8782 20.3626H37.4048L38.9958 16.0756Z" fill="#172B85"/>
</svg>
