<?xml version="1.0" encoding="utf-8"?>
<!-- Generator: Adobe Illustrator 27.3.1, SVG Export Plug-In . SVG Version: 6.00 Build 0)  -->
<svg version="1.1" id="Layer_1" xmlns="http://www.w3.org/2000/svg" xmlns:xlink="http://www.w3.org/1999/xlink" x="0px" y="0px"
	 viewBox="0 0 3000 2000" style="enable-background:new 0 0 3000 2000;" xml:space="preserve">
<style type="text/css">
	.st0{fill:#FFFFFF;}
</style>

<g>
	<polygon class="st0" points="1212.5,827.1 1120.2,1040.1 1140.8,827.1 1073.5,827.1 1061.4,1114.2 1140.4,1114.2 1279.8,827.1 	"/>
	<polygon class="st0" points="1348,874.5 1436.4,874.5 1448.9,827.1 1360.5,827.1 1321.2,827.1 1295.5,827.1 1219.8,1114.2 
		1245.5,1114.2 1284.8,1114.2 1376.8,1114.2 1389.3,1066.8 1297.3,1066.8 1317,991.9 1392.4,991.9 1404.9,944.5 1329.5,944.5 	"/>
	<polygon class="st0" points="1549.3,827.1 1484.8,827.1 1409.1,1114.2 1433,1114.2 1473.6,1114.2 1556.2,1114.2 1568.7,1066.8 
		1486.1,1066.8 	"/>
	<path class="st0" d="M1809.4,840.5c-6.4-8.9-19.8-13.3-40.3-13.3h-34.7h-25.7c-20.5,0-36.3,4.4-47.5,13.3
		c-11.2,8.9-18.9,21.1-23,36.8l-26.3,99.7h0l-23,87.1c-4.1,15.7-2.9,27.9,3.6,36.8c6.5,8.9,20,13.3,40.5,13.3h24.8h9h26.6
		c20.5,0,36.2-4.4,47.3-13.3c11.1-8.9,18.7-21.1,22.8-36.8l23-87.1h0l26.3-99.7C1816.9,861.6,1815.8,849.3,1809.4,840.5z
		 M1746,885.8l-21.2,80.3l0,0l-23.6,89.4c-1,3.9-2.6,6.8-4.7,8.6c-2.1,1.8-5.5,2.7-10,2.7h-7.2h-9h-5.4c-4.5,0-7.4-0.9-8.8-2.7
		c-1.3-1.8-1.5-4.7-0.4-8.6l23.9-90.7l0,0h0l20.8-79c1.1-4.2,2.8-7.1,5-8.8c2.2-1.7,5.6-2.5,10.1-2.5h14.9l0,0h6.8
		c4.5,0,7.4,0.8,8.6,2.5C1747,878.7,1747.1,881.6,1746,885.8z"/>
	<path class="st0" d="M1908,1058.6c-1.1,4.2-2.7,7.2-4.8,8.8c-2.1,1.7-5.4,2.5-9.9,2.5h-6.8l0,0h-11.7c-4.5,0-7.5-0.8-8.8-2.5
		c-1.4-1.6-1.5-4.6-0.4-8.8l46.4-176c1.1-4.2,2.8-7.1,5-8.8c2.2-1.7,5.6-2.5,10.1-2.5h5.4v0h13.1c4.5,0,7.4,0.8,8.6,2.5
		c1.2,1.7,1.3,4.6,0.2,8.8l-11.9,45.1h65l13.3-50.5c4.1-15.6,2.9-27.9-3.6-36.8c-6.5-8.9-20-13.3-40.5-13.3H1952v0H1919
		c-20.5,0-36.3,4.4-47.5,13.3c-11.2,8.9-18.9,21.1-23,36.8l-49.4,187.3c-4,15.3-2.8,27.5,3.7,36.3c6.5,8.9,20,13.3,40.5,13.3h25.3
		l0,0h32.5c20.5,0,36.3-4.4,47.5-13.3c11.2-8.9,18.8-21,22.9-36.3l13.1-49.6h-65L1908,1058.6z"/>
	<polygon class="st0" points="1991.4,1114.2 2055.9,1114.2 2131.6,827.1 2067.1,827.1 	"/>
	<polygon class="st0" points="2144.5,874.5 2196.8,874.5 2133.6,1114.2 2198.2,1114.2 2261.4,874.5 2314.2,874.5 2326.7,827.1 
		2157,827.1 	"/>
	<polygon class="st0" points="2361.4,1023 2408.9,932.4 2406.8,827.1 2340.4,827.1 2361.9,1021.2 	"/>
	<polygon class="st0" points="2480.8,827.1 2418.2,945.6 2345,1085.2 2337.4,1114.2 2401.9,1114.2 2426.3,1021.8 2546.7,827.1 	"/>
</g>
<g>
	<path class="st0" d="M660.5,884.5l-81.6,383.2l240.4-440.5h-35.9H672.7h-40v17.4l0,0h0h0.6C638,844.6,667.4,846.6,660.5,884.5
		C660.5,884.5,660.5,884.5,660.5,884.5z"/>
	<path class="st0" d="M854.2,827.1H842l-251.4,440.5l353-383.2c0,0,0,0,0,0c34.4-35.2,56.3-39.5,63.1-39.9h2.2v-17.4h-12.5
		L854.2,827.1L854.2,827.1z"/>
</g>
<g>
	<polygon class="st0" points="1096,1216.6 1093.9,1158 1061.3,1158 1031.9,1267.7 1058.6,1267.7 1077.1,1198.3 1078.4,1243.9 
		1098.9,1243.9 1124.9,1198 1106.2,1267.7 1132.7,1267.7 1162.1,1158 1129.4,1158 	"/>
	<path class="st0" d="M1165.1,1267.7h29.4l8-16.4h26.2l-0.9,16.4h30.1l1.2-109.6h-36.4L1165.1,1267.7z M1229.9,1230.1h-17.1
		l19.2-39.4L1229.9,1230.1z"/>
	<path class="st0" d="M1370.4,1158h-20.8h-20h-9.9l-29.4,109.6h29.9l10.4-38.9h1.9l6.9,38.9h32.1l-9.4-40.1c4.1-1,7.5-2.5,10.2-4.7
		c4.9-3.9,8.1-9,9.8-15.4l7.6-28.3c1.7-6.4,1.2-11.5-1.6-15.4C1385.5,1160,1379.5,1158,1370.4,1158z M1355.6,1179.4
		c1.5,0,2.5,0.3,3,0.9c0.5,0.6,0.6,1.6,0.3,2.8l-5.8,21.5c-0.3,1.3-0.9,2.2-1.8,2.8c-0.9,0.6-2,0.9-3.5,0.9h-11.8l7.8-29H1355.6z"/>
	<polygon class="st0" points="1483.5,1158 1448.8,1211.6 1454.3,1267.7 1486.4,1267.7 1479.9,1211.6 1515.6,1158 	"/>
	<polygon class="st0" points="1433.1,1158 1403.7,1267.7 1433.6,1267.7 1463,1158 	"/>
	<polygon class="st0" points="1559.8,1158 1549.2,1158 1519.8,1267.7 1530.4,1267.7 1549.7,1267.7 1587.1,1267.7 1592.9,1246.3 
		1555.5,1246.3 1561.7,1223.1 1592.6,1223.1 1598.3,1201.7 1567.4,1201.7 1573.4,1179.4 1609.3,1179.4 1615,1158 1579.1,1158 	"/>
	<polygon class="st0" points="1639.8,1179.4 1660.8,1179.4 1637.2,1267.7 1667.1,1267.7 1690.7,1179.4 1711.9,1179.4 1717.6,1158 
		1645.5,1158 	"/>
	<path class="st0" d="M1815.3,1163.8c-2.7-3.9-8.6-5.8-17.7-5.8h-23.4c-9.1,0-16.1,1.9-20.9,5.8c-4.8,3.9-8,9-9.8,15.4l-6,22.5
		c-1.7,6.4-1.5,11.6,0.7,15.5c2.2,4,7.7,6,16.6,6h16.4c1.5,0,2.5,0.3,3,0.9c0.5,0.6,0.6,1.6,0.3,2.8l-4.2,15.5
		c-0.3,1.3-0.9,2.2-1.8,2.8c-0.9,0.6-2,0.9-3.5,0.9h-5c-1.5,0-2.5-0.3-3-0.9c-0.5-0.6-0.6-1.6-0.3-2.8l2.5-9.2h-29.9l-3.5,13.2
		c-1.7,6.4-1.2,11.5,1.6,15.4c2.8,3.9,8.7,5.8,17.8,5.8h23.2c9.1,0,16.1-1.9,20.9-5.8c4.8-3.9,8-9,9.8-15.4l6-22.5
		c1.7-6.4,1.4-11.4-1-15.2c-2.4-3.8-8-5.6-16.8-5.6h-16.1c-1.5,0-2.5-0.3-3-0.9c-0.5-0.6-0.6-1.6-0.3-2.8l4.3-16.2
		c0.3-1.3,0.9-2.2,1.8-2.8c0.9-0.6,2-0.9,3.5-0.9h5c1.5,0,2.5,0.3,3,0.9c0.5,0.6,0.6,1.6,0.3,2.8l-2.5,9.2h29.9l3.5-13.1
		C1818.5,1172.8,1818,1167.7,1815.3,1163.8z"/>
</g>
</svg>
